<svg xmlns="http://www.w3.org/2000/svg" viewBox="0 0 21.76 19.59"><defs><style>.cls-1{fill:#e72d35;}.cls-2{fill:#656464;}</style></defs><g id="图层_2" data-name="图层 2"><g id="图层_1-2" data-name="图层 1"><path class="cls-1" d="M17.14,3.68a7,7,0,0,1-1.31-.19,18,18,0,0,1-3.18-1.2L12,2a14.39,14.39,0,0,0-3.45-1l-.19,0A7.21,7.21,0,0,0,7.16.76c0,.19,0,.54,0,.66a10.45,10.45,0,0,1-1,3.09,21.1,21.1,0,0,0-2,5.63l0,.24a9,9,0,0,0-.16,1.16,9.49,9.49,0,0,1,1.84.2,17.43,17.43,0,0,1,2.7.93l.29.12.91.36c.26.1.54.19.8.27l.36.12a6.09,6.09,0,0,0,.73.21l.29.08a14.25,14.25,0,0,0,2.87.44v-.22a2.61,2.61,0,0,1,0-.28,7.7,7.7,0,0,1,.19-1.35,10.34,10.34,0,0,1,.73-2.13c.09-.19.17-.38.25-.57l.18-.4c.1-.21.18-.41.27-.61l.16-.35c.11-.27.22-.54.32-.82a16.58,16.58,0,0,0,1-3.86h-.64Zm-10,0a.61.61,0,0,1,.53-.42,1,1,0,0,1,.45.08.59.59,0,0,1,.06,1,.5.5,0,0,1-.24.12A.62.62,0,0,1,7.1,3.65ZM8,8.43a1.63,1.63,0,0,1-.3.07.59.59,0,0,1-.39-.18c0-.09-.13-.15-.1-.26,0-.93,0-1.86,0-2.79,0-.3.21-.47.58-.52.17-.07.28,0,.4.14.29.2.18.83.18,1.12V7.49C8.34,7.89,8.34,8.22,8,8.43Zm1.24,2.25H9v-.6H8.42v.6H8.26V9.43h.16v.51H9V9.43h.17Zm.72,0c-.29,0-.45-.12-.45-.5s.16-.51.45-.51.45.12.45.51S10.22,10.7,9.93,10.7Zm1.13,0H11c-.21,0-.29,0-.29-.3V9.84h-.15V9.71h.15V9.48h.15v.23h.25v.13h-.25v.54c0,.15,0,.18.15.18h.1Zm1-.48-.66,0c0,.22.07.31.31.31a.7.7,0,0,0,.3-.06v.14a.8.8,0,0,1-.33.06c-.28,0-.45-.12-.45-.5s.17-.51.45-.51.39.22.39.41C12,10.13,12,10.17,12,10.21Zm-.37-3.63c-.25.52-.52,1-.79,1.53-.16.3-.36.33-.69.3A.81.81,0,0,1,9.75,8a1.3,1.3,0,0,1-.08-.17c-.28-.57-.55-1.13-.82-1.7a1.41,1.41,0,0,1-.28-.92.51.51,0,0,1,.65-.4,1.43,1.43,0,0,1,.63.72,6.6,6.6,0,0,1,.47,1l.39-.72c.22-.42.38-.93.9-1a.51.51,0,0,1,.57.44C12.24,5.66,11.86,6.18,11.66,6.58Zm1,4.1h-.1c-.14,0-.22-.06-.22-.2V9.31h.16v1.14c0,.09,0,.11.09.11h.07Zm.43,0a1.17,1.17,0,0,1-.29,0v-.13a1.27,1.27,0,0,0,.29,0c.14,0,.22,0,.22-.15s0-.14-.22-.18-.27-.12-.27-.29.12-.26.35-.26a1.42,1.42,0,0,1,.25,0l0,.14a.5.5,0,0,0-.23,0c-.14,0-.2,0-.2.14s0,.12.18.15.31.12.31.3S13.29,10.69,13.05,10.69Zm2.76-4.82a3.92,3.92,0,0,0-1,1.16c0,.1,0,.2,0,.3a2.87,2.87,0,0,1-.07.67.55.55,0,0,1-.6.44.5.5,0,0,1-.5-.41c0-.28,0-.55,0-.82s-.2-.45-.4-.67c-.34-.39-1.24-1.08-.68-1.65a.58.58,0,0,1,.76-.06,7.66,7.66,0,0,1,.91,1c.24-.29.53-.59.79-.91A.62.62,0,0,1,16,5,.7.7,0,0,1,15.81,5.87Z"/><path class="cls-1" d="M9.93,9.82c-.22,0-.29.09-.29.38a.44.44,0,0,0,.07.29c0,.06.11.08.22.08s.29-.09.29-.37S10.14,9.82,9.93,9.82Z"/><path class="cls-1" d="M11.65,9.82c-.23,0-.28.12-.28.32l.51,0C11.88,10,11.86,9.82,11.65,9.82Z"/><path class="cls-1" d="M17.26,13.05A8.92,8.92,0,0,1,17,11.56a12.25,12.25,0,0,1,.06-2.5c0-.2.05-.4.07-.59a18.53,18.53,0,0,0,1.24-5.2,8.11,8.11,0,0,1-1,0q-.07-1-.24-2c-.24.06-.49.15-.75.21a7.23,7.23,0,0,1-1.45.2A16.69,16.69,0,0,1,12.4,1.5,14.33,14.33,0,0,0,6.51,0c0,.38,0,.75-.08,1.1H6.27a12.69,12.69,0,0,0-1.59.23,3.29,3.29,0,0,1,.18.78,11.31,11.31,0,0,1,0,3.58v0A18.12,18.12,0,0,0,3.38,12.1c.43.05.82.11,1.18.17,0,0,0,.05,0,.08A15.88,15.88,0,0,0,4.85,14a9.92,9.92,0,0,1,2.09-.35,14.54,14.54,0,0,1,2.38.09,15.54,15.54,0,0,0,6.23,1.39A4.35,4.35,0,0,1,15.4,14a16.13,16.13,0,0,0,2-.32v0h0C17.39,13.44,17.31,13.24,17.26,13.05Zm-.7-4.65-.16.35-.27.61L16,9.77c-.08.18-.17.37-.25.56A10.67,10.67,0,0,0,15,12.45a7.48,7.48,0,0,0-.18,1.32,2.72,2.72,0,0,0,0,.28,1,1,0,0,1,0,.25.08.08,0,0,1-.09.08,13.32,13.32,0,0,1-2.92-.45l-.29-.07c-.24-.06-.5-.13-.74-.21l-.36-.12c-.26-.09-.54-.17-.8-.28l-.91-.36-.29-.12a16.31,16.31,0,0,0-2.69-.92,9,9,0,0,0-1.88-.2l0,0s0,0,0,0a9.84,9.84,0,0,1,.16-1.23l0-.24A21.13,21.13,0,0,1,6,4.47,10,10,0,0,0,7,1.4,5.36,5.36,0,0,0,7,.7a.08.08,0,0,1,0,0h.05A8.27,8.27,0,0,1,8.34.8l.2,0a15.16,15.16,0,0,1,3.47,1l.69.31a18.93,18.93,0,0,0,3.16,1.2,6.84,6.84,0,0,0,1.29.17h.69s0,0,.05,0,0,0,0,0a16.18,16.18,0,0,1-1,4C16.78,7.86,16.67,8.13,16.56,8.4Z"/><rect class="cls-2" y="16.75" width="0.84" height="2.84"/><polygon class="cls-2" points="6.11 16.75 5.54 17.7 4.98 16.75 4.14 16.75 5.09 18.35 5.09 19.59 5.99 19.59 5.99 18.35 6 18.35 6.95 16.75 6.11 16.75"/><polygon class="cls-2" points="3.12 16.75 2.52 18.42 1.91 16.75 1.06 16.75 2.1 19.59 2.94 19.59 3.96 16.75 3.12 16.75"/><polygon class="cls-2" points="10.75 16.75 10.75 17.79 9.69 17.79 9.69 16.75 8.84 16.75 8.84 19.59 9.69 19.59 9.69 18.47 10.75 18.47 10.75 19.59 11.6 19.59 11.6 16.75 10.75 16.75"/><polygon class="cls-2" points="16.91 16.75 14.82 16.75 14.82 17.43 15.44 17.43 15.44 19.59 16.29 19.59 16.29 17.43 16.91 17.43 16.91 16.75"/><polygon class="cls-2" points="19.31 17.43 19.31 16.75 17.28 16.75 17.28 19.59 19.31 19.59 19.31 18.91 18.12 18.91 18.12 18.51 19.31 18.51 19.31 17.84 18.12 17.84 18.12 17.43 19.31 17.43"/><path class="cls-2" d="M13.35,16.76a1.42,1.42,0,1,0,1.37,1.41A1.39,1.39,0,0,0,13.35,16.76Zm0,2.11a.7.7,0,0,1,0-1.4.7.7,0,0,1,0,1.4Z"/><polygon class="cls-2" points="20.58 18.91 20.58 16.75 19.74 16.75 19.74 19.59 21.76 19.59 21.76 18.91 20.58 18.91"/></g></g></svg>