<svg xmlns="http://www.w3.org/2000/svg" viewBox="0 0 35.29 8.48"><defs><style>.cls-1{fill:#3e3a39;}.cls-2{fill:#f39800;}.cls-3{fill:#f7f8f8;}</style></defs><g id="图层_2" data-name="图层 2"><g id="图层_1-2" data-name="图层 1"><path class="cls-1" d="M26.23,1.53a7,7,0,0,1-1.69,2.86L24.09,4A6.08,6.08,0,0,0,25.7,1.32Zm2.84,5-.53.23c-.09-.19-.16-.38-.25-.56-1,.16-2.19.28-3.47.36L24.72,6c.42-.14,1-1,1.78-2.74l.55.19A15.56,15.56,0,0,1,25.59,6c.85-.06,1.68-.15,2.47-.27a9,9,0,0,0-.62-1.08L28,4.49A12.38,12.38,0,0,1,29.07,6.55Zm.51-2.61-.4.46a5.86,5.86,0,0,1-1.82-2.85l.49-.28A5.48,5.48,0,0,0,29.58,3.94Z"/><path class="cls-1" d="M35.29,2.81h-.54V2.12H30.88v.69h-.54V1.64h2.14a2.64,2.64,0,0,0-.23-.35l.59-.1a4.75,4.75,0,0,1,.22.45h2.23Zm-.75-.42V4.34H33.09v.31h2V6.19a.5.5,0,0,1-.57.57h-.76l-.13-.47h.19c0-.1-.07-.21-.1-.3q-.78.13-2.34.24l-.07-.5c.43,0,.83,0,1.19-.06V5.12H31V6.79h-.53V4.65h2V4.34H31.12V2.39Zm-2,.78V2.83h-.9v.34Zm0,.4h-.9V3.9h.9Zm.5,2.06.55,0-.15-.3.43-.15a6.1,6.1,0,0,1,.44,1l-.44.19.54,0c.13,0,.19-.08.19-.23v-1H33.05Zm0-2.46H34V2.83h-.92Zm.92.4h-.92V3.9H34Z"/><rect class="cls-2" width="22.62" height="8.48"/><path class="cls-3" d="M1.78,7.17V1.66h.89V6.37h2v.8Z"/><path class="cls-3" d="M5.42,7.17V1.66h.89V7.17Z"/><path class="cls-3" d="M8.44,4.7V7.17H7.6V1.66H9a4.65,4.65,0,0,1,.88.06,1.52,1.52,0,0,1,.5.22,1.23,1.23,0,0,1,.4.52,1.64,1.64,0,0,1,.15.71,1.73,1.73,0,0,1-.15.73,1.23,1.23,0,0,1-.4.52,1.33,1.33,0,0,1-.5.21A4.47,4.47,0,0,1,9,4.7H8.44ZM8.5,4h.23a2,2,0,0,0,1-.16A.62.62,0,0,0,10,3.23a.68.68,0,0,0-.27-.62,1.74,1.74,0,0,0-1-.18H8.5Z"/><path class="cls-3" d="M12.54,4.7V7.17H11.7V1.66h1.36a4.77,4.77,0,0,1,.89.06,1.47,1.47,0,0,1,.49.22,1.34,1.34,0,0,1,.41.52,1.8,1.8,0,0,1,.14.71,1.9,1.9,0,0,1-.14.73,1.34,1.34,0,0,1-.41.52,1.28,1.28,0,0,1-.49.21,4.58,4.58,0,0,1-.89.07h-.52ZM12.6,4h.23a2,2,0,0,0,1-.16.62.62,0,0,0,.25-.57.7.7,0,0,0-.26-.62,1.8,1.8,0,0,0-1-.18H12.6Z"/><path class="cls-3" d="M21.46,4.42a3,3,0,0,1-.22,1.12,3,3,0,0,1-.64.93,3.32,3.32,0,0,1-1,.63,3.07,3.07,0,0,1-1.13.22,3.11,3.11,0,0,1-1.13-.22,3.07,3.07,0,0,1-1-.63,3,3,0,0,1-.64-.93,2.87,2.87,0,0,1,.64-3.17,3,3,0,0,1,1-.62,2.88,2.88,0,0,1,1.13-.22,2.85,2.85,0,0,1,1.13.22,3,3,0,0,1,1,.62,2.89,2.89,0,0,1,.86,2.05Zm-.94,0a2.13,2.13,0,0,0-.15-.79A2.11,2.11,0,0,0,19.93,3a2.06,2.06,0,0,0-.64-.45,2.08,2.08,0,0,0-.78-.15,2,2,0,0,0-.77.15,1.9,1.9,0,0,0-.65.45,2,2,0,0,0-.44.67,2.09,2.09,0,0,0-.15.79,2.06,2.06,0,0,0,.15.79,2.11,2.11,0,0,0,.44.67,1.81,1.81,0,0,0,.65.45,2.05,2.05,0,0,0,1.54,0,1.9,1.9,0,0,0,.65-.45,2.05,2.05,0,0,0,.59-1.46Z"/></g></g></svg>