<svg xmlns="http://www.w3.org/2000/svg" viewBox="0 0 36.82 46.23"><defs><style>.cls-1{fill:#002856;}</style></defs><g id="图层_2" data-name="图层 2"><g id="图层_1-2" data-name="图层 1"><path class="cls-1" d="M17.23,10.36a.41.41,0,0,0-.05.09l-.45.75c-.05.09-.09.15-.1.18S16.9,10.92,17.23,10.36Z"/><path class="cls-1" d="M26.4,22.93c-4.4-1.74-8.14-6.74-9.48-8.46-.41.77-.83,1.47-1.15,2.21a2.38,2.38,0,0,0-.1,2.45,3.26,3.26,0,0,1-.72-.08,1.56,1.56,0,0,1-1-1.25,3.41,3.41,0,0,1,.44-2.42c.74-1.34,1.48-2.67,2.26-4l.11-.19c.14-.23.38-.65.64-1.1h0c.31-.51.63-1.06.83-1.42a1,1,0,0,1-.08.11l.28-.49h0a1,1,0,0,0,.05-.45.83.83,0,0,0-.9-.64A5.48,5.48,0,0,0,16,7.56a10.54,10.54,0,0,0-3.89,3,7.64,7.64,0,0,0-1.64,2.61,2.73,2.73,0,0,0,0,1.89,1.35,1.35,0,0,0,1.24.9,1.67,1.67,0,0,0,1.63-.79,3.2,3.2,0,0,0,.17-.43,1,1,0,0,1-.33,1.18A3.15,3.15,0,0,1,9,15.45a3.08,3.08,0,0,1-.47-1.79,6.21,6.21,0,0,1,2.33-3.74,11.67,11.67,0,0,1,5.51-3A5.36,5.36,0,0,1,18,6.75a1.92,1.92,0,0,1,1.66,2.56,13.68,13.68,0,0,1-1.05,2.31c-.29.58-.67,1.12-1,1.69.59.16,4.84-1.73,6.27-4.53a1.26,1.26,0,0,0,.05-1.19c-.45-.89-3.52-.23-3.77-.29s.18-.23.25-.26c1.26-.61,4.91-.84,5.12,1.5a2,2,0,0,1-.41,1.35,8.59,8.59,0,0,1-2.92,2.51A21,21,0,0,1,18,14.15c.18.18,4.77,4.45,8.19,5.58a12.61,12.61,0,0,0,3.12.77A13.25,13.25,0,1,0,27,23.14C26.79,23.08,26.59,23,26.4,22.93Z"/><path class="cls-1" d="M10.15,44h.45v.95H12V44h.45v2.28H12v-1H10.6v1h-.45Z"/><path class="cls-1" d="M16,44.27a1.24,1.24,0,0,1,0,1.64,1.23,1.23,0,0,1-.89.32,1.21,1.21,0,0,1-.89-.32,1.24,1.24,0,0,1,0-1.64,1.18,1.18,0,0,1,.89-.33A1.19,1.19,0,0,1,16,44.27Zm-1.49.22a1,1,0,0,0,0,1.2.78.78,0,0,0,.6.22.8.8,0,0,0,.59-.21,1,1,0,0,0,0-1.22.76.76,0,0,0-.59-.22A.81.81,0,0,0,14.46,44.49Z"/><path class="cls-1" d="M17.67,44h2.26v.32H19v2h-.46v-2h-.9Z"/><path class="cls-1" d="M21.34,44h2v.32H21.79v.63h1.44v.32H21.79v.69h1.53v.32h-2Z"/><path class="cls-1" d="M24.73,44h.45v2h1.49v.32H24.73Z"/><rect class="cls-1" x="29.23" y="44.99" width="7.59" height="0.2"/><rect class="cls-1" y="44.99" width="7.58" height="0.2"/><path class="cls-1" d="M7,40.12c-.55-.63-2.08-3-2.08-3a2.39,2.39,0,0,0,1.8-2.81,2.42,2.42,0,0,0-2.36-1.78l-1.58-.08H0v.64H.73s.42,0,.42.72v6.26a.56.56,0,0,1-.57.6H0v.62H3.87v-.62H3.22s-.47,0-.49-.64c0-.24,0-1.37,0-2.69h.54L6,41.33H8.43v-.59A2.14,2.14,0,0,1,7,40.12ZM2.72,36.6c0-1.15,0-2.34,0-3.14a2,2,0,0,1,1.67.22,1.62,1.62,0,0,1,.31,2.19A2.16,2.16,0,0,1,2.72,36.6Z"/><path class="cls-1" d="M13,33.15h.82v-.66H9.91v.66h.82c.4,0,.33.2.34.58s0,6.39,0,6.39.09.55-.58.6H9.91v.61h3.87v-.61h-.59c-.66,0-.58-.6-.58-.6s0-6,0-6.39S12.56,33.15,13,33.15Z"/><path class="cls-1" d="M36,33.15h.82v-.66H33v.66h.82c.4,0,.33.2.35.58s0,6.39,0,6.39.08.55-.58.6H33v.61h3.87v-.61h-.59c-.66,0-.58-.6-.58-.6s0-6,0-6.39S35.6,33.15,36,33.15Z"/><path class="cls-1" d="M16,35l.22-2.5h6.56l-5.33,8h3.11a1.27,1.27,0,0,0,1.16-.72,9.91,9.91,0,0,0,.43-1.1h.59l-.47,2.7h-7v-.51l5-7.43H17.81s-.78,0-1,.57l-.25,1Z"/><path class="cls-1" d="M24.21,34.85l.13-2.36h7l.15,2.36h-.61l-.17-.76a1,1,0,0,0-1-.64H28.6v6.74s0,.52.59.5h.56v.64H25.87v-.61h.62a.54.54,0,0,0,.54-.59c0-.59,0-6.68,0-6.68H25.8a.9.9,0,0,0-.83.68c-.14.66-.14.72-.14.72Z"/></g></g></svg>