<svg xmlns="http://www.w3.org/2000/svg" viewBox="0 0 33.44 17.72"><defs><style>.cls-1{fill:#002e28;}</style></defs><g id="图层_2" data-name="图层 2"><g id="图层_1-2" data-name="图层 1"><path class="cls-1" d="M32.33,1.22c0-.33-.4-.94-1.37-.94H29.05V5a1.23,1.23,0,0,0,.48,1H28.06V1a1.22,1.22,0,0,0-.48-1h3.69c.31,0,2.11,0,2.11,1.33,0,.93-.88,1.65-1.93,2.24l2,2.4H32.31L30.66,4l-1.27.62V4.23C32.6,2.6,32.33,1.48,32.33,1.22Z"/><path class="cls-1" d="M25.78.63A.76.76,0,0,1,26,0H24.87a35.63,35.63,0,0,1,.3,4A1.79,1.79,0,1,1,21.6,4a35.63,35.63,0,0,1,.3-4H20.73A.76.76,0,0,1,21,.63c0,1.58-.43,1.76-.43,3.28,0,2.06,1.93,2.18,2.83,2.18S26.21,6,26.21,3.91C26.21,2.39,25.78,2.21,25.78.63Z"/><path class="cls-1" d="M3.41,2.8,4.87.64A2.05,2.05,0,0,1,5.54,0h-1a.6.6,0,0,1,0,.58l-1.38,2L1.39,0H0A3.2,3.2,0,0,1,.86.86l1.56,2.3V5a1.23,1.23,0,0,1-.48,1h2a1.2,1.2,0,0,1-.48-1Z"/><path class="cls-1" d="M17,2.8,18.47.64A2.12,2.12,0,0,1,19.13,0h-1a.55.55,0,0,1,0,.58l-1.37,2L15,0H13.6a3.31,3.31,0,0,1,.85.86L16,3.16V5a1.23,1.23,0,0,1-.48,1h1.95A1.21,1.21,0,0,1,17,5Z"/><path class="cls-1" d="M13,6,10.22,0H8.41a1.17,1.17,0,0,1,.12,1.18L6.29,6h1a1.91,1.91,0,0,1,.13-1.31L9.35.56,11,4H8.29l-.16.33h3L11.87,6Z"/><polygon class="cls-1" points="12.37 8.53 12.37 9.14 11.37 9.14 11.37 8.53 11.08 8.53 11.08 10.07 11.37 10.07 11.37 9.4 12.37 9.4 12.37 10.07 12.67 10.07 12.67 8.53 12.37 8.53"/><polygon class="cls-1" points="16.07 8.78 16.82 8.78 16.82 10.07 17.12 10.07 17.12 8.78 17.87 8.78 17.87 8.53 16.07 8.53 16.07 8.78"/><polygon class="cls-1" points="18.67 10.07 20.08 10.07 20.08 9.81 18.97 9.81 18.97 9.4 20.06 9.4 20.06 9.16 18.97 9.16 18.97 8.78 20.08 8.78 20.08 8.53 18.67 8.53 18.67 10.07"/><polygon class="cls-1" points="21.29 9.81 21.29 8.53 20.99 8.53 20.99 10.07 22.37 10.07 22.37 9.81 21.29 9.81"/><path class="cls-1" d="M15.37,8.87A.79.79,0,0,0,15,8.59a1.19,1.19,0,0,0-.51-.1,1.13,1.13,0,0,0-.51.1.74.74,0,0,0-.46.71.76.76,0,0,0,.12.42A.73.73,0,0,0,14,10a1.13,1.13,0,0,0,.51.1A1.19,1.19,0,0,0,15,10a.79.79,0,0,0,.34-.28.73.73,0,0,0,.11-.42A.77.77,0,0,0,15.37,8.87Zm-.27.71a.43.43,0,0,1-.23.19.78.78,0,0,1-.35.07.75.75,0,0,1-.35-.07.5.5,0,0,1-.24-.19.51.51,0,0,1-.08-.28A.55.55,0,0,1,13.93,9a.5.5,0,0,1,.24-.19.91.91,0,0,1,.7,0A.43.43,0,0,1,15.1,9a.48.48,0,0,1,.09.29A.45.45,0,0,1,15.1,9.58Z"/><path class="cls-1" d="M9.4,16.91c.34,0,.4,0,.48-.1a.22.22,0,0,1,.36,0c.1.14,0,.31-.12.31H5.44c-.07,0-.1,0-.1-.11s0-.12.1-.12H6.93V13.42h-1c-.08,0-.12,0-.12-.1s0-.12.12-.12H9c.3,0,.37,0,.44-.1a.22.22,0,0,1,.36,0c.1.15,0,.3-.13.3H8.58v3.49ZM5.72,14.28c-.07-.14,0-.17.11-.08a2.44,2.44,0,0,1,.87,1.1c.09.24,0,.39-.07.46s-.25,0-.32-.21A7.05,7.05,0,0,0,5.72,14.28Zm1.69-.86v3.49H8.1V13.42Zm2.52,1A4.5,4.5,0,0,1,8.7,15.81c-.07.06-.12,0-.07-.09a10.4,10.4,0,0,0,.72-1.31,1.58,1.58,0,0,0,.09-.26c0-.08,0-.1.13-.08a1.68,1.68,0,0,1,.33.16A.1.1,0,0,1,9.93,14.39Z"/><path class="cls-1" d="M11.74,13.85A4.61,4.61,0,0,1,11.27,15c-.11.18-.07.29.09.31s.27-.07.38-.28a1.84,1.84,0,0,0,.13-1.21C11.85,13.72,11.78,13.71,11.74,13.85Z"/><path class="cls-1" d="M13.94,13.63c.06.14.19.14.31,0a.22.22,0,0,0,0-.31,1.21,1.21,0,0,0-.69-.51c-.1,0-.14,0-.08.08A4.4,4.4,0,0,1,13.94,13.63Z"/><path class="cls-1" d="M15.54,13c0-.05,0-.1,0-.14a1,1,0,0,0-.28-.13c-.09,0-.11,0-.13.06A1.05,1.05,0,0,1,15,13c-.12.28-.29.54-.46.87h.17A4.06,4.06,0,0,0,15.54,13Z"/><path class="cls-1" d="M13.24,14.5a.25.25,0,0,0,0-.34,1.07,1.07,0,0,0-.65-.48h0V13c0-.08,0-.12-.09-.13l-.22,0c-.08,0-.13,0-.13.09v4.41c0,.14,0,.19.09.19a.68.68,0,0,0,.26,0c.07,0,.09-.06.09-.18V13.82a4.33,4.33,0,0,1,.36.6A.17.17,0,0,0,13.24,14.5Z"/><path class="cls-1" d="M16.4,17c-.07,0-.09-.07-.09-.38,0-.11-.08-.12-.1,0s-.05.23-.08.34-.06.11-.2.12a5.09,5.09,0,0,1-.68,0c-.17,0-.23-.07-.23-.23V15.49c0-.05,0-.08,0-.09h.63c.08,0,.1,0,.07-.13a.26.26,0,0,0,0-.08v-1a.72.72,0,0,1,0-.22c0-.08,0-.11-.05-.15l-.2-.08h-.08a.1.1,0,0,0-.07,0,.38.38,0,0,1-.24.07H13.76l0,0-.23-.05c-.08,0-.1,0-.1.05v1.62c0,.09,0,.09.08.09a1,1,0,0,0,.25,0c.06,0,.08-.1.08-.1h.07v.11a2.52,2.52,0,0,1-1.12,2c-.09.07-.08.12,0,.07a2.18,2.18,0,0,0,1.5-2v-.08a.17.17,0,0,0,0-.12h.35v1.41c0,.37.18.56.6.59a4.36,4.36,0,0,0,.81,0,.5.5,0,0,0,.41-.18C16.51,17.11,16.5,17,16.4,17Zm-2.6-1.78V14h1.43v1.15Z"/><path class="cls-1" d="M18.75,15.16a8.56,8.56,0,0,1-.91,2c-.06.1-.1.12-.2.08a1.06,1.06,0,0,1-.31-.14c-.09-.07-.09-.1,0-.16l.2-.2c.29-.35.64-1,1.11-1.67C18.7,15,18.8,15,18.75,15.16Zm-1.36-.88a1.25,1.25,0,0,1,.9.16.31.31,0,0,1,.13.39.23.23,0,0,1-.38.06,4.89,4.89,0,0,0-.69-.48C17.26,14.34,17.28,14.3,17.39,14.28Zm.34-1a1,1,0,0,1,.83.14.29.29,0,0,1,.11.37.21.21,0,0,1-.35.06,4.3,4.3,0,0,0-.62-.45C17.6,13.34,17.63,13.3,17.73,13.28Zm3.79-.11c.22,0,.27,0,.33-.08a.17.17,0,0,1,.3,0c.08.13,0,.27-.11.27H20.91a.17.17,0,0,1,0,.08V14h.34a.42.42,0,0,0,.26-.07.15.15,0,0,1,.09,0h.06a.76.76,0,0,1,.24.11c.07,0,.08.08,0,.16a.43.43,0,0,0-.06.24v2.77c0,.13,0,.16-.11.19a.5.5,0,0,1-.24,0c-.08,0-.11,0-.11-.15v-.09H19.32v.19c0,.11,0,.14-.09.16a1,1,0,0,1-.26,0s-.08,0-.08-.16V14c0-.06,0-.08.11-.07a.9.9,0,0,1,.22.06h.58v-.66h-.94c-.06,0-.09,0-.09-.09s0-.11.09-.11Zm-.09,2.58h-.34c-.38,0-.55-.16-.55-.59v-.95h-.36a1.88,1.88,0,0,1-.86,1.8v1h2.11Zm-2.11.12a2.59,2.59,0,0,0,.48-1.66h-.48Zm1.32.39c.1,0,.15,0,.19-.07a.15.15,0,0,1,.26,0c.08.12,0,.25-.09.25H19.75c-.05,0-.08,0-.08-.09s0-.11.08-.11Zm-.1-2.89h-.37a.09.09,0,0,1,0,.05V14h.36Zm.38.84v.95c0,.2.06.26.18.26a1.72,1.72,0,0,0,.33,0V14.21Z"/><path class="cls-1" d="M27.64,14.41c-.06.07-.11.08-.27.08H26.31V14c0-.06,0-.08-.1-.09l-.23,0c-.07,0-.12,0-.12.07v1.63h-.62L25,15.5c-.09,0-.12,0-.12.06v1.9c0,.09,0,.12.09.12l.26,0c.07,0,.09,0,.09-.13v-.12h2.23c.09,0,.1,0,.07-.13l0,0V15.94a.85.85,0,0,1,0-.22c0-.08,0-.11-.05-.15a.77.77,0,0,0-.19-.08h-.06a.12.12,0,0,0-.1,0,.41.41,0,0,1-.25.07h-.68v-.88h1.52c.13,0,.18-.13.1-.26A.17.17,0,0,0,27.64,14.41Zm-.48,1.36V17.1H25.32V15.77Z"/><path class="cls-1" d="M26.22,13.39a.24.24,0,0,0,.05-.33.8.8,0,0,0-.63-.33c-.1,0-.13,0-.08.09a3.75,3.75,0,0,1,.33.52l0,.06h.28Z"/><path class="cls-1" d="M28.06,13.32a.17.17,0,0,0-.31,0c-.06.07-.12.09-.36.09H24.46l-.05,0a1.14,1.14,0,0,0-.23-.05c-.07,0-.11,0-.11.12V14a5.85,5.85,0,0,1-.88,3.59c-.07.1,0,.14.08.05.95-.76,1.26-1.88,1.26-3.53V13.6H28C28.1,13.6,28.15,13.46,28.06,13.32Z"/></g></g></svg>