<svg xmlns="http://www.w3.org/2000/svg" xmlns:xlink="http://www.w3.org/1999/xlink" viewBox="0 0 28.67 23.49"><defs><style>.cls-1{fill:none;}.cls-2{isolation:isolate;}.cls-3{fill:#a71f24;}.cls-4{fill:#f6b48e;}.cls-5{opacity:0.3;mix-blend-mode:multiply;}.cls-6{clip-path:url(#clip-path);}.cls-7{fill:#fff;}</style><clipPath id="clip-path" transform="translate(0 0.85)"><path id="SVGID" class="cls-1" d="M21.23,7.12A4.19,4.19,0,0,1,18.48,11l-.16.06-.06.16a4.18,4.18,0,0,1-7.85,0l-.06-.16L10.18,11a4.18,4.18,0,0,1,0-7.85l.17-.06L10.41,3a4.18,4.18,0,0,1,7.85,0l.06.17.16.06A4.19,4.19,0,0,1,21.23,7.12Z"/></clipPath></defs><g class="cls-2"><g id="图层_2" data-name="图层 2"><g id="图层_1-2" data-name="图层 1"><path class="cls-3" d="M14.33,14.12a4.29,4.29,0,0,1-4-2.82l-.06-.16h-.1a4.28,4.28,0,0,1,0-8L10.31,3v-.1a4.28,4.28,0,0,1,8,0l.06.16h.1a4.28,4.28,0,0,1,0,8.05l-.16.06v.1A4.31,4.31,0,0,1,14.33,14.12Z" transform="translate(0 0.85)"/><path class="cls-4" d="M14.33.22A4.2,4.2,0,0,1,18.26,3l.06.17.16.06a4.18,4.18,0,0,1,0,7.85l-.16.06-.06.16a4.18,4.18,0,0,1-7.85,0l-.06-.16L10.18,11a4.18,4.18,0,0,1,0-7.85l.17-.06L10.41,3A4.19,4.19,0,0,1,14.33.22m0-.22A4.43,4.43,0,0,0,10.2,2.89l0,.07-.07,0a4.39,4.39,0,0,0,0,8.25l.07,0,0,.07a4.4,4.4,0,0,0,8.26,0l0-.07.07,0a4.39,4.39,0,0,0,0-8.25l-.07,0,0-.07A4.41,4.41,0,0,0,14.33,0Z" transform="translate(0 0.85)"/><path class="cls-1" d="M21.23,7.12A4.19,4.19,0,0,1,18.48,11l-.16.06-.06.16a4.18,4.18,0,0,1-7.85,0l-.06-.16L10.18,11a4.18,4.18,0,0,1,0-7.85l.17-.06L10.41,3a4.18,4.18,0,0,1,7.85,0l.06.17.16.06A4.19,4.19,0,0,1,21.23,7.12Z" transform="translate(0 0.85)"/><g class="cls-5"><g class="cls-6"><path class="cls-3" d="M11.05,1.05h0a3.74,3.74,0,0,0-6.51,0h0l-.06.12h.13a.75.75,0,0,0,.07-.12h0a3.61,3.61,0,0,1,6.21,0h0a.75.75,0,0,1,.07.12h.14Z" transform="translate(0 0.85)"/><path class="cls-3" d="M10.33,1.1h0a3.11,3.11,0,0,0-5.07,0h0l-.08.11.13,0a1,1,0,0,0,.08-.11h0a3,3,0,0,1,4.81,0h0a.44.44,0,0,0,.08.11l.13,0Z" transform="translate(0 0.85)"/><path class="cls-3" d="M9.67,1.27h0a2.49,2.49,0,0,0-3.75,0h0a.76.76,0,0,1-.08.11l.12,0,.09-.1h0a2.34,2.34,0,0,1,3.49,0h0l.09.1.12,0A.76.76,0,0,1,9.67,1.27Z" transform="translate(0 0.85)"/><path class="cls-3" d="M9.07,1.56h0a1.84,1.84,0,0,0-1.28-.51,1.82,1.82,0,0,0-1.27.51h0l-.09.09.11.06.09-.09h0A1.73,1.73,0,0,1,9,1.62H9l.09.09.1-.06Z" transform="translate(0 0.85)"/><path class="cls-3" d="M8.63,2l-.09-.08h0a1.24,1.24,0,0,0-1.49,0h0L7,2l.09.08L7.15,2h0A1.1,1.1,0,0,1,8.44,2h0l.1.08Z" transform="translate(0 0.85)"/><path class="cls-3" d="M8.08,2.39h0a.55.55,0,0,0-.29-.08.54.54,0,0,0-.28.08h0l-.1.07.07.09.1-.07h0a.54.54,0,0,1,.21,0,.54.54,0,0,1,.22,0H8l.1.07.07-.09Z" transform="translate(0 0.85)"/><path class="cls-3" d="M17.51,1.05h0a3.74,3.74,0,0,0-6.51,0h0a.75.75,0,0,1-.07.12h.14a.75.75,0,0,0,.07-.12h0a3.62,3.62,0,0,1,6.22,0h0a.75.75,0,0,1,.07.12h.14Z" transform="translate(0 0.85)"/><path class="cls-3" d="M16.79,1.1h0a3.11,3.11,0,0,0-5.07,0h0l-.08.11.13,0a1,1,0,0,0,.08-.11h0a3,3,0,0,1,4.81,0h0a.44.44,0,0,0,.08.11l.13,0Z" transform="translate(0 0.85)"/><path class="cls-3" d="M16.13,1.27h0A2.46,2.46,0,0,0,14.25.42a2.5,2.5,0,0,0-1.87.85h0l-.08.11.12,0,.08-.1h0A2.37,2.37,0,0,1,14.25.54,2.33,2.33,0,0,1,16,1.32h0l.09.1.12,0A.76.76,0,0,1,16.13,1.27Z" transform="translate(0 0.85)"/><path class="cls-3" d="M15.53,1.56h0a1.84,1.84,0,0,0-1.28-.51A1.82,1.82,0,0,0,13,1.56h0l-.09.09.11.06.09-.09h0a1.73,1.73,0,0,1,2.33,0h0l.09.09.1-.06Z" transform="translate(0 0.85)"/><path class="cls-3" d="M15.09,2,15,1.93h0a1.23,1.23,0,0,0-.75-.25,1.2,1.2,0,0,0-.74.25h0L13.42,2l.09.08.1-.08h0A1.1,1.1,0,0,1,14.9,2h0l.1.08Z" transform="translate(0 0.85)"/><path class="cls-3" d="M14.54,2.39h0a.55.55,0,0,0-.29-.08.54.54,0,0,0-.28.08h0l-.1.07.07.09.1-.07h0a.54.54,0,0,1,.21,0,.46.46,0,0,1,.21,0h0l.11.07.07-.09Z" transform="translate(0 0.85)"/><path class="cls-3" d="M24,1.05h0a3.73,3.73,0,0,0-6.5,0h0a.75.75,0,0,1-.07.12h.14a.75.75,0,0,0,.07-.12h0a3.62,3.62,0,0,1,6.22,0h0a.75.75,0,0,1,.07.12H24A.75.75,0,0,0,24,1.05Z" transform="translate(0 0.85)"/><path class="cls-3" d="M23.25,1.1h0a3.11,3.11,0,0,0-5.07,0h0l-.08.11.13,0a1,1,0,0,0,.08-.11h0a3,3,0,0,1,4.81,0h0l.07.11.14,0Z" transform="translate(0 0.85)"/><path class="cls-3" d="M22.58,1.27h0A2.46,2.46,0,0,0,20.71.42a2.5,2.5,0,0,0-1.87.85h0l-.08.11.12,0,.08-.1h0A2.37,2.37,0,0,1,20.71.54a2.33,2.33,0,0,1,1.75.78h0l.09.1.12,0Z" transform="translate(0 0.85)"/><path class="cls-3" d="M22,1.56h0a1.84,1.84,0,0,0-2.54,0h0l-.09.09.11.06.09-.09h0a1.71,1.71,0,0,1,1.16-.45,1.74,1.74,0,0,1,1.17.45h0l.09.09.1-.06Z" transform="translate(0 0.85)"/><path class="cls-3" d="M21.55,2l-.1-.08h0a1.18,1.18,0,0,0-.74-.25,1.2,1.2,0,0,0-.74.25h0L19.88,2l.09.08.1-.08h0a1.1,1.1,0,0,1,1.29,0h0l.1.08Z" transform="translate(0 0.85)"/><path class="cls-3" d="M21,2.39h0a.55.55,0,0,0-.29-.08.6.6,0,0,0-.29.08h0l-.1.07.08.09.1-.07h0a.54.54,0,0,1,.21,0,.46.46,0,0,1,.21,0h0l.1.07.08-.09Z" transform="translate(0 0.85)"/><path class="cls-3" d="M7.88,2.94h0a3.75,3.75,0,0,0-6.51,0h0l-.07.13h.14a.75.75,0,0,0,.07-.12h0a3.62,3.62,0,0,1,6.22,0h0a.75.75,0,0,1,.07.12h.14Z" transform="translate(0 0.85)"/><path class="cls-3" d="M7.16,3h0A3.11,3.11,0,0,0,2.09,3h0A1,1,0,0,1,2,3.1l.13,0A1,1,0,0,1,2.22,3h0A3,3,0,0,1,7,3H7l.08.11.13,0A1,1,0,0,1,7.16,3Z" transform="translate(0 0.85)"/><path class="cls-3" d="M6.5,3.17h0a2.44,2.44,0,0,0-1.87-.86,2.47,2.47,0,0,0-1.87.86h0l-.08.1.12,0,.08-.09h0a2.38,2.38,0,0,1,1.75-.79,2.34,2.34,0,0,1,1.75.79h0l.09.09.12,0Z" transform="translate(0 0.85)"/><path class="cls-3" d="M5.9,3.45h0a1.89,1.89,0,0,0-1.28-.51,1.86,1.86,0,0,0-1.27.51h0l-.09.09a.41.41,0,0,1,.11.07.76.76,0,0,1,.09-.09h0a1.71,1.71,0,0,1,2.33,0h0l.09.08L6,3.54Z" transform="translate(0 0.85)"/><path class="cls-3" d="M5.46,3.91l-.09-.08h0a1.24,1.24,0,0,0-.75-.26,1.21,1.21,0,0,0-.74.26h0l-.09.08L3.88,4A.39.39,0,0,1,4,3.91H4a1.06,1.06,0,0,1,1.29,0h0l.1.08Z" transform="translate(0 0.85)"/><path class="cls-3" d="M4.91,4.28h0a.55.55,0,0,0-.29-.08.54.54,0,0,0-.28.08h0l-.1.07.07.1.1-.07h0a.42.42,0,0,1,.21-.06.37.37,0,0,1,.21.06h0a.41.41,0,0,1,.11.07L5,4.35Z" transform="translate(0 0.85)"/><path class="cls-3" d="M14.33,2.94h0a3.74,3.74,0,0,0-6.5,0h0l-.07.13H7.9A.75.75,0,0,0,8,2.94H8a3.62,3.62,0,0,1,6.22,0h0a.75.75,0,0,1,.07.12h.14A.54.54,0,0,0,14.33,2.94Z" transform="translate(0 0.85)"/><path class="cls-3" d="M13.62,3h0A3.11,3.11,0,0,0,8.55,3h0a1,1,0,0,1-.08.11l.13,0A1,1,0,0,1,8.68,3h0a3,3,0,0,1,4.81,0h0l.07.11.13,0Z" transform="translate(0 0.85)"/><path class="cls-3" d="M13,3.17h0a2.44,2.44,0,0,0-1.87-.86,2.47,2.47,0,0,0-1.87.86h0l-.08.1.12,0,.08-.09h0a2.38,2.38,0,0,1,1.75-.79,2.34,2.34,0,0,1,1.75.79h0l.09.09.12,0Z" transform="translate(0 0.85)"/><path class="cls-3" d="M12.35,3.45h0a1.84,1.84,0,0,0-1.27-.51,1.86,1.86,0,0,0-1.27.51h0l-.09.09.11.07a.76.76,0,0,1,.09-.09h0a1.72,1.72,0,0,1,1.16-.46,1.75,1.75,0,0,1,1.17.46h0l.09.08.1-.06A.76.76,0,0,0,12.35,3.45Z" transform="translate(0 0.85)"/><path class="cls-3" d="M11.92,3.91a.39.39,0,0,0-.1-.08h0a1.19,1.19,0,0,0-.74-.26,1.21,1.21,0,0,0-.74.26h0l-.09.08.09.08a.39.39,0,0,1,.1-.08h0a1.06,1.06,0,0,1,1.29,0h0l.1.08Z" transform="translate(0 0.85)"/><path class="cls-3" d="M11.37,4.28h0a.55.55,0,0,0-.29-.08.6.6,0,0,0-.29.08h0l-.1.07.08.1.1-.07h0a.42.42,0,0,1,.21-.06.37.37,0,0,1,.21.06h0l.1.07.08-.1Z" transform="translate(0 0.85)"/><path class="cls-3" d="M20.79,2.94h0a3.74,3.74,0,0,0-6.5,0h0s0,.08-.07.13h.14l.07-.12h0a3.62,3.62,0,0,1,6.22,0h0a.75.75,0,0,1,.07.12h.14A.54.54,0,0,0,20.79,2.94Z" transform="translate(0 0.85)"/><path class="cls-3" d="M20.08,3h0A3.11,3.11,0,0,0,15,3h0l-.08.11.13,0A1,1,0,0,1,15.14,3h0A3,3,0,0,1,20,3h0l.07.11.13,0Z" transform="translate(0 0.85)"/><path class="cls-3" d="M19.41,3.17h0a2.44,2.44,0,0,0-1.87-.86,2.47,2.47,0,0,0-1.87.86h0a.39.39,0,0,0-.08.1l.12,0,.08-.09h0a2.33,2.33,0,0,1,3.5,0h0l.09.09.12,0Z" transform="translate(0 0.85)"/><path class="cls-3" d="M18.81,3.45h0a1.84,1.84,0,0,0-2.54,0h0l-.09.09.11.07.09-.09h0a1.72,1.72,0,0,1,1.16-.46,1.7,1.7,0,0,1,1.16.46h0a.36.36,0,0,1,.09.08l.11-.06Z" transform="translate(0 0.85)"/><path class="cls-3" d="M18.38,3.91a.39.39,0,0,0-.1-.08h0a1.19,1.19,0,0,0-.74-.26,1.21,1.21,0,0,0-.74.26h0l-.09.08L16.8,4l.09-.08h0a1.08,1.08,0,0,1,.65-.22,1.06,1.06,0,0,1,.65.22h0l.1.08Z" transform="translate(0 0.85)"/><path class="cls-3" d="M17.83,4.28h0a.55.55,0,0,0-.29-.08.6.6,0,0,0-.29.08h0l-.1.07.08.1.1-.07h0a.39.39,0,0,1,.21-.06.37.37,0,0,1,.21.06h0l.1.07.08-.1Z" transform="translate(0 0.85)"/><path class="cls-3" d="M27.25,2.94h0a3.74,3.74,0,0,0-6.5,0h0s-.05.08-.07.13h.14l.07-.12h0a3.62,3.62,0,0,1,6.22,0h0l.07.12h.14A.54.54,0,0,0,27.25,2.94Z" transform="translate(0 0.85)"/><path class="cls-3" d="M26.54,3h0a3.12,3.12,0,0,0-5.08,0h0l-.07.11.13,0A1,1,0,0,1,21.6,3h0a3,3,0,0,1,4.8,0h0a.44.44,0,0,1,.08.11l.13,0Z" transform="translate(0 0.85)"/><path class="cls-3" d="M25.87,3.17h0a2.46,2.46,0,0,0-3.74,0h0a.39.39,0,0,0-.08.1l.12,0,.08-.09h0a2.33,2.33,0,0,1,3.5,0h0l.09.09.12,0Z" transform="translate(0 0.85)"/><path class="cls-3" d="M25.27,3.45h0a1.84,1.84,0,0,0-2.54,0h0l-.09.09.11.07.09-.09h0A1.72,1.72,0,0,1,24,3.06a1.7,1.7,0,0,1,1.16.46h0l.09.08.11-.06Z" transform="translate(0 0.85)"/><path class="cls-3" d="M24.84,3.91a.39.39,0,0,0-.1-.08h0A1.19,1.19,0,0,0,24,3.57a1.21,1.21,0,0,0-.74.26h0l-.09.08.09.08.09-.08h0A1.08,1.08,0,0,1,24,3.69a1.06,1.06,0,0,1,.65.22h0l.09.08Z" transform="translate(0 0.85)"/><path class="cls-3" d="M24.29,4.28h0A.57.57,0,0,0,24,4.2a.6.6,0,0,0-.29.08h0l-.1.07.08.1.1-.07h0a.4.4,0,0,1,.42,0h0l.1.07.08-.1Z" transform="translate(0 0.85)"/><path class="cls-3" d="M11.16,4.84h0a3.73,3.73,0,0,0-6.5,0h0L4.59,5h.14l.07-.13h0a3.62,3.62,0,0,1,6.22,0h0a.83.83,0,0,1,.07.13h.14A.75.75,0,0,0,11.16,4.84Z" transform="translate(0 0.85)"/><path class="cls-3" d="M10.45,4.88h0A3.12,3.12,0,0,0,7.91,3.57,3.09,3.09,0,0,0,5.38,4.89h0A.44.44,0,0,0,5.3,5l.13,0,.08-.11h0a3,3,0,0,1,4.81,0h0l.07.11.13,0Z" transform="translate(0 0.85)"/><path class="cls-3" d="M9.78,5.06h0A2.47,2.47,0,0,0,7.91,4.2,2.51,2.51,0,0,0,6,5.06H6L6,5.16l.12,0a.39.39,0,0,1,.08-.1h0a2.33,2.33,0,0,1,3.5,0h0l.09.1.12,0Z" transform="translate(0 0.85)"/><path class="cls-3" d="M9.18,5.34h0a1.84,1.84,0,0,0-2.54,0h0l-.09.09.11.07.09-.09h0A1.71,1.71,0,0,1,7.91,5a1.69,1.69,0,0,1,1.16.45h0a.38.38,0,0,1,.09.09.41.41,0,0,0,.11-.07Z" transform="translate(0 0.85)"/><path class="cls-3" d="M8.75,5.8a.39.39,0,0,0-.1-.08h0a1.19,1.19,0,0,0-.74-.26,1.21,1.21,0,0,0-.74.26h0l-.09.08.09.08.09-.08h0a1.14,1.14,0,0,1,.65-.21,1.12,1.12,0,0,1,.65.21h0l.1.08Z" transform="translate(0 0.85)"/><path class="cls-3" d="M8.2,6.17h0a.57.57,0,0,0-.29-.08.6.6,0,0,0-.29.08h0l-.1.08.08.09.1-.07h0a.5.5,0,0,1,.21,0,.46.46,0,0,1,.21,0h0l.1.07.08-.09A.39.39,0,0,0,8.2,6.17Z" transform="translate(0 0.85)"/><path class="cls-3" d="M17.62,4.84h0a3.73,3.73,0,0,0-6.5,0h0L11.05,5h.14l.07-.13h0a3.62,3.62,0,0,1,6.22,0h0l.07.13h.14A.75.75,0,0,0,17.62,4.84Z" transform="translate(0 0.85)"/><path class="cls-3" d="M16.91,4.88h0a3.11,3.11,0,0,0-5.08,0h0L11.76,5l.13,0L12,4.91h0a3,3,0,0,1,4.8,0h0a.76.76,0,0,1,.08.11L17,5Z" transform="translate(0 0.85)"/><path class="cls-3" d="M16.24,5.06h0a2.46,2.46,0,0,0-3.74,0h0l-.08.1.12,0a.39.39,0,0,1,.08-.1h0a2.33,2.33,0,0,1,3.5,0h0l.09.1.12,0Z" transform="translate(0 0.85)"/><path class="cls-3" d="M15.64,5.34h0a1.84,1.84,0,0,0-2.54,0h0L13,5.43l.11.07.09-.09h0A1.71,1.71,0,0,1,14.37,5a1.69,1.69,0,0,1,1.16.45h0l.09.09a.41.41,0,0,0,.11-.07Z" transform="translate(0 0.85)"/><path class="cls-3" d="M15.21,5.8a.39.39,0,0,0-.1-.08h0a1.18,1.18,0,0,0-1.48,0h0l-.09.08.09.08.09-.08h0a1.14,1.14,0,0,1,.65-.21A1.12,1.12,0,0,1,15,5.8h0l.09.08Z" transform="translate(0 0.85)"/><path class="cls-3" d="M14.66,6.17h0a.57.57,0,0,0-.29-.08.6.6,0,0,0-.29.08h0l-.1.08.08.09.1-.07h0a.47.47,0,0,1,.42,0h0l.1.07.08-.09A.39.39,0,0,0,14.66,6.17Z" transform="translate(0 0.85)"/><path class="cls-3" d="M24.08,4.84h0a3.73,3.73,0,0,0-6.5,0h0L17.51,5h.14l.07-.13h0a3.62,3.62,0,0,1,6.22,0h0L24,5h.14A.75.75,0,0,0,24.08,4.84Z" transform="translate(0 0.85)"/><path class="cls-3" d="M23.37,4.88h0a3.11,3.11,0,0,0-5.08,0h0L18.22,5l.13,0a.76.76,0,0,1,.08-.11h0a3,3,0,0,1,4.8,0h0a.76.76,0,0,1,.08.11l.13,0Z" transform="translate(0 0.85)"/><path class="cls-3" d="M22.7,5.06h0a2.46,2.46,0,0,0-3.74,0h0l-.08.1.12,0a.39.39,0,0,1,.08-.1h0a2.33,2.33,0,0,1,3.5,0h0l.09.1.11,0Z" transform="translate(0 0.85)"/><path class="cls-3" d="M22.1,5.34h0a1.84,1.84,0,0,0-2.54,0h0l-.09.09.11.07.09-.09h0a1.72,1.72,0,0,1,2.32,0h0l.09.09.11-.07Z" transform="translate(0 0.85)"/><path class="cls-3" d="M21.67,5.8l-.1-.08h0a1.18,1.18,0,0,0-1.48,0h0L20,5.8l.1.08.09-.08h0a1.11,1.11,0,0,1,1.3,0h0l.09.08Z" transform="translate(0 0.85)"/><path class="cls-3" d="M21.12,6.17h0a.57.57,0,0,0-.58,0h0l-.1.08.08.09.1-.07h0a.47.47,0,0,1,.42,0h0l.1.07.08-.09Z" transform="translate(0 0.85)"/><path class="cls-3" d="M27.58,6.17h0a.6.6,0,0,0-.29-.08.57.57,0,0,0-.29.08h0l-.1.08.08.09.1-.07h0a.47.47,0,0,1,.42,0h0l.1.07.08-.09Z" transform="translate(0 0.85)"/><path class="cls-3" d="M8,6.73H8a3.73,3.73,0,0,0-6.5,0h0l-.07.12h.14l.07-.12h0a3.62,3.62,0,0,1,6.22,0h0l.07.12h.14A.75.75,0,0,0,8,6.73Z" transform="translate(0 0.85)"/><path class="cls-3" d="M7.28,6.78h0a3.1,3.1,0,0,0-5.08,0h0l-.07.11.13,0,.08-.11h0a3,3,0,0,1,4.8,0h0a.76.76,0,0,1,.08.11l.13,0Z" transform="translate(0 0.85)"/><path class="cls-3" d="M6.61,7h0A2.46,2.46,0,0,0,2.87,7h0l-.08.1.12,0L3,7H3a2.35,2.35,0,0,1,3.5,0h0l.09.1.12,0Z" transform="translate(0 0.85)"/><path class="cls-3" d="M6,7.24H6a1.84,1.84,0,0,0-2.54,0h0l-.09.09.11.06.09-.09h0a1.71,1.71,0,0,1,1.16-.45A1.69,1.69,0,0,1,5.9,7.3h0L6,7.39l.11-.06Z" transform="translate(0 0.85)"/><path class="cls-3" d="M5.58,7.69l-.1-.08h0A1.22,1.22,0,0,0,4,7.61H4l-.09.08L4,7.77l.09-.08h0a1.14,1.14,0,0,1,.65-.21,1.12,1.12,0,0,1,.65.21h0l.09.08Z" transform="translate(0 0.85)"/><path class="cls-3" d="M5,8.07H5A.57.57,0,0,0,4.74,8a.6.6,0,0,0-.29.08h0l-.1.07.08.09.1-.07h0a.47.47,0,0,1,.42,0H5l.1.07.08-.09Z" transform="translate(0 0.85)"/><path class="cls-3" d="M14.45,6.73h0a3.73,3.73,0,0,0-6.5,0H8l-.07.12H8l.07-.12h0a3.62,3.62,0,0,1,6.22,0h0l.07.12h.14A.75.75,0,0,0,14.45,6.73Z" transform="translate(0 0.85)"/><path class="cls-3" d="M13.74,6.78h0a3.1,3.1,0,0,0-5.08,0h0l-.07.11.13,0A.76.76,0,0,1,8.8,6.8h0a3,3,0,0,1,4.8,0h0a.76.76,0,0,1,.08.11l.13,0Z" transform="translate(0 0.85)"/><path class="cls-3" d="M13.07,7h0A2.46,2.46,0,0,0,9.33,7h0l-.08.1.12,0L9.45,7h0A2.35,2.35,0,0,1,13,7h0l.09.1.11,0Z" transform="translate(0 0.85)"/><path class="cls-3" d="M12.47,7.24h0a1.84,1.84,0,0,0-2.54,0h0l-.09.09.11.06L10,7.3h0a1.72,1.72,0,0,1,2.32,0h0l.09.09.11-.06Z" transform="translate(0 0.85)"/><path class="cls-3" d="M12,7.69l-.1-.08h0a1.22,1.22,0,0,0-1.48,0h0l-.1.08.1.08.09-.08h0a1.11,1.11,0,0,1,1.3,0h0l.09.08Z" transform="translate(0 0.85)"/><path class="cls-3" d="M11.49,8.07h0a.57.57,0,0,0-.58,0h0l-.1.07.08.09.1-.07h0a.47.47,0,0,1,.42,0h0l.1.07.08-.09Z" transform="translate(0 0.85)"/><path class="cls-3" d="M20.91,6.73h0a3.73,3.73,0,0,0-6.5,0h0a.75.75,0,0,0-.07.12h.14l.07-.12h0a3.62,3.62,0,0,1,6.22,0h0l.07.12H21Z" transform="translate(0 0.85)"/><path class="cls-3" d="M20.2,6.78h0a3.1,3.1,0,0,0-5.08,0h0l-.07.11.13,0a.76.76,0,0,1,.08-.11h0a3,3,0,0,1,4.8,0h0a.76.76,0,0,1,.08.11l.13,0Z" transform="translate(0 0.85)"/><path class="cls-3" d="M19.53,7h0a2.46,2.46,0,0,0-3.74,0h0l-.08.1.11,0,.09-.1h0a2.35,2.35,0,0,1,3.5,0h0l.08.1.12,0Z" transform="translate(0 0.85)"/><path class="cls-3" d="M18.93,7.24h0a1.84,1.84,0,0,0-2.54,0h0l-.09.09.11.06.09-.09h0a1.72,1.72,0,0,1,2.32,0h0l.09.09L19,7.33Z" transform="translate(0 0.85)"/><path class="cls-3" d="M18.5,7.69l-.1-.08h0a1.22,1.22,0,0,0-1.48,0h0l-.1.08.1.08L17,7.69h0a1.11,1.11,0,0,1,1.3,0h0l.09.08Z" transform="translate(0 0.85)"/><path class="cls-3" d="M18,8.07h0A.6.6,0,0,0,17.66,8a.57.57,0,0,0-.29.08h0l-.1.07.08.09.1-.07h0a.47.47,0,0,1,.42,0h0l.1.07.08-.09Z" transform="translate(0 0.85)"/><path class="cls-3" d="M27.37,6.73h0a3.73,3.73,0,0,0-6.5,0h0a.75.75,0,0,0-.07.12h.14A.75.75,0,0,1,21,6.73h0a3.62,3.62,0,0,1,6.22,0h0l.07.12h.14Z" transform="translate(0 0.85)"/><path class="cls-3" d="M26.66,6.78h0a3.1,3.1,0,0,0-5.08,0h0l-.07.11.13,0a.76.76,0,0,1,.08-.11h0a3,3,0,0,1,4.8,0h0l.08.11.13,0Z" transform="translate(0 0.85)"/><path class="cls-3" d="M26,7h0a2.46,2.46,0,0,0-3.74,0h0l-.09.1.12,0,.09-.1h0a2.35,2.35,0,0,1,3.5,0h0l.08.1.12,0Z" transform="translate(0 0.85)"/><path class="cls-3" d="M25.39,7.24h0a1.84,1.84,0,0,0-2.54,0h0l-.09.09.11.06L23,7.3h0a1.69,1.69,0,0,1,1.16-.45,1.71,1.71,0,0,1,1.16.45h0l.09.09.11-.06Z" transform="translate(0 0.85)"/><path class="cls-3" d="M25,7.69l-.09-.08h0a1.2,1.2,0,0,0-.74-.25,1.18,1.18,0,0,0-.74.25h0l-.1.08.1.08.09-.08h0a1.12,1.12,0,0,1,.65-.21,1.14,1.14,0,0,1,.65.21h0l.09.08Z" transform="translate(0 0.85)"/><path class="cls-3" d="M24.41,8.07h0A.6.6,0,0,0,24.12,8a.57.57,0,0,0-.29.08h0l-.1.07.08.09.1-.07h0a.46.46,0,0,1,.21-.05.5.5,0,0,1,.21.05h0l.1.07.08-.09Z" transform="translate(0 0.85)"/><path class="cls-3" d="M11.28,8.62h0a3.74,3.74,0,0,0-6.5,0h0a.54.54,0,0,0-.07.13h.14l.07-.12h0a3.62,3.62,0,0,1,6.22,0h0l.07.12h.14C11.33,8.7,11.3,8.66,11.28,8.62Z" transform="translate(0 0.85)"/><path class="cls-3" d="M10.57,8.67h0a3.12,3.12,0,0,0-5.08,0h0l-.07.11.13,0,.08-.12h0a3,3,0,0,1,4.8,0h0a.83.83,0,0,1,.08.12l.13,0Z" transform="translate(0 0.85)"/><path class="cls-3" d="M9.9,8.85h0a2.46,2.46,0,0,0-3.74,0h0a.39.39,0,0,0-.08.1l.11,0,.09-.1h0a2.35,2.35,0,0,1,3.5,0h0l.08.1L10,9A.39.39,0,0,0,9.9,8.85Z" transform="translate(0 0.85)"/><path class="cls-3" d="M9.3,9.13h0a1.84,1.84,0,0,0-2.54,0h0l-.09.09.11.06.09-.08h0a1.69,1.69,0,0,1,2.32,0h0l.09.08.11-.06Z" transform="translate(0 0.85)"/><path class="cls-3" d="M8.87,9.58l-.1-.08h0a1.22,1.22,0,0,0-1.48,0h0l-.1.08.1.09.09-.08h0a1.07,1.07,0,0,1,1.3,0h0l.09.08Z" transform="translate(0 0.85)"/><path class="cls-3" d="M8.32,10h0A.6.6,0,0,0,8,9.88a.57.57,0,0,0-.29.08h0l-.1.07.08.1.1-.07h0a.4.4,0,0,1,.42,0h0l.1.07.08-.1Z" transform="translate(0 0.85)"/><path class="cls-3" d="M17.74,8.62h0a3.74,3.74,0,0,0-6.5,0h0a.54.54,0,0,0-.07.13h.14a.75.75,0,0,1,.07-.12h0a3.62,3.62,0,0,1,6.22,0h0l.07.12h.14C17.79,8.7,17.76,8.66,17.74,8.62Z" transform="translate(0 0.85)"/><path class="cls-3" d="M17,8.67h0a3.11,3.11,0,0,0-5.07,0h0l-.07.11.13,0a.83.83,0,0,1,.08-.12h0a3,3,0,0,1,4.8,0h0l.08.12.13,0A.76.76,0,0,0,17,8.67Z" transform="translate(0 0.85)"/><path class="cls-3" d="M16.36,8.85h0a2.46,2.46,0,0,0-3.74,0h0l-.09.1.12,0,.09-.1h0a2.35,2.35,0,0,1,3.5,0h0l.08.1.12,0A.39.39,0,0,0,16.36,8.85Z" transform="translate(0 0.85)"/><path class="cls-3" d="M15.76,9.13h0a1.84,1.84,0,0,0-2.54,0h0l-.09.09.11.06a.24.24,0,0,1,.09-.08h0a1.66,1.66,0,0,1,1.16-.46,1.68,1.68,0,0,1,1.16.46h0l.09.08.11-.06Z" transform="translate(0 0.85)"/><path class="cls-3" d="M15.32,9.58l-.09-.08h0a1.27,1.27,0,0,0-.74-.25,1.24,1.24,0,0,0-.74.25h0l-.1.08.1.09.09-.08h0a1.06,1.06,0,0,1,.65-.22,1.08,1.08,0,0,1,.65.22h0l.09.08Z" transform="translate(0 0.85)"/><path class="cls-3" d="M14.78,10h0a.6.6,0,0,0-.29-.08.57.57,0,0,0-.29.08h0l-.1.07.08.1.1-.07h0a.37.37,0,0,1,.21-.06.39.39,0,0,1,.21.06h0l.1.07.08-.1Z" transform="translate(0 0.85)"/><path class="cls-3" d="M24.2,8.62h0a3.74,3.74,0,0,0-6.5,0h0a.54.54,0,0,0-.07.13h.14a.75.75,0,0,1,.07-.12h0a3.62,3.62,0,0,1,6.22,0h0l.07.12h.14C24.25,8.7,24.22,8.66,24.2,8.62Z" transform="translate(0 0.85)"/><path class="cls-3" d="M23.48,8.67h0a3.11,3.11,0,0,0-5.07,0h0l-.07.11.13,0,.07-.12h0a3,3,0,0,1,4.81,0h0l.08.12.13,0A.76.76,0,0,0,23.48,8.67Z" transform="translate(0 0.85)"/><path class="cls-3" d="M22.82,8.85h0A2.47,2.47,0,0,0,21,8a2.44,2.44,0,0,0-1.87.86h0L19,9l.12,0,.09-.1h0a2.35,2.35,0,0,1,3.5,0h0l.08.1.12,0Z" transform="translate(0 0.85)"/><path class="cls-3" d="M22.22,9.13h0a1.84,1.84,0,0,0-2.54,0h0l-.09.09.11.06.08-.08h0A1.7,1.7,0,0,1,21,8.74a1.68,1.68,0,0,1,1.16.46h0l.09.08.11-.06Z" transform="translate(0 0.85)"/><path class="cls-3" d="M21.78,9.58l-.09-.08h0A1.27,1.27,0,0,0,21,9.25a1.24,1.24,0,0,0-.74.25h0l-.1.08.09.09.1-.08h0A1.06,1.06,0,0,1,21,9.37a1,1,0,0,1,.64.22h0a.39.39,0,0,1,.1.08Z" transform="translate(0 0.85)"/><path class="cls-3" d="M21.24,10h0A.6.6,0,0,0,21,9.88a.55.55,0,0,0-.29.08h0l-.1.07.08.1.1-.07h0A.37.37,0,0,1,21,10a.42.42,0,0,1,.21.06h0l.1.07a.39.39,0,0,1,.08-.1Z" transform="translate(0 0.85)"/><path class="cls-3" d="M8.11,10.51h0a3.74,3.74,0,0,0-6.5,0h0l-.07.13h.14a.75.75,0,0,1,.07-.12h0a3.62,3.62,0,0,1,6.22,0H8l.07.12h.14S8.13,10.56,8.11,10.51Z" transform="translate(0 0.85)"/><path class="cls-3" d="M7.39,10.56h0a3.11,3.11,0,0,0-5.07,0h0l-.07.12.13,0a.44.44,0,0,1,.08-.11h0a3,3,0,0,1,4.8,0h0a1,1,0,0,1,.08.11l.13,0Z" transform="translate(0 0.85)"/><path class="cls-3" d="M6.73,10.74h0a2.46,2.46,0,0,0-3.74,0H3l-.09.1.12,0,.09-.09h0a2.33,2.33,0,0,1,3.5,0h0l.08.09.12,0Z" transform="translate(0 0.85)"/><path class="cls-3" d="M6.13,11h0a1.84,1.84,0,0,0-2.54,0h0l-.09.09.11.07.09-.09h0a1.7,1.7,0,0,1,1.16-.46A1.72,1.72,0,0,1,6,11.09H6l.09.09.11-.07Z" transform="translate(0 0.85)"/><path class="cls-3" d="M5.69,11.48,5.6,11.4h0a1.21,1.21,0,0,0-.74-.26,1.19,1.19,0,0,0-.74.26h0a.39.39,0,0,0-.1.08l.1.08.09-.08h0a1.12,1.12,0,0,1,.65-.21,1.14,1.14,0,0,1,.65.21h0l.09.08Z" transform="translate(0 0.85)"/><path class="cls-3" d="M5.15,11.85h0a.6.6,0,0,0-.29-.08.57.57,0,0,0-.29.08h0l-.1.07.08.1.1-.07h0a.46.46,0,0,1,.21,0,.5.5,0,0,1,.21,0h0l.1.07.08-.1Z" transform="translate(0 0.85)"/><path class="cls-3" d="M14.57,10.51h0a3.74,3.74,0,0,0-6.5,0h0L8,10.64h.14a.75.75,0,0,1,.07-.12h0a3.62,3.62,0,0,1,6.22,0h0l.07.12h.14S14.59,10.56,14.57,10.51Z" transform="translate(0 0.85)"/><path class="cls-3" d="M13.85,10.56h0a3.11,3.11,0,0,0-5.07,0h0l-.07.12.13,0,.07-.11h0a3,3,0,0,1,4.81,0h0a1,1,0,0,1,.08.11l.13,0Z" transform="translate(0 0.85)"/><path class="cls-3" d="M13.19,10.74h0a2.47,2.47,0,0,0-1.87-.86,2.44,2.44,0,0,0-1.87.86h0l-.09.1.12,0,.09-.09h0a2.33,2.33,0,0,1,3.5,0h0l.08.09.12,0Z" transform="translate(0 0.85)"/><path class="cls-3" d="M12.59,11h0a1.86,1.86,0,0,0-1.27-.51,1.84,1.84,0,0,0-1.27.51h0l-.09.09.11.07.08-.09h0a1.75,1.75,0,0,1,1.17-.46,1.72,1.72,0,0,1,1.16.46h0l.09.09.11-.07Z" transform="translate(0 0.85)"/><path class="cls-3" d="M12.15,11.48l-.09-.08h0a1.21,1.21,0,0,0-.74-.26,1.19,1.19,0,0,0-.74.26h0a.39.39,0,0,0-.1.08l.09.08.1-.08h0a1.12,1.12,0,0,1,.65-.21,1.09,1.09,0,0,1,.64.21h0a.39.39,0,0,1,.1.08Z" transform="translate(0 0.85)"/><path class="cls-3" d="M11.61,11.85h0a.6.6,0,0,0-.29-.08.55.55,0,0,0-.29.08h0l-.1.07L11,12l.1-.07h0a.46.46,0,0,1,.21,0,.54.54,0,0,1,.21,0h0l.1.07.08-.1Z" transform="translate(0 0.85)"/><path class="cls-3" d="M21,10.51h0a3.75,3.75,0,0,0-6.51,0h0l-.07.13h.14a.75.75,0,0,1,.07-.12h0a3.62,3.62,0,0,1,6.22,0h0a.75.75,0,0,0,.07.12h.14A.54.54,0,0,1,21,10.51Z" transform="translate(0 0.85)"/><path class="cls-3" d="M20.31,10.56h0a3.11,3.11,0,0,0-5.07,0h0l-.08.12.14,0,.07-.11h0a3,3,0,0,1,4.81,0h0a1,1,0,0,1,.08.11l.13,0Z" transform="translate(0 0.85)"/><path class="cls-3" d="M19.65,10.74h0a2.47,2.47,0,0,0-1.87-.86,2.44,2.44,0,0,0-1.87.86h0l-.09.1.12,0,.09-.09h0A2.34,2.34,0,0,1,17.78,10a2.38,2.38,0,0,1,1.75.79h0l.08.09.12,0Z" transform="translate(0 0.85)"/><path class="cls-3" d="M19.05,11h0a1.86,1.86,0,0,0-1.27-.51,1.84,1.84,0,0,0-1.27.51h0a.76.76,0,0,0-.09.09l.1.07.09-.09h0a1.75,1.75,0,0,1,1.17-.46,1.72,1.72,0,0,1,1.16.46h0l.09.09a.41.41,0,0,1,.11-.07Z" transform="translate(0 0.85)"/><path class="cls-3" d="M18.61,11.48l-.09-.08h0a1.21,1.21,0,0,0-.74-.26,1.24,1.24,0,0,0-.75.26h0l-.09.08.09.08.1-.08h0a1.1,1.1,0,0,1,1.29,0h0a.39.39,0,0,1,.1.08Z" transform="translate(0 0.85)"/><path class="cls-3" d="M18.07,11.85h0a.6.6,0,0,0-.29-.08.55.55,0,0,0-.29.08h0l-.1.07a.39.39,0,0,0,.08.1l.1-.07h0a.46.46,0,0,1,.21,0A.54.54,0,0,1,18,12h0l.1.07.08-.1Z" transform="translate(0 0.85)"/><path class="cls-3" d="M27.49,10.51h0a3.75,3.75,0,0,0-6.51,0h0l-.06.13h.14a.75.75,0,0,1,.07-.12h0a3.62,3.62,0,0,1,6.22,0h0a.75.75,0,0,0,.07.12h.14A.54.54,0,0,1,27.49,10.51Z" transform="translate(0 0.85)"/><path class="cls-3" d="M26.77,10.56h0a3.11,3.11,0,0,0-5.07,0h0l-.08.12.13,0,.08-.11h0a3,3,0,0,1,4.81,0h0a1,1,0,0,1,.08.11l.13,0Z" transform="translate(0 0.85)"/><path class="cls-3" d="M26.11,10.74h0a2.47,2.47,0,0,0-1.87-.86,2.44,2.44,0,0,0-1.87.86h0l-.08.1.12,0,.09-.09h0A2.34,2.34,0,0,1,24.24,10a2.38,2.38,0,0,1,1.75.79h0l.08.09.12,0Z" transform="translate(0 0.85)"/><path class="cls-3" d="M25.51,11h0a1.86,1.86,0,0,0-1.27-.51A1.89,1.89,0,0,0,23,11h0l-.08.09.1.07.09-.09h0a1.71,1.71,0,0,1,2.33,0h0l.09.09a.41.41,0,0,1,.11-.07Z" transform="translate(0 0.85)"/><path class="cls-3" d="M25.07,11.48,25,11.4h0a1.21,1.21,0,0,0-.74-.26,1.24,1.24,0,0,0-.75.26h0l-.09.08.09.08.1-.08h0a1.1,1.1,0,0,1,1.29,0h0a.39.39,0,0,1,.1.08Z" transform="translate(0 0.85)"/><path class="cls-3" d="M24.52,11.85h0a.54.54,0,0,0-.28-.08.55.55,0,0,0-.29.08h0l-.1.07a.86.86,0,0,0,.07.1A.41.41,0,0,1,24,12h0a.46.46,0,0,1,.21,0,.54.54,0,0,1,.21,0h0l.1.07a.86.86,0,0,0,.07-.1Z" transform="translate(0 0.85)"/><path class="cls-3" d="M11.4,12.41h0a3.74,3.74,0,0,0-6.51,0h0a.75.75,0,0,0-.07.12H5A.75.75,0,0,1,5,12.41H5a3.61,3.61,0,0,1,6.22,0h0a.75.75,0,0,0,.07.12h.14A.75.75,0,0,1,11.4,12.41Z" transform="translate(0 0.85)"/><path class="cls-3" d="M10.68,12.46h0a3.09,3.09,0,0,0-5.07,0h0a1,1,0,0,0-.08.11l.14,0,.07-.11h0a3,3,0,0,1,4.81,0h0l.08.11.13,0A1,1,0,0,0,10.68,12.46Z" transform="translate(0 0.85)"/><path class="cls-3" d="M10,12.63h0a2.51,2.51,0,0,0-1.87-.86,2.47,2.47,0,0,0-1.87.86h0l-.09.1.12,0,.09-.1h0a2.33,2.33,0,0,1,1.75-.78,2.37,2.37,0,0,1,1.75.78h0l.08.1.12,0Z" transform="translate(0 0.85)"/><path class="cls-3" d="M9.42,12.92h0a1.81,1.81,0,0,0-2.54,0h0a.26.26,0,0,0-.09.09l.1.06L7,13H7a1.74,1.74,0,0,1,1.17-.45A1.71,1.71,0,0,1,9.31,13h0l.09.09L9.51,13Z" transform="translate(0 0.85)"/><path class="cls-3" d="M9,13.37l-.09-.08h0A1.2,1.2,0,0,0,8.15,13a1.23,1.23,0,0,0-.75.25h0l-.09.08.09.08.1-.08h0a1.1,1.1,0,0,1,1.29,0h0l.1.08Z" transform="translate(0 0.85)"/><path class="cls-3" d="M8.44,13.75h0a.6.6,0,0,0-.29-.08.55.55,0,0,0-.29.08h0l-.1.07.08.09.1-.07h0a.46.46,0,0,1,.21-.05.54.54,0,0,1,.21.05h0l.1.07.08-.09Z" transform="translate(0 0.85)"/><path class="cls-3" d="M17.86,12.41h0a3.74,3.74,0,0,0-6.51,0h0l-.06.12h.14a.75.75,0,0,1,.07-.12h0a3.61,3.61,0,0,1,6.22,0h0a.75.75,0,0,0,.07.12h.14A.75.75,0,0,1,17.86,12.41Z" transform="translate(0 0.85)"/><path class="cls-3" d="M17.14,12.46h0a3.09,3.09,0,0,0-5.07,0h0a1,1,0,0,0-.08.11l.13,0a.76.76,0,0,0,.08-.11h0a3,3,0,0,1,4.81,0h0l.08.11.13,0A1,1,0,0,0,17.14,12.46Z" transform="translate(0 0.85)"/><path class="cls-3" d="M16.48,12.63h0a2.47,2.47,0,0,0-3.75,0h0l-.08.1.12,0,.09-.1h0a2.33,2.33,0,0,1,1.75-.78,2.37,2.37,0,0,1,1.75.78h0l.08.1.12,0Z" transform="translate(0 0.85)"/><path class="cls-3" d="M15.88,12.92h0a1.83,1.83,0,0,0-1.27-.52,1.85,1.85,0,0,0-1.28.52h0a.24.24,0,0,0-.08.09l.1.06.09-.09h0a1.73,1.73,0,0,1,2.33,0h0l.09.09L16,13Z" transform="translate(0 0.85)"/><path class="cls-3" d="M15.44,13.37l-.09-.08h0a1.2,1.2,0,0,0-.74-.25,1.23,1.23,0,0,0-.75.25h0l-.09.08.09.08.1-.08h0a1.1,1.1,0,0,1,1.29,0h0l.1.08Z" transform="translate(0 0.85)"/><path class="cls-3" d="M14.89,13.75h0a.54.54,0,0,0-.28-.08.55.55,0,0,0-.29.08h0l-.1.07.07.09a.41.41,0,0,1,.11-.07h0a.46.46,0,0,1,.21-.05.54.54,0,0,1,.21.05h0l.1.07.07-.09Z" transform="translate(0 0.85)"/><path class="cls-3" d="M24.32,12.41h0a3.74,3.74,0,0,0-6.51,0h0l-.06.12h.13l.08-.12h0a3.6,3.6,0,0,1,6.21,0h0a.75.75,0,0,1,.07.12h.14Z" transform="translate(0 0.85)"/><path class="cls-3" d="M23.6,12.46h0a3.09,3.09,0,0,0-5.07,0h0a1,1,0,0,0-.08.11l.13,0a.76.76,0,0,0,.08-.11h0a3,3,0,0,1,4.81,0h0a.76.76,0,0,0,.08.11l.13,0A1,1,0,0,0,23.6,12.46Z" transform="translate(0 0.85)"/><path class="cls-3" d="M22.94,12.63h0a2.47,2.47,0,0,0-3.75,0h0l-.08.1.12,0,.09-.1h0a2.34,2.34,0,0,1,3.49,0h0l.09.1.12,0Z" transform="translate(0 0.85)"/><path class="cls-3" d="M22.34,12.92h0a1.82,1.82,0,0,0-2.55,0h0a.24.24,0,0,0-.08.09l.1.06L19.9,13h0a1.73,1.73,0,0,1,2.33,0h0l.09.09.11-.06A.38.38,0,0,0,22.34,12.92Z" transform="translate(0 0.85)"/><path class="cls-3" d="M21.9,13.37l-.09-.08h0a1.24,1.24,0,0,0-1.49,0h0l-.09.08.09.08.1-.08h0a1.1,1.1,0,0,1,1.29,0h0l.1.08Z" transform="translate(0 0.85)"/><path class="cls-3" d="M21.35,13.75h0a.54.54,0,0,0-.28-.08.55.55,0,0,0-.29.08h0l-.1.07.07.09.1-.07h0a.54.54,0,0,1,.22-.05.54.54,0,0,1,.21.05h0l.1.07.07-.09Z" transform="translate(0 0.85)"/><path class="cls-3" d="M8.23,14.3h0a3.74,3.74,0,0,0-6.51,0h0l-.06.12H1.8a.75.75,0,0,1,.07-.12h0a3.62,3.62,0,0,1,6.22,0h0a.75.75,0,0,0,.07.12H8.3A.75.75,0,0,1,8.23,14.3Z" transform="translate(0 0.85)"/><path class="cls-3" d="M7.51,14.35h0a3.11,3.11,0,0,0-5.07,0h0l-.08.11.13,0a.44.44,0,0,0,.08-.11h0a3,3,0,0,1,4.81,0h0a1,1,0,0,0,.08.11l.13,0Z" transform="translate(0 0.85)"/><path class="cls-3" d="M6.85,14.52h0a2.49,2.49,0,0,0-3.75,0h0a.76.76,0,0,1-.08.11l.12,0,.09-.1h0A2.33,2.33,0,0,1,5,13.79a2.37,2.37,0,0,1,1.75.78h0l.08.1.12,0Z" transform="translate(0 0.85)"/><path class="cls-3" d="M6.25,14.81h0A1.82,1.82,0,0,0,5,14.3a1.84,1.84,0,0,0-1.28.51h0l-.08.09.1.06.09-.09h0a1.73,1.73,0,0,1,2.33,0h0l.09.09.11-.06Z" transform="translate(0 0.85)"/><path class="cls-3" d="M5.81,15.26l-.09-.08h0A1.2,1.2,0,0,0,5,14.93a1.23,1.23,0,0,0-.75.25h0l-.09.08.09.08.1-.07h0a1.06,1.06,0,0,1,1.29,0h0l.1.07Z" transform="translate(0 0.85)"/><path class="cls-3" d="M5.26,15.64h0A.54.54,0,0,0,5,15.56a.55.55,0,0,0-.29.08h0l-.1.07.07.09a.39.39,0,0,1,.11-.06h0A.37.37,0,0,1,5,15.68a.42.42,0,0,1,.21.06h0a.3.3,0,0,1,.1.07.86.86,0,0,1,.07-.1Z" transform="translate(0 0.85)"/><path class="cls-3" d="M14.69,14.3h0a3.74,3.74,0,0,0-6.51,0h0l-.06.12h.13l.08-.12h0a3.61,3.61,0,0,1,6.21,0h0a.75.75,0,0,1,.07.12h.14Z" transform="translate(0 0.85)"/><path class="cls-3" d="M14,14.35h0a3.11,3.11,0,0,0-5.07,0h0l-.08.11.13,0A.44.44,0,0,0,9,14.37H9a3,3,0,0,1,4.81,0h0a.44.44,0,0,0,.08.11l.13,0Z" transform="translate(0 0.85)"/><path class="cls-3" d="M13.31,14.52h0a2.49,2.49,0,0,0-3.75,0h0a.76.76,0,0,1-.08.11l.12,0,.09-.1h0a2.34,2.34,0,0,1,3.49,0h0l.09.1.12,0A.76.76,0,0,1,13.31,14.52Z" transform="translate(0 0.85)"/><path class="cls-3" d="M12.71,14.81h0a1.85,1.85,0,0,0-2.55,0h0l-.08.09.1.06.09-.09h0a1.73,1.73,0,0,1,2.33,0h0l.09.09.11-.06Z" transform="translate(0 0.85)"/><path class="cls-3" d="M12.27,15.26l-.09-.08h0a1.24,1.24,0,0,0-1.49,0h0l-.09.08.09.08.1-.07h0a1.06,1.06,0,0,1,1.29,0h0l.1.07Z" transform="translate(0 0.85)"/><path class="cls-3" d="M11.72,15.64h0a.54.54,0,0,0-.28-.08.55.55,0,0,0-.29.08h0l-.1.07.07.09.1-.06h0a.43.43,0,0,1,.22-.06.42.42,0,0,1,.21.06h0a.3.3,0,0,1,.1.07.86.86,0,0,1,.07-.1Z" transform="translate(0 0.85)"/><path class="cls-3" d="M21.15,14.3h0a3.74,3.74,0,0,0-6.51,0h0a.75.75,0,0,1-.07.12h.14a.75.75,0,0,0,.07-.12h0a3.62,3.62,0,0,1,6.22,0h0a.75.75,0,0,1,.07.12h.14Z" transform="translate(0 0.85)"/><path class="cls-3" d="M20.43,14.35h0a3.11,3.11,0,0,0-5.07,0h0l-.08.11.13,0a1,1,0,0,0,.08-.11h0a3,3,0,0,1,4.81,0h0a.44.44,0,0,0,.08.11l.13,0Z" transform="translate(0 0.85)"/><path class="cls-3" d="M19.77,14.52h0a2.49,2.49,0,0,0-3.75,0h0l-.08.11.12,0,.08-.1h0a2.37,2.37,0,0,1,1.75-.78,2.33,2.33,0,0,1,1.75.78h0l.09.1.12,0A.76.76,0,0,1,19.77,14.52Z" transform="translate(0 0.85)"/><path class="cls-3" d="M19.17,14.81h0a1.84,1.84,0,0,0-1.28-.51,1.82,1.82,0,0,0-1.27.51h0l-.09.09.11.06.09-.09h0a1.73,1.73,0,0,1,2.33,0h0l.09.09.1-.06Z" transform="translate(0 0.85)"/><path class="cls-3" d="M18.73,15.26l-.09-.08h0a1.23,1.23,0,0,0-.75-.25,1.2,1.2,0,0,0-.74.25h0l-.09.08.09.08.1-.07h0a1.06,1.06,0,0,1,1.29,0h0l.1.07Z" transform="translate(0 0.85)"/><path class="cls-3" d="M18.18,15.64h0a.55.55,0,0,0-.29-.08.54.54,0,0,0-.28.08h0l-.1.07.07.09.1-.06h0a.42.42,0,0,1,.21-.06.37.37,0,0,1,.21.06h0a.26.26,0,0,1,.11.07.86.86,0,0,1,.07-.1Z" transform="translate(0 0.85)"/><path class="cls-3" d="M27.61,14.3h0a3.74,3.74,0,0,0-6.51,0h0a.75.75,0,0,1-.07.12h.14a.75.75,0,0,0,.07-.12h0a3.62,3.62,0,0,1,6.22,0h0a.75.75,0,0,1,.07.12h.14Z" transform="translate(0 0.85)"/><path class="cls-3" d="M26.89,14.35h0a3.11,3.11,0,0,0-5.07,0h0l-.08.11.13,0a1,1,0,0,0,.08-.11h0a3,3,0,0,1,4.81,0h0l.07.11.14,0Z" transform="translate(0 0.85)"/><path class="cls-3" d="M26.22,14.52h0a2.46,2.46,0,0,0-1.87-.85,2.5,2.5,0,0,0-1.87.85h0l-.08.11.12,0,.08-.1h0a2.37,2.37,0,0,1,1.75-.78,2.33,2.33,0,0,1,1.75.78h0l.09.1.12,0Z" transform="translate(0 0.85)"/><path class="cls-3" d="M25.62,14.81h0a1.84,1.84,0,0,0-2.54,0h0L23,14.9l.11.06.09-.09h0a1.73,1.73,0,0,1,2.33,0h0l.09.09.1-.06Z" transform="translate(0 0.85)"/><path class="cls-3" d="M25.19,15.26l-.09-.08h0a1.23,1.23,0,0,0-.75-.25,1.2,1.2,0,0,0-.74.25h0l-.09.08.09.08.1-.07h0a1.06,1.06,0,0,1,1.29,0h0l.1.07Z" transform="translate(0 0.85)"/><path class="cls-3" d="M24.64,15.64h0a.55.55,0,0,0-.29-.08.6.6,0,0,0-.29.08h0l-.1.07.08.09.1-.06h0a.42.42,0,0,1,.21-.06.37.37,0,0,1,.21.06h0a.34.34,0,0,1,.11.07.86.86,0,0,1,.07-.1Z" transform="translate(0 0.85)"/><path class="cls-3" d="M11.52,16.19h0a3.75,3.75,0,0,0-6.51,0H5a.83.83,0,0,1-.07.13h.14a.75.75,0,0,0,.07-.12h0a3.62,3.62,0,0,1,6.22,0h0a.75.75,0,0,1,.07.12h.14Z" transform="translate(0 0.85)"/><path class="cls-3" d="M10.8,16.24h0a3.11,3.11,0,0,0-5.07,0h0a1,1,0,0,1-.08.11l.13,0a1,1,0,0,1,.08-.11h0a3,3,0,0,1,4.81,0h0l.08.11.13,0A1,1,0,0,1,10.8,16.24Z" transform="translate(0 0.85)"/><path class="cls-3" d="M10.14,16.42h0a2.47,2.47,0,0,0-3.75,0h0l-.08.1.12,0,.08-.09h0a2.38,2.38,0,0,1,1.75-.79,2.34,2.34,0,0,1,1.75.79h0l.09.09.12,0Z" transform="translate(0 0.85)"/><path class="cls-3" d="M9.54,16.7h0a1.89,1.89,0,0,0-1.28-.51A1.86,1.86,0,0,0,7,16.7H7l-.09.09a.41.41,0,0,1,.11.07l.09-.09h0a1.71,1.71,0,0,1,2.33,0h0l.09.09.1-.07Z" transform="translate(0 0.85)"/><path class="cls-3" d="M9.1,17.16,9,17.08H9a1.24,1.24,0,0,0-.75-.26,1.21,1.21,0,0,0-.74.26h0l-.09.08.09.08a.39.39,0,0,1,.1-.08h0a1.06,1.06,0,0,1,1.29,0h0l.1.08Z" transform="translate(0 0.85)"/><path class="cls-3" d="M8.55,17.53h0a.55.55,0,0,0-.29-.08.54.54,0,0,0-.28.08H8l-.1.07.07.1.1-.07h0a.54.54,0,0,1,.21-.05.46.46,0,0,1,.21.05h0a.41.41,0,0,1,.11.07l.07-.1Z" transform="translate(0 0.85)"/><path class="cls-3" d="M18,16.19h0a3.75,3.75,0,0,0-6.51,0h0a.83.83,0,0,1-.07.13h.14a.75.75,0,0,0,.07-.12h0a3.62,3.62,0,0,1,6.22,0h0a.75.75,0,0,1,.07.12H18Z" transform="translate(0 0.85)"/><path class="cls-3" d="M17.26,16.24h0a3.11,3.11,0,0,0-5.07,0h0a1,1,0,0,1-.08.11l.13,0a1,1,0,0,1,.08-.11h0a3,3,0,0,1,4.81,0h0l.07.11.14,0A1,1,0,0,1,17.26,16.24Z" transform="translate(0 0.85)"/><path class="cls-3" d="M16.59,16.42h0a2.44,2.44,0,0,0-1.87-.86,2.47,2.47,0,0,0-1.87.86h0l-.08.1.12,0,.08-.09h0a2.38,2.38,0,0,1,1.75-.79,2.34,2.34,0,0,1,1.75.79h0l.09.09.12,0Z" transform="translate(0 0.85)"/><path class="cls-3" d="M16,16.7h0a1.89,1.89,0,0,0-1.28-.51,1.86,1.86,0,0,0-1.27.51h0l-.09.09a.41.41,0,0,1,.11.07l.09-.09h0a1.71,1.71,0,0,1,2.33,0h0l.09.09.1-.07Z" transform="translate(0 0.85)"/><path class="cls-3" d="M15.56,17.16l-.09-.08h0a1.24,1.24,0,0,0-.75-.26,1.21,1.21,0,0,0-.74.26h0l-.09.08.09.08a.39.39,0,0,1,.1-.08h0a1.06,1.06,0,0,1,1.29,0h0l.1.08Z" transform="translate(0 0.85)"/><path class="cls-3" d="M15,17.53h0a.55.55,0,0,0-.29-.08.6.6,0,0,0-.29.08h0l-.1.07.08.1.1-.07h0a.54.54,0,0,1,.21-.05.46.46,0,0,1,.21.05h0l.1.07.08-.1Z" transform="translate(0 0.85)"/><path class="cls-3" d="M24.43,16.19h0a3.74,3.74,0,0,0-6.5,0h0l-.07.13H18l.07-.12h0a3.62,3.62,0,0,1,6.22,0h0a.75.75,0,0,1,.07.12h.14A.83.83,0,0,0,24.43,16.19Z" transform="translate(0 0.85)"/><path class="cls-3" d="M23.72,16.24h0a3.11,3.11,0,0,0-5.07,0h0a1,1,0,0,1-.08.11l.13,0a1,1,0,0,1,.08-.11h0a3,3,0,0,1,4.81,0h0l.07.11.13,0Z" transform="translate(0 0.85)"/><path class="cls-3" d="M23.05,16.42h0a2.44,2.44,0,0,0-1.87-.86,2.47,2.47,0,0,0-1.87.86h0l-.08.1.12,0,.08-.09h0a2.33,2.33,0,0,1,3.5,0h0l.09.09.12,0Z" transform="translate(0 0.85)"/><path class="cls-3" d="M22.45,16.7h0a1.84,1.84,0,0,0-1.27-.51,1.86,1.86,0,0,0-1.27.51h0l-.09.09.11.07.09-.09h0a1.72,1.72,0,0,1,1.16-.46,1.75,1.75,0,0,1,1.17.46h0l.08.09.11-.07Z" transform="translate(0 0.85)"/><path class="cls-3" d="M22,17.16a.39.39,0,0,0-.1-.08h0a1.19,1.19,0,0,0-.74-.26,1.21,1.21,0,0,0-.74.26h0l-.09.08.09.08a.39.39,0,0,1,.1-.08h0a1,1,0,0,1,.64-.22,1.06,1.06,0,0,1,.65.22h0l.1.08Z" transform="translate(0 0.85)"/><path class="cls-3" d="M21.47,17.53h0a.55.55,0,0,0-.29-.08.6.6,0,0,0-.29.08h0l-.1.07.08.1.1-.07h0a.54.54,0,0,1,.21-.05.46.46,0,0,1,.21.05h0l.1.07.08-.1Z" transform="translate(0 0.85)"/><path class="cls-3" d="M8.35,18.09h0a3.74,3.74,0,0,0-6.51,0h0a.75.75,0,0,1-.07.12h.14A.83.83,0,0,0,2,18.08H2a3.62,3.62,0,0,1,6.22,0h0a.83.83,0,0,1,.07.13h.14Z" transform="translate(0 0.85)"/><path class="cls-3" d="M7.63,18.14h0a3.09,3.09,0,0,0-5.07,0h0a1,1,0,0,0-.08.11l.13,0,.08-.11h0a3,3,0,0,1,4.81,0h0l.07.11.14,0A1,1,0,0,0,7.63,18.14Z" transform="translate(0 0.85)"/><path class="cls-3" d="M7,18.31H7a2.47,2.47,0,0,0-1.87-.86,2.51,2.51,0,0,0-1.87.86h0l-.08.1.12.05.08-.1h0a2.38,2.38,0,0,1,1.75-.79,2.34,2.34,0,0,1,1.75.79h0l.09.1.12-.05Z" transform="translate(0 0.85)"/><path class="cls-3" d="M6.37,18.59h0a1.89,1.89,0,0,0-1.28-.51,1.86,1.86,0,0,0-1.27.51h0l-.09.09.11.07.09-.09h0a1.73,1.73,0,0,1,2.33,0h0l.09.09.1-.07Z" transform="translate(0 0.85)"/><path class="cls-3" d="M5.93,19.05,5.84,19h0a1.24,1.24,0,0,0-.75-.26,1.21,1.21,0,0,0-.74.26h0l-.09.08.09.08.1-.08h0a1.1,1.1,0,0,1,1.29,0h0l.1.08Z" transform="translate(0 0.85)"/><path class="cls-3" d="M5.38,19.42h0a.65.65,0,0,0-.29-.07.73.73,0,0,0-.29.07h0l-.1.08.08.09.1-.07h0a.54.54,0,0,1,.21-.05.46.46,0,0,1,.21.05h0l.1.07.08-.09A.39.39,0,0,0,5.38,19.42Z" transform="translate(0 0.85)"/><path class="cls-3" d="M14.8,18.09h0a3.73,3.73,0,0,0-6.5,0h0l-.07.12h.14l.07-.13h0a3.62,3.62,0,0,1,6.22,0h0a.83.83,0,0,1,.07.13h.14A.75.75,0,0,0,14.8,18.09Z" transform="translate(0 0.85)"/><path class="cls-3" d="M14.09,18.14h0a3.09,3.09,0,0,0-5.07,0H9a.44.44,0,0,0-.08.11l.13,0,.08-.11h0a3,3,0,0,1,4.81,0h0l.07.11.13,0Z" transform="translate(0 0.85)"/><path class="cls-3" d="M13.42,18.31h0a2.47,2.47,0,0,0-1.87-.86,2.51,2.51,0,0,0-1.87.86h0l-.08.1.12.05a.39.39,0,0,1,.08-.1h0a2.33,2.33,0,0,1,3.5,0h0l.09.1.12-.05Z" transform="translate(0 0.85)"/><path class="cls-3" d="M12.82,18.59h0a1.84,1.84,0,0,0-1.27-.51,1.86,1.86,0,0,0-1.27.51h0l-.09.09.11.07.09-.09h0a1.71,1.71,0,0,1,1.16-.45,1.74,1.74,0,0,1,1.17.45h0l.08.09a.41.41,0,0,0,.11-.07Z" transform="translate(0 0.85)"/><path class="cls-3" d="M12.39,19.05a.39.39,0,0,0-.1-.08h0a1.19,1.19,0,0,0-.74-.26,1.21,1.21,0,0,0-.74.26h0l-.09.08.09.08.1-.08h0a1.09,1.09,0,0,1,.64-.21,1.12,1.12,0,0,1,.65.21h0l.1.08Z" transform="translate(0 0.85)"/><path class="cls-3" d="M11.84,19.42h0a.65.65,0,0,0-.29-.07.73.73,0,0,0-.29.07h0l-.1.08.08.09.1-.07h0a.54.54,0,0,1,.21-.05.46.46,0,0,1,.21.05h0l.1.07.08-.09A.39.39,0,0,0,11.84,19.42Z" transform="translate(0 0.85)"/><path class="cls-3" d="M21.26,18.09h0a3.73,3.73,0,0,0-6.5,0h0l-.07.12h.14l.07-.13h0a3.62,3.62,0,0,1,6.22,0h0l.07.13h.14A.75.75,0,0,0,21.26,18.09Z" transform="translate(0 0.85)"/><path class="cls-3" d="M20.55,18.14h0a3.09,3.09,0,0,0-5.07,0h0a.44.44,0,0,0-.08.11l.13,0,.08-.11h0a3,3,0,0,1,4.8,0h0a.76.76,0,0,1,.08.11l.13,0Z" transform="translate(0 0.85)"/><path class="cls-3" d="M19.88,18.31h0a2.46,2.46,0,0,0-3.74,0h0l-.08.1.12.05a.39.39,0,0,1,.08-.1h0a2.33,2.33,0,0,1,3.5,0h0l.09.1.12-.05Z" transform="translate(0 0.85)"/><path class="cls-3" d="M19.28,18.59h0a1.84,1.84,0,0,0-2.54,0h0l-.09.09.11.07.09-.09h0A1.71,1.71,0,0,1,18,18.21a1.69,1.69,0,0,1,1.16.45h0l.09.09a.41.41,0,0,0,.11-.07Z" transform="translate(0 0.85)"/><path class="cls-3" d="M18.85,19.05a.39.39,0,0,0-.1-.08h0a1.19,1.19,0,0,0-.74-.26,1.21,1.21,0,0,0-.74.26h0l-.09.08.09.08.09-.08h0a1.14,1.14,0,0,1,.65-.21,1.12,1.12,0,0,1,.65.21h0l.09.08Z" transform="translate(0 0.85)"/><path class="cls-3" d="M18.3,19.42h0a.69.69,0,0,0-.29-.07.73.73,0,0,0-.29.07h0l-.1.08.08.09.1-.07h0a.5.5,0,0,1,.21-.05.46.46,0,0,1,.21.05h0l.1.07.08-.09A.39.39,0,0,0,18.3,19.42Z" transform="translate(0 0.85)"/><path class="cls-3" d="M27.72,18.09h0a3.73,3.73,0,0,0-6.5,0h0l-.07.12h.14l.07-.13h0a3.62,3.62,0,0,1,6.22,0h0l.07.13h.14A.75.75,0,0,0,27.72,18.09Z" transform="translate(0 0.85)"/><path class="cls-3" d="M27,18.14h0a3.1,3.1,0,0,0-5.08,0h0l-.07.11.13,0a.76.76,0,0,1,.08-.11h0a3,3,0,0,1,4.8,0h0a.76.76,0,0,1,.08.11l.13,0Z" transform="translate(0 0.85)"/><path class="cls-3" d="M26.34,18.31h0a2.46,2.46,0,0,0-3.74,0h0l-.08.1.12.05a.39.39,0,0,1,.08-.1h0a2.33,2.33,0,0,1,3.5,0h0l.09.1.11-.05Z" transform="translate(0 0.85)"/><path class="cls-3" d="M25.74,18.59h0a1.84,1.84,0,0,0-2.54,0h0l-.09.09.11.07.09-.09h0a1.72,1.72,0,0,1,2.32,0h0l.09.09.11-.07Z" transform="translate(0 0.85)"/><path class="cls-3" d="M25.31,19.05a.39.39,0,0,0-.1-.08h0a1.18,1.18,0,0,0-1.48,0h0l-.1.08.1.08.09-.08h0a1.11,1.11,0,0,1,1.3,0h0l.09.08Z" transform="translate(0 0.85)"/><path class="cls-3" d="M24.76,19.42h0a.69.69,0,0,0-.29-.07.73.73,0,0,0-.29.07h0l-.1.08.08.09.1-.07h0a.47.47,0,0,1,.42,0h0l.1.07.08-.09A.39.39,0,0,0,24.76,19.42Z" transform="translate(0 0.85)"/><path class="cls-3" d="M11.63,20h0a3.73,3.73,0,0,0-6.5,0h0l-.07.12H5.2L5.27,20h0a3.62,3.62,0,0,1,6.22,0h0l.07.12h.14A.75.75,0,0,0,11.63,20Z" transform="translate(0 0.85)"/><path class="cls-3" d="M10.92,20h0a3.09,3.09,0,0,0-5.07,0h0a.44.44,0,0,0-.08.11l.13,0A1,1,0,0,0,6,20.05H6a3,3,0,0,1,4.8,0h0l.08.11.13,0Z" transform="translate(0 0.85)"/><path class="cls-3" d="M10.25,20.2h0a2.48,2.48,0,0,0-3.74,0h0l-.08.1.12.05.08-.1h0a2.35,2.35,0,0,1,3.5,0h0l.09.1.12-.05Z" transform="translate(0 0.85)"/><path class="cls-3" d="M9.65,20.49h0a1.84,1.84,0,0,0-2.54,0h0L7,20.58l.11.06.09-.09h0a1.71,1.71,0,0,1,1.16-.45,1.69,1.69,0,0,1,1.16.45h0a.38.38,0,0,1,.09.09l.11-.06Z" transform="translate(0 0.85)"/><path class="cls-3" d="M9.22,20.94l-.1-.08h0a1.18,1.18,0,0,0-.74-.25,1.2,1.2,0,0,0-.74.25h0l-.09.08.09.08.09-.08h0a1.14,1.14,0,0,1,.65-.21,1.12,1.12,0,0,1,.65.21H9l.09.08Z" transform="translate(0 0.85)"/><path class="cls-3" d="M8.67,21.32h0a.57.57,0,0,0-.29-.08.6.6,0,0,0-.29.08h0l-.1.07.08.09.1-.07h0a.5.5,0,0,1,.21-.05.46.46,0,0,1,.21.05h0l.1.07.08-.09Z" transform="translate(0 0.85)"/><path class="cls-3" d="M18.09,20h0a3.73,3.73,0,0,0-6.5,0h0l-.07.12h.14l.07-.12h0A3.62,3.62,0,0,1,18,20h0l.07.12h.14A.75.75,0,0,0,18.09,20Z" transform="translate(0 0.85)"/><path class="cls-3" d="M17.38,20h0a3.1,3.1,0,0,0-5.08,0h0l-.07.11.13,0,.08-.11h0a3,3,0,0,1,4.8,0h0l.08.11.13,0Z" transform="translate(0 0.85)"/><path class="cls-3" d="M16.71,20.2h0a2.48,2.48,0,0,0-3.74,0h0l-.08.1.12.05.08-.1h0a2.35,2.35,0,0,1,3.5,0h0l.09.1.11-.05Z" transform="translate(0 0.85)"/><path class="cls-3" d="M16.11,20.49h0a1.84,1.84,0,0,0-2.54,0h0l-.09.09.11.06.09-.09h0a1.72,1.72,0,0,1,2.32,0h0l.09.09.11-.06Z" transform="translate(0 0.85)"/><path class="cls-3" d="M15.68,20.94l-.1-.08h0a1.22,1.22,0,0,0-1.48,0h0l-.1.08.1.08.09-.08h0a1.11,1.11,0,0,1,1.3,0h0l.09.08Z" transform="translate(0 0.85)"/><path class="cls-3" d="M15.13,21.32h0a.57.57,0,0,0-.29-.08.6.6,0,0,0-.29.08h0l-.1.07.08.09.1-.07h0a.47.47,0,0,1,.42,0h0l.1.07.08-.09Z" transform="translate(0 0.85)"/><path class="cls-3" d="M24.55,20h0a3.73,3.73,0,0,0-6.5,0h0a.75.75,0,0,0-.07.12h.14l.07-.12h0a3.62,3.62,0,0,1,6.22,0h0l.07.12h.14Z" transform="translate(0 0.85)"/><path class="cls-3" d="M23.84,20h0a3.1,3.1,0,0,0-5.08,0h0l-.07.11.13,0,.08-.11h0a3,3,0,0,1,4.8,0h0l.08.11.13,0Z" transform="translate(0 0.85)"/><path class="cls-3" d="M23.17,20.2h0a2.48,2.48,0,0,0-3.74,0h0l-.08.1.12.05.08-.1h0a2.35,2.35,0,0,1,3.5,0h0l.08.1.12-.05Z" transform="translate(0 0.85)"/><path class="cls-3" d="M22.57,20.49h0a1.84,1.84,0,0,0-2.54,0h0l-.09.09.11.06.09-.09h0a1.72,1.72,0,0,1,2.32,0h0l.09.09.11-.06Z" transform="translate(0 0.85)"/><path class="cls-3" d="M22.14,20.94l-.1-.08h0a1.22,1.22,0,0,0-1.48,0h0l-.1.08.1.08.09-.08h0a1.11,1.11,0,0,1,1.3,0h0L22,21Z" transform="translate(0 0.85)"/><path class="cls-3" d="M21.59,21.32h0a.57.57,0,0,0-.58,0h0l-.1.07.08.09.1-.07h0a.47.47,0,0,1,.42,0h0l.1.07.08-.09Z" transform="translate(0 0.85)"/></g></g><path class="cls-7" d="M14.21,5c0,.21-.18.39-.25.21.06.08.08,0,.08,0V4.86h0V4.25a.32.32,0,0,1,.22-.32.54.54,0,0,1,.61.21c-.36-.2-.44.19-.42.28,0-.22.18-.4.26-.22-.06-.08-.09,0-.09,0v.32h0v.32h0v.29a.34.34,0,0,1-.22.32.55.55,0,0,1-.61-.21A.26.26,0,0,0,14.21,5" transform="translate(0 0.85)"/><path class="cls-3" d="M14.43,3.89a.59.59,0,0,1,.44.25.38.38,0,0,0-.18-.06c-.21,0-.26.27-.24.34,0-.16.1-.29.17-.29a.09.09,0,0,1,.09.07l-.05,0s0,0,0,0v.32h0v.32h0v.29a.33.33,0,0,1-.21.32l-.17,0a.6.6,0,0,1-.44-.24.49.49,0,0,0,.18,0c.2,0,.26-.26.23-.33,0,.15-.09.28-.17.28s-.06,0-.08-.07,0,0,0,0,0-.05,0-.06V4.86h0V4.25a.32.32,0,0,1,.22-.32.35.35,0,0,1,.17,0m0-.06a.41.41,0,0,0-.19,0,.38.38,0,0,0-.26.38v.88h-.05a.06.06,0,0,0,0,.08v0l-.08,0h0l-.05,0a.06.06,0,0,0,0,.08.66.66,0,0,0,.49.27.43.43,0,0,0,.19,0,.38.38,0,0,0,.26-.37V4.26h.06a.07.07,0,0,0,0-.08v0l.08,0h0a.05.05,0,0,0,0,0,.06.06,0,0,0,0-.08.66.66,0,0,0-.49-.27" transform="translate(0 0.85)"/><path class="cls-7" d="M12,7.63c0-.22.18-.4.25-.22-.06-.08-.08,0-.08,0v.32h0V10a.33.33,0,0,1-.22.32.55.55,0,0,1-.61-.21.27.27,0,0,0,.42-.28c0,.22-.18.39-.26.21.07.09.09,0,.09,0V9.69h0V7.46a.31.31,0,0,1,.21-.32.53.53,0,0,1,.61.21c-.35-.2-.44.19-.41.28" transform="translate(0 0.85)"/><path class="cls-3" d="M12,7.1a.57.57,0,0,1,.44.25.38.38,0,0,0-.18-.06c-.2,0-.25.27-.23.34,0-.16.09-.29.17-.29s.06,0,.08.07l0,0s0,0,0,0v.32h0V10a.33.33,0,0,1-.22.32.51.51,0,0,1-.17,0,.6.6,0,0,1-.44-.24.36.36,0,0,0,.19.05c.2,0,.25-.26.23-.33,0,.16-.09.29-.17.29s-.06,0-.09-.08,0,0,.05,0,0,0,0-.05V9.69h0V7.46a.31.31,0,0,1,.21-.32.38.38,0,0,1,.17,0M12,7a.46.46,0,0,0-.19,0,.37.37,0,0,0-.25.38V10h-.06s0,0,0,.08v0l-.09,0h0a0,0,0,0,0,0,0,.06.06,0,0,0,0,.07.66.66,0,0,0,.49.27.58.58,0,0,0,.19,0,.39.39,0,0,0,.26-.38V7.47h0a.07.07,0,0,0,0-.08v0l.08,0h0l.05,0a.08.08,0,0,0,0-.08A.66.66,0,0,0,12,7" transform="translate(0 0.85)"/><path class="cls-7" d="M12.91,5.86a.54.54,0,0,1-.61-.21.26.26,0,0,0,.41-.27c0,.21-.18.39-.25.21.06.08.09,0,.09,0V5.26h0V4.64a.34.34,0,0,1,.22-.32.55.55,0,0,1,.61.22c-.36-.2-.44.19-.41.28,0-.22.18-.4.25-.22-.06-.08-.08,0-.08,0v.32h0v.61a.32.32,0,0,1-.22.31" transform="translate(0 0.85)"/><path class="cls-3" d="M12.93,4.29a.59.59,0,0,1,.44.25.38.38,0,0,0-.18-.06c-.2,0-.26.26-.23.34,0-.16.09-.29.17-.29s.06,0,.08.07,0,0-.05,0,0,0,0,0v.32h0v.61a.32.32,0,0,1-.22.31.38.38,0,0,1-.17,0,.59.59,0,0,1-.44-.25.38.38,0,0,0,.18.06c.21,0,.26-.26.23-.33,0,.15-.09.28-.17.28s-.06,0-.08-.07,0,0,0,0,0,0,0-.06V5.26h0V4.64a.34.34,0,0,1,.22-.32l.17,0m0-.06a.43.43,0,0,0-.19,0,.38.38,0,0,0-.26.37v.89h-.06a.06.06,0,0,0,0,.08h0l-.08,0h0a.05.05,0,0,0,0,0,.06.06,0,0,0,0,.08.66.66,0,0,0,.49.27.43.43,0,0,0,.19,0,.38.38,0,0,0,.26-.37V4.66h.05a.07.07,0,0,0,0-.08v0l.08,0h0l.05,0a.06.06,0,0,0,0-.08.66.66,0,0,0-.49-.27" transform="translate(0 0.85)"/><path class="cls-7" d="M15.42,6.72c0-.22.18-.39.25-.21-.06-.09-.09,0-.09,0V6.8h0V8.13h0V8.2h0a1.37,1.37,0,0,1-1.33,1.42c-1.26,0-1.17-.89-1.17-.89V7.06a.33.33,0,0,1,.22-.32.55.55,0,0,1,.61.21.26.26,0,0,0-.42.23h0c0-.19.18-.33.25-.16-.07-.09-.09,0-.09,0v.14h0V8.73s0,.46.67.34A.94.94,0,0,0,15,8.14V6.55a.33.33,0,0,1,.22-.32.54.54,0,0,1,.61.21.26.26,0,0,0-.41.28" transform="translate(0 0.85)"/><path class="cls-3" d="M15.39,6.2a.6.6,0,0,1,.44.24.35.35,0,0,0-.18-.05c-.21,0-.26.26-.23.33,0-.15.09-.29.17-.29s.06,0,.08.08,0,0-.05,0,0,0,0,.06V6.8h0V8.13h0V8.2h0a1.37,1.37,0,0,1-1.33,1.42h-.06c-1.19,0-1.11-.89-1.11-.89V7.06a.33.33,0,0,1,.22-.32.51.51,0,0,1,.17,0,.6.6,0,0,1,.44.24.36.36,0,0,0-.19,0c-.17,0-.23.18-.23.28h0c0-.13.09-.24.16-.24s.06,0,.09.08,0,0-.05,0,0,0,0,.06v.14h0V8.73s0,.36.46.36l.21,0A.94.94,0,0,0,15,8.14V6.55a.33.33,0,0,1,.22-.32l.17,0m0-.06a.63.63,0,0,0-.19,0,.39.39,0,0,0-.26.38V8.14a.88.88,0,0,1-.62.87l-.2,0c-.39,0-.4-.29-.4-.3V7.07h.06a.06.06,0,0,0,0-.08V7l.09,0h0a.05.05,0,0,0,0,0,.06.06,0,0,0,0-.07.66.66,0,0,0-.49-.27.58.58,0,0,0-.19,0,.39.39,0,0,0-.26.38V8.73a.83.83,0,0,0,.22.62,1.23,1.23,0,0,0,.95.33h.06A1.31,1.31,0,0,0,15.41,9a2,2,0,0,0,.23-.82s0,0,0,0V8.13h0V6.56h.06a.06.06,0,0,0,0-.08v0l.08,0h0s0,0,0,0a0,0,0,0,0,0-.07.66.66,0,0,0-.49-.27" transform="translate(0 0.85)"/><path class="cls-7" d="M16.12,3.82v.32h0v.32h0v.29a.32.32,0,0,1-.22.31.54.54,0,0,1-.61-.21.27.27,0,0,0,.42-.27c0,.21-.18.39-.26.21.07.08.09,0,.09,0V4.46h0V3.84a.33.33,0,0,1,.21-.32.54.54,0,0,1,.61.22c-.35-.2-.44.19-.41.28,0-.22.18-.4.25-.22-.06-.08-.08,0-.08,0" transform="translate(0 0.85)"/><path class="cls-3" d="M15.92,3.49a.57.57,0,0,1,.44.25.38.38,0,0,0-.18-.06c-.2,0-.25.26-.23.34,0-.16.09-.29.17-.29s.06,0,.08.07l0,0s0,0,0,0v.32h0v.61a.32.32,0,0,1-.22.31.34.34,0,0,1-.17,0,.6.6,0,0,1-.44-.24.38.38,0,0,0,.18.06c.21,0,.26-.26.24-.33,0,.15-.09.28-.17.28a.09.09,0,0,1-.09-.07s0,0,.05,0,0,0,0-.06V4.46h0V3.84a.33.33,0,0,1,.21-.32l.17,0m0-.06a.46.46,0,0,0-.19,0,.38.38,0,0,0-.26.37v.62a0,0,0,0,1,0,0v.25h-.06s0,0,0,.07v0l-.08,0h0l0,0a.08.08,0,0,0,0,.08.66.66,0,0,0,.49.27.41.41,0,0,0,.19,0,.38.38,0,0,0,.26-.37V3.86h.05a.07.07,0,0,0,0-.08v0s.05,0,.08,0h0l.05,0a.06.06,0,0,0,0-.08.61.61,0,0,0-.49-.27" transform="translate(0 0.85)"/><path class="cls-7" d="M16.9,6.28c0-.21.18-.39.25-.21-.06-.08-.08,0-.08,0v.32h0V9a.32.32,0,0,1-.22.31.54.54,0,0,1-.61-.21.27.27,0,0,0,.42-.27c0,.21-.18.39-.26.21.06.08.09,0,.09,0V8.73h0V6.11a.34.34,0,0,1,.22-.32.55.55,0,0,1,.61.21.26.26,0,0,0-.41.28" transform="translate(0 0.85)"/><path class="cls-3" d="M16.87,5.76a.6.6,0,0,1,.44.24.49.49,0,0,0-.18,0c-.2,0-.25.26-.23.33,0-.15.09-.29.17-.29s.06,0,.08.08,0,0,0,0,0,0,0,.06v.32h0V9a.32.32,0,0,1-.22.31.34.34,0,0,1-.17,0,.6.6,0,0,1-.44-.24.38.38,0,0,0,.18.06c.21,0,.26-.26.24-.33,0,.15-.1.28-.17.28a.09.09,0,0,1-.09-.07s0,0,.05,0,0,0,0-.06V8.73h0V6.11a.33.33,0,0,1,.21-.32l.17,0m0-.06a.63.63,0,0,0-.19,0,.39.39,0,0,0-.26.38V9h-.06a.05.05,0,0,0,0,.07v0l-.08,0h0l0,0a.06.06,0,0,0,0,.08.66.66,0,0,0,.49.27.41.41,0,0,0,.19,0A.38.38,0,0,0,17.13,9V6.13h.05a.05.05,0,0,0,0-.07V6l.08,0h0l.05,0a.06.06,0,0,0,0-.08.63.63,0,0,0-.49-.27" transform="translate(0 0.85)"/><path class="cls-3" d="M21.16,17.84H16.57a.13.13,0,0,0-.13.15l0,.4h0c.5,0,1-.07,1.49-.09l-.06.63H16.69a.12.12,0,0,0-.13.13v.42l.07,2.67a.13.13,0,0,0,.13.13H21a.13.13,0,0,0,.13-.13l.08-2.67v-.42a.13.13,0,0,0-.13-.13H19.61l0-.63q.84,0,1.65.09h0l.05-.4A.14.14,0,0,0,21.16,17.84Zm-4.06,1.6h0l.73,0a2.57,2.57,0,0,1-.27.49,3.22,3.22,0,0,1-.38.35.14.14,0,0,0,0,.22l.33.2a.14.14,0,0,0,.16,0,2.41,2.41,0,0,0,.7-1.26h.68l0,.84a.13.13,0,0,0,.13.13h1.42v.43H17.12l0-1.35Zm3.36,2.32H17.27a.13.13,0,0,1-.14-.13v-.29c.57,0,1.15-.06,1.73-.06s1.16,0,1.74,0v.3A.13.13,0,0,1,20.46,21.76Zm.14-2.32h0v.44h-.86a.12.12,0,0,1-.13-.12V19.4Zm-1.51-.51h-.67v-.64h.69Z" transform="translate(0 0.85)"/><path class="cls-3" d="M23.4,18.57l.16,0q1.17-.09,2.37-.09c.8,0,1.58,0,2.37.09l.15,0h.07l.11-.38A.13.13,0,0,0,28.5,18H26.1l0-.47a.13.13,0,0,0-.13-.13h-.22a.13.13,0,0,0-.13.13l0,.47H23a.13.13,0,0,0-.13.13v.14h0c0,.09,0,.2,0,.32a5.55,5.55,0,0,1-.86,3.51.12.12,0,0,0,0,.19l.4.23a.13.13,0,0,0,.17,0,6.89,6.89,0,0,0,.73-3.94h0Z" transform="translate(0 0.85)"/><path class="cls-3" d="M28.53,19.21H26.07v-.42a.14.14,0,0,0-.14-.13h-.21a.13.13,0,0,0-.13.13l0,1.52v0H24.22a.13.13,0,0,0-.13.14v.39l.06,1.37a.13.13,0,0,0,.13.13h3.63a.13.13,0,0,0,.13-.13l.05-1.37,0-.39a.14.14,0,0,0-.13-.14H26.1a0,0,0,0,0,0,0l0-.56,1.09,0c.42,0,.85,0,1.27,0a.14.14,0,0,0,.13-.1l.08-.28A.13.13,0,0,0,28.53,19.21Zm-1,1.63,0,.88a.13.13,0,0,1-.14.12H24.82a.12.12,0,0,1-.13-.12l0-.88c.47,0,.95,0,1.43,0S27.07,20.81,27.54,20.84Z" transform="translate(0 0.85)"/><path class="cls-3" d="M2.24,17.8a.14.14,0,0,0-.1-.18l-.17,0a.12.12,0,0,0-.15.07A4.35,4.35,0,0,1,.07,19.58a.14.14,0,0,0,0,.24l.4.22a.14.14,0,0,0,.14,0,4.23,4.23,0,0,0,.49-.44v2.82a.13.13,0,0,0,.14.13h.31a.13.13,0,0,0,.14-.13V18.89s0,0,0,0A6.28,6.28,0,0,0,2.24,17.8Z" transform="translate(0 0.85)"/><path class="cls-3" d="M11.05,21.47a.82.82,0,0,0,.07-.31V21a.13.13,0,0,0-.13-.13H9.44A.15.15,0,0,0,9.3,21l0,.4h1.15a2.47,2.47,0,0,1-1.29.65.13.13,0,0,0,0,.25l.37.15a.11.11,0,0,0,.11,0,3.78,3.78,0,0,0,1.1-.67A1.28,1.28,0,0,0,11.05,21.47Z" transform="translate(0 0.85)"/><path class="cls-3" d="M14.15,22.17a4.88,4.88,0,0,1-1.29-.76,2.58,2.58,0,0,0,.92-.55.13.13,0,0,0,0-.12l-.07-.38a.13.13,0,0,0-.22-.07,4.28,4.28,0,0,1-1.09.74,3.8,3.8,0,0,1-.43-.51V20.4l.3.12a.14.14,0,0,0,.16-.05l.16-.27a.12.12,0,0,0-.08-.19l-.79-.2c.74,0,1.46,0,2.18.09a.14.14,0,0,0,.14-.12l0-.27a.13.13,0,0,0-.13-.15H12v-.25c.59,0,1.17,0,1.74.07h0l0-.41a.12.12,0,0,0-.13-.14H12v-.27c.67,0,1.34,0,2,.08h0l0-.4a.12.12,0,0,0-.13-.14H12.71l.19-.26a.14.14,0,0,0,0-.19l-.17-.12a.12.12,0,0,0-.17,0l-.5.55h-.69l-.6-.57a.14.14,0,0,0-.18,0l-.15.13a.13.13,0,0,0,0,.19l.22.25H9.51a.13.13,0,0,0-.13.14l0,.4h0c.66-.05,1.32-.08,2-.08v.27H9.76a.13.13,0,0,0-.13.14l0,.41h0c.58-.05,1.16-.07,1.74-.07v.25h-2a.14.14,0,0,0-.13.15l0,.27a.13.13,0,0,0,.14.12c.5,0,1-.07,1.53-.08l0,0a.13.13,0,0,0,.08.17l.34.14H10a.13.13,0,0,0-.13.15l.06.39h1.48l-.05.89a.41.41,0,0,1-.31.45H10.8a.13.13,0,0,0-.12.19l.18.33a.12.12,0,0,0,.13.06h.12c.81-.09.86-.42.89-1v-.31a4.82,4.82,0,0,0,1.79,1.33.16.16,0,0,0,.13,0l.26-.21A.13.13,0,0,0,14.15,22.17Z" transform="translate(0 0.85)"/><path class="cls-3" d="M6.62,21.82a5.72,5.72,0,0,1-.72,0,4.82,4.82,0,0,1-.71-.1.13.13,0,0,1-.11-.13V19.5c.48,0,1,0,1.43.07a.14.14,0,0,0,.14-.12l0-.27A.14.14,0,0,0,6.55,19H4.15a11,11,0,0,0,0-1.43.12.12,0,0,0-.13-.12H3.87a.13.13,0,0,0-.13.13A11.69,11.69,0,0,1,3.64,19H2.24a.13.13,0,0,0-.13.15l0,.27a.14.14,0,0,0,.14.12c.43,0,.86-.06,1.29-.07a6,6,0,0,1-.24,1,3,3,0,0,1-1.39,1.59.13.13,0,0,0,0,.23l.48.24a.12.12,0,0,0,.14,0,3,3,0,0,0,1.34-2,9.66,9.66,0,0,0,.2-1.11h.4v2.4c0,.2.07.26.3.33l1.53.39a.12.12,0,0,0,.15-.07L6.75,22A.14.14,0,0,0,6.62,21.82Z" transform="translate(0 0.85)"/><path class="cls-3" d="M5.68,18.76a.16.16,0,0,0,.15,0l.25-.18a.12.12,0,0,0,0-.22,4.66,4.66,0,0,1-.79-.52.21.21,0,0,0-.27,0,.22.22,0,0,0,0,.3A3,3,0,0,0,5.68,18.76Z" transform="translate(0 0.85)"/><path class="cls-3" d="M7.86,18.3a3.18,3.18,0,0,0,.93.49c.05,0,.11,0,.17-.07l.19-.22a.14.14,0,0,0-.08-.22,4.57,4.57,0,0,1-1-.33.14.14,0,0,0-.17,0l-.09.13A.14.14,0,0,0,7.86,18.3Z" transform="translate(0 0.85)"/><path class="cls-3" d="M8.9,19.61a5.27,5.27,0,0,1-1.12-.15.14.14,0,0,0-.17.08l-.08.16a.15.15,0,0,0,.07.19,3.32,3.32,0,0,0,1.1.32c.06,0,.11,0,.16-.1L9,19.83A.14.14,0,0,0,8.9,19.61Z" transform="translate(0 0.85)"/><path class="cls-3" d="M8.92,21a.13.13,0,0,0-.2-.07,7.26,7.26,0,0,1-1.14.75.12.12,0,0,0-.06.16l.06.15a.13.13,0,0,0,.16.08A6.07,6.07,0,0,0,9,21.4a.13.13,0,0,0,0-.15Z" transform="translate(0 0.85)"/><path class="cls-3" d="M16.23,21A.12.12,0,0,0,16,21a8.15,8.15,0,0,1-1.15.77.14.14,0,0,0-.07.17l.06.15a.13.13,0,0,0,.16.08,6.21,6.21,0,0,0,1.25-.65.16.16,0,0,0,.06-.16Z" transform="translate(0 0.85)"/><path class="cls-3" d="M16.25,18.28a4.57,4.57,0,0,1-1-.33.14.14,0,0,0-.17,0l-.09.13a.13.13,0,0,0,0,.18,3,3,0,0,0,.92.49s.11,0,.17-.07l.19-.22A.14.14,0,0,0,16.25,18.28Z" transform="translate(0 0.85)"/><path class="cls-3" d="M16,20.18l.16-.28a.14.14,0,0,0-.12-.21A5.12,5.12,0,0,1,15,19.53a.15.15,0,0,0-.17.08l-.07.16a.14.14,0,0,0,.06.19,3.28,3.28,0,0,0,1.1.33A.19.19,0,0,0,16,20.18Z" transform="translate(0 0.85)"/></g></g></g></svg>