<svg xmlns="http://www.w3.org/2000/svg" viewBox="0 0 35.83 22.87"><defs><style>.cls-1{fill:#e72d35;}.cls-2{fill:#dab38d;}</style></defs><g id="图层_2" data-name="图层 2"><g id="图层_1-2" data-name="图层 1"><rect class="cls-1" x="24.92" y="17.2" width="0.52" height="1.24"/><path class="cls-1" d="M33.68,18.52h-.53v1.83H31.92V22.8h.52V20.87h2.72a.15.15,0,0,1,.15.15v1.1a.15.15,0,0,1-.15.15H32.78v.53h2.56a.49.49,0,0,0,.49-.49V20.84a.49.49,0,0,0-.49-.49H33.68V19.5h2.15V19H33.68Z"/><rect class="cls-1" x="24.92" y="18.95" width="0.52" height="1.04"/><path class="cls-1" d="M25.87,17.74H27v.87h-1.1V22.8h.52V21.62h2.77v.5a.14.14,0,0,1-.15.15H26.73v.53H29.2a.49.49,0,0,0,.49-.49V19.1a.49.49,0,0,0-.49-.49h-.65v-.87h1.14v-.52H25.87ZM27,20a2.68,2.68,0,0,1-.12.64l-.13.42h-.33v-2H27Zm1.58-.9H29a.15.15,0,0,1,.15.15v1.81h-.61ZM27.5,17.74H28v.87H27.5Zm-.17,3.14a3.64,3.64,0,0,0,.17-1v-.77H28v2h-.76Z"/><path class="cls-1" d="M33.88,17.74V17.2h-.53v.54H31.11v1.61A12.3,12.3,0,0,1,31,21.28l0,.13h0l-.25,1.38h.53l.25-1.4a12.48,12.48,0,0,0,.17-2V18.27h4.2v-.53Z"/><path class="cls-1" d="M24.54,22.8h.19c.08,0,.35-.05.43-.49l.32-1.83H25Z"/><path class="cls-1" d="M10.94,20.5h0l-1.28-.36.82-.23c.31-.08.37-.26.37-.4V18.7H7.57l.19-.29H7.14l-.4.62s-.11.19.14.19h3.44v.1s0,.08-.15.13l-1.47.42-1.76-.5v.55l.8.22-1.43.4a.32.32,0,0,0-.24.3v.31l2.63-.74,2.63.74v-.28s0-.26-.39-.37"/><path class="cls-1" d="M4.5,18.69H2.75V17.2H2.22v1.49H0v4.1H.53V19.21H4.32a.15.15,0,0,1,.14.15v2.75a.15.15,0,0,1-.14.15H3.84v.53H4.5a.5.5,0,0,0,.49-.5V19.18a.48.48,0,0,0-.49-.49"/><path class="cls-1" d="M3.85,21.46V20.32a.49.49,0,0,0-.49-.49H1.14V22h.53V20.35h1.5a.15.15,0,0,1,.15.15v.81a.15.15,0,0,1-.15.15H2V22H3.36a.49.49,0,0,0,.49-.49Z"/><path class="cls-1" d="M10.36,21.09H6.68v1.7H7.2V21.61h3a.15.15,0,0,1,.15.15v.35a.15.15,0,0,1-.15.15H7.54v.53h2.82a.51.51,0,0,0,.5-.5v-.71a.5.5,0,0,0-.5-.49"/><rect class="cls-1" x="12.87" y="18.53" width="0.52" height="4.27"/><path class="cls-1" d="M13.67,17.22l-1.09.69a.54.54,0,0,0-.25.45v.34l1.34-.86Z"/><path class="cls-1" d="M15.3,17.2h-.53v1.24h-1.1V19h1.1v.1a2.66,2.66,0,0,1-.12.65l-1,3.09h.55l.92-2.88a3.85,3.85,0,0,0,.16-1h.29v3.19a.66.66,0,0,0,.65.65h1.14v-.53H16.32a.21.21,0,0,1-.21-.21V19h1.27v-.52H15.3Z"/><path class="cls-1" d="M17.18,17.22l-.52.33a.6.6,0,0,0-.3.47v.34l.82-.52Z"/><path class="cls-1" d="M11,17.62H9V17.2H8.51v.42H6.38A.34.34,0,0,0,6,18v.58h.53v-.32a.07.07,0,0,1,.06-.07h4.15a.07.07,0,0,1,.07.07v.32h.52V18a.33.33,0,0,0-.33-.33"/><path class="cls-1" d="M4.45,18.13l.45-.85H4.28l-.65,1.16H3.9a.7.7,0,0,0,.55-.31"/><path class="cls-1" d="M1.07,18.44h.29L.71,17.28H.09l.45.85a.67.67,0,0,0,.53.31"/><path class="cls-1" d="M22.89,22.17V20.65H23a.69.69,0,0,0,.69-.69V18.75a.7.7,0,0,0-.6-.69l.28-.78h-.58l-.3.77h-.59l-.3-.77H21l.29.78a.71.71,0,0,0-.61.69v1.9h.51v-1.9a.19.19,0,0,1,.19-.18H23a.18.18,0,0,1,.18.18V20a.18.18,0,0,1-.18.18h-1.5v.7a1.32,1.32,0,0,1-.2.69l-.81,1.32H21l.65-1.06a1.8,1.8,0,0,0,.27-.95v-.19h.42v1.52a.7.7,0,0,0,.7.7h.71v-.51h-.71a.19.19,0,0,1-.19-.19"/><rect class="cls-1" x="18.59" y="17.85" width="0.51" height="4.34"/><polygon class="cls-1" points="19.97 17.19 19.46 17.19 19.46 22.85 19.97 22.85 19.97 19.61 20.38 19.61 20.38 19.1 19.97 19.1 19.97 17.19"/><path class="cls-2" d="M25.11,7.19A7.19,7.19,0,1,1,17.92,0,7.19,7.19,0,0,1,25.11,7.19Z"/><path class="cls-1" d="M17.92,13.8a6.61,6.61,0,1,1,6.6-6.61A6.62,6.62,0,0,1,17.92,13.8Z"/><path class="cls-2" d="M21.37,7.19l.56-.56a4.05,4.05,0,0,0-8,0l.56.56-.56.56a4.05,4.05,0,0,0,8,0Z"/><path class="cls-2" d="M13.25,5.41l.11,0,.07,0-.13.36,0-.06-.1,0-.6-.21v0a.29.29,0,0,0,0,.09v.11l-.19-.12.24-.68.19.12a.1.1,0,0,0,0,0,.15.15,0,0,0,0,.08l0,0v0Z"/><path class="cls-2" d="M13.3,4.36l-.18-.11-.1,0h-.08l.19-.33a.25.25,0,0,0,0,.07.18.18,0,0,0,.08.06l.55.32a.37.37,0,0,0,.11,0H14l-.19.33a.25.25,0,0,0,0-.07.18.18,0,0,0-.08-.06l-.24-.14-.16.28.24.13.1,0h.08l-.2.34a.09.09,0,0,0,0-.07l-.09-.07-.55-.31-.1,0h-.08l.2-.34a.09.09,0,0,0,0,.07.25.25,0,0,0,.09.07l.18.1Z"/><path class="cls-2" d="M13.94,4.42a.29.29,0,0,0,0-.09l0-.07-.35-.61h0a.16.16,0,0,0,0-.06l0,0h-.07l.23-.27.79.32.11,0h.1L14.34,4s0-.06,0-.07,0,0,0,0l0,0h0l-.14-.05L13.92,4l.07.12,0,0h0l0,0h.06Zm-.09-.54L14,3.72l-.29-.12Z"/><path class="cls-2" d="M14.57,3.69a.31.31,0,0,0,0-.1.38.38,0,0,0-.09-.13L14.15,3A.22.22,0,0,0,14.06,3l-.1,0,.24-.18.72.2-.24-.31a.32.32,0,0,0-.09-.08l-.1,0,.22-.18,0,.11a.37.37,0,0,0,.06.1l0,0,.46.59a.52.52,0,0,1-.43,0h0l-.47-.12.26.33a.59.59,0,0,0,.08.08l.09,0Z"/><path class="cls-2" d="M15.58,2.78a.35.35,0,0,0,.06.09l.07,0-.35.17a.17.17,0,0,0,0-.07.21.21,0,0,0,0-.11L15,2.34a.29.29,0,0,0-.06-.1l-.06,0L15.26,2a.22.22,0,0,0,0,.08.34.34,0,0,0,0,.1l.13.25.06-.35a.11.11,0,0,0,0,0s0,0,0,0l0,0-.06,0,.31-.16-.1.51.59.34-.13.07-.15,0a.35.35,0,0,1-.16-.06l-.29-.17Z"/><path class="cls-2" d="M17,1.85l0-.21a.53.53,0,0,0,0-.11l-.06-.05.38-.08,0,.07a.45.45,0,0,0,0,.11l.12.63a.19.19,0,0,0,0,.1l0,.06-.38.07a.11.11,0,0,0,0-.07.49.49,0,0,0,0-.11L17.06,2l-.31.06.05.26a.53.53,0,0,0,0,.11s0,0,.06,0l-.38.08,0-.07a.57.57,0,0,0,0-.12l-.12-.62a.23.23,0,0,0,0-.11l-.05,0,.38-.07a.09.09,0,0,0,0,.07.23.23,0,0,0,0,.11l0,.21Z"/><path class="cls-2" d="M18.07,2.4a.6.6,0,0,1-.4-.16.48.48,0,0,1-.14-.38.53.53,0,0,1,0-.2.51.51,0,0,1,.13-.16.54.54,0,0,1,.18-.1.76.76,0,0,1,.21,0,.57.57,0,0,1,.39.15.48.48,0,0,1,.15.38.49.49,0,0,1-.05.2.58.58,0,0,1-.14.17,1,1,0,0,1-.17.1A.76.76,0,0,1,18.07,2.4Zm-.25-.56a.56.56,0,0,0,.07.3.23.23,0,0,0,.19.11.22.22,0,0,0,.19-.08.38.38,0,0,0,.08-.24.52.52,0,0,0-.07-.29.26.26,0,0,0-.19-.12.23.23,0,0,0-.19.09A.37.37,0,0,0,17.82,1.84Z"/><path class="cls-2" d="M19.16,2.35a.54.54,0,0,0,0,.11l0,.07-.38-.08s.05,0,.06-.06a.34.34,0,0,0,0-.1L19,1.67H19a.34.34,0,0,0-.1,0h-.11l.11-.2.7.16-.1.2a.12.12,0,0,0,0-.05l-.08,0h-.05Z"/><path class="cls-2" d="M19.38,2.58l.06,0a.3.3,0,0,0,0-.1l.24-.59a.89.89,0,0,0,0-.11.17.17,0,0,0,0-.07l.53.21-.07.19L20.15,2l-.06,0-.1,0-.09.23.18.06L20,2.4a.05.05,0,0,0,0,0,.09.09,0,0,0-.05,0l-.08,0-.11.28.06,0,0,0,.14,0a.25.25,0,0,0,.12,0L20,2.82Z"/><path class="cls-2" d="M20.05,2.85a.15.15,0,0,0,.07,0l.07-.09.31-.55a.88.88,0,0,0,.05-.1.22.22,0,0,0,0-.08l.34.2a.09.09,0,0,0-.07,0,.25.25,0,0,0-.07.09l-.32.55.06.06.06,0,.1,0h.11l-.15.15Z"/><path class="cls-2" d="M22,3a.33.33,0,0,1,.12.21.2.2,0,0,1-.07.19.26.26,0,0,1-.21.1.35.35,0,0,1-.23-.12l0,0h0a.33.33,0,0,0,.14,0,.37.37,0,0,0,.12-.07.31.31,0,0,0,.06-.13.18.18,0,0,0,0-.11l-.45.48a.36.36,0,0,0-.07.09.22.22,0,0,0,0,.08L21,3.43H21l.09-.07.43-.47a.18.18,0,0,0,.07-.09.15.15,0,0,0,0-.07Z"/><path class="cls-2" d="M21.54,4h.08a.27.27,0,0,0,.09-.06l.5-.38a.28.28,0,0,0,.08-.08s0,0,0-.07l.23.3h-.07a.19.19,0,0,0-.1,0l-.51.4,0,.07a.25.25,0,0,0,0,.07l.07.07.1,0-.19.09Z"/><path class="cls-2" d="M22.41,4.63a.32.32,0,0,0-.12.1.17.17,0,0,0,0,.12.15.15,0,0,0,.1.08.22.22,0,0,0,.15,0L23,4.67a.19.19,0,0,0,.09,0,.2.2,0,0,0,0-.08l.18.35s-.05,0-.07,0a.21.21,0,0,0-.11,0l-.56.3-.09.06a.16.16,0,0,0,0,.07l-.15-.29.09,0a.31.31,0,0,1-.14-.07.43.43,0,0,1-.11-.12.5.5,0,0,1,0-.13.5.5,0,0,1,0-.12.47.47,0,0,1,.06-.09l.14-.09.42-.22a.25.25,0,0,0,.09-.07s0,0,0-.06l.18.34h-.07a.37.37,0,0,0-.11,0Z"/><path class="cls-2" d="M22.65,5.32a.68.68,0,0,0,0,.19.32.32,0,0,0,0,.14.17.17,0,0,0,.06.1.08.08,0,0,0,.08,0s.08-.08.1-.2a.28.28,0,0,0,0-.08A.47.47,0,0,1,23,5.29a.26.26,0,0,1,.13-.1.26.26,0,0,1,.23,0,.36.36,0,0,1,.15.22.53.53,0,0,1,0,.12V5.7l-.15,0s0-.09,0-.13a.19.19,0,0,0,0-.08.1.1,0,0,0-.06-.08.07.07,0,0,0-.07,0s-.07.08-.09.21a.65.65,0,0,0,0,.11.48.48,0,0,1-.07.16.47.47,0,0,1-.14.08.25.25,0,0,1-.24,0,.4.4,0,0,1-.17-.24l0-.14a.81.81,0,0,1,0-.16Z"/><path class="cls-2" d="M13.57,11.08h-.12l0,0h0a.14.14,0,0,1,0-.12c0-.05,0-.12,0-.21a.43.43,0,0,0,0-.05s0,0,0,0l0,0-.05,0,0,0-.05,0s-.09.06-.11.05,0,0,0-.05v-.08l0,0,.07,0,.12-.09H13.2L13,10.46a.25.25,0,0,1-.12-.1l.15.05.2,0h.15l-.08-.08-.1-.11v0s0,0,0,0l0-.06,0,0v0l0,.05.09.11.08.08.22-.16-.07-.08-.06-.06,0,0,0,0a.08.08,0,0,1,0,0v0l0,0,0,0a.3.3,0,0,0,.06.09l.1.12.06.07,0,0,0,0,0-.05,0,.06c0,.06.05.09,0,.11h0l0,0h0l0,0,.12.11h0l0,0v.08l0,0h0v0h0l0,0-.05-.06,0,0,0-.06-.13.08-.1.08,0,.05.11.12.06.06a0,0,0,0,1,0,0s0,0,0,0,0,0,0,.07,0,0,0,0l0,0v0a.09.09,0,0,1,0-.05l-.07-.08-.06-.08,0,0,0,.09v.11c0,.05,0,.1,0,.13a.35.35,0,0,0,0,.11.05.05,0,0,0,0,0l0,.05Zm-.13-.62h0Zm0-.21a.36.36,0,0,1,0-.11s0-.06,0-.06l.05.11a.25.25,0,0,1,0,.07h0l-.05,0,0,0h0A.18.18,0,0,1,13.46,10.25Zm.39.37,0,0h0l-.07,0,0,0,.1,0h.13v0l0,0a.07.07,0,0,1,0,.05.05.05,0,0,1,0,0Zm0-.08h0Zm.12-.34h0Z"/><path class="cls-2" d="M14.42,11.34l0,0a0,0,0,0,1,0,0h0s0,0,0-.06V11.2l-.05.07-.16.19a.3.3,0,0,1-.09.1l0,0,0,.05h0a.06.06,0,0,1,0-.05.25.25,0,0,1,0-.09H14l0,0,.05-.07,0,0,0,0,0-.08-.07,0a.5.5,0,0,1-.13,0,.38.38,0,0,1-.15,0l.15-.06.17-.08a.24.24,0,0,0,.11-.08h0l0,0,0,0v0s0,0,0,0l.09.07s.05,0,.06,0L14.4,11l0,0,0,0v-.06h.05l.07,0,0,0a0,0,0,0,1,0,0h0l0,0h0l0,0h0l0,0,0,0a.11.11,0,0,1,0,.11l-.08,0,0,0h0l0,0,0,.07,0,.06s0,0,0,0Zm.64,0v.08h0l0,0,0,0c-.07-.06-.11-.09-.12-.08l0,0h0l-.07,0h0l-.05,0h0v.05a.09.09,0,0,1,0,0,.58.58,0,0,1-.08.12l-.13.17-.07.07,0,0h0l0-.06v0h0v0l0,0,.08-.09.08-.1s.06-.07.05-.08l-.08,0h-.13a.15.15,0,0,1-.1,0,.63.63,0,0,0,.19,0l.24-.1a.46.46,0,0,0,.14-.1l-.09-.05,0,0,0,0a.11.11,0,0,0,0-.06v0s0,0,0,0h0l0,0a1.06,1.06,0,0,0,.18.13l.16.09h0l0,0h0S15.05,11.32,15.06,11.34Zm-.31.38v0l0,0-.07.06s-.05,0-.06,0,0-.1,0-.23a1.25,1.25,0,0,1,0-.17.47.47,0,0,1,0,.1l.05.11v0A0,0,0,0,1,14.75,11.72Zm0-.46v0l0,0,0,0Z"/><path class="cls-2" d="M15.18,12.21l0,0h0s0,0,0,0a.08.08,0,0,1,0,0H15v0h0s0,0,0,0h0l0,0a.09.09,0,0,1,0,0v0l.27-.5a.18.18,0,0,0,0-.08v0h0l0,0,0,0v0h.14s0,0,0,0a.08.08,0,0,1,0,.07l0,.06,0,.06,0,.06-.17.32S15.19,12.19,15.18,12.21Zm.09-.37,0-.08h0l0-.11h-.08l-.09.15a1.48,1.48,0,0,0-.11.22l0,.07,0,0h0S15.17,12,15.27,11.84Zm.51,0s0,0,0,0l-.08.13c0,.06-.1.17-.2.33l0,.07,0,0,0,0,0,.06-.05,0h-.07v0a.43.43,0,0,1,0-.05.08.08,0,0,1,0,0h0l.05,0s.08-.1.13-.18.1-.17.13-.24a.4.4,0,0,0,.06-.13H15.6s-.06.09-.1.15l-.15.19-.13.14-.09.06-.09,0,.1-.11a1.55,1.55,0,0,0,.19-.23.9.9,0,0,0,.15-.23l0,0h-.06s0,0,0,0,0,0,0-.07l0,0,0,0,0,0a0,0,0,0,0,0,0l0-.06v0s0,0,0,0l0,0,.08.05v0l0,.06,0,0h.12Zm-.49.4Zm.11-.51h0l0,.05h0A.05.05,0,0,0,15.4,11.7Zm0-.06v0h0v0l0,0h0Zm.62.39v0l0,0,0,0,0,0v0l-.05.1,0,0,0,0a.29.29,0,0,1-.06.1v0s0,0,0,0v.05l0,0,0,0h-.06s0,0,0,0a0,0,0,0,0,0,0l0,0h0l0,0-.05,0,0,0h0v-.08s0,0,0-.06a.37.37,0,0,1,.06-.1v0l.16-.29,0-.11v0a.14.14,0,0,0,0-.06h0l0,0a.08.08,0,0,0,0,0s0,0,0,0h.16l0,0s0,0,0,0v0Zm-.44-.28,0,0v0s0,0,0,0,0,0,0,0h0Zm.29.36A.69.69,0,0,0,16,12h-.09l0,0v0l0,0v0s0,0,0,0l0,0v0l-.14.28h.08l.12-.23Zm0-.17h0Z"/><path class="cls-2" d="M16.6,12.24l0,0a.25.25,0,0,1,0,.07l0,.14a1.64,1.64,0,0,1-.07.25q0,.09-.06.09l-.06,0h-.09l0,0,0,0h0s0,0,0,0l0-.05,0-.11v0a.51.51,0,0,1,0-.09.31.31,0,0,0,0-.08,1.86,1.86,0,0,0,.05-.19.51.51,0,0,0,0-.09v-.07a.35.35,0,0,0,0-.06h0s0,0,0,0,0,0,0,0h.1l.08,0A.1.1,0,0,1,16.6,12.24Zm-.22.4a.11.11,0,0,0,0-.05l0-.06v0a.25.25,0,0,0,0-.07.62.62,0,0,0,0-.11.34.34,0,0,0,0-.09h-.08v.08l-.09.4h.08Zm.53-.56a.05.05,0,0,1,0,.05.94.94,0,0,0,0,.09v0a0,0,0,0,1,0,0,.75.75,0,0,1,0,.15.43.43,0,0,0,0,.11l0,.06s0,.11,0,.21v0c0,.11-.05.18-.08.2s0,0,0,0l0,0s0-.08,0-.13a.53.53,0,0,1,0-.11h-.16a.11.11,0,0,0,0-.05.08.08,0,0,1,0,0h.2l0-.11h-.14l0,0,0,0v0h.19v-.07l0-.06h-.16v-.09h.17a.08.08,0,0,0,0-.05.43.43,0,0,0,0,0v-.05l0-.05Zm.14.65h.1a.26.26,0,0,1,0,.11H17l-.06,0s0,.06,0,.08v.06a.16.16,0,0,1,0,.08l0,0,0,0h0s0,0,0,0,0,0,0-.07.06-.18.07-.23L17,12.3s0-.07,0-.11a.38.38,0,0,0,0-.1h0l.08,0,0,0c0,.08,0,.12,0,.14h.14a.19.19,0,0,1,0,.1h-.1l-.1,0,0,.14h.15v0h0a0,0,0,0,1,0,0,0,0,0,0,1,0,0v0H17s0,0,0,.05v.06Z"/><path class="cls-2" d="M17.91,12.43a.07.07,0,0,1,0,.06.09.09,0,0,1,0,.07.07.07,0,0,1-.06,0,.1.1,0,0,1-.1-.1.07.07,0,0,1,0-.06.1.1,0,0,1,.14,0Z"/><path class="cls-2" d="M18.83,12.77a.2.2,0,0,0,0,.09l0,0-.31,0a.09.09,0,0,0,0-.06V12.8l-.08-.51h0l-.07,0-.08,0,0-.19.58-.08,0,.18-.05,0h-.12Z"/><path class="cls-2" d="M19.51,12.25l-.05-.16a.22.22,0,0,0,0-.08.1.1,0,0,0-.05,0l.31-.09a.07.07,0,0,0,0,.06s0,.05,0,.09l.14.49s0,.07,0,.08l.05.05-.31.08a.14.14,0,0,0,0-.06.34.34,0,0,0,0-.09l-.06-.21-.25.08.06.21a.34.34,0,0,0,0,.08l.05,0-.3.09a.14.14,0,0,0,0-.06.18.18,0,0,0,0-.09l-.14-.5a.22.22,0,0,0,0-.08l0,0,.3-.09a.14.14,0,0,0,0,.06.18.18,0,0,0,0,.09l0,.17Z"/><path class="cls-2" d="M19.94,12.63a.17.17,0,0,0,0-.07.06.06,0,0,0,0-.06l-.05-.57h0a.11.11,0,0,0,0-.06l0,0-.05,0,.26-.12.48.5a.17.17,0,0,0,.06.06l.08,0-.32.14a.11.11,0,0,0,0,0v-.06h0l-.09-.09-.22.1v.15h0l0,0,0,0Zm.11-.43.15-.07L20,11.94Z"/><path class="cls-2" d="M20.71,12.28a.11.11,0,0,0,0-.08l-.06-.12-.23-.36a.15.15,0,0,0-.07-.07l-.08,0,.21-.13.57.21-.17-.26a.22.22,0,0,0-.06-.07l-.08,0,.19-.12s0,.06,0,.09l0,.08v0l.33.51a.47.47,0,0,1-.35,0h0l-.37-.13.18.28a.14.14,0,0,0,.06.07.09.09,0,0,0,.07,0Z"/><path class="cls-2" d="M21.57,11.5l.07.06h.06l-.24.21s0,0,0-.06l-.05-.08-.34-.39L21,11.19h-.06l.24-.21s0,0,0,.06l.05.08.15.17V11a.08.08,0,0,1,0,0v0l0,0h-.06l.22-.19,0,.43.54.14-.09.08a.26.26,0,0,1-.12.07.31.31,0,0,1-.13,0l-.26-.08Z"/><path class="cls-2" d="M22.23,10.63a.19.19,0,0,0,.11,0,.08.08,0,0,0,.09,0,.13.13,0,0,0,0-.1.31.31,0,0,0-.08-.1l-.31-.23-.07,0h-.07l.2-.25a.13.13,0,0,0,0,.06.22.22,0,0,0,.07.06l.41.32.08,0h.06l-.16.21-.07,0a.29.29,0,0,1,0,.13.18.18,0,0,1-.05.11.6.6,0,0,1-.08.08l-.1,0a.14.14,0,0,1-.09,0l-.11-.07-.31-.24-.08,0h-.06l.19-.25s0,.05,0,.06l.07.07Z"/><polygon class="cls-1" points="17.75 4.75 18.09 4.66 18.09 5.9 17.75 5.99 17.75 4.75"/><path class="cls-1" d="M16.17,9.85a.34.34,0,0,1-.34-.34V7.42l.34-.09Z"/><polygon class="cls-1" points="16.91 6.21 16.57 6.31 16.57 5.06 16.92 4.97 16.91 6.21"/><path class="cls-1" d="M18.83,8.18A1.11,1.11,0,0,1,17.9,9.3a.83.83,0,0,1-.9-.82V7.11l.35-.1V8.48a.48.48,0,0,0,.47.48.77.77,0,0,0,.67-.78V6.71l.34-.09Z"/><polygon class="cls-1" points="19.26 5.59 18.92 5.68 18.92 4.43 19.26 4.34 19.26 5.59"/><path class="cls-1" d="M20,8.81a.34.34,0,0,1-.34.34V6.39L20,6.3Z"/><path class="cls-2" d="M13.18,7.37h0l0-.09h0a.49.49,0,0,0,0-.12A.12.12,0,0,0,13.15,7h0a.08.08,0,0,0-.07,0H13l0,0h0l-.14.07h0l-.08,0h0l0,0h0l0,0h0l0,0h0l0,0h0l0,0h0l0,0h0l0,0h0v0h0v0h0l0,0h0l.07,0h.2l.12,0h0a.39.39,0,0,0,.11-.06A.71.71,0,0,0,13.18,7.37Z"/><polygon class="cls-2" points="12.99 7.03 12.99 7.03 12.99 7.03 12.99 7.03"/><path class="cls-2" d="M12.53,7.23h0l0,0h.07l0,0h0l.05,0h0L13,7h0s0,0,0,0a.59.59,0,0,0-.23,0h-.05l-.09,0h-.05l0,0-.09.07h0a.34.34,0,0,0-.09.23h0v0h0v0h0a0,0,0,0,0,0,0v0h0v0h0l0,0h0l0,0h0l0,0h0l.05,0h0Z"/><polygon class="cls-2" points="12.59 7 12.59 7 12.59 7 12.59 7"/><polygon class="cls-2" points="12.66 7.24 12.66 7.24 12.66 7.24 12.66 7.24"/><path class="cls-2" d="M23.63,7.37h0l0-.09h0a.5.5,0,0,0,0-.12A.16.16,0,0,0,23.61,7h0a.09.09,0,0,0-.07,0h-.1l0,0h0l-.13.07h0l-.08,0h-.05l0,0h0l0,0h0v0h0l0,0h0l0,0h0l0,0h0l0,0h0v0h0v0h0a0,0,0,0,0,0,0h0l.06,0h.2l.12,0h0a.39.39,0,0,0,.11-.06A.63.63,0,0,0,23.63,7.37Z"/><polygon class="cls-2" points="23.44 7.03 23.45 7.03 23.44 7.03 23.44 7.03"/><path class="cls-2" d="M23,7.23h0l0,0h.06l0,0h0l.05,0h0L23.43,7h0s0,0-.05,0a.58.58,0,0,0-.23,0h-.05L23,7H23l0,0-.09.07h0a.34.34,0,0,0-.09.23h0v0h0v0h0a0,0,0,0,0,0,0v0h0v0h0l0,0h0l0,0h0l0,0h0l.05,0h0Z"/><polygon class="cls-2" points="23.04 7 23.04 7 23.04 7 23.04 7"/><polygon class="cls-2" points="23.11 7.24 23.11 7.24 23.11 7.24 23.11 7.24"/></g></g></svg>