<svg xmlns="http://www.w3.org/2000/svg" viewBox="0 0 32.97 14.1"><defs><style>.cls-1{fill:#595757;}</style></defs><g id="图层_2" data-name="图层 2"><g id="图层_1-2" data-name="图层 1"><polygon class="cls-1" points="0 1.29 0.77 1.01 0.77 7.56 1.52 7.56 1.52 0 0 0.55 0 1.29"/><path class="cls-1" d="M5,3.28A5.19,5.19,0,0,0,6,6.05a3.79,3.79,0,0,1-1.26.83v.68a4.58,4.58,0,0,0,1.69-1,5,5,0,0,0,1.36,1V6.8a4.78,4.78,0,0,1-.93-.75,4.39,4.39,0,0,0,.93-2.77ZM6.46,5.55A4.39,4.39,0,0,1,5.75,4H7.13a4.09,4.09,0,0,1-.67,1.59"/><path class="cls-1" d="M1.92,7.56h.75V5.83H4.73V5.16H2.67V4.39H4.73V3.72H2.67v-.9H4.73V0H1.92ZM2.67.66H4v1.5H2.67Z"/><path class="cls-1" d="M7.81,2.07V0H5V.66H7.06V2a.2.2,0,0,1-.2.21H5v.66H7.06a.75.75,0,0,0,.75-.75"/><path class="cls-1" d="M9.48,7.34h6.13v-7H9.48ZM10.23,1h4.63v2.4H10.23Zm0,3.06h4.63V6.68H10.23Z"/><path class="cls-1" d="M29.16,6.53V2h.94V6.11h.74V2H32V5.08a.22.22,0,0,1-.22.21h-.48v.65H32a.75.75,0,0,0,.75-.74V1.3H30.84V0H30.1V1.3h-.94V.47h-.75V1.3H28V2h.46V6.81a.76.76,0,0,0,.75.75H33V6.9H29.54a.37.37,0,0,1-.38-.37"/><path class="cls-1" d="M24.33,6.85A4.57,4.57,0,0,1,21.27,5.1h2.95V4.44H21V3.73h3.21V3.08H21V2.49h3V1.84H21V1.25h3.21V.6H22.44l.25-.6h-.76l-.25.6h-2.1L19.34,0h-.75l.24.6H17.06v.65h3.2v.59h-3v.65h3v.59h-3.2v.65h3.2v.71h-3.2V5.1H20a4.55,4.55,0,0,1-3.07,1.75v.71a5.29,5.29,0,0,0,3.7-2.14,5.34,5.34,0,0,0,3.7,2.14Z"/><polygon class="cls-1" points="27.07 0.47 26.31 0.47 26.31 1.3 25.66 1.3 25.66 1.96 26.31 1.96 26.31 6.64 25.66 6.9 25.66 7.56 27.71 6.76 27.71 6.1 27.07 6.35 27.07 1.96 27.71 1.96 27.71 1.3 27.07 1.3 27.07 0.47"/><path class="cls-1" d="M17.93,11.54H16.19V9.92h-.53a.08.08,0,0,0-.08.09v4H16a.22.22,0,0,0,.21-.22V12.14h1.74v1.65a.22.22,0,0,0,.22.22h.39V10a.09.09,0,0,0-.09-.09h-.52Z"/><path class="cls-1" d="M22.65,10.11a2.22,2.22,0,0,0-2.16,0,2.06,2.06,0,0,0-.77.78A2.2,2.2,0,0,0,19.43,12a2.12,2.12,0,0,0,.29,1.07,2,2,0,0,0,.79.77,2.2,2.2,0,0,0,2.15,0,2.09,2.09,0,0,0,.78-.78,2.2,2.2,0,0,0,0-2.15,2,2,0,0,0-.79-.78m0,3a1.53,1.53,0,0,1-2.16,0A1.47,1.47,0,0,1,20.06,12a1.51,1.51,0,0,1,.43-1.1,1.44,1.44,0,0,1,1.08-.45,1.46,1.46,0,0,1,1.08.45A1.49,1.49,0,0,1,23.1,12a1.45,1.45,0,0,1-.44,1.1"/><path class="cls-1" d="M24.45,10.52h.65v3.27a.22.22,0,0,0,.22.22h.4V10.52h.86V10a.09.09,0,0,0-.09-.09H24.24v.39a.21.21,0,0,0,.21.21"/><path class="cls-1" d="M27.67,14h2.2v-.52a.08.08,0,0,0-.08-.09H28.06V12.11h1.81V11.6a.08.08,0,0,0-.08-.09H28.06v-1h1.83V10a.09.09,0,0,0-.09-.09H27.54a.08.08,0,0,0-.08.09v3.78a.21.21,0,0,0,.21.22"/><path class="cls-1" d="M31.4,9.92h-.53v3.87a.21.21,0,0,0,.21.22H33V13.5a.09.09,0,0,0-.09-.09h-1.4V10a.09.09,0,0,0-.08-.09"/><path class="cls-1" d="M5.62,9.92h.52a.09.09,0,0,1,.08.09v4H5.83a.21.21,0,0,1-.21-.22Z"/><path class="cls-1" d="M3.8,9.92,2.31,13l-1.5-3H.58L0,14H.41a.21.21,0,0,0,.21-.19l.32-2.34L2.19,14h.23L3.66,11.5,4,13.82a.22.22,0,0,0,.22.19H4.6L4,9.92Z"/><path class="cls-1" d="M10.28,10.46a1.83,1.83,0,0,0-.7-.41,4.31,4.31,0,0,0-1.25-.13H7.51a.09.09,0,0,0-.09.09v3.78a.22.22,0,0,0,.22.22H8.76A2.61,2.61,0,0,0,10,13.77a1.75,1.75,0,0,0,.68-.72,2.15,2.15,0,0,0,.25-1,2.65,2.65,0,0,0-.16-.92,1.86,1.86,0,0,0-.46-.67m-.11,2.18a1.09,1.09,0,0,1-.33.46,1.14,1.14,0,0,1-.5.26,5.68,5.68,0,0,1-1,.06H8v-2.9h.16a5.36,5.36,0,0,1,1,.07,1.36,1.36,0,0,1,.57.26,1.41,1.41,0,0,1,.38.49,1.8,1.8,0,0,1,.13.66,1.59,1.59,0,0,1-.12.64"/><path class="cls-1" d="M12.12,14h.39V10a.08.08,0,0,0-.08-.09h-.52v3.87a.21.21,0,0,0,.21.22"/></g></g></svg>