<svg xmlns="http://www.w3.org/2000/svg" viewBox="0 0 42.26 15.66"><defs><style>.cls-1{fill:#1e1f3f;}.cls-2{fill:#9c7e74;}</style></defs><g id="图层_2" data-name="图层 2"><g id="图层_1-2" data-name="图层 1"><polygon class="cls-1" points="6.64 9.71 7.03 9.71 7.03 10.58 7.76 10.58 7.76 9.71 8.15 9.71 8.15 11.91 7.76 11.91 7.76 10.96 7.03 10.96 7.03 11.91 6.64 11.91 6.64 9.71"/><path class="cls-1" d="M9.28,10.8c0-.7.35-1.11.87-1.11s.86.41.86,1.11-.35,1.13-.86,1.13-.87-.43-.87-1.13m1.34,0c0-.46-.19-.74-.47-.74s-.48.28-.48.74.19.76.48.76.47-.3.47-.76"/><polygon class="cls-1" points="12.45 10.08 11.9 10.08 11.9 9.71 13.38 9.71 13.38 10.08 12.83 10.08 12.83 11.91 12.45 11.91 12.45 10.08"/><polygon class="cls-1" points="14.45 9.71 15.64 9.71 15.64 10.08 14.84 10.08 14.84 10.59 15.52 10.59 15.52 10.95 14.84 10.95 14.84 11.54 15.67 11.54 15.67 11.91 14.45 11.91 14.45 9.71"/><polygon class="cls-1" points="16.81 9.71 17.2 9.71 17.2 11.54 17.98 11.54 17.98 11.91 16.81 11.91 16.81 9.71"/><path class="cls-1" d="M18.91,11.32a.74.74,0,0,1,.36-.62,1.21,1.21,0,0,1-.12-.46.52.52,0,0,1,.51-.55.43.43,0,0,1,.45.47c0,.29-.21.46-.42.62a3,3,0,0,0,.42.45,1.46,1.46,0,0,0,.24-.55h.35a2.15,2.15,0,0,1-.33.74,1.17,1.17,0,0,0,.35.16l-.09.35a1.55,1.55,0,0,1-.49-.23.89.89,0,0,1-.59.23.6.6,0,0,1-.64-.61m.68.28a.5.5,0,0,0,.29-.11,2.59,2.59,0,0,1-.44-.5.39.39,0,0,0-.16.3.3.3,0,0,0,.31.31m-.05-1.07c.15-.11.27-.21.27-.37s0-.18-.14-.18-.2.1-.2.26a.87.87,0,0,0,.07.29"/><path class="cls-1" d="M21.76,9.71h.67c.41,0,.73.16.73.67a.62.62,0,0,1-.37.63l.46.9h-.44l-.4-.83h-.27v.83h-.38Zm.64,1c.25,0,.38-.12.38-.35s-.13-.32-.38-.32h-.26v.67Z"/><polygon class="cls-1" points="24.29 9.71 25.48 9.71 25.48 10.08 24.68 10.08 24.68 10.59 25.36 10.59 25.36 10.95 24.68 10.95 24.68 11.54 25.51 11.54 25.51 11.91 24.29 11.91 24.29 9.71"/><path class="cls-1" d="M26.52,11.61l.23-.29a.74.74,0,0,0,.49.24c.2,0,.31-.1.31-.25s-.12-.21-.29-.29L27,10.89a.61.61,0,0,1-.39-.58.62.62,0,0,1,.67-.62.83.83,0,0,1,.61.28l-.2.27a.55.55,0,0,0-.41-.18c-.17,0-.28.08-.28.23s.14.21.3.28l.26.12a.6.6,0,0,1,.39.59.66.66,0,0,1-.72.65,1,1,0,0,1-.71-.32"/><path class="cls-1" d="M28.94,10.8c0-.7.35-1.11.87-1.11s.87.41.87,1.11-.36,1.13-.87,1.13-.87-.43-.87-1.13m1.34,0c0-.46-.18-.74-.47-.74s-.47.28-.47.74.18.76.47.76.47-.3.47-.76"/><path class="cls-1" d="M31.8,9.71h.68c.41,0,.73.16.73.67a.63.63,0,0,1-.37.63l.45.9h-.43l-.4-.83h-.27v.83H31.8Zm.64,1c.25,0,.39-.12.39-.35s-.14-.32-.39-.32h-.25v.67Z"/><polygon class="cls-1" points="34.68 10.09 34.13 10.09 34.13 9.73 35.62 9.73 35.62 10.09 35.06 10.09 35.06 11.89 34.68 11.89 34.68 10.09"/><path class="cls-2" d="M40.74,1.47A2.11,2.11,0,0,1,39.12,0H37.54a5,5,0,0,0,3.2,1.53Z"/><path class="cls-1" d="M5,2c.25.1.44.53.44,1.06V6.26c0,.53-.19,1-.44,1.06v0H7v0c-.25-.1-.43-.53-.43-1.06V3c0-.53.18-1,.43-1.06v0H5Z"/><path class="cls-1" d="M21.69,2c.25.1.44.53.44,1.06V6.26c0,.53-.19,1-.44,1.06v0h1.95v0c-.25-.1-.43-.53-.43-1.06V3c0-.53.18-1,.43-1.06v0H21.69Z"/><path class="cls-1" d="M11.58,2c.25.1.43.53.43,1.06V5.71a1.29,1.29,0,0,1-1.25,1,1,1,0,0,1-1-1V5h0V3c0-.53.18-1,.43-1.06v0H8.24V2c.25.1.43.53.43,1.06V5.83A1.62,1.62,0,0,0,10.3,7.45,1.8,1.8,0,0,0,12,6.26V7.34h1.52v0c-.25-.1-.44-.53-.44-1.06V3c0-.53.19-1,.44-1.06v0H11.58Z"/><path class="cls-1" d="M29.16,6.57c-.34-.91-1.23-3.32-1.75-4.75l-.48.11L25.1,6.61c-.24.5-.39.63-.57.71v0H25.6v0c-.11-.06-.3-.15-.09-.66L26,5.51h1.67l.42,1.2c.13.37.06.5-.11.61v0h1.8v0a1.26,1.26,0,0,1-.59-.75M26.1,5.18s.49-1.27.74-1.9l.68,1.9Z"/><path class="cls-1" d="M2.94,7h-1a.38.38,0,0,1-.38-.38V3c0-.53.19-1,.44-1.06v0H0V2c.25.1.43.53.43,1.06V6.26c0,.53-.18,1-.43,1.06v0H4.08l.07-1.26h0A1.2,1.2,0,0,1,2.94,7"/><path class="cls-1" d="M34.33,2c.25.1.44.53.44,1.06V5.36L32.09,1.94H30.55l.52.66V6.26c0,.53-.19,1-.44,1.06v0h1.19v0a1.17,1.17,0,0,1-.43-1.06V3l3.38,4.32h.32V3A1.17,1.17,0,0,1,35.52,2v0H34.33Z"/><path class="cls-1" d="M20.73,1.94Z"/><path class="cls-1" d="M40.31,4.78v0c.25.1.43.53.43,1.06V6.5c0,.29-.08.41-.22.5a1.41,1.41,0,0,1-.59.12c-1.45,0-2-1.21-2-2.61s.78-2.28,1.87-2.33,1.65.28,1.91.87h0l-.1-1A10.38,10.38,0,0,0,40,1.84c-1.73,0-3.21,1-3.21,2.79a2.76,2.76,0,0,0,3,2.83,11.81,11.81,0,0,0,2-.28,6.14,6.14,0,0,1,0-.66h0V5.87c0-.53.19-1,.44-1.06v0Z"/><path class="cls-1" d="M20.16,6.56a2,2,0,0,0,.8.76v0H19.07v0c.16-.15.05-.34-.14-.65h0L18,5.19,17,6.63c-.26.35-.34.52-.17.69v0h-1.1v0a1.76,1.76,0,0,0,.69-.6l1.39-1.91L16.45,2.72a1.89,1.89,0,0,0-.8-.76v0h1.9V2c-.16.15-.05.34.14.65h0l.77,1.23.86-1.18c.26-.35.35-.53.18-.7v0h1.1V2a1.88,1.88,0,0,0-.7.6L18.7,4.22Z"/><path class="cls-1" d="M15.59,15.15a1.42,1.42,0,0,1-.18-.22,1.32,1.32,0,0,0,.22-.18l.13-.11-.13-.12a1.37,1.37,0,0,1-.3.28,1.78,1.78,0,0,1-.12-.33h.52a1.09,1.09,0,0,1,0-.2v-.15a1.15,1.15,0,0,1,0-.2h-.59l.14-.16.08-.1-.09-.09h-.56l0,0,0,0a.15.15,0,0,1,0-.06l-.17-.05a.8.8,0,0,1-.16.23A1.47,1.47,0,0,1,14,14l.08.15.17-.12v.21c0,.1,0,.16,0,.2h.54a1.75,1.75,0,0,1-.72.25l.07.16a2.23,2.23,0,0,0,.63-.24.34.34,0,0,1,.07.11,2.18,2.18,0,0,1-.76.32l.08.15a2.31,2.31,0,0,0,.74-.35L15,15a2.52,2.52,0,0,1-.91.41l.09.16a2.72,2.72,0,0,0,.85-.43v.1a.38.38,0,0,1,0,.19s0,0-.13,0a.68.68,0,0,1-.19,0l0,.19h.12a.51.51,0,0,0,.21,0c.08,0,.12-.16.12-.33a1.12,1.12,0,0,0-.24-.72l.12-.1h.05a2,2,0,0,0,.37.78,1.42,1.42,0,0,0,.37.31l.11-.18a.82.82,0,0,1-.32-.23m-.7-.82h-.48v-.24h.48Zm.07-.39h-.55l.19-.2h.52a1.5,1.5,0,0,1-.16.2m.08.15h.52v.24H15Z"/><path class="cls-1" d="M12.54,13.94v-.22a1.55,1.55,0,0,1,0-.23h-.2a1.55,1.55,0,0,1,0,.23v.22h-.54l-.26,0v.22h1.82v-.22l-.25,0Z"/><path class="cls-1" d="M12.84,14.45h-.19a.41.41,0,0,0,0,.08,3.29,3.29,0,0,0,.55,1.09l.15-.14a2.36,2.36,0,0,1-.41-.67,2.28,2.28,0,0,1-.13-.36"/><path class="cls-1" d="M12,14.66a2,2,0,0,1-.47.82l.16.14a2.93,2.93,0,0,0,.31-.49,3.36,3.36,0,0,0,.23-.61l0-.07h-.19c0,.06,0,.13-.06.21"/><path class="cls-1" d="M20.1,14.31v-.06a1.64,1.64,0,0,1,0-.23h-.21a1.64,1.64,0,0,1,0,.23v.24h0v.33h-.48a1.09,1.09,0,0,1,0,.2v.41a1.22,1.22,0,0,1,0,.21h1.21v-.82H20.1V14.5h.68V14.3H20.1Zm.4.67v.5h-.89V15h.89Z"/><path class="cls-1" d="M20,13.77v-.12a1.62,1.62,0,0,1,0-.23h-.2a1.52,1.52,0,0,1,0,.23v.12h-.71v.17h0v0h0v.08a2.67,2.67,0,0,1-.22,1.45v0h0a.44.44,0,0,1,.12.11v0A3.08,3.08,0,0,0,19.3,14h1.55v-.21H20Z"/><path class="cls-1" d="M17.21,13.55H17v.22l.25,0h.24a1.62,1.62,0,0,1,0,.31H17a1.15,1.15,0,0,1,0,.2v1.15a1.15,1.15,0,0,1,0,.2h.16v-.12h1v.12h.16c0-.06,0-.11,0-.2V14.24c0-.09,0-.14,0-.2h-.43c0-.11,0-.21,0-.31h.51v-.22h-1.2Zm.38.2h.18c0,.07,0,.17,0,.3h-.19a1.79,1.79,0,0,0,0-.3m-.41.45h.21a1.28,1.28,0,0,1-.21.47Zm1,1.08h-.73l-.25,0V15.1h1Zm0-1.08v.34c-.07,0-.24,0-.25,0s0-.17,0-.31Zm0,.46v.26h-.73l-.25,0v-.19l.12.08a1.89,1.89,0,0,0,.24-.6h.22c0,.11,0,.24,0,.38s.24.1.38.08"/><path class="cls-1" d="M16.8,14.5h0l.09-.15h0a3.38,3.38,0,0,0-.37-.31h0l-.1.14h0a1.8,1.8,0,0,1,.37.32"/><path class="cls-1" d="M16.79,14.73a2.07,2.07,0,0,1-.34.69h0l.14.15v0a.13.13,0,0,0,0-.05v0a1.15,1.15,0,0,0,.08-.14h0a4.54,4.54,0,0,0,.2-.51h0l-.13-.12Z"/><path class="cls-1" d="M16.63,13.53h0l-.11.13h0a1.32,1.32,0,0,1,.34.33h0l.11-.14h0a1.72,1.72,0,0,0-.34-.33"/><path class="cls-1" d="M22.68,15a1.91,1.91,0,0,0,.36-.53l.05-.06a1.5,1.5,0,0,0,.09-.18l-.08-.09h-.44c0-.11.06-.25.07-.29a.65.65,0,0,1,.1-.22l-.08-.1H21.5v.17h.38v.09c0,.06,0,.16,0,.33s0,.23-.05.33a1.58,1.58,0,0,1-.49.94v0h0a.36.36,0,0,1,.1.11v0h0a1.85,1.85,0,0,0,.39-.61,3,3,0,0,0,.15-.61,2.38,2.38,0,0,0,.44.69,1.19,1.19,0,0,1-.21.15,1.49,1.49,0,0,1-.46.22h0v0a.4.4,0,0,1,.07.12h0v0h0a2.26,2.26,0,0,0,.7-.43l.21.17a2.32,2.32,0,0,0,.47.26h0v0a.64.64,0,0,1,.08-.14v0h0a1.81,1.81,0,0,1-.65-.37m-.08-1.3-.13.59h.46a1.8,1.8,0,0,1-.37.59,1.91,1.91,0,0,1-.32-.41A2.36,2.36,0,0,1,22,14c0-.1,0-.16,0-.21v0h.56Z"/><path class="cls-1" d="M27.09,15.17h.26V15h-.42v-.3h.4v-.18h-.4v-.29h.47a1.41,1.41,0,0,1,0-.22v-.3a1.28,1.28,0,0,1,0-.21h-.64v.15h0v1.68a1,1,0,0,1,0,.22v0H27a2,2,0,0,1,0-.25v-.21Zm.15-1.46v.4h-.31v-.4h.31Z"/><path class="cls-1" d="M27.89,14.27h.2c0-.06,0-.13,0-.22v-.3c0-.08,0-.16,0-.21h-.6v.18h.45v.4h-.45v.18h.4Z"/><path class="cls-1" d="M26.53,13.44a1,1,0,0,1-.05.27,2.35,2.35,0,0,1-.34.78h0a.5.5,0,0,1,.08.12v0l0,0a1.57,1.57,0,0,0,.14-.25c0,.07,0,.15,0,.25v.72a2.36,2.36,0,0,1,0,.29v0h.19V14.05a4.09,4.09,0,0,0,.13-.48l0,0a0,0,0,0,1,0,0v0l-.18-.06Z"/><path class="cls-1" d="M27.84,15.15a1.59,1.59,0,0,0,.21-.41,1.51,1.51,0,0,1,.08-.21h0l-.08-.09h-.52l-.16,0h0v.19h.07a1.72,1.72,0,0,0,.22.54,1.26,1.26,0,0,1-.49.35h0l0,0a.29.29,0,0,1,.09.12h0a1.42,1.42,0,0,0,.48-.37,1.68,1.68,0,0,0,.4.35v0a.47.47,0,0,1,.08-.14h0a1.72,1.72,0,0,1-.39-.31m.09-.55a1.57,1.57,0,0,1-.19.41,1.63,1.63,0,0,1-.17-.41Z"/><path class="cls-1" d="M30.46,13.92h0V13.7a1,1,0,0,1,0-.22.08.08,0,0,1,0,0h-.21a1.81,1.81,0,0,1,0,.25v.23h-.66v.22l.26,0h.4v1.21c0,.08-.13.06-.24.06a.72.72,0,0,1-.19,0l.05.19h.42a.13.13,0,0,0,.13-.13V14.11h.25v-.22h-.25"/><path class="cls-1" d="M30.14,14.92a1.37,1.37,0,0,0-.17-.37,2.7,2.7,0,0,0-.18-.25l-.11.09A1.47,1.47,0,0,1,30,15Z"/><path class="cls-1" d="M29.34,14.2v-.13h.25v-.22l-.25,0h0V13.7a1,1,0,0,1,0-.22v0h-.22a1.81,1.81,0,0,1,0,.25v.19h-.09l-.26,0v.22h.35l0,.06a2.15,2.15,0,0,1-.45.82l.14.14a2.48,2.48,0,0,0,.31-.5l0,0v.8a2.11,2.11,0,0,1,0,.26h.22a1.93,1.93,0,0,1,0-.26v-.92a1.51,1.51,0,0,1,.18.36l.15-.07a2.16,2.16,0,0,0-.2-.36l-.13-.17"/><path class="cls-1" d="M24.47,14.27v.35h.85a1.09,1.09,0,0,1,0-.2v-.15h.42V14.1h-.42a.38.38,0,0,1,0-.12v0h-.17c0,.06,0,.1,0,.16h-.53V14s0,0,0,0h-.18a.86.86,0,0,1,0,.16h-.3V13.9h1.55v-.22l-.25,0h-.54v-.06a1.52,1.52,0,0,1,0-.23h-.2a1.62,1.62,0,0,1,0,.23v.06h-.51l-.26,0v.18h0v0h0V14a2.84,2.84,0,0,1-.22,1.5h0l.11.11,0,0v0a2.6,2.6,0,0,0,.24-1.34Zm.69.2h-.53v-.2h.53Z"/><path class="cls-1" d="M25.07,15.27a2.4,2.4,0,0,0,.27-.28.84.84,0,0,0,.13-.17l-.09-.09H24.23v.18l.21,0a1.59,1.59,0,0,0,.32.39,2,2,0,0,1-.7.2h0v0a.58.58,0,0,1,.06.15h0a2.18,2.18,0,0,0,.78-.28,1.8,1.8,0,0,0,.76.27h0a.69.69,0,0,1,.07-.15v0h0a1.85,1.85,0,0,1-.67-.18m.15-.39a1.21,1.21,0,0,1-.31.29,1.09,1.09,0,0,1-.28-.29h.59Z"/></g></g></svg>