<svg xmlns="http://www.w3.org/2000/svg" viewBox="0 0 43 16.09"><defs><style>.cls-1,.cls-2{fill:#231815;}.cls-1{fill-rule:evenodd;}.cls-3{fill:#376185;}</style></defs><g id="图层_2" data-name="图层 2"><g id="图层_1-2" data-name="图层 1"><path class="cls-1" d="M7.64,3.17h.53c.05,0,.07,0,0-.07l-.7-.7a.11.11,0,0,0-.14,0,2.06,2.06,0,0,1-1.19.32H.61v.47h7Z"/><rect class="cls-2" x="1.26" y="5.28" width="6.06" height="0.47"/><path class="cls-1" d="M2.63,2.1C3,2,3,1.48,2.8,1.25A2,2,0,0,0,1.45.49c-.06,0-.08,0,0,0C2,1.12,2.12,2.21,2.63,2.1Z"/><path class="cls-1" d="M7.16,1.08A.31.31,0,0,1,7.31,1a.07.07,0,0,0,0-.12L6.76.33s0,0,0,0A4.74,4.74,0,0,1,5.28,2.07s0,0,0,0A2.72,2.72,0,0,0,7.16,1.08Z"/><path class="cls-1" d="M7.85,8.05a.11.11,0,0,0-.14,0,2.14,2.14,0,0,1-1.19.32H0v.46H8.53c.05,0,.07,0,0-.07Z"/><path class="cls-1" d="M30.88.56a.12.12,0,0,0-.14,0,1.7,1.7,0,0,1-1,.25h-4.7v.39h2V2.34h-.64a3.41,3.41,0,0,1-1.26-.12c-.08,0-.11.11,0,.14a.41.41,0,0,1,.22.23,1.35,1.35,0,0,1,.05.46V8.73h5.88v-6h0l0,0-.56-.56a.11.11,0,0,0-.14,0,1.71,1.71,0,0,1-1,.26h-.12V1.19h2s.06,0,0-.07Zm-3,.63h.9V2.34h-.91C27.85,2,27.85,1.6,27.85,1.19Zm2.48,7.16H26.57a.18.18,0,0,1-.15-.07s0-.07-.05-.1a1.52,1.52,0,0,1,0-.37V7.19h4Zm0-1.54h-4V3.3a1.08,1.08,0,0,1,0-.35.29.29,0,0,1,.2-.19.39.39,0,0,1,.14,0h.34c0,2.32-.1,2.83-.47,3.55,0,.05,0,.09.08,0,.81-.69,1.1-1.46,1.17-3.59h.91V5.28a.38.38,0,0,0,.39.39h1.19Zm0-4.09V5.29h-.74a.12.12,0,0,1-.12-.12V2.72Z"/><path class="cls-1" d="M24.52,5c0-.06,0-.1-.08,0a8.94,8.94,0,0,1-1.81,3.2.07.07,0,0,0,0,.11l.94.6s.09-.05.07-.1a.22.22,0,0,1,0-.17A10.33,10.33,0,0,0,24.52,5Z"/><path class="cls-1" d="M22.69,2.83c-.05,0-.08,0,0,0,.6.59.71,1.69,1.22,1.58s.33-.62.17-.85A2,2,0,0,0,22.69,2.83Z"/><path class="cls-1" d="M24,2.24c.36-.11.24-.62.07-.82A1.91,1.91,0,0,0,22.65.84s-.07,0,0,0C23.26,1.38,23.47,2.4,24,2.24Z"/><path class="cls-1" d="M43,1.6,42.42,1a.12.12,0,0,0-.14,0,1.73,1.73,0,0,1-1,.26H39.6a.65.65,0,0,0-.1-.69A1.91,1.91,0,0,0,38.13,0c-.05,0-.07,0,0,0,.44.35.68,1,1,1.23H35.73a2.64,2.64,0,0,1-.8-.12c-.08,0-.11.11,0,.14a.43.43,0,0,1,.22.22,1.35,1.35,0,0,1,0,.46v2.7c0,2.05-.33,3.46-1.48,4-.12.06-.06.15.06.13,1.55-.33,2.5-1.5,2.5-4.16V1.87c0-.11,0-.21.21-.21H43S43,1.64,43,1.6Z"/><path class="cls-1" d="M42.26,2.88a.11.11,0,0,0-.14,0,1.7,1.7,0,0,1-1,.25H40v-1H40a3.61,3.61,0,0,1-1.26-.12c-.08,0-.11.11,0,.14a.43.43,0,0,1,.22.22,1.35,1.35,0,0,1,.05.46V5.12H37.9A3.35,3.35,0,0,1,36.65,5a.07.07,0,0,0,0,.14.45.45,0,0,1,.22.23,1.57,1.57,0,0,1,.05.46v3h5.58V5.48h0s0,0,0,0l-.56-.56a.12.12,0,0,0-.14,0,1.57,1.57,0,0,1-.92.25H40V3.5h2.78s0,0,0-.06Zm-.89,2.63V8.44H38.19A.2.2,0,0,1,38,8.38l0-.11a1.36,1.36,0,0,1,0-.36V6.09a1.08,1.08,0,0,1,0-.35.31.31,0,0,1,.2-.2l.14,0Z"/><path class="cls-1" d="M19.64,1.4,19.11.87a.11.11,0,0,0-.11,0,1.51,1.51,0,0,1-.9.25H16.46v.35h3.16S19.67,1.44,19.64,1.4Z"/><path class="cls-1" d="M19.64,2.53,19.11,2A.09.09,0,0,0,19,2a1.58,1.58,0,0,1-.9.24H16.46v.35h3.16S19.67,2.57,19.64,2.53Z"/><path class="cls-1" d="M19.64,3.67l-.53-.54a.09.09,0,0,0-.11,0,1.58,1.58,0,0,1-.9.24H16.46v.35h3.16S19.67,3.7,19.64,3.67Z"/><rect class="cls-2" x="11.69" y="1.11" width="2.4" height="0.36"/><rect class="cls-2" x="11.48" y="3.37" width="2.61" height="0.36"/><rect class="cls-2" x="11.69" y="2.27" width="2.4" height="0.36"/><path class="cls-1" d="M13.71.32c-.06,0-.08.09,0,.11a.35.35,0,0,1,.17.17.92.92,0,0,1,0,.33V4.3h.86V.41A3.36,3.36,0,0,1,13.71.32Z"/><path class="cls-1" d="M16.22.32c-.07,0-.09.09,0,.11a.37.37,0,0,1,.16.17,1.07,1.07,0,0,1,0,.36v.41h0v2.9h.86V.41A3.27,3.27,0,0,1,16.22.32Z"/><path class="cls-2" d="M19.78,8.33h-.09a8.63,8.63,0,0,1-3.48-.78A8.26,8.26,0,0,0,17.85,5.5h1.91s0,0,0-.07l-.53-.63a.08.08,0,0,0-.11,0,1.36,1.36,0,0,1-.9.3H11.52V5.5h1.92a7.27,7.27,0,0,0,1.64,2.08,11.8,11.8,0,0,1-3.73,1.7h0a.08.08,0,0,0,0,.07.09.09,0,0,0,.08.09h0A9,9,0,0,0,15.64,8,7.68,7.68,0,0,0,19,9.25a.14.14,0,0,0,.14-.11,1.14,1.14,0,0,1,.42-.59h0a.3.3,0,0,1,.22-.09,0,0,0,0,0,0,0S19.84,8.32,19.78,8.33ZM15.55,7.2a6.86,6.86,0,0,1-1.8-1.7H16.9A5.67,5.67,0,0,1,15.55,7.2Z"/><path class="cls-1" d="M16.15,4.42a.06.06,0,0,1,0,.11A.35.35,0,0,0,16,4.7a1.07,1.07,0,0,0,0,.36V5.5h-.86v-1A3.39,3.39,0,0,0,16.15,4.42Z"/><path class="cls-2" d="M12.54,15.9A1,1,0,0,0,13,16h.05l.28,0-.28-.25a2.73,2.73,0,0,1-.24-.26l-1.16-1.4h0a2,2,0,0,0,.73-.43.77.77,0,0,0,.24-.56.83.83,0,0,0-.39-.71,1.79,1.79,0,0,0-1-.28H9.78a.87.87,0,0,1,.16.23,1.24,1.24,0,0,1,.06.45v2.57a1.28,1.28,0,0,1-.06.45.87.87,0,0,1-.16.23h1.07a.87.87,0,0,1-.16-.23,1.28,1.28,0,0,1-.06-.45V12.49h0l.27,0h.21a1,1,0,0,1,.62.19.63.63,0,0,1,.24.51.66.66,0,0,1-.28.55,2,2,0,0,1-.82.31l1.28,1.61A1.07,1.07,0,0,0,12.54,15.9Z"/><path class="cls-2" d="M16,15.53a2.2,2.2,0,0,1-.64.09l-.35,0-.45,0h0V14.08h.42a2.37,2.37,0,0,1,.47,0,.75.75,0,0,1,.18.08v-.5H14.5V12.53h0l.36-.06.29,0a1.53,1.53,0,0,1,.45.06,1,1,0,0,1,.33.14v-.56H13.64a.87.87,0,0,1,.16.23,1.24,1.24,0,0,1,.06.45v2.57a1.28,1.28,0,0,1-.06.45.87.87,0,0,1-.16.23h2.57l.28-.7A2.34,2.34,0,0,1,16,15.53Z"/><path class="cls-2" d="M20.38,12.11a.76.76,0,0,1,.18.23,1.16,1.16,0,0,1,.06.43v2.57a1.1,1.1,0,0,1-.06.42.69.69,0,0,1-.18.24l-.1.09h1.46L21.63,16a.59.59,0,0,1-.18-.24,1.1,1.1,0,0,1-.06-.42V14.15h.36a2.39,2.39,0,0,1,.46,0,.4.4,0,0,1,.18.1l.08.09v-.75H21.4v-1l.32-.05.28,0a1.75,1.75,0,0,1,.43.05,1.19,1.19,0,0,1,.34.16l.08.06V12H20.27Z"/><path class="cls-2" d="M29.65,15.47a2.45,2.45,0,0,1-.62.08l-.34,0-.41,0V14.15h.35a2.39,2.39,0,0,1,.46,0,.4.4,0,0,1,.18.1l.08.09v-.75H28.28v-1l.32-.05.28,0a1.75,1.75,0,0,1,.43.05,1.19,1.19,0,0,1,.34.16l.08.06V12H27.15l.11.09a.63.63,0,0,1,.18.23,1.16,1.16,0,0,1,.06.43v2.57a1.1,1.1,0,0,1-.06.42.59.59,0,0,1-.18.24l-.05,0L27.13,16a3,3,0,0,1-.32-.28l-.24-.26-1.09-1.32a2,2,0,0,0,.7-.42.9.9,0,0,0,.25-.61.91.91,0,0,0-.42-.77A1.83,1.83,0,0,0,24.94,12H23.29l.11.09a.76.76,0,0,1,.18.23,1.16,1.16,0,0,1,.06.43v2.57a1.1,1.1,0,0,1-.06.42.69.69,0,0,1-.18.24l-.11.09h1.47L24.65,16a.59.59,0,0,1-.18-.24,1.1,1.1,0,0,1-.06-.42V12.55l.23,0h.2a.89.89,0,0,1,.58.18.55.55,0,0,1,.21.45.58.58,0,0,1-.25.49,2,2,0,0,1-.83.31l-.08,0,1.35,1.69a1.16,1.16,0,0,0,.4.33,1.07,1.07,0,0,0,.49.12l.49,0,0,0H30l.37-.94-.12.07A2.83,2.83,0,0,1,29.65,15.47Z"/><path class="cls-2" d="M33.57,15.22a2.83,2.83,0,0,1-.57.25,2.45,2.45,0,0,1-.62.08l-.34,0-.41,0V14.15H32a2.32,2.32,0,0,1,.46,0,.35.35,0,0,1,.18.1l.08.09v-.75H31.63v-1l.32-.05.29,0a1.88,1.88,0,0,1,.43.05,1.26,1.26,0,0,1,.33.16l.08.06V12H30.51l.1.09a.54.54,0,0,1,.18.23,1.16,1.16,0,0,1,.06.43v2.57a1.1,1.1,0,0,1-.06.42.51.51,0,0,1-.18.24l-.1.09h2.81l.37-.94Z"/><rect class="cls-3" x="17.91" y="12.21" width="0.96" height="0.96" transform="translate(14.36 -9.29) rotate(45.01)"/><rect class="cls-3" x="17.91" y="14.92" width="0.96" height="0.96" transform="translate(16.27 -8.49) rotate(45)"/></g></g></svg>