<svg xmlns="http://www.w3.org/2000/svg" viewBox="0 0 47.76 15.11"><defs><style>.cls-1,.cls-2{fill:#18325d;}.cls-1{fill-rule:evenodd;}</style></defs><g id="图层_2" data-name="图层 2"><g id="图层_1-2" data-name="图层 1"><path class="cls-1" d="M7,2.9h.48s.06,0,0-.07l-.64-.64a.09.09,0,0,0-.13,0,1.9,1.9,0,0,1-1.09.29H.56V2.9H7Z"/><rect class="cls-2" x="1.15" y="4.83" width="5.55" height="0.43"/><path class="cls-1" d="M2.41,1.92c.35-.07.3-.57.16-.78A1.87,1.87,0,0,0,1.32.44s-.07,0,0,0C1.85,1,1.94,2,2.41,1.92"/><path class="cls-1" d="M6.56,1A.3.3,0,0,1,6.7.92a.07.07,0,0,0,0-.12L6.19.3s0,0,0,0A4.43,4.43,0,0,1,4.84,1.89a0,0,0,0,0,0,0A2.48,2.48,0,0,0,6.56,1"/><path class="cls-1" d="M7.19,7.37a.11.11,0,0,0-.13,0A1.9,1.9,0,0,1,6,7.65H0v.43H7.81c.05,0,.06,0,0-.07Z"/><path class="cls-1" d="M17.3,2.82a.07.07,0,0,0,0-.11l-.73-.47c-.12.38-.32.92-.56,1.51a7.91,7.91,0,0,0-1.36-1.31l-.07.05a13.73,13.73,0,0,1,1.21,1.77,9.56,9.56,0,0,1-1.25,2.18s0,.09.05.06A3.9,3.9,0,0,0,16.1,4.85c.42.87.56,1.44.86,1.46s.48-.5.19-1a11.48,11.48,0,0,0-.71-1.06c.28-.52.55-1,.72-1.33a.41.41,0,0,1,.14-.12"/><path class="cls-1" d="M19.56,5.62a8.74,8.74,0,0,0,.15-1.74.27.27,0,0,1,.1-.18.07.07,0,0,0,0-.11L18.87,3c0,2.23-.3,3.51-.94,4.32h0l-.08.11-.37-.36a.1.1,0,0,0-.12,0,1.58,1.58,0,0,1-.84.23H14.35a.23.23,0,0,1-.13-.14.92.92,0,0,1,0-.33V2a.61.61,0,0,1,.05-.23.26.26,0,0,1,.17-.18l.14,0h3.13V1.21H14.18A3.49,3.49,0,0,1,13,1.11a.06.06,0,0,0,0,.12.41.41,0,0,1,.2.21,1.35,1.35,0,0,1,0,.41V6.73c0,.3,0,.69-.23.73l0,0v.12a0,0,0,0,0,0,0h4.66a2.53,2.53,0,0,1-.38.31h0a4.13,4.13,0,0,1-.75.41c-.11.05-.05.14.06.12a3.25,3.25,0,0,0,3-2.8,5.38,5.38,0,0,1,.37.93,8.69,8.69,0,0,1,.34,1.48c.1.69,1,.23.69-.69a3.75,3.75,0,0,0-1.39-1.78"/><path class="cls-1" d="M20.74,1.68a.1.1,0,0,0-.12,0,1.51,1.51,0,0,1-.87.23h-.81c.11-.22.27-.53.38-.72A.45.45,0,0,1,19.51,1a.07.07,0,0,0,0-.12L18.76.44a13.82,13.82,0,0,1-1.38,3.11s0,.09.05.06a3.07,3.07,0,0,0,1.32-1.35H20.5a4.35,4.35,0,0,1-.24.49c-.12.19.07.1.18,0a4.37,4.37,0,0,0,.82-.54h0s0,0,0,0Z"/><path class="cls-1" d="M30.32,2.27h-.59a3.32,3.32,0,0,1-1.15-.1.06.06,0,0,0,0,.12.39.39,0,0,1,.19.21,1.13,1.13,0,0,1,.05.42v5.2h5.39V2.59h0l0,0-.51-.51a.09.09,0,0,0-.13,0,1.57,1.57,0,0,1-.87.23h-.11V1.21h1.79s0,0,0-.05L33.82.64a.12.12,0,0,0-.13,0,1.51,1.51,0,0,1-.88.23h-4.3v.35h1.81Zm3,5.5H29.87a.16.16,0,0,1-.13-.06.26.26,0,0,1,0-.09,1.22,1.22,0,0,1,0-.33V6.72h3.66Zm-.78-3.19v-2h.78V5h-.67a.1.1,0,0,1-.11-.1ZM31.05,1.21h.82V2.27H31c0-.32,0-.67,0-1.06m.82,1.41V5a.35.35,0,0,0,.35.35h1.09v1H29.65V3.15a.89.89,0,0,1,0-.32.27.27,0,0,1,.18-.18l.13,0h.31c0,2.12-.09,2.59-.43,3.25a0,0,0,0,0,.08,0c.74-.64,1-1.34,1.06-3.29Z"/><path class="cls-1" d="M28,4.67c0-.06,0-.09-.08,0a8.24,8.24,0,0,1-1.66,2.93.07.07,0,0,0,0,.1l.86.55s.08-.05.06-.1a.2.2,0,0,1,0-.15A9.59,9.59,0,0,0,28,4.67"/><path class="cls-1" d="M26.32,2.72c-.05,0-.07,0,0,0,.55.55.65,1.55,1.12,1.46s.3-.58.16-.79a1.81,1.81,0,0,0-1.25-.7"/><path class="cls-1" d="M27.47,2.18c.33-.1.22-.57.06-.75A1.75,1.75,0,0,0,26.28.9s-.06,0,0,0c.58.45.78,1.38,1.21,1.24"/><path class="cls-1" d="M47.74,1.46,47.23,1a.1.1,0,0,0-.13,0,1.58,1.58,0,0,1-.88.23H44.65a.62.62,0,0,0-.09-.64A1.77,1.77,0,0,0,43.31,0c-.05,0-.07,0,0,0a7.62,7.62,0,0,1,.88,1.13h-3a2.16,2.16,0,0,1-.73-.11.07.07,0,0,0,0,.13.41.41,0,0,1,.2.21,1.35,1.35,0,0,1,.05.42V4.29c0,1.87-.31,3.16-1.36,3.62-.11.06,0,.15.05.12,1.43-.3,2.29-1.37,2.29-3.81V1.71c0-.1,0-.19.19-.19h6s.05,0,0-.06"/><path class="cls-1" d="M47.09,2.64a.11.11,0,0,0-.13,0,1.61,1.61,0,0,1-.88.23H45V2h0a3.32,3.32,0,0,1-1.15-.1.07.07,0,0,0,0,.13.39.39,0,0,1,.2.2,1.4,1.4,0,0,1,.05.42V4.69h-1A3,3,0,0,1,42,4.59a.07.07,0,0,0,0,.13.36.36,0,0,1,.2.2,1.16,1.16,0,0,1,0,.43V8.08h5.11V5h0s0,0,0,0l-.51-.52a.12.12,0,0,0-.13,0,1.4,1.4,0,0,1-.84.23H45V3.21h2.55s0,0,0-.06Zm-.81,2.41V7.73H43.36a.16.16,0,0,1-.13-.06.2.2,0,0,1,0-.09.94.94,0,0,1,0-.34V5.58a.89.89,0,0,1,0-.32.27.27,0,0,1,.18-.18.42.42,0,0,1,.13,0Z"/><path class="cls-1" d="M36.55,11l-.34,0-.38,0h-.31a.06.06,0,0,0,0,0,0,0,0,0,0,0,0,.54.54,0,0,1,.44.2.86.86,0,0,1,.15.53V13.5a1.26,1.26,0,0,1-.3.91,1.17,1.17,0,0,1-1.65,0,1.7,1.7,0,0,1-.29-1.1v-1.8a.94.94,0,0,1,0-.28.24.24,0,0,1,.13-.13.88.88,0,0,1,.28,0s0,0,0,0,0,0,0,0H34l-.48,0-.45,0h-.34s0,0,0,0,0,0,0,0a.71.71,0,0,1,.29,0,.18.18,0,0,1,.12.12.66.66,0,0,1,0,.28v2a1.51,1.51,0,0,0,.2.78,1.36,1.36,0,0,0,.57.52,1.9,1.9,0,0,0,.82.17,1.8,1.8,0,0,0,.82-.18,1.29,1.29,0,0,0,.55-.51,1.49,1.49,0,0,0,.19-.77V11.75a.92.92,0,0,1,.14-.53.44.44,0,0,1,.38-.2s0,0,0,0,0,0,0,0Z"/><path class="cls-1" d="M20.11,14.63a3.17,3.17,0,0,1-.36-.62l-1.57-3.09-.06,0-.06,0-1.36,3a4.49,4.49,0,0,1-.28.55.88.88,0,0,1-.24.26.54.54,0,0,1-.29.07v.13h1.49V14.8a.65.65,0,0,1-.43-.13.41.41,0,0,1-.16-.35.93.93,0,0,1,.08-.34l.25-.56h1.23l-.06-.14h-1.1l.13-.28.08-.18.45-1,.5,1,.09.18.65,1.28a1,1,0,0,1,.12.36.11.11,0,0,1-.07.12.45.45,0,0,1-.23,0v.13h1.5V14.8a.43.43,0,0,1-.3-.17"/><path class="cls-1" d="M26.28,11H26l-.35,0-.34,0H25s0,0,0,0,0,0,0,0a.47.47,0,0,1,.39.2.93.93,0,0,1,.13.53v2l-2.17-2.51a1.53,1.53,0,0,1-.15-.19L23.14,11a.15.15,0,0,0-.08,0H21.87s0,0,0,0,0,0,0,0a.59.59,0,0,1,.31.09,1.71,1.71,0,0,1,.35.31v2.66a.77.77,0,0,1-.16.52.54.54,0,0,1-.44.2v.07h0v.06h1.3V14.8a.44.44,0,0,1-.38-.2.89.89,0,0,1-.14-.52V11.63l3,3.36h0s0,0,0,0V11.75a.85.85,0,0,1,.14-.53.48.48,0,0,1,.4-.2,0,0,0,0,0,0,0,.06.06,0,0,0,0,0"/><path class="cls-1" d="M14.42,13.74h-.14a1.3,1.3,0,0,1-.47.71,1.43,1.43,0,0,1-.85.26h-.15a.7.7,0,0,1-.24,0,.15.15,0,0,1-.1-.09,1.25,1.25,0,0,1,0-.24V11.46a1,1,0,0,1,0-.28.18.18,0,0,1,.13-.12.71.71,0,0,1,.29,0s0,0,0,0,0,0,0,0h-.39l-.44,0-.45,0h-.38s0,0,0,0,0,0,0,0a.75.75,0,0,1,.29,0,.18.18,0,0,1,.12.12.66.66,0,0,1,0,.28v2.91a.64.64,0,0,1,0,.27.18.18,0,0,1-.12.13,1,1,0,0,1-.29,0v.13h3.12V14.8h0v0c0-.28,0-.62.06-1"/><path class="cls-1" d="M29.71,14.34a.39.39,0,1,0,0,.77.39.39,0,1,0,0-.77"/><path class="cls-1" d="M30.48,11.06a1.47,1.47,0,0,0-.78-.21,1.92,1.92,0,0,0-.78.17,1.56,1.56,0,0,0-.62.52,1.33,1.33,0,0,0-.25.82,1.51,1.51,0,0,0,.19.76,1.34,1.34,0,0,0,.52.56,1.52,1.52,0,0,0,.77.2,1.64,1.64,0,0,0,.82-.21,1.54,1.54,0,0,0,.6-.56,1.39,1.39,0,0,0,.22-.78,1.54,1.54,0,0,0-.18-.72,1.42,1.42,0,0,0-.51-.55m-.12,2.06a1,1,0,0,1-.28.42.65.65,0,0,1-.4.14.66.66,0,0,1-.47-.19,1.29,1.29,0,0,1-.33-.52,2.3,2.3,0,0,1-.12-.77,1.53,1.53,0,0,1,.2-.84.63.63,0,0,1,.56-.3.75.75,0,0,1,.5.18,1.22,1.22,0,0,1,.33.5,2.27,2.27,0,0,1,.11.72,1.83,1.83,0,0,1-.1.66"/></g></g></svg>