<svg xmlns="http://www.w3.org/2000/svg" viewBox="0 0 43 14.47"><defs><style>.cls-1,.cls-2{fill:#231815;}.cls-2{fill-rule:evenodd;}</style></defs><g id="图层_2" data-name="图层 2"><g id="图层_1-2" data-name="图层 1"><path class="cls-1" d="M7.34,7.22a.11.11,0,0,0-.13,0,2,2,0,0,1-1.11.3H0V8H8s.07,0,0-.07Z"/><rect class="cls-1" x="1.17" y="4.63" width="5.67" height="0.44"/><path class="cls-1" d="M2.46,1.66c.36-.07.31-.58.16-.79A1.86,1.86,0,0,0,1.35.15c-.05,0-.07,0,0,0C1.89.74,2,1.76,2.46,1.66Z"/><path class="cls-1" d="M7.66,2.59,7,1.94a.11.11,0,0,0-.13,0,1.87,1.87,0,0,1-1.11.3H.57v.44H7.64S7.7,2.64,7.66,2.59Z"/><path class="cls-1" d="M6.7.7A.26.26,0,0,1,6.84.64a.07.07,0,0,0,0-.12L6.32,0h0A4.61,4.61,0,0,1,4.94,1.63a0,0,0,0,0,0,0A2.57,2.57,0,0,0,6.7.7Z"/><path class="cls-2" d="M32.38,10.8l-.32,0-.36,0h-.28a0,0,0,0,0,0,0,.06.06,0,0,0,0,0,.52.52,0,0,1,.41.17.79.79,0,0,1,.14.49v1.59a1.12,1.12,0,0,1-.28.82,1,1,0,0,1-.76.29,1,1,0,0,1-.78-.33,1.53,1.53,0,0,1-.27-1V11.27a.77.77,0,0,1,0-.25A.18.18,0,0,1,30,10.9a.79.79,0,0,1,.26,0s0,0,0,0,0,0,0,0H30l-.44,0-.43,0h-.31s0,0,0,0,0,0,0,0a.91.91,0,0,1,.27,0,.25.25,0,0,1,.12.11.77.77,0,0,1,0,.25V13.1a1.28,1.28,0,0,0,.19.71,1.19,1.19,0,0,0,.52.47,1.86,1.86,0,0,0,.77.16,1.67,1.67,0,0,0,.76-.17,1.16,1.16,0,0,0,.52-.46,1.33,1.33,0,0,0,.18-.7V11.53A.79.79,0,0,1,32.3,11a.41.41,0,0,1,.35-.17s0,0,0,0,0,0,0,0Z"/><path class="cls-2" d="M15.93,14.14a3.44,3.44,0,0,1-.34-.56l-1.46-2.8s0,0-.06,0l-.05,0-1.27,2.71a4.3,4.3,0,0,1-.26.5.71.71,0,0,1-.23.23.45.45,0,0,1-.27.07v.11h1.39v-.11a.63.63,0,0,1-.4-.12.36.36,0,0,1-.15-.31.75.75,0,0,1,.08-.31l.24-.51h1.14l0-.13h-1l.11-.25.08-.16.42-.9.46.9.09.16L15,13.82a1,1,0,0,1,.11.33.11.11,0,0,1-.06.11.61.61,0,0,1-.22,0v.11h1.4v-.11A.38.38,0,0,1,15.93,14.14Z"/><path class="cls-2" d="M21.84,10.8h-.27l-.33,0-.31,0h-.25s0,0,0,0,0,0,0,0A.41.41,0,0,1,21,11a.79.79,0,0,1,.13.49v1.84l-2-2.27L19,10.92a.49.49,0,0,0-.08-.1l-.07,0H17.73s0,0,0,0,0,0,0,0a.55.55,0,0,1,.28.07,1.58,1.58,0,0,1,.33.29v2.4a.71.71,0,0,1-.15.48.48.48,0,0,1-.4.18v.07h0v0H19v-.11a.4.4,0,0,1-.36-.18.76.76,0,0,1-.13-.48V11.42l2.75,3h0a0,0,0,0,0,0,0V11.53a.78.78,0,0,1,.14-.48.43.43,0,0,1,.37-.18.06.06,0,0,0,0,0A0,0,0,0,0,21.84,10.8Z"/><path class="cls-2" d="M10.48,13.33h-.12a1.12,1.12,0,0,1-.44.64,1.35,1.35,0,0,1-.8.24H9a.61.61,0,0,1-.22,0,.14.14,0,0,1-.09-.08,1.09,1.09,0,0,1,0-.22v-2.6a.84.84,0,0,1,0-.26.19.19,0,0,1,.12-.11.91.91,0,0,1,.27,0s0,0,0,0,0,0,0,0H8.71l-.42,0-.41,0H7.52s0,0,0,0,0,0,0,0a.91.91,0,0,1,.27,0,.19.19,0,0,1,.12.11.77.77,0,0,1,0,.25V13.9a.81.81,0,0,1,0,.25.19.19,0,0,1-.12.11.87.87,0,0,1-.27,0v.11h2.91v-.11h0v0C10.43,14,10.45,13.71,10.48,13.33Z"/><path class="cls-2" d="M27.06,11.69a1.77,1.77,0,0,0-.65-.68,1.86,1.86,0,0,0-1-.25,2.4,2.4,0,0,0-1,.21,1.88,1.88,0,0,0-.79.63,1.64,1.64,0,0,0-.31,1,1.84,1.84,0,0,0,.24.93,1.7,1.7,0,0,0,.65.68,1.91,1.91,0,0,0,1,.25,2.15,2.15,0,0,0,1-.25,2.1,2.1,0,0,0,.76-.69,1.79,1.79,0,0,0,.28-1A1.83,1.83,0,0,0,27.06,11.69Zm-.68,1.84A1,1,0,0,1,26,14a1,1,0,0,1-.58.18,1,1,0,0,1-.66-.23,1.61,1.61,0,0,1-.47-.65,2.45,2.45,0,0,1-.16-.93,1.66,1.66,0,0,1,.28-1,.92.92,0,0,1,.79-.37,1.13,1.13,0,0,1,.71.22,1.38,1.38,0,0,1,.47.61,2.48,2.48,0,0,1,.16.89A1.94,1.94,0,0,1,26.38,13.53Z"/><path class="cls-2" d="M22.1,4.76a.58.58,0,0,0-.59.59.59.59,0,0,0,1.18,0A.58.58,0,0,0,22.1,4.76Z"/><path class="cls-2" d="M27.24,2.34c.36-.07.31-.58.16-.79A1.86,1.86,0,0,0,26.13.83c-.05,0-.07,0,0,0C26.67,1.42,26.76,2.44,27.24,2.34Z"/><path class="cls-2" d="M31.91,1.34A.29.29,0,0,1,32,1.26a.06.06,0,0,0,0-.11L31.5.66s0,0,0,0a4.6,4.6,0,0,1-1.26,1.69s0,0,0,0A2.5,2.5,0,0,0,31.91,1.34Z"/><path class="cls-2" d="M15.15,2.84a.08.08,0,0,0,0-.12l-.74-.47c-.13.38-.33.94-.57,1.54a8.26,8.26,0,0,0-1.39-1.34l-.08.06a12.73,12.73,0,0,1,1.24,1.8,9.92,9.92,0,0,1-1.28,2.22s0,.1.06.07a4.25,4.25,0,0,0,1.54-1.68c.42.88.57,1.46.87,1.48s.5-.51.2-1a12.63,12.63,0,0,0-.73-1.08c.29-.53.56-1.07.73-1.36C15,2.89,15.09,2.88,15.15,2.84Z"/><path class="cls-2" d="M19.19,2.2l-.53-.52a.09.09,0,0,0-.12,0,1.64,1.64,0,0,1-.89.23h-.83l.39-.74a.43.43,0,0,1,.2-.14.07.07,0,0,0,0-.12L16.64.41a13.5,13.5,0,0,1-1.41,3.17s0,.09,0,.06a3,3,0,0,0,1.35-1.38h1.78a2.31,2.31,0,0,1-.24.51c-.12.19.07.1.19,0a4.16,4.16,0,0,0,.83-.56h0S19.22,2.23,19.19,2.2Z"/><path class="cls-2" d="M10.72,1.22a.38.38,0,0,1,.2.21,1.13,1.13,0,0,1,.05.42v5c0,.3,0,.7-.24.75,0,0,0,0,0,0v.12a0,0,0,0,0,0,0H15.5a4.8,4.8,0,0,1-.39.32h0a5,5,0,0,1-.76.41c-.12.06-.06.14.05.12a3.3,3.3,0,0,0,3-2.86,5.58,5.58,0,0,1,.39,1,8.79,8.79,0,0,1,.34,1.51c.11.7,1,.23.71-.71A3.81,3.81,0,0,0,17.45,5.7a8.39,8.39,0,0,0,.16-1.78.25.25,0,0,1,.11-.18.07.07,0,0,0,0-.11l-1-.61c0,2.28-.3,3.58-.95,4.42h0l-.09.12-.37-.37a.11.11,0,0,0-.13,0,1.53,1.53,0,0,1-.85.23H12.14A.24.24,0,0,1,12,7.25a1.35,1.35,0,0,1,0-.34V2a.75.75,0,0,1,0-.24.27.27,0,0,1,.18-.18l.14,0h3.19V1.19H12a3.29,3.29,0,0,1-1.2-.1A.07.07,0,0,0,10.72,1.22Z"/><path class="cls-2" d="M25.3,3a.41.41,0,0,1,.2.21,1.13,1.13,0,0,1,.05.42V8.15a.12.12,0,0,0,.12.12h.14c.41,0,.56-.33.56-.74V3.73a.72.72,0,0,1,.05-.24.32.32,0,0,1,.18-.18l.13,0h5.05V2.93H26.37a2.34,2.34,0,0,1-1-.11A.07.07,0,0,0,25.3,3Z"/><path class="cls-2" d="M30.57,4.44l-.31-.31a.06.06,0,0,0-.08,0,.87.87,0,0,1-.51.14H28.05a1.84,1.84,0,0,1-.7-.07,0,0,0,0,0,0,.08.22.22,0,0,1,.12.13.73.73,0,0,1,0,.25V6.58h3.1V4.46h0ZM30,6.36H28.21s-.07,0-.08,0,0,0,0-.06a.53.53,0,0,1,0-.2V4.8a.84.84,0,0,1,0-.19.2.2,0,0,1,.11-.11l.08,0H30Z"/><path class="cls-2" d="M36.45,1a.39.39,0,0,1,.2.2,1.53,1.53,0,0,1,.05.43V4a.12.12,0,0,0,.12.13H37c.4,0,.55-.33.55-.74V1.82a.42.42,0,0,1,.35-.45h2.48V1H37.5a2.29,2.29,0,0,1-1-.1A.07.07,0,0,0,36.45,1Z"/><path class="cls-1" d="M40.55.59l-.32.34a.09.09,0,0,1-.07,0H37.8a.1.1,0,0,0-.1.1v.22a.1.1,0,0,0,.1.1h2.39a.1.1,0,0,1,.1.09V2.94a.1.1,0,0,1-.1.09H37.71a.1.1,0,0,0-.1.1v.21a.09.09,0,0,0,.1.1h2.48a.1.1,0,0,1,.1.1V4a.09.09,0,0,0,.09.1h0a1.34,1.34,0,0,0,.64-.2.12.12,0,0,0,0-.08V1.44a.09.09,0,0,1,.06-.1.51.51,0,0,0,.18-.08.1.1,0,0,0,0-.16L40.68.58A.09.09,0,0,0,40.55.59Z"/><path class="cls-2" d="M34.84,4.85a.36.36,0,0,1,.19.21,1.13,1.13,0,0,1,0,.42V8.32a.13.13,0,0,0,.12.12h.14c.4,0,.55-.33.55-.74v-2a.42.42,0,0,1,.35-.45h2.1v-.4H35.88a2.29,2.29,0,0,1-1-.11A.07.07,0,0,0,34.84,4.85Z"/><path class="cls-1" d="M37.92,4.45l-.32.34a.09.09,0,0,1-.07,0h-1a.1.1,0,0,0-.09.1v.22a.1.1,0,0,0,.09.1h1a.09.09,0,0,1,.1.1V7.23a.09.09,0,0,1-.1.09H36.21a.11.11,0,0,0-.1.1v.21a.1.1,0,0,0,.1.1h1.35a.09.09,0,0,1,.1.1V8.3a.09.09,0,0,0,.09.1h0a1.34,1.34,0,0,0,.64-.2.1.1,0,0,0,0-.08V5.3a.1.1,0,0,1,.07-.1.54.54,0,0,0,.17-.07.1.1,0,0,0,0-.16l-.67-.53A.09.09,0,0,0,37.92,4.45Z"/><path class="cls-2" d="M39.08,4.85a.41.41,0,0,1,.2.21,1.47,1.47,0,0,1,0,.42V8.32a.13.13,0,0,0,.12.12h.14c.4,0,.55-.33.55-.74v-2a.42.42,0,0,1,.35-.45h2.1v-.4H40.12a2.29,2.29,0,0,1-1-.11A.07.07,0,0,0,39.08,4.85Z"/><path class="cls-1" d="M42.16,4.45l-.32.34a.08.08,0,0,1-.07,0h-1a.1.1,0,0,0-.09.1v.22a.1.1,0,0,0,.09.1h1a.09.09,0,0,1,.1.1V7.23a.09.09,0,0,1-.1.09H40.45a.11.11,0,0,0-.1.1v.21a.1.1,0,0,0,.1.1H41.8a.09.09,0,0,1,.1.1V8.3a.09.09,0,0,0,.1.1h0a1.34,1.34,0,0,0,.64-.2.1.1,0,0,0,0-.08V5.3a.1.1,0,0,1,.07-.1A.75.75,0,0,0,43,5.13.1.1,0,0,0,43,5l-.67-.53A.09.09,0,0,0,42.16,4.45Z"/><path class="cls-1" d="M32.77,3.11,32,2.53a.06.06,0,0,0-.09,0l-.33.38-.05,0H29.47a.07.07,0,0,1-.06-.07v-2c0-.1.12-.08.18-.11a.18.18,0,0,0,.07-.08s0-.11-.07-.12L28.66.48a.07.07,0,0,0-.07.07V2.87a.07.07,0,0,1-.07.07H26.75a.07.07,0,0,0-.07.06v.2a.07.07,0,0,0,.07.07h4.84a.06.06,0,0,1,.06.06V7.41c0,.12,0,.18-.18.18s-.83,0-1-.06c0,0-.07,0-.07.06a.07.07,0,0,0,.06.07,1.29,1.29,0,0,1,.72.28.85.85,0,0,1,.19.5.09.09,0,0,0,.08.06c1-.11,1.08-.44,1.08-1V3.39a.08.08,0,0,1,.05-.07.54.54,0,0,0,.24-.1A.07.07,0,0,0,32.77,3.11Z"/></g></g></svg>