<svg xmlns="http://www.w3.org/2000/svg" viewBox="0 0 44.64 14.84"><defs><style>.cls-1,.cls-2{fill:#0f206c;}.cls-1{fill-rule:evenodd;}</style></defs><g id="图层_2" data-name="图层 2"><g id="图层_1-2" data-name="图层 1"><path class="cls-1" d="M5.49,2.27h.38s0,0,0,0l-.5-.5a.08.08,0,0,0-.1,0,1.54,1.54,0,0,1-.86.23h-4v.33H5.49Z"/><rect class="cls-2" x="0.9" y="3.79" width="4.36" height="0.34"/><path class="cls-1" d="M1.89,1.51c.28-.06.24-.45.12-.61A1.39,1.39,0,0,0,1,.35s-.06,0,0,0c.44.42.51,1.2.88,1.13"/><path class="cls-1" d="M5.15.77a.16.16,0,0,1,.1-.05.05.05,0,0,0,0-.09L4.86.23h0a3.61,3.61,0,0,1-1,1.24s0,0,0,0A2,2,0,0,0,5.15.77"/><path class="cls-1" d="M5.64,5.78a.08.08,0,0,0-.1,0A1.54,1.54,0,0,1,4.68,6H0v.33H6.13s0,0,0,0Z"/><path class="cls-1" d="M11.14,2.21a0,0,0,0,0,0-.09l-.57-.36c-.09.3-.25.72-.44,1.18a6.67,6.67,0,0,0-1.06-1L9,2a10.53,10.53,0,0,1,1,1.38A7.71,7.71,0,0,1,9,5.05s0,.07,0,0A3.19,3.19,0,0,0,10.2,3.81c.33.68.44,1.12.68,1.14s.37-.4.15-.77a9.94,9.94,0,0,0-.57-.83c.23-.41.44-.82.57-1,0-.06.07-.07.11-.1"/><path class="cls-1" d="M12.91,4.41A6.77,6.77,0,0,0,13,3a.22.22,0,0,1,.08-.14,0,0,0,0,0,0-.08l-.74-.47c0,1.75-.23,2.75-.73,3.39h0l-.07.09-.28-.28a.08.08,0,0,0-.1,0,1.3,1.3,0,0,1-.66.18H8.83a.2.2,0,0,1-.11-.11,1.42,1.42,0,0,1,0-.26V1.57a.47.47,0,0,1,0-.19.2.2,0,0,1,.14-.13l.1,0h2.46V1H8.69A2.57,2.57,0,0,1,7.76.87c-.06,0-.07.07,0,.1a.29.29,0,0,1,.15.16.85.85,0,0,1,0,.32V5.28c0,.23,0,.54-.18.57l0,0V6a0,0,0,0,0,0,0h3.66a2,2,0,0,1-.3.25h0a4.1,4.1,0,0,1-.59.32c-.08,0,0,.1.05.09a2.54,2.54,0,0,0,2.33-2.2,4.61,4.61,0,0,1,.3.74,7.44,7.44,0,0,1,.27,1.16c.07.54.77.17.53-.55a2.91,2.91,0,0,0-1.09-1.39"/><path class="cls-1" d="M13.84,1.32a.08.08,0,0,0-.1,0,1.18,1.18,0,0,1-.67.18h-.64c.09-.17.21-.42.3-.57a.27.27,0,0,1,.15-.1.06.06,0,0,0,0-.1l-.6-.38A10.32,10.32,0,0,1,11.2,2.78s0,.07,0,.05a2.37,2.37,0,0,0,1-1.06h1.37a3.26,3.26,0,0,1-.18.39c-.1.14,0,.08.14,0a4.19,4.19,0,0,0,.64-.43h0s0,0,0-.05Z"/><path class="cls-1" d="M33.47,1.78H33a2.45,2.45,0,0,1-.9-.08c-.06,0-.08.08,0,.1a.31.31,0,0,1,.16.16,1.31,1.31,0,0,1,0,.33V6.37h4.22V2h0a0,0,0,0,0,0,0l-.4-.4a.08.08,0,0,0-.1,0,1.23,1.23,0,0,1-.69.18h-.08V1h1.4s0,0,0,0L36.22.5a.08.08,0,0,0-.1,0,1.34,1.34,0,0,1-.69.18H32.05V1h1.42ZM35.82,6.1h-2.7a.16.16,0,0,1-.11,0L33,6a.79.79,0,0,1,0-.26V5.27h2.87Zm-.61-2.51V2.06h.61V3.9h-.53a.08.08,0,0,1-.08-.08ZM34,1h.64v.83H34V1m.64,1.11V3.89a.29.29,0,0,0,.28.29h.86V5H33V2.47a.81.81,0,0,1,0-.25.24.24,0,0,1,.14-.14l.11,0h.24a4.91,4.91,0,0,1-.33,2.54s0,.07,0,0c.59-.49.79-1,.84-2.57Z"/><path class="cls-1" d="M31.65,3.66s0-.07-.06,0a6.61,6.61,0,0,1-1.3,2.3,0,0,0,0,0,0,.08l.67.43s.07,0,.05-.08a.13.13,0,0,1,0-.12,7.49,7.49,0,0,0,.65-2.58"/><path class="cls-1" d="M30.33,2.13s0,0,0,0c.44.43.51,1.21.88,1.14s.24-.45.12-.62a1.41,1.41,0,0,0-1-.55"/><path class="cls-1" d="M31.23,1.71c.26-.08.18-.44.06-.59a1.41,1.41,0,0,0-1-.42s-.05,0,0,0c.46.35.61,1.08.95,1"/><path class="cls-1" d="M44.62,1.15l-.4-.41a.09.09,0,0,0-.1,0,1.21,1.21,0,0,1-.69.19H42.2a.5.5,0,0,0-.07-.5,1.37,1.37,0,0,0-1-.42s-.06,0,0,0c.32.25.49.69.68.89H39.42a1.69,1.69,0,0,1-.57-.09.05.05,0,0,0,0,.1.33.33,0,0,1,.15.16,1,1,0,0,1,0,.34V3.36c0,1.47-.24,2.49-1.06,2.85-.09,0,0,.11,0,.09,1.11-.24,1.8-1.08,1.8-3v-2a.13.13,0,0,1,.14-.15h4.68s0,0,0,0"/><path class="cls-1" d="M44.11,2.07a.08.08,0,0,0-.1,0,1.21,1.21,0,0,1-.69.18H42.5V1.56h0a2.42,2.42,0,0,1-.9-.08c-.06,0-.08.08,0,.1a.26.26,0,0,1,.15.16.92.92,0,0,1,0,.33V3.68H41a2.45,2.45,0,0,1-.9-.08c-.06,0-.08.08,0,.1a.35.35,0,0,1,.16.16,1.31,1.31,0,0,1,0,.33V6.34h4V3.94h0a0,0,0,0,0,0,0l-.4-.4a.08.08,0,0,0-.1,0,1.13,1.13,0,0,1-.66.18H42.5V2.52h2s0,0,0,0ZM43.47,4v2.1H41.19a.12.12,0,0,1-.11,0s0,0,0-.08a1.42,1.42,0,0,1,0-.26V4.37a.81.81,0,0,1,0-.25A.22.22,0,0,1,41.19,4l.1,0Z"/><path class="cls-1" d="M20.52,2.07l-.4-.41a.08.08,0,0,0-.1,0,1.31,1.31,0,0,1-.69.18H17.07v.27h3.44s0,0,0,0"/><path class="cls-1" d="M20.52,3.36l-.4-.4A.09.09,0,0,0,20,3a1.23,1.23,0,0,1-.69.18H17.07v.28h3.44s0,0,0-.05"/><path class="cls-1" d="M20.7,5.3l-.4-.4a.08.08,0,0,0-.1,0,1.23,1.23,0,0,1-.69.18H16.89v.28h3.8s0,0,0,0"/><path class="cls-1" d="M21.55.87s0,0,0,0l-.4-.4a.08.08,0,0,0-.1,0,1.21,1.21,0,0,1-.69.18H16.77a2.5,2.5,0,0,1-.91-.08.05.05,0,0,0,0,.1A.29.29,0,0,1,16,.79a.92.92,0,0,1,0,.33V6.43h5.52V.87Zm-.68,0V6.15h-4a.1.1,0,0,1-.1-.05.43.43,0,0,1,0-.07.87.87,0,0,1,0-.26V2.1h0V1.3a.81.81,0,0,1,0-.25.22.22,0,0,1,.14-.14l.1,0"/><rect class="cls-2" x="18.38" y="2.08" width="0.68" height="3.04"/><path class="cls-1" d="M20.24,4.6c.25-.07.18-.42.06-.56a1.26,1.26,0,0,0-.93-.4s-.05,0,0,0c.43.35.57,1,.89.94"/><path class="cls-1" d="M29,1l-.41-.4s-.06,0-.1,0a1.2,1.2,0,0,1-.68.18H25.72V1H29s0,0,0,0"/><path class="cls-1" d="M29.46,2.44l-.4-.4A.08.08,0,0,0,29,2a1.23,1.23,0,0,1-.69.18h-3v.28h4.15s0,0,0-.05"/><path class="cls-1" d="M23.23.54a0,0,0,0,0,0,.08.22.22,0,0,1,.11.12.61.61,0,0,1,0,.26v.43h0V6.48H24V.6a2.44,2.44,0,0,1-.74-.06"/><path class="cls-2" d="M25.31,1C25.21.85,25.08.7,25,.59a.14.14,0,0,0-.19,0l-.14.12h-.71V.88h.79l-.49,1.66a.07.07,0,0,0,0,0,1.63,1.63,0,0,1,.48,1.74.17.17,0,0,1-.17.09l-.66-.15.55.56a.33.33,0,0,0,.48,0,1.14,1.14,0,0,0,.36-.88,1.84,1.84,0,0,0-.82-1.37s0,0,0,0l.69-1.37.14-.08a.09.09,0,0,0,0-.13"/><path class="cls-1" d="M27.58,2.44H27V6a0,0,0,0,1-.05,0H26.1l0,0,.94.49a.19.19,0,0,0,.26,0,.78.78,0,0,0,.3-.51V2.53h0Z"/><path class="cls-1" d="M24.92,5.55s0,.09.06.06a6.34,6.34,0,0,0,1.55-1.93s0-.05,0-.06-.63-.32-.61-.32,0,0,0,.06a.19.19,0,0,1,0,.09,7.43,7.43,0,0,1-1,2.1"/><path class="cls-1" d="M29.35,4.59A3,3,0,0,0,28,3.41v0a4.14,4.14,0,0,1,.43.67,6.34,6.34,0,0,1,.46,1.09c.18.52.8,0,.44-.63"/><rect class="cls-2" x="13.11" y="13.82" width="0.11" height="1.01"/><polygon class="cls-2" points="13.98 13.82 14.09 13.82 14.72 14.63 14.72 13.82 14.83 13.82 14.83 14.83 14.74 14.83 14.09 14 14.09 14.83 13.98 14.83 13.98 13.82"/><polygon class="cls-2" points="15.84 13.93 15.51 13.93 15.51 13.82 16.3 13.82 16.3 13.93 15.96 13.93 15.96 14.83 15.84 14.83 15.84 13.93"/><polygon class="cls-2" points="16.97 13.82 17.7 13.82 17.7 13.93 17.08 13.93 17.08 14.27 17.63 14.27 17.63 14.37 17.08 14.37 17.08 14.72 17.7 14.72 17.7 14.83 16.97 14.83 16.97 13.82"/><path class="cls-2" d="M18.39,13.82h.43a.4.4,0,0,1,.29.1.28.28,0,0,1,.08.2h0a.3.3,0,0,1-.27.3l.3.41h-.13l-.3-.39h-.28v.39h-.12Zm.42.51c.16,0,.26-.07.26-.2h0c0-.12-.09-.19-.25-.19h-.31v.4Z"/><polygon class="cls-2" points="19.89 13.82 20 13.82 20.63 14.63 20.63 13.82 20.74 13.82 20.74 14.83 20.65 14.83 20 14 20 14.83 19.89 14.83 19.89 13.82"/><path class="cls-2" d="M21.86,13.81H22l.45,1H22.3l-.12-.27h-.54l-.12.27H21.4Zm.28.65L21.91,14l-.23.51Z"/><polygon class="cls-2" points="23.22 13.93 22.88 13.93 22.88 13.82 23.67 13.82 23.67 13.93 23.34 13.93 23.34 14.83 23.22 14.83 23.22 13.93"/><rect class="cls-2" x="24.36" y="13.82" width="0.11" height="1.01"/><path class="cls-2" d="M25.18,14.33h0a.52.52,0,1,1,1,0h0a.51.51,0,0,1-.52.52.5.5,0,0,1-.51-.51m.91,0h0a.4.4,0,0,0-.4-.41.39.39,0,0,0-.39.41h0a.4.4,0,1,0,.79,0"/><polygon class="cls-2" points="26.91 13.82 27.01 13.82 27.64 14.63 27.64 13.82 27.76 13.82 27.76 14.83 27.66 14.83 27.02 14 27.02 14.83 26.91 14.83 26.91 13.82"/><path class="cls-2" d="M28.87,13.81H29l.46,1h-.12l-.12-.27h-.55l-.12.27h-.11Zm.28.65L28.92,14l-.23.51Z"/><polygon class="cls-2" points="30.1 13.82 30.21 13.82 30.21 14.72 30.78 14.72 30.78 14.83 30.1 14.83 30.1 13.82"/><path class="cls-1" d="M33.2,9.12h-.9a.06.06,0,0,0,0,0,0,0,0,0,0,0,0,.47.47,0,0,1,.38.17.72.72,0,0,1,.13.46v1.53a1.09,1.09,0,0,1-.26.79.92.92,0,0,1-.71.27.87.87,0,0,1-.72-.31,1.51,1.51,0,0,1-.26-1V9.57a.81.81,0,0,1,0-.25A.2.2,0,0,1,31,9.21a.77.77,0,0,1,.25,0s0,0,0,0,0,0,0,0H29.87s0,0,0,0,0,0,0,0a.81.81,0,0,1,.25,0,.18.18,0,0,1,.11.1.86.86,0,0,1,0,.25v1.76a1.25,1.25,0,0,0,.18.68,1.12,1.12,0,0,0,.49.45,1.66,1.66,0,0,0,.72.15,1.61,1.61,0,0,0,.71-.15,1.16,1.16,0,0,0,.48-.45,1.31,1.31,0,0,0,.17-.67V9.81a.78.78,0,0,1,.12-.46.39.39,0,0,1,.33-.17s0,0,0,0,0,0,0,0Z"/><path class="cls-1" d="M18.91,12.31a2.55,2.55,0,0,1-.32-.53L17.22,9.09l0,0s-.05,0-.05,0L15.94,11.7a3.89,3.89,0,0,1-.24.47.68.68,0,0,1-.21.23.53.53,0,0,1-.26.06v.11h1.3v-.11a.58.58,0,0,1-.37-.11.34.34,0,0,1-.14-.3.69.69,0,0,1,.07-.3l.22-.49h1.06l0-.12h-1l.11-.25.07-.15.38-.86.44.86.08.15L18,12a1,1,0,0,1,.11.31.12.12,0,0,1-.07.11.49.49,0,0,1-.2,0v.11h1.31v-.11a.34.34,0,0,1-.26-.15"/><path class="cls-1" d="M24.26,9.11H23.18s0,0,0,0,0,0,0,0a.41.41,0,0,1,.34.17.78.78,0,0,1,.12.46v1.77L21.75,9.4l-.14-.17-.07-.1-.07,0h-1s0,0,0,0,0,0,0,0a.51.51,0,0,1,.26.07,1.37,1.37,0,0,1,.31.27v2.31a.7.7,0,0,1-.14.46.47.47,0,0,1-.38.17v.07h0v0h1.14v-.11a.4.4,0,0,1-.34-.17.76.76,0,0,1-.12-.46V9.71l2.56,2.91h0s0,0,0,0V9.81a.81.81,0,0,1,.13-.46.41.41,0,0,1,.34-.17s0,0,0,0,0,0,0,0"/><path class="cls-1" d="M14,11.54h-.11a1.09,1.09,0,0,1-.42.62,1.19,1.19,0,0,1-.73.22h-.13a.56.56,0,0,1-.21,0,.11.11,0,0,1-.08-.08.59.59,0,0,1,0-.21V9.56a.76.76,0,0,1,0-.24.17.17,0,0,1,.11-.11.81.81,0,0,1,.25,0s0,0,0,0,0,0,0,0H11.19s0,0,0,0,0,0,0,0a.77.77,0,0,1,.25,0,.15.15,0,0,1,.11.11.7.7,0,0,1,0,.24v2.52a.81.81,0,0,1,0,.25.17.17,0,0,1-.1.1.84.84,0,0,1-.26,0v.11h2.72v-.11h0v0c0-.24,0-.54,0-.9"/><path class="cls-1" d="M27.25,12.06a.34.34,0,1,0,0,.67.34.34,0,0,0,0-.67"/><path class="cls-1" d="M27.92,9.21A1.3,1.3,0,0,0,27.24,9a1.64,1.64,0,0,0-.68.15,1.31,1.31,0,0,0-.54.45,1.21,1.21,0,0,0-.21.71A1.34,1.34,0,0,0,26,11a1.16,1.16,0,0,0,.45.48,1.28,1.28,0,0,0,.68.18,1.4,1.4,0,0,0,.7-.18,1.39,1.39,0,0,0,.53-.49,1.21,1.21,0,0,0,.19-.67,1.23,1.23,0,0,0-.16-.63,1.2,1.2,0,0,0-.44-.48M27.81,11a.74.74,0,0,1-.24.36.51.51,0,0,1-.35.13.6.6,0,0,1-.41-.17,1.12,1.12,0,0,1-.28-.45,2,2,0,0,1-.1-.67,1.29,1.29,0,0,1,.17-.73.56.56,0,0,1,.49-.26.62.62,0,0,1,.43.16,1,1,0,0,1,.28.43,1.81,1.81,0,0,1,.1.63,1.62,1.62,0,0,1-.09.57"/></g></g></svg>