<svg xmlns="http://www.w3.org/2000/svg" viewBox="0 0 49.68 44.17"><defs><style>.cls-1{fill:#1c5137;}</style></defs><g id="图层_2" data-name="图层 2"><g id="图层_1-2" data-name="图层 1"><path class="cls-1" d="M42.74,29.3h.41v1.18l1.12-1.18h.5l-1,1,1,1.34h-.5l-.8-1.06-.37.37v.69h-.41Z"/><path class="cls-1" d="M45.1,29.3h1.74v.37H45.52v.61h1.17v.37H45.52v.63h1.34v.37H45.1Z"/><path class="cls-1" d="M42.74,33.32h.41v1.19l1.12-1.19h.5l-1,1,1,1.34h-.5l-.8-1.05-.37.37v.68h-.41Z"/><path class="cls-1" d="M44.82,34.51h0a1.23,1.23,0,0,1,2.46,0h0a1.2,1.2,0,0,1-1.23,1.21A1.19,1.19,0,0,1,44.82,34.51Zm2,0h0a.8.8,0,1,0-1.59,0h0a.81.81,0,0,0,.8.83A.79.79,0,0,0,46.84,34.51Z"/><path class="cls-1" d="M47.67,34.68V33.32h.42v1.34c0,.44.22.67.59.67s.59-.22.59-.65V33.32h.41v1.34a1,1,0,1,1-2,0Z"/><path class="cls-1" d="M42.74,37.35h1a.93.93,0,0,1,.68.24.67.67,0,0,1,.2.5h0a.71.71,0,0,1-.56.71l.63.89h-.49l-.57-.82h-.52v.82h-.41Zm1,1.17c.3,0,.49-.16.49-.4h0c0-.25-.18-.39-.49-.39h-.6v.79Z"/><path class="cls-1" d="M45.1,37.35h1.74v.37H45.51v.61h1.18v.37H45.51v.63h1.34v.37H45.1Z"/><path class="cls-1" d="M47.28,37.35h.38L48.92,39V37.35h.4V39.7H49L47.68,38V39.7h-.4Z"/><path class="cls-1" d="M42.51,43.38l.27-.28a.56.56,0,0,0,.47.28c.22,0,.37-.15.37-.46V41.38h.43v1.55a.86.86,0,0,1-.22.62.79.79,0,0,1-.57.21A.87.87,0,0,1,42.51,43.38Z"/><path class="cls-1" d="M44.57,41.38H45v2.35h-.41Z"/><path class="cls-1" d="M46.37,41.36h.39l1,2.37h-.44l-.23-.57H46l-.25.57h-.42ZM47,42.8l-.4-.94-.4.94Z"/><path class="cls-1" d="M32.44,15.54H26.78v7.59h6.47V16.35A.81.81,0,0,0,32.44,15.54Z"/><path class="cls-1" d="M15.91,18.68H13.36a.27.27,0,0,0-.28.28v2.79h2.83Z"/><path class="cls-1" d="M27.7,4.15c-.57-.55-2.27-2.23-4-4.15l-.58.67C14.94,9.55,2.74,11.17,2.62,11.18s-1.34.23-2.62.32l3.34,5.65c.14,0,1-.13,2.37-.43V44.17H40.77v-31a39.69,39.69,0,0,0,6.15,1.56l.74-1.24C47,13.41,36.11,11.84,27.7,4.15ZM11,14.06H22v1.53H20.7v7.25a7.47,7.47,0,0,1-.79,3.31l-1.5-.38,0,0a6,6,0,0,0,.79-2.91V15.59H11Zm6.45,3.08v6.14h-5.9V19a1.83,1.83,0,0,1,1.82-1.82Zm4.15,23.51a14,14,0,0,1-5-7.29,14.09,14.09,0,0,1-5.05,7.29l-.91-1.24c4.94-3.63,5.19-9.68,5.19-10.85v-.49h1.53v.49c0,1.17.25,7.22,5.19,10.85ZM25.24,14h7.2a2.35,2.35,0,0,1,2.34,2.35v8.32H25.24ZM31.1,40.24H29.57V38.78a21.62,21.62,0,0,1-4.66,1.31l-.24-1.52a18.45,18.45,0,0,0,4.9-1.5v-.88a22,22,0,0,1-4.66,1.3L24.67,36a18.06,18.06,0,0,0,4.9-1.5v-.69a21.51,21.51,0,0,1-4.65,1.29l-.24-1.51a21.51,21.51,0,0,0,4.24-1.17l-.08-.13H26.44V30.73H33.3v1.53H30.61a3.9,3.9,0,0,1,.49,1.56ZM35,39.58l-1.43.57a44.43,44.43,0,0,1-1.72-5.49l-.19-.76.77-.17c.94-.2,2.36-.62,2.37-.62l.44,1.47c-.05,0-.88.26-1.71.47A43.82,43.82,0,0,0,35,39.58Zm-.58-7.36a5.63,5.63,0,0,1-.8-2.23H26a5.62,5.62,0,0,1-.81,2.23l-1.44-.61a4,4,0,0,0,.76-2.39v-.77h4.53v-.81H30.6v.81h4.53v.77a4,4,0,0,0,.76,2.39Z"/></g></g></svg>