<svg xmlns="http://www.w3.org/2000/svg" viewBox="0 0 38.46 25.17"><defs><style>.cls-1{fill:#576a4b;}.cls-2{fill:#231815;}</style></defs><g id="图层_2" data-name="图层 2"><g id="图层_1-2" data-name="图层 1"><path class="cls-1" d="M15.6,11.8l2.34.85a.8.8,0,0,0,.53,0l.46-.17a.88.88,0,0,1,.6,0l.46.17a.77.77,0,0,0,.52,0l2.35-.85A1.93,1.93,0,0,0,24.12,10V2.7A1.93,1.93,0,0,0,22.86.9L20.51.05a.67.67,0,0,0-.52,0l-.46.16a.88.88,0,0,1-.6,0L18.47.05a.8.8,0,0,0-.53,0L15.6.9a1.92,1.92,0,0,0-1.26,1.8V10A1.92,1.92,0,0,0,15.6,11.8Zm5.28-2.11a1.59,1.59,0,0,0,.82-1.55V6.82a1,1,0,0,1,1-1,0,0,0,0,1,0,0V8.29c0,1.25-1.24,1.45-1.82,1.48A0,0,0,0,1,20.88,9.69Zm-1.23-7.3a0,0,0,0,1,.05-.05,1.05,1.05,0,0,1,1,1V8.74a1.06,1.06,0,0,1-1,1,0,0,0,0,1-.05,0Zm-2,1a1,1,0,0,1,1-1,0,0,0,0,1,.05.05V4.26a1,1,0,0,1-1,1,0,0,0,0,1,0,0Zm-.27,6.32a2.56,2.56,0,0,0,.27-1.53V6.82a1,1,0,0,1,1-1,0,0,0,0,1,.05,0c0,.33,0,2.33,0,2.38,0,1.31-.87,1.52-1.25,1.55C17.32,9.76,17.31,9.72,17.34,9.69Zm-.81-3.13s0,0,0,0V8.33c0,.67.08,1.15.32,1.36,0,0,0,.08,0,.07a1.68,1.68,0,0,1-.7-.22c-.24-.16-.61-.47-.61-1.62C15.56,7.22,15.8,6.63,16.53,6.56Z"/><path class="cls-2" d="M1.55,20.26H2A.32.32,0,0,0,2.3,20v0H5.07v.21a.13.13,0,0,0,.13.12h.43A.31.31,0,0,0,6,20V16.79a.31.31,0,0,0-.32-.3H5.2a.12.12,0,0,0-.13.12v.21H2.3v0a.31.31,0,0,0-.33-.3H1.55a.12.12,0,0,0-.13.12v3.53A.13.13,0,0,0,1.55,20.26Zm3.52-3v2.21H2.3V17.27Z"/><path class="cls-2" d="M2.88,20.83H2.45a.12.12,0,0,0-.13.12v.2H.88v0a.32.32,0,0,0-.32-.3H.13A.12.12,0,0,0,0,21V24.7a.13.13,0,0,0,.13.12H.56a.32.32,0,0,0,.32-.31v0H2.32v.22a.13.13,0,0,0,.13.12h.43a.32.32,0,0,0,.32-.31V21.13A.32.32,0,0,0,2.88,20.83ZM.88,24V21.6H2.32V24Z"/><path class="cls-2" d="M7.1,20.83H6.67a.12.12,0,0,0-.13.12v.2H4.91v0a.32.32,0,0,0-.33-.3H4.16A.12.12,0,0,0,4,21V24.7a.12.12,0,0,0,.13.12h.42a.32.32,0,0,0,.33-.31v0H6.54v.22a.13.13,0,0,0,.13.12H7.1a.32.32,0,0,0,.32-.31V21.13A.32.32,0,0,0,7.1,20.83ZM4.91,24V21.6H6.54V24Z"/><path class="cls-2" d="M18,20.84a26.8,26.8,0,0,1-3.39-1.26s-.06,0,0,0a10.23,10.23,0,0,0,1.33,1.05.07.07,0,0,0,0,0v.06H12.7a.18.18,0,0,0,0-.07,11.08,11.08,0,0,0,1.76-1.48.14.14,0,0,0,0-.17l-.18-.18h1.83a.12.12,0,0,0,.13-.12v-.18a.13.13,0,0,0-.13-.13H12.37a.13.13,0,0,0-.11.19l.07.1a.32.32,0,0,0,.27.14h1a14.89,14.89,0,0,1-4.07,3.38s0,.07,0,.06a16.14,16.14,0,0,0,2.31-1.11v3.64A.12.12,0,0,0,12,25h.43a.32.32,0,0,0,.32-.3v-.14h3.16v.32A.12.12,0,0,0,16,25h.42a.32.32,0,0,0,.33-.3V21.19a11.42,11.42,0,0,0,1.21.57.14.14,0,0,0,.18-.08l.1-.4A.36.36,0,0,0,18,20.84Zm-5.27,3.22V21.25h3.16v2.81Z"/><path class="cls-2" d="M15.28,19.18a0,0,0,0,0,0,.06,14.09,14.09,0,0,1,1.77,1,.13.13,0,0,0,.2-.06l.09-.29a.36.36,0,0,0-.25-.45A6.72,6.72,0,0,0,15.28,19.18Z"/><path class="cls-2" d="M22.6,20.36a36,36,0,0,1-2.21,3.72.11.11,0,0,0,.08.18l.61.15a.39.39,0,0,0,.44-.2,11,11,0,0,0,1.14-3.84A0,0,0,0,0,22.6,20.36Z"/><path class="cls-2" d="M38.07,17.65l.35-.33a.11.11,0,0,0,0-.17L38.25,17a.17.17,0,0,0-.19,0l-.2.2H35.58v-.4a.31.31,0,0,0-.32-.31h-.43a.13.13,0,0,0-.13.13v.58H32.42a.32.32,0,0,0-.33-.3h-.42a.13.13,0,0,0-.13.12v2.34a15.45,15.45,0,0,1-.84,5.77s0,.05,0,.06h0a0,0,0,0,0,.06,0c.13-.21,1.65-1.87,1.65-5.81V17.65Z"/><path class="cls-2" d="M28.43,16.57a.14.14,0,0,0-.19,0l-.2.19h-4.9A.13.13,0,0,0,23,17l.1.14a.33.33,0,0,0,.27.15h1.27V18.6H24a.31.31,0,0,0-.32-.31h-.43a.13.13,0,0,0-.13.12V24.5a.12.12,0,0,0,.13.12h.43a.31.31,0,0,0,.32-.3h3.49v.19a.12.12,0,0,0,.13.12h.43a.31.31,0,0,0,.32-.3V18.6a.32.32,0,0,0-.32-.31h-.43a.13.13,0,0,0-.13.12v.2h-.69V17.24h1.41l.35-.33a.13.13,0,0,0,0-.18Zm-3.77,2.51A7.45,7.45,0,0,1,24,21.94V19.08ZM24,23.84V22.26a4.92,4.92,0,0,0,1.39-3.18h.64v.48a3.12,3.12,0,0,0,.35,1.57,2.08,2.08,0,0,0,1.11.8v1.91Zm3.49-4.76v2.26a1.42,1.42,0,0,1-.43-.45,2.76,2.76,0,0,1-.26-1.33v-.48Zm-1.46-.47h-.63V17.24h.63Z"/><path class="cls-2" d="M38.25,19a.14.14,0,0,0-.19,0l-.2.19H35.58V18.6a.31.31,0,0,0-.32-.31h-.43a.13.13,0,0,0-.13.12v2.71h-.9v0a.31.31,0,0,0-.32-.3h-.43a.12.12,0,0,0-.13.12v3.66a.13.13,0,0,0,.13.13h.43a.31.31,0,0,0,.32-.31v-.07H37v.25a.13.13,0,0,0,.13.13h.43a.31.31,0,0,0,.32-.31V21.1a.31.31,0,0,0-.32-.3h-.43a.12.12,0,0,0-.13.12v.2H35.58V19.61h2.49l.35-.33a.12.12,0,0,0,0-.17ZM37,23.85H33.8V21.59H37Z"/><path class="cls-2" d="M26.89,22.62H24.56a.13.13,0,0,0-.11.19l.09.14a.32.32,0,0,0,.27.14h2.08a.19.19,0,0,0,.19-.19v-.1A.2.2,0,0,0,26.89,22.62Z"/><path class="cls-2" d="M21.5,20.19a.14.14,0,0,0,.22,0l.26-.29a.37.37,0,0,0-.05-.52,6.23,6.23,0,0,0-1.55-.89s-.06,0,0,.05A5.57,5.57,0,0,1,21.5,20.19Z"/><path class="cls-2" d="M10.73,20.38a0,0,0,0,0,0,.06,8.3,8.3,0,0,0,1.8-.78.17.17,0,0,0,0-.27l-.28-.31a.13.13,0,0,0-.2,0A7,7,0,0,1,10.73,20.38Z"/><path class="cls-2" d="M10.79,19h.36a.32.32,0,0,0,.33-.31V18H17.3c0,.3-.07.64-.14,1a0,0,0,0,0,.05,0,4.8,4.8,0,0,0,1-1.26.36.36,0,0,0-.24-.52l-.44-.12a.14.14,0,0,0-.17.12c0,.08,0,.19,0,.32H14.64V17H16.2l.35-.33a.11.11,0,0,0,0-.17l-.18-.17a.15.15,0,0,0-.18,0l-.2.2H14.64v0a.31.31,0,0,0-.32-.3h-.43a.12.12,0,0,0-.13.12v1.2H11.47a.31.31,0,0,0-.32-.27h-.36a.12.12,0,0,0-.13.12v1.43A.13.13,0,0,0,10.79,19Z"/><path class="cls-2" d="M15.39,21.88H13.15a.12.12,0,0,0-.11.18l.09.14a.34.34,0,0,0,.27.13h2a.18.18,0,0,0,.19-.18v-.11A.18.18,0,0,0,15.39,21.88Z"/><path class="cls-2" d="M15.39,22.9H13.15a.12.12,0,0,0-.11.18l.09.14a.32.32,0,0,0,.27.14h2a.18.18,0,0,0,.19-.18v-.1A.18.18,0,0,0,15.39,22.9Z"/><path class="cls-2" d="M22,18.26a.14.14,0,0,0,.22,0l.26-.29a.37.37,0,0,0-.05-.52,6.23,6.23,0,0,0-1.55-.89s-.06,0,0,.05A5.45,5.45,0,0,1,22,18.26Z"/></g></g></svg>