<svg xmlns="http://www.w3.org/2000/svg" viewBox="0 0 71.81 35.62"><defs><style>.cls-1{fill:#231815;}</style></defs><g id="图层_2" data-name="图层 2"><g id="图层_1-2" data-name="图层 1"><polygon class="cls-1" points="24.45 31.81 19.84 27.57 19.69 27.57 19.69 34.59 21.04 34.59 21.04 30.41 25.65 34.59 25.8 34.59 25.8 27.57 24.45 27.57 24.45 31.81"/><polygon class="cls-1" points="26.57 34.59 31.73 34.59 31.73 33.38 27.91 33.38 27.91 31.73 31.3 31.73 31.3 30.51 27.91 30.51 27.91 28.76 31.73 28.76 31.73 27.57 26.57 27.57 26.57 34.59"/><polygon class="cls-1" points="38.95 27.73 38.95 27.57 32.98 27.57 32.98 28.81 36.6 28.81 32.68 34.43 32.68 34.59 38.82 34.59 38.82 33.34 35.04 33.34 38.95 27.73"/><polygon class="cls-1" points="51.69 31.81 47.08 27.57 46.94 27.57 46.94 34.59 48.28 34.59 48.28 30.41 52.89 34.59 53.04 34.59 53.04 27.57 51.69 27.57 51.69 31.81"/><polygon class="cls-1" points="58.97 28.76 58.97 27.57 53.81 27.57 53.81 34.59 58.97 34.59 58.97 33.38 55.15 33.38 55.15 31.73 58.54 31.73 58.54 30.51 55.15 30.51 55.15 28.76 58.97 28.76"/><path class="cls-1" d="M17.86,28.63a3.76,3.76,0,0,0-1.14-.77l-.33-.13h0l-.33-.08h0l-.34-.05h0l-.37,0h0l-.35,0h0l-.33.05h0l-.32.08h0a2.52,2.52,0,0,0-.33.13A3.56,3.56,0,0,0,12,29.78a3.55,3.55,0,0,0,0,2.81,3.76,3.76,0,0,0,.77,1.14L13,34l.05,0,.08.06h0l.06,0,.05,0,.19.12.08.06.46.3c.28.18.58.35.74.48s.55.52.55.52l.06,0,.06,0s.4-.4.54-.52.47-.3.75-.48l.47-.31.08-.06.17-.11.05,0,.06,0h0l.08-.07,0,0a1.7,1.7,0,0,0,.24-.22,3.61,3.61,0,0,0,.78-1.14,3.67,3.67,0,0,0,0-2.81A3.66,3.66,0,0,0,17.86,28.63Zm-.45,3.45a2.42,2.42,0,0,1-.49.76,2.22,2.22,0,0,1-.72.52,2,2,0,0,1-.88.19,2.06,2.06,0,0,1-.89-.19,2.45,2.45,0,0,1-.72-.52,2.61,2.61,0,0,1-.49-.76,2.26,2.26,0,0,1-.18-.9,2.33,2.33,0,0,1,.18-.9,2.56,2.56,0,0,1,.49-.75,2.45,2.45,0,0,1,.72-.52,2.06,2.06,0,0,1,.89-.19,2,2,0,0,1,.88.19,2.22,2.22,0,0,1,.72.52,2.38,2.38,0,0,1,.49.75,2.33,2.33,0,0,1,.18.9A2.26,2.26,0,0,1,17.41,32.08Z"/><path class="cls-1" d="M46.06,31.08a3.45,3.45,0,0,0-.28-1.36,3.52,3.52,0,0,0-1.86-1.86,3.31,3.31,0,0,0-1.36-.28,3.28,3.28,0,0,0-1.36.28,3.52,3.52,0,0,0-1.86,1.86,3.28,3.28,0,0,0-.28,1.36,3.33,3.33,0,0,0,.28,1.37,3.51,3.51,0,0,0,.75,1.11,3.88,3.88,0,0,0,1.11.75,3.43,3.43,0,0,0,1.35.28,3.49,3.49,0,0,0,1.37-.28A3.88,3.88,0,0,0,45,33.56a3.51,3.51,0,0,0,1-2.48Zm-5.71,0a2.15,2.15,0,0,1,.18-.87,2.23,2.23,0,0,1,.47-.73,2.07,2.07,0,0,1,.7-.51,2,2,0,0,1,1.72,0,2.07,2.07,0,0,1,.7.51,2.23,2.23,0,0,1,.47.73,2.15,2.15,0,0,1,.18.87h0a2.2,2.2,0,0,1-.18.88,2.23,2.23,0,0,1-.47.73,2.38,2.38,0,0,1-.7.51,2,2,0,0,1-1.72,0,2.38,2.38,0,0,1-.7-.51,2.23,2.23,0,0,1-.47-.73,2.2,2.2,0,0,1-.18-.88Z"/><path class="cls-1" d="M.24,14.09a1.5,1.5,0,0,1-.14-.18L0,13.79c0-.09.05-.18.08-.28a2.13,2.13,0,0,1,.07-.27l.05-.62c.06-.35.09-.61.11-.79s0-.29.11-.57c.13-.61.25-1.13.35-1.56.06-.22.12-.41.17-.57s.11-.3.16-.41a2.46,2.46,0,0,1,.14-.36,2.14,2.14,0,0,0,.12-.28.25.25,0,0,0,0-.24s0-.08,0-.09l0,0,.1-.06.12-.07,0,.08A.33.33,0,0,0,2,8a.31.31,0,0,1,.21.11l.27.22a.06.06,0,0,0,.09,0c.07,0,.11,0,.11.07v.22s0,0,0,0a2.19,2.19,0,0,0,.11.2A1.56,1.56,0,0,0,2.92,9c0,.06.05.09.07.09a.74.74,0,0,1,.08.13l.07.12.09.17v.13a.54.54,0,0,1-.09.2l-.05,0s0,0-.1,0,0,.1-.07.25l-.07.08-.13.11-.24.49L2.3,11l-.17.27a.46.46,0,0,1-.09.2.87.87,0,0,1-.11.18l-.11.17a1.18,1.18,0,0,0-.11.19.72.72,0,0,1-.11.19,1.11,1.11,0,0,1-.07.22.46.46,0,0,1-.17.17s0,0-.09.11a.19.19,0,0,0-.15,0,.29.29,0,0,0-.13.14,3,3,0,0,1-.22.48.49.49,0,0,0-.09.15.74.74,0,0,1-.09.18Zm4.11,2.33.06-.18-.09,0s0-.07-.08-.16l.28-.46a.54.54,0,0,0,.38-.11l.26-.17a1.57,1.57,0,0,1,.44-.27l1-.48.32-.14.43-.19A1.27,1.27,0,0,0,7.68,14a.08.08,0,0,0,0-.07.2.2,0,0,1,0-.07,1.85,1.85,0,0,1,0-.39V12a4,4,0,0,0,0-.55s0-.1,0-.16a.86.86,0,0,1,0-.23c0-.44,0-.77,0-1,0-.47,0-.81,0-1s0-.78,0-1.36l-.07-.88,0-1.19,0-.92v-1a1.12,1.12,0,0,0,0-.24s0-.05,0-.05A3.83,3.83,0,0,1,7,3.12a1.25,1.25,0,0,1-.15-.27c0-.07,0-.16,0-.26a.72.72,0,0,1,.42-.29.84.84,0,0,1,.39.16l.44.22.14,0a.46.46,0,0,1,.17.09l.09,0a.56.56,0,0,1,.54.2l.09.09a.15.15,0,0,0,.2,0l0-.07,0,0,.16.11a.35.35,0,0,1,.2.26c0,.08.07.12.13.13l.16,0a.29.29,0,0,1,.23.13s0,0,.07,0a.27.27,0,0,1,0,.13.46.46,0,0,0-.12.23,1.07,1.07,0,0,1-.06.19,4,4,0,0,0-.13.88L10,6.3a2,2,0,0,0,0,.25,2.11,2.11,0,0,1,0,.26,5.28,5.28,0,0,1,0,.63l0,.22c0,.19.05.45.08.77l.09,1.16a2.69,2.69,0,0,1,0,.44v.18a2.16,2.16,0,0,0,0,.35c0,.12,0,.24,0,.37l.13,1.3,0,.57v.09a.3.3,0,0,0,0,.28.43.43,0,0,1,.08.24.25.25,0,0,1-.06.16.36.36,0,0,0-.11.24.71.71,0,0,1-.07.22c0,.07-.05.11-.06.11l-.08.08a.24.24,0,0,0-.05.16l0,0a.19.19,0,0,0-.12.14.39.39,0,0,1-.07.17.42.42,0,0,0-.11.17,2.73,2.73,0,0,0-.22.42,2.07,2.07,0,0,1-.18.24h0a.81.81,0,0,1-.2.36L9,16.16a1,1,0,0,1-.15.15,1.24,1.24,0,0,0-.15.13,1.52,1.52,0,0,0-.25.22H8.41a.17.17,0,0,0-.22,0l-.18.1-.06,0H7.88a.07.07,0,0,0-.1,0l-.1,0a1.68,1.68,0,0,0-.24.08.48.48,0,0,1-.2.05c-.13,0-.22,0-.26-.08s0-.05-.07-.05l-.48.05h0a.17.17,0,0,0-.12-.05h-.1l-.15,0-.11-.07-.09,0-.11,0-.29,0h0a.11.11,0,0,1-.12,0l-.08,0a.44.44,0,0,0-.24.07c0-.11-.1-.14-.16-.11l-.14,0,0-.06-.08-.07Zm13.58-5.86a.58.58,0,0,1,0-.13h0a7.47,7.47,0,0,0,0,.8,1.58,1.58,0,0,0,.12.58l-.38,0s-.06,0-.06.08v.2l-.09,0a.29.29,0,0,0-.09.13.1.1,0,0,1-.05.08s-.07,0-.1,0H17.1a.24.24,0,0,1-.26,0l-.18-.09a2.43,2.43,0,0,1-.68-.54l-.25-.2a2.32,2.32,0,0,1-.3-.26l-.28-.38a2.1,2.1,0,0,1-.44-.61.23.23,0,0,0-.18-.09s-.07,0-.09-.08a.84.84,0,0,1,0-.1l0-.28a.29.29,0,0,0-.18-.22,0,0,0,0,0,0,0s0,0-.05-.05,0-.28,0-.33A1.31,1.31,0,0,0,14,8.67a1.52,1.52,0,0,0-.09-.35l-.19-.68,0-.09q0-.18,0-.24a.2.2,0,0,0,0-.11.06.06,0,0,1,0,0,.22.22,0,0,0,0-.09l.2.11a.58.58,0,0,0,.23.17l.21.11a.72.72,0,0,1,.22.14,2.15,2.15,0,0,0,.35.17,4.14,4.14,0,0,0,.46.22,1.17,1.17,0,0,1,.36.16l.19.15.28.24.6.53.52.44.38.41a.13.13,0,0,0,0,.06s0,0,.05.07l.18.22,0,.27Z"/><path class="cls-1" d="M32.07,7.77s0,0-.08.06a.16.16,0,0,0-.07.07A.16.16,0,0,0,32,8l.05.07-.19.06a.75.75,0,0,0-.24.09c-.12.06-.14.13-.05.22l.07.09a.43.43,0,0,1-.31.09h-.37a1.79,1.79,0,0,0-.4,0l-.44,0c.05.05.08.07.09.07a.65.65,0,0,1,.4.61l0,.51a.19.19,0,0,0,0,.13h.11a4.15,4.15,0,0,1,.79-.07c.17,0,.44,0,.79.05a.15.15,0,0,1,.15.17c-.09,0-.13.06-.13.08s0,.08.15.16a.25.25,0,0,1-.17.08h-.16a.91.91,0,0,0-.24.1.28.28,0,0,0-.11.19l.05.17-.11,0a1.59,1.59,0,0,0-.61,0l-.38.08a.31.31,0,0,0-.14.06s0,.08,0,.16l0,.68c0,.09,0,.2,0,.33a3.38,3.38,0,0,1,0,.49v.61a5.14,5.14,0,0,0,0,.64c0,.17,0,.42,0,.74s0,.41,0,.53a3.12,3.12,0,0,1,0,.37c-.08,0-.13-.05-.16,0a.26.26,0,0,0-.08.13q0,.11-.09.12L30,15.83s-.08,0-.12,0l-.13-.11-.07.11-.09,0-.39-.27s0,0,0-.06-.07-.19-.2-.25h.11a.12.12,0,0,0,.09,0,.25.25,0,0,0,0-.1c0-.14,0-.4-.07-.78s0-.71,0-1v-.55c0-.29,0-.73-.05-1.32a.37.37,0,0,0,0-.16s0-.05-.09-.05a.36.36,0,0,0-.15,0l-1.65.3h-.22a.85.85,0,0,1-.32.05A1.24,1.24,0,0,1,26,11.3a.67.67,0,0,1-.24-.46v-.06c0-.06.05-.09.08-.09a.44.44,0,0,1,.25,0,2,2,0,0,0,.65,0c.68-.17,1.13-.27,1.37-.31l.9-.16c.07,0,.11-.06.11-.11s0-.48,0-.87A.25.25,0,0,0,29,9c-.1-.07-.12-.15-.05-.24l0,0-.33.09h-.15a.21.21,0,0,0-.22,0h-.06s0,0-.05,0a.2.2,0,0,0-.18-.09l-.19,0a.79.79,0,0,1-.33-.1A1.24,1.24,0,0,1,27,8.3a.07.07,0,0,1,0-.06.11.11,0,0,0,0-.05v0l0-.08A.11.11,0,0,1,27.15,8h.27l.22,0,1.07-.22L29,7.73l.42-.07,1.69-.13a2.16,2.16,0,0,1,.81.15Zm-.39,7.6a.25.25,0,0,0,0,.12.12.12,0,0,1,0,.1.12.12,0,0,0,0,.12.2.2,0,0,0,.14,0h0a.62.62,0,0,0,.32.14,1.82,1.82,0,0,1,.25.06.49.49,0,0,1-.11.13.37.37,0,0,1,.16.09s0,0,.06,0a.33.33,0,0,1-.19.13l-.2.07-.11,0-.13.08a.17.17,0,0,0-.05.13c0,.06,0,.1-.06.11a1.81,1.81,0,0,1-.62.22,6.88,6.88,0,0,1-1.38.11h-.47l-.67.06a4.24,4.24,0,0,0-.47.1l-.37.1-.15,0-.17,0a.33.33,0,0,1-.38-.06.49.49,0,0,0-.26-.11.69.69,0,0,1-.51-.31.71.71,0,0,1-.13-.26.92.92,0,0,1,0-.2.08.08,0,0,1,0-.08.05.05,0,0,1,0-.05.68.68,0,0,1,.2,0s0,0,0,0a.09.09,0,0,0,0,.05s0,.05,0,.06,0,0,.07,0a.13.13,0,0,1,.08,0,.62.62,0,0,0,.27.05l.24,0,1-.18.33-.07a4.35,4.35,0,0,1,.46-.06c.2,0,.54-.06,1-.09l.5,0c.23,0,.53-.05.9-.11a.32.32,0,0,0,.17-.1.51.51,0,0,0,.07-.17.73.73,0,0,0,.11-.3ZM29.59,4.74l-.42.59-.63.9a5.69,5.69,0,0,1-.49.6l-.28.37a1.62,1.62,0,0,1-.31.24c0,.07-.1.08-.17,0l-.2,0s0,0-.07,0,0-.07.05-.07a.2.2,0,0,1,.11,0A.77.77,0,0,0,27.72,7l.42-.43s.12-.17.44-.58.56-.76.7-1l.2-.27,0-.08h0l-.11.11L29,5.33a2.43,2.43,0,0,1-.2.25,1.59,1.59,0,0,0-.2.24,1.43,1.43,0,0,0-.16.24,2.14,2.14,0,0,1-.19.26l-.35.4L27.59,7a1.12,1.12,0,0,1-.19.16h-.11L27,7l-.11-.11,0,0s0,0,0-.06a.14.14,0,0,0,0-.14l-.06-.08L26.43,6l-.15-.13a.47.47,0,0,1,.24-.22l.16-.06.23-.13a3.91,3.91,0,0,0,.38-.36,4.9,4.9,0,0,0,.43-.54L28.14,4l.53-.71L29,2.92l.13-.15.55-.58.07-.06c.05-.06.05-.12,0-.18l.11,0A.61.61,0,0,0,30,1.82a.12.12,0,0,1,.2,0l.37.4a.43.43,0,0,1,.11.31,1.4,1.4,0,0,1-.13.57,5.14,5.14,0,0,1-.31.44,1.72,1.72,0,0,1-.33.48l.09,0,.41.07.07,0a.39.39,0,0,1,.3,0l.23.09,1,.28.54.14.39.06.66.24.11.11,0,.07-.15,0,0,0c0,.16.09.26.28.28l0,0-.29,0-.13,0c-.09,0-.13,0-.13.11a.28.28,0,0,1-.29.22h-.1a.45.45,0,0,1-.16,0L32,5.75a6,6,0,0,1-.76-.17.13.13,0,0,1-.1,0l-.08,0-.37-.13-.05,0a.22.22,0,0,0-.16-.16l-.17,0A1.26,1.26,0,0,1,30,5ZM27,14.71l0-.16a.26.26,0,0,0-.08-.23l-.14-.16a.47.47,0,0,1-.07-.22.28.28,0,0,1,0-.15c0-.09.07-.23.14-.42a3,3,0,0,1,.21-.51,4,4,0,0,1,.48-.63.19.19,0,0,1,.15-.09.31.31,0,0,1,.2.11l0,0,.11.2a1.28,1.28,0,0,1,.11.31v.13l-.14.48a.08.08,0,0,0,0,.07.15.15,0,0,1,0,.06,1.31,1.31,0,0,1,0,.33l-.22.66-.08.07h-.06a.25.25,0,0,0-.08.05c0,.09-.09.14-.15.14l-.13-.05-.2-.06Zm5.45-1.32a.34.34,0,0,0-.18-.07.32.32,0,0,0-.16.06l-.17.08-.22.06-.06,0a.44.44,0,0,1-.27.09l-.13,0,.24-.24s.08-.16.2-.37a.09.09,0,0,0,0-.11l-.33-.14-.44-.13a1.1,1.1,0,0,1-.31-.2l.53,0,.39,0h.16l.46.11a3,3,0,0,1,.55.17,1.08,1.08,0,0,1,.32.25A.12.12,0,0,1,33,13l-.15.13-.09,0-.24.05A1,1,0,0,0,32.47,13.39Zm7.46-2.28a.19.19,0,0,1-.14.12h-.15a5.76,5.76,0,0,1-.63.09l-.53,0-.64.11-.46.13a3.59,3.59,0,0,1-.41.11h0a.17.17,0,0,0-.2,0l-.15.06a3.1,3.1,0,0,0-.42.1l-.41.12a.16.16,0,0,0-.13.16,2.32,2.32,0,0,1-.07.52c0,.06,0,.1,0,.11s.05,0,.11,0a5.41,5.41,0,0,0,.68-.11l.32,0,.36,0c.29,0,.51-.05.66-.05l.66,0a.73.73,0,0,1,.25,0l.3,0a3.29,3.29,0,0,1,.57,0,1.7,1.7,0,0,0,.35,0,.29.29,0,0,1-.27.2c-.08,0-.16.06-.24.17l.16.07a.89.89,0,0,0-.23.13.37.37,0,0,1-.21.09h0a1.47,1.47,0,0,0-.42,0l-.41,0h-.07l-.46,0c-.29,0-.5,0-.63,0a4.72,4.72,0,0,0-.54.08l-.52.07-.1,0a.19.19,0,0,1-.1,0l-.09,0a.07.07,0,0,1-.1,0l-.07.06a1.44,1.44,0,0,0-.15.42L35,13.92,35,14l-.15-.06a1.16,1.16,0,0,1-.11-.27,2,2,0,0,1-.09-.3l-.07-.51c-.06-.6-.09-1.07-.11-1.4s0-.72,0-.92l0-.47V9c0-.11,0-.28,0-.5V8.32A1,1,0,0,0,34.33,8a.84.84,0,0,0,0-.1.13.13,0,0,1,0-.14.27.27,0,0,0-.06-.1.19.19,0,0,1,0-.1.14.14,0,0,1,0-.09.13.13,0,0,1,.07-.06,1.58,1.58,0,0,1,.53-.2l1.27-.27,1-.17,1-.18c.07,0,.11,0,.11-.13l0-.48a3.26,3.26,0,0,1,0-.46V5.27l-.06,0-.53,0-1.54.06-.94.09a.17.17,0,0,1-.2,0,.51.51,0,0,0-.17,0h-.27a1.21,1.21,0,0,1-.52-.28A.33.33,0,0,0,33.91,5l-.13-.08a.26.26,0,0,0-.19-.26,1.41,1.41,0,0,1-.18-.17.29.29,0,0,1-.09-.21.36.36,0,0,1,0-.13A.25.25,0,0,1,33.56,4a1,1,0,0,1,.68.13l.18,0h.07a6.29,6.29,0,0,0,.85-.06L36.42,4c.25,0,.46-.07.64-.08l.46-.05.54-.06.38,0c.06,0,.08,0,.08-.11l0-.7c0-.31,0-.78,0-1.43A1.08,1.08,0,0,1,38.79,1c.06-.06.12-.08.17,0l.07,0,.11.07a2.62,2.62,0,0,0,.75.53.19.19,0,0,1,.08.15v.15A5.5,5.5,0,0,1,40,2.92c0,.15,0,.27,0,.38s0,.21-.05.28l.13,0,1.17,0,1-.07c.68-.06,1.17-.09,1.5-.09h.08a.29.29,0,0,1,.31.2.05.05,0,0,0,0,0,.09.09,0,0,0,.06,0c.09,0,.13,0,.13.11l-.13.11L44.19,4s0,0,0,.09a.2.2,0,0,1-.05.22l0,0a.27.27,0,0,1-.13.16l-.13.06a1.28,1.28,0,0,1-.17.1,1,1,0,0,1-.23.1l-.37.11,0,0a.76.76,0,0,1-.38.14,1.58,1.58,0,0,0-.32,0,10.08,10.08,0,0,1-1.8.15l-.85,0h-.09a.15.15,0,0,0-.15.09c0,.11-.07.2-.1.29l-.1.22-.2.61h.42l1.29,0,.53,0,.37.05a3.93,3.93,0,0,1,.57.15,1.5,1.5,0,0,1,.38.18l.13.12a.33.33,0,0,1,.11.25c0,.07,0,.2,0,.38a2,2,0,0,0,0,.5,3.72,3.72,0,0,1-.09,1.07l-.24,1.08c0,.07,0,.14-.07.22a.84.84,0,0,0-.06.24c-.06.28-.1.46-.11.55a3.91,3.91,0,0,1-.24.92,2.37,2.37,0,0,1-.15.32,2.72,2.72,0,0,0-.12.25.08.08,0,0,0,0,.06.08.08,0,0,1,0,.05l-.09.18-.09.13-.33.37s0,0-.08,0a2.87,2.87,0,0,1-.42.05l-.07,0-.06-.24a.86.86,0,0,0,.37-.68c.07-.4.17-1,.29-1.78l.11-1.1.08-.63q0-.23.09-.57t.06-.54c0-.16,0-.28,0-.39s-.1-.26-.29-.26-.41,0-.77,0a.42.42,0,0,0-.17,0,10.88,10.88,0,0,1-1.14.06,4.79,4.79,0,0,0-.55,0l-.86.06-.66.09q-.3,0-.87.18l-.33.1L35.67,8a2.55,2.55,0,0,1,.11.77c0,.13,0,.35,0,.64l.5-.09a13.38,13.38,0,0,1,1.87-.28l1.45-.2a4.66,4.66,0,0,1,.81,0,1,1,0,0,1,.31.09l.06.09-.09.06a.31.31,0,0,0-.3.16l-.09,0a.09.09,0,0,0-.07,0,.29.29,0,0,0,0,.12h-.11A4.52,4.52,0,0,0,39,9.59a8.38,8.38,0,0,1-1.08.18,6,6,0,0,1-.68.09l-.77.15h0s0,0-.05,0A.49.49,0,0,0,36,10l-.27.08a.09.09,0,0,0-.07,0,.19.19,0,0,0,0,.08c0,.33,0,.58,0,.74s0,.09.11.09a7,7,0,0,0,.77-.15,11.39,11.39,0,0,1,1.75-.24,2.63,2.63,0,0,0,.41,0l.36,0,.53,0h.11a3.85,3.85,0,0,1,.46.05.12.12,0,0,1,.08,0l.05,0a.36.36,0,0,1-.26.16l-.2.13,0,.06v0ZM40,19.38a.3.3,0,0,1,0-.15,1.25,1.25,0,0,0,.06-.44v-.22l0-.74s0,0-.05,0l-.85.07a2.55,2.55,0,0,0-.56.17l-.41.18a2,2,0,0,0-.27.18l-.28.17-.11.08a.57.57,0,0,1-.13.08l0,0a1.8,1.8,0,0,1-.33-.09s-.06,0-.09-.09a3,3,0,0,1-.22-.7.26.26,0,0,1,0-.15.54.54,0,0,1,.1-.16,1,1,0,0,0,.15-.35c.11-.45.18-.75.22-.9l.14-.55a.2.2,0,0,1,0-.11l-.57.07-.08,0s-.06,0-.08-.07h-.08c0,.08-.08.11-.14.1h-.11a5.53,5.53,0,0,1-.66.11s0,0,0,0l0,0-.18.09-.22,0s.05,0,.07,0l0,0-.38.13a2.47,2.47,0,0,1-.41.08c0-.07-.07-.09-.16-.06a1.9,1.9,0,0,1-.35.06.15.15,0,0,1-.11,0L33.78,16l-.11-.19a.22.22,0,0,1,0-.15.32.32,0,0,0-.11-.31l-.13-.13a.43.43,0,0,1-.07-.17.21.21,0,0,1,.09-.16.43.43,0,0,1,.24-.06.53.53,0,0,1,.19,0l.14,0a.11.11,0,0,0,.11,0,2.14,2.14,0,0,0,.75-.35.89.89,0,0,1,.22-.11h.06v0a2.85,2.85,0,0,1-.28.22l-.53.31a.92.92,0,0,0-.15.17l0,.05a.22.22,0,0,1,.14,0,.38.38,0,0,0,.15,0l1.42-.27c.16,0,.46-.09.88-.15l1-.2a.13.13,0,0,0,.12-.1.46.46,0,0,0,0-.1.55.55,0,0,0,0-.39l0-.09.11-.06.09-.09,0,0a1.77,1.77,0,0,1,.33,0l.06,0,0,0a.58.58,0,0,0,.14.08.25.25,0,0,1,.06.16.17.17,0,0,1,0,.12s0,.07,0,.1a.08.08,0,0,0,0,.07s.05,0,.09,0L40,14.22c.44-.05.77-.09,1-.1.54-.06,1-.1,1.27-.11L43,14h.54L44,14a.36.36,0,0,1,.13,0s0,0,0,0a0,0,0,0,1,0,0,.27.27,0,0,0,0,.2.85.85,0,0,1,0,.15.23.23,0,0,1,0,.2.27.27,0,0,1-.16.13.18.18,0,0,1-.11,0,.82.82,0,0,0-.61.27,1.42,1.42,0,0,1-.53.22,2.91,2.91,0,0,1-.6.06h-.41l-1.32.07a5.38,5.38,0,0,1-.61,0l-.57,0-.62,0c-.07,0-.12.05-.15.13l-.11.36-.13.32-.24.93-.13.5.19-.06c.44-.18.78-.3,1-.38a2.86,2.86,0,0,1,.41-.07l.38-.06a.69.69,0,0,1,.22,0,.2.2,0,0,1,.11,0l.27,0a2.62,2.62,0,0,0,.37,0,1.09,1.09,0,0,1,.57.14s.16.14.35.33a.49.49,0,0,1,.13.31c0,.13,0,.2,0,.23a.61.61,0,0,1-.06.25,2.07,2.07,0,0,0-.08.21.55.55,0,0,1-.13.29.6.6,0,0,1-.13.22l-.2.22-.22,0a.27.27,0,0,0-.17.13.1.1,0,0,1-.12.05.3.3,0,0,0-.12,0,.44.44,0,0,1-.25-.05.61.61,0,0,0-.19,0,.14.14,0,0,0-.11,0l-.07,0ZM34.44,7.68c.05,0,.07,0,.09,0h0s0,0,0,0a.26.26,0,0,0,.22.07H35l-.29-.11A.15.15,0,0,0,34.44,7.68Z"/><path class="cls-1" d="M60.17,5.6a4.82,4.82,0,0,1-.9,1.45L58,8.54l-.79.88Q56,10.74,55,12a3.41,3.41,0,0,0-.28.33c-.1.13-.17.24-.23.33l-.92,1.07a2.68,2.68,0,0,1-.41.43l-.38.36a.51.51,0,0,1-.2.18c-.09.06-.14,0-.15,0,0-.3-.05-.5-.05-.62a.17.17,0,0,0,0-.13.2.2,0,0,1-.09-.18.36.36,0,0,1,0-.11,2.42,2.42,0,0,1,.4-.81c.23-.32.42-.56.55-.72s.25-.3.59-.68a5.61,5.61,0,0,1,.53-.57,5,5,0,0,1,.61-.68l.73-.77L56,9l.35-.37c.15-.18.39-.43.72-.77,0,0,.21-.23.57-.64l.4-.41.61-.68.62-.73a2.11,2.11,0,0,0,.2-.31c.07-.13.14-.24.19-.32l.05-.09.31.17a.33.33,0,0,0,.15,0,1.57,1.57,0,0,1,.81.26,3.88,3.88,0,0,1,.46.29l.6.35a4.63,4.63,0,0,1,.7.46l.42.33.76.5L65,7.79l.61.4L67,9l.33.18.37.2a2.94,2.94,0,0,1,.31.16l.24.12c.1.06.26.13.46.22.48.26.78.42.88.46a2.85,2.85,0,0,0,.33.13l.33.11.66.31a1,1,0,0,1,.18.14,1,1,0,0,0,.17.15l.46.32a.13.13,0,0,1,0,.2.34.34,0,0,0,0,.08.34.34,0,0,1,0,.08.34.34,0,0,1-.22.06,1.79,1.79,0,0,1-.39,0,.66.66,0,0,0-.45.19l-.13.07-.32.13-.29.11-.15.06a.52.52,0,0,1-.23.05h0s-.07,0-.13,0l-.13.07-.29,0h-.07a.86.86,0,0,1-.41.09l-.42,0a1.74,1.74,0,0,1-.72-.18,7.81,7.81,0,0,1-.77-.45l-.39-.24a3.24,3.24,0,0,1-.4-.29,7,7,0,0,1-1-.72L63.44,9.62l-1-1c-.43-.42-.86-.83-1.3-1.23l-.16-.14a1.77,1.77,0,0,1-.17-.14.71.71,0,0,1-.15-.22,1.22,1.22,0,0,1-.07-.17s0-.09,0-.14l-.07-.28A1.51,1.51,0,0,0,60.17,5.6Zm-5-2.15,1-.14.77-.08a1.26,1.26,0,0,0-.05-.29c0-.09,0-.2,0-.33a3.17,3.17,0,0,1,0-.46,3.38,3.38,0,0,1,0-.46,2.55,2.55,0,0,0,0-.44V.92a.28.28,0,0,0,0-.15.34.34,0,0,1,.15,0l.37.2a.59.59,0,0,1,.31.37,1.07,1.07,0,0,1,.13.38,1.19,1.19,0,0,1,0,.28.73.73,0,0,1-.14.42l-.06.15-.07.57c0,.09,0,.13.11.13h.73a.4.4,0,0,0,.22-.08.14.14,0,0,0,.06-.11c0-.15,0-.32,0-.53s0-.44.08-.7,0-.25.07-.4a1.91,1.91,0,0,0,0-.39V.83a.09.09,0,0,1,0-.07l0,0a.1.1,0,0,1,.13,0,.82.82,0,0,0,.46.24s0,0,.07,0a4.2,4.2,0,0,1,.33.42.79.79,0,0,1,.11.42.83.83,0,0,1-.18.5.41.41,0,0,1-.06.11.51.51,0,0,0-.07.15l-.26,1.06L59.51,4a3.54,3.54,0,0,1-.13.39A4.49,4.49,0,0,1,59,5S59,5,58.9,5s0,0-.09,0l-.07-.17a1.8,1.8,0,0,0-.15-.31c0-.07-.05-.11-.07-.12s-.06,0-.13.08a1.66,1.66,0,0,1-.34.22l-.38.17a.48.48,0,0,1-.22.05.49.49,0,0,1-.2,0,.42.42,0,0,0-.27,0l-.19.07-1.1.24-.37.07a.35.35,0,0,0-.22.13,1.18,1.18,0,0,1-.22.28l-.07,0h-.06a1.53,1.53,0,0,1-.77-.9l-.2-.62,0,0a.45.45,0,0,1-.09-.2.2.2,0,0,1,0-.09,0,0,0,0,0,0,0s0,0,0,0a.27.27,0,0,1-.08-.19.61.61,0,0,1,0-.17l0-.16,0,0,.08-.44.2-1c.06-.28.1-.47.11-.57a.2.2,0,0,0,0-.13.45.45,0,0,1,0-.11s0-.05,0-.07.05,0,.08,0a.83.83,0,0,0,.3.2,1.35,1.35,0,0,0,.25.1,1.3,1.3,0,0,1,.66.53,1.55,1.55,0,0,1,.15.46.73.73,0,0,1-.22.59.68.68,0,0,0-.18.38Q55.17,3.33,55.14,3.45Zm4.9,6A.46.46,0,0,1,60,9.26c0-.08,0-.13.05-.13a.17.17,0,0,1,.17,0l.31.22a1.09,1.09,0,0,1,.31.51,1,1,0,0,1-.05.41.53.53,0,0,0,0,.28,1.23,1.23,0,0,1,0,.18l.06,0h.08l.83,0c.26,0,.66,0,1.18,0a5.07,5.07,0,0,1,.86.07A.64.64,0,0,1,64,11a.5.5,0,0,0,.18.09l0,.05-.24.13.15.08h0l-.17,0,0,0-.1,0a.24.24,0,0,0-.12.09l-.16.11a.31.31,0,0,0-.17.17s0,.06-.09.09l-.11.07-.16,0-.14,0a.14.14,0,0,0-.09,0,.31.31,0,0,1-.29.19l-.09.05a.67.67,0,0,1-.46.13h-.13l-.28,0a3.47,3.47,0,0,0-.46,0,.17.17,0,0,0-.18.13,2.51,2.51,0,0,0,0,.55,2.83,2.83,0,0,0,0,.46.77.77,0,0,1,0,.37,4.55,4.55,0,0,1,0,.77,9,9,0,0,0-.06,1.06v.7c0,.19,0,.47,0,.85s0,.58,0,.81,0,.44,0,.6l0,.55a3,3,0,0,1-.11.54.33.33,0,0,1-.11.2c-.07.1-.15.1-.22,0A.6.6,0,0,1,60,19.6v-.06a.44.44,0,0,0,0-.15.35.35,0,0,1,0-.14l0-.24,0-.48c0-.41,0-.73,0-1a3.57,3.57,0,0,0,0-.52c0-.33,0-.56,0-.71a1.94,1.94,0,0,0,0-.22,1.58,1.58,0,0,1,0-.3l.07-1.1.06-.68a9.06,9.06,0,0,0,.09-1v-.44q0-.09-.09-.09l-.61.07H58.7c-.37,0-.64,0-.81,0a.85.85,0,0,0-.22.06.71.71,0,0,1-.16.07.64.64,0,0,1-.22,0H57.1l-.11,0c-.06,0-.09,0-.09-.13l0,0-.35-.31-.05,0a.17.17,0,0,0-.09-.17l-.13-.07c-.09,0-.13-.09-.13-.15a.27.27,0,0,1,.07-.18.28.28,0,0,0,0-.09s0-.05,0-.06a.2.2,0,0,1,0-.27.1.1,0,0,0,0-.13c0-.08,0-.15.09-.19a.22.22,0,0,1,.27-.05,1.81,1.81,0,0,0,.32.05l.53,0c.22,0,.55,0,1-.05l.48,0,1.1-.09c.09,0,.13-.05.13-.15s0-.26,0-.46a.86.86,0,0,1,0-.15.69.69,0,0,0,0-.2.61.61,0,0,0,0-.15.38.38,0,0,0,0-.11Zm-3.73,7.77.68-.53a.71.71,0,0,0,.22-.24,1.76,1.76,0,0,1,.33-.37,3.1,3.1,0,0,0,.32-.33l.4-.44a1.19,1.19,0,0,0,.08-.16c0-.07,0-.12,0-.15l.16.11a1.76,1.76,0,0,1,.28.41.73.73,0,0,1,0,.45v.33a.84.84,0,0,1-.08.37,1.05,1.05,0,0,0-.12.22.65.65,0,0,1-.3.29l-.09.08a6.22,6.22,0,0,1-.6.4,1.82,1.82,0,0,1-.58.2l-.25,0h0a.23.23,0,0,1-.2-.11Zm5.62-14,.28-.07c.34-.07.74-.17,1.21-.31l.85-.19a1.87,1.87,0,0,1,.38,0,.16.16,0,0,0,.13-.17V1.84q0-.57.09-.81a1.51,1.51,0,0,0,0-.26,1.89,1.89,0,0,0-.07-.51A.2.2,0,0,1,64.93,0l.53.31.09.06.15.25.07.1a1.86,1.86,0,0,1,0,.36.58.58,0,0,1,0,.19l-.07.14a.47.47,0,0,0-.15.39l-.09.57a.78.78,0,0,1,0,.16.4.4,0,0,1,.17,0H66c.17,0,.37,0,.61-.05a.37.37,0,0,0,.15,0l.13-.06c.09,0,.14-.06.14-.12a.83.83,0,0,0,0-.12.71.71,0,0,1,0-.2l.15-.81a.65.65,0,0,0,0-.2.6.6,0,0,1,0-.2.12.12,0,0,1,0-.09s0,0,.07,0a.38.38,0,0,0,.23.15l.2.05a.8.8,0,0,1,.2.22l.13.35a.32.32,0,0,1,0,.24c0,.12-.07.19-.13.22a.38.38,0,0,0-.15.2l0,.15c-.14.44-.26.77-.35,1a6.9,6.9,0,0,1-.41.79.66.66,0,0,1-.33.29l0-.07a.37.37,0,0,0-.17-.31c-.09,0-.1-.14,0-.28l0,0-.08.06-.12.07-.17.09L65.61,4q-.44.13-.66.18s0,0,0,0,0,0,0,0a.33.33,0,0,1-.19.06.26.26,0,0,1-.2-.08,0,0,0,0,0-.06,0h0l-1,.15a1.8,1.8,0,0,1-.37,0,.5.5,0,0,1-.18,0,.59.59,0,0,0-.21,0,6.26,6.26,0,0,1-.66.11.76.76,0,0,1-.24,0,.41.41,0,0,0-.21,0,.33.33,0,0,0-.1.17s0,.07-.06.08,0,0-.07,0a.61.61,0,0,1-.18-.24,1.61,1.61,0,0,1-.06-.33,1.84,1.84,0,0,1,0-.24c0-.06,0-.1,0-.11a.64.64,0,0,0,.14-.36c0-.14,0-.23,0-.28s.07-.35.12-.65.11-.58.16-.82a4.65,4.65,0,0,0,.18-.85c0-.08,0-.11.07-.11l.08,0a4,4,0,0,1,.4.22.41.41,0,0,1,.17.35.28.28,0,0,0,0,.16c.07.11,0,.24-.07.39a3.43,3.43,0,0,0-.35.88Zm.24,13,0,0a.19.19,0,0,1,0-.08.1.1,0,0,1,0-.05.5.5,0,0,1,.19,0l.29.13.92.79a4.17,4.17,0,0,1,.51.53,2,2,0,0,1,.14.23l.12.23a.42.42,0,0,0,.07.13.78.78,0,0,1,.1.15c.05.06,0,.11-.06.16l-.17,0-.16.06-.31,0-.09,0a1.24,1.24,0,0,1-.83-.57,1.42,1.42,0,0,0-.37-.33.16.16,0,0,1-.09-.11.17.17,0,0,1,0-.08c0-.14-.08-.39-.18-.77a1.27,1.27,0,0,0-.06-.18l0-.09Z"/></g></g></svg>