<svg xmlns="http://www.w3.org/2000/svg" viewBox="0 0 32.95 22.49"><defs><style>.cls-1,.cls-2{fill:#231815;}.cls-1{fill-rule:evenodd;}.cls-3{fill:#e72d35;}</style></defs><g id="图层_2" data-name="图层 2"><g id="图层_1-2" data-name="图层 1"><path class="cls-1" d="M5,18.08H4.46A6.09,6.09,0,0,0,4.94,17H4.32a5.88,5.88,0,0,1-.43,1.12H3.07V16.59H2.48v1.49H1.65A5.82,5.82,0,0,1,1.23,17H.62a7.65,7.65,0,0,0,.44,1.12H0v4.41H.59V18.6H5v3.89h.59V18.08Z"/><path class="cls-1" d="M3.86,19.14H1.15v2.41H4.4V19.14H3.86ZM3.8,21h-2V19.67H3.8Z"/><path class="cls-1" d="M10.12,19.58a8,8,0,0,0,1.34-1V18H8.41a2.41,2.41,0,0,0,.08-.25H7.91a6.61,6.61,0,0,1-.64,1.52h.52L8,19c.3.22.61.42.93.61a8.34,8.34,0,0,1-2.21.74v.48a6.84,6.84,0,0,0,.81-.14v1.82h4.2V20.71c.26.06.53.12.81.16v-.49a10.42,10.42,0,0,1-2.4-.8m-1.72-1h2.11a8,8,0,0,1-1,.71,9.82,9.82,0,0,1-1.1-.71m1.13,1.37h0A8.92,8.92,0,0,0,11,20.5H8.13a8.11,8.11,0,0,0,1.4-.58m1.63,2H8.06V21h3.1Z"/><polygon class="cls-1" points="7.32 18.33 7.37 18.33 7.37 17.62 11.85 17.62 11.85 18.33 11.9 18.33 12.44 18.33 12.45 18.33 12.45 17.1 9.94 17.1 9.94 16.59 9.28 16.59 9.28 17.1 6.77 17.1 6.77 18.33 6.78 18.33 7.32 18.33"/><path class="cls-1" d="M30.67,17v-.39h-.54V17H27.69v2h0v.47a5.38,5.38,0,0,1-.1,1.29,2.85,2.85,0,0,1-.32.87v.84A3.55,3.55,0,0,0,28,21.23a6.6,6.6,0,0,0,.24-2h0V17.5H33V17Z"/><path class="cls-1" d="M30.67,17.73h-.54V19.6H28.54v2.85h4.21V19.6H30.67v-.67h2.17v-.49H30.67Zm1.53,4.21H29.08V20.11H32.2Z"/><polygon class="cls-1" points="21.64 17.88 21.16 16.6 20.58 16.6 21.04 17.88 21.64 17.88"/><polygon class="cls-1" points="20.44 22.49 20.52 22.49 20.98 22.49 21.05 22.49 21.66 19.78 21.09 19.78 20.44 22.49"/><path class="cls-1" d="M26.12,17.29v-.52H22v.52h1.26V18H22v4.49h4.17V18H24.91v-.71Zm-.56,3.24h0v.34h-3v-.34a2.1,2.1,0,0,0,1.25-2h.57a2,2,0,0,0,1.22,2M24.34,18h-.57v-.71h.57Zm-1.12.52h0a1.67,1.67,0,0,1-.7,1.45V18.52ZM22.52,22h0v-.61h3V22Zm3-2h0a1.62,1.62,0,0,1-.65-1.45h.65Z"/><polygon class="cls-1" points="20.6 18.14 21.06 19.41 21.66 19.41 21.18 18.14 20.6 18.14"/><path class="cls-1" d="M13.6,19.45V20a6,6,0,0,0,.57-.76v3.22h.6V18.08a6.33,6.33,0,0,0,.34-1.38H14.5a8.09,8.09,0,0,1-.9,2.75"/><path class="cls-1" d="M19.29,18.29v-.52h-.51l-.31-.9h-.54l.31.9H17.06c0-.42,0-.73,0-1.18h-.59c0,.46,0,.76,0,1.18H15.22v.52h1.23a8,8,0,0,1-1.31,4.2h.55A7.3,7.3,0,0,0,17,18.29Z"/><path class="cls-2" d="M18.71,21.49v.25s0,.06,0,.09a.28.28,0,0,1-.25.18h-.16a.29.29,0,0,1-.26-.18.28.28,0,0,1,0-.09V18.65h-.58v3.24h0a.39.39,0,0,0,0,.18.56.56,0,0,0,.5.36h.77a.57.57,0,0,0,.51-.36.57.57,0,0,0,0-.18h0v-.4Z"/><path class="cls-3" d="M22.35,12.09c0-.08,0-.16-.07-.25a2,2,0,0,1-.08-.26A9,9,0,0,1,22,10.3,10,10,0,0,1,22,8.13l.12-1,.09-.87.08-1a16.25,16.25,0,0,0-.21-4l0-.2-.2.05-.31.09-.35.1A7.27,7.27,0,0,1,20,1.39a17.63,17.63,0,0,1-3.31-.29L15.92,1A15.19,15.19,0,0,0,12.3.91l-.19,0a9.33,9.33,0,0,0-1.24.19l-.22.06.12.21A3.08,3.08,0,0,1,10.9,2a9.27,9.27,0,0,1,0,3.11A21.47,21.47,0,0,0,10.64,11l0,.24a10.58,10.58,0,0,0,.21,1.21l0,.18.18-.05a10.13,10.13,0,0,1,1.81-.3,16.27,16.27,0,0,1,2.8.17l1.27.13c.27,0,.55,0,.82.05l.4,0h1.07a13.8,13.8,0,0,0,2.93-.36h.21Zm-.38,0a14.33,14.33,0,0,1-2.69.31H18.22l-.32,0h-.13c-.25,0-.5,0-.76-.05l-1.27-.13h-.09A18,18,0,0,0,13.42,12h-.51a8.67,8.67,0,0,0-1.69.27l-.08,0v-.08a9.26,9.26,0,0,1-.17-1l0-.24a20.81,20.81,0,0,1,.24-5.77V5.16a9.7,9.7,0,0,0,0-3.23,4.22,4.22,0,0,0-.09-.48l0-.09h.08c.29-.06.59-.1.87-.13h.13l.19,0a13.3,13.3,0,0,1,1.43-.07,15.11,15.11,0,0,1,2.12.15l.87.12a20.33,20.33,0,0,0,2.95.29H20a8.08,8.08,0,0,0,1.3-.18l.24-.07.32-.09,0,.09a15.9,15.9,0,0,1,.18,3.77L22,6.2c0,.16,0,.32,0,.49s0,.26,0,.38l-.12,1a10.52,10.52,0,0,0-.06,2.22,8.21,8.21,0,0,0,.23,1.33c0,.09.05.19.08.28a.1.1,0,0,1,0,0v0l0,.1Z"/><rect class="cls-3" x="12.84" y="6.34" width="0.94" height="0.63"/><rect class="cls-3" x="15.74" y="6.96" width="1.43" height="0.43"/><path class="cls-3" d="M15.77,6.72h1.3a4.77,4.77,0,0,1-.66-.26,4.51,4.51,0,0,1-.64.26"/><path class="cls-3" d="M16.86,5.83h-1a4.26,4.26,0,0,0,.5.32,2.91,2.91,0,0,0,.46-.32"/><path class="cls-3" d="M22.53,2.89a6.69,6.69,0,0,1-1.28-.18,24.31,24.31,0,0,1-3.83-1.49A14.38,14.38,0,0,0,14,.18,10.29,10.29,0,0,0,12.59,0a2.76,2.76,0,0,1,0,.7,10,10,0,0,1-.85,3.05A20.66,20.66,0,0,0,9.88,9.33a13.69,13.69,0,0,0-.15,1.45,10,10,0,0,1,1.86.2,16.81,16.81,0,0,1,2.67.92c.4.16.79.32,1.2.47s.76.26,1.14.39.68.19,1,.29a14.8,14.8,0,0,0,2.88.44v0h0c0-.18,0-.37,0-.54a9.5,9.5,0,0,1,.14-1.33,10.46,10.46,0,0,1,.65-2.1l.39-1,.38-1,.3-.81a16.79,16.79,0,0,0,.86-3.9c-.22,0-.45,0-.69,0M15.15,5.16H16.3V4.93h.3v.23h1.15v.57h-.27V5.4H15.42v.33h-.27ZM14.06,6.34V7.2H12.57V6.1h1.49Zm.25,1.3V5.85h-2V7.64H12v-2h.48a4,4,0,0,1-.2-.52h.28a2.62,2.62,0,0,0,.2.52h.38V4.93h.27v.68h.38A2.92,2.92,0,0,0,14,5.09h.29a4.77,4.77,0,0,1-.22.52h.5v2h-.28Zm.74,1h0v.77a.06.06,0,1,1-.12,0V9.07h-.45v.34h0a0,0,0,0,1,0,0h0v0h0a.06.06,0,0,1-.06-.06h0V8.66h0a.06.06,0,0,1,.06-.06.06.06,0,0,1,.06.06h0V9h.45V8.66h0A.06.06,0,0,1,15,8.59h0s0,0,0,0h0a.06.06,0,0,1,0,0Zm.56.83a.36.36,0,0,1-.36-.36.36.36,0,1,1,.72,0,.36.36,0,0,1-.36.36m.87,0h-.12a.15.15,0,0,1-.15-.15V8.91H16.1a0,0,0,0,1-.05-.05h0s0,0,0,0h.12V8.65a.07.07,0,0,1,.07-.06.06.06,0,0,1,.06.06V8.8h.14s.05,0,.05.06,0,.05-.06.05h-.13v.38c0,.05,0,.07.06.07h.08a.06.06,0,0,1,.06.06.06.06,0,0,1-.06.06m.91-.34a.08.08,0,0,1-.07,0h-.5a.27.27,0,0,0,.23.17.32.32,0,0,0,.22-.09h0a.06.06,0,0,1,.05.06.06.06,0,0,1,0,0,.41.41,0,0,1-.31.13.37.37,0,0,1-.36-.36A.36.36,0,0,1,17,8.77a.36.36,0,0,1,.36.33.06.06,0,0,1,0,0m.33.29a.07.07,0,0,1-.07.06.06.06,0,0,1-.06-.06V8.65a.06.06,0,0,1,.06-.06.07.07,0,0,1,.07.06Zm.06-2.54-.37-.07v.82H15.49V6.8a2.5,2.5,0,0,1-.38.06V6.65a4,4,0,0,0,1-.35A4,4,0,0,1,15.7,6a1.19,1.19,0,0,1-.09.15h-.23a3.33,3.33,0,0,0,.29-.7h.27l0,.12h1.4v.23a4,4,0,0,1-.61.48,4.52,4.52,0,0,0,1.09.37Zm.74,2.47,0,.06-.07,0-.09,0h-.1l-.13,0-.08,0A.17.17,0,0,1,18,9.37l0-.06a.06.06,0,0,1,0-.06.07.07,0,0,1,.05,0h0l.05,0,0,0a.12.12,0,0,0,0,.05s0,0,.06,0h.19a.13.13,0,0,0,.07,0,0,0,0,0,0,0-.05s0,0,0,0l-.06,0-.1,0-.12,0-.11,0A.14.14,0,0,1,18,9.05s0,0,0-.07a.11.11,0,0,1,0-.08A.15.15,0,0,1,18,8.83a.1.1,0,0,1,.07,0l.08,0h.07l.11,0a.16.16,0,0,1,.11.05s0,0,.06.07a.1.1,0,0,1,0,.07.07.07,0,0,1,0,0h0l-.05,0,0,0a.1.1,0,0,0-.05,0l-.06,0h-.06l-.09,0a.12.12,0,0,0-.07,0V9l0,0,.1,0h.09l.09,0,.08,0a.15.15,0,0,1,.05.06.11.11,0,0,1,0,.08.2.2,0,0,1,0,.1m.3-3.75v2h-.28V6.16a1.7,1.7,0,0,1-.26.34V6.24A3.52,3.52,0,0,0,18.69,5H19a2.63,2.63,0,0,1-.15.63m2.07,1.75h0a.24.24,0,0,1,0,.08.26.26,0,0,1-.23.17h-.35a.26.26,0,0,1-.23-.17.24.24,0,0,1,0-.08h0V5.87h.26V7.29a.08.08,0,0,1,0,0,.13.13,0,0,0,.12.08h.07a.13.13,0,0,0,.12-.08V7.17h.27Zm0-1.65h-1a3.35,3.35,0,0,1-.62,1.93H19a3.8,3.8,0,0,0,.6-1.93H19V5.47h.57V4.93h.27v.54h.54l-.14-.42h.24l.15.42h.23Z"/><path class="cls-3" d="M17,8.88a.22.22,0,0,0-.23.2h.47a.23.23,0,0,0-.24-.2"/><path class="cls-3" d="M15.6,8.89a.23.23,0,0,0-.22.24.22.22,0,0,0,.22.23.23.23,0,0,0,.24-.23.24.24,0,0,0-.24-.24"/></g></g></svg>