<svg xmlns="http://www.w3.org/2000/svg" viewBox="0 0 33.44 24.25"><defs><style>.cls-1{fill:#00833e;}.cls-2{fill:#231815;}</style></defs><g id="图层_2" data-name="图层 2"><g id="图层_1-2" data-name="图层 1"><path class="cls-1" d="M19.23,1.72A1.68,1.68,0,0,0,17.94,0c-.34-.09-.37-.06-.37.3V11.7c0,.35,0,.36.36.28a1.68,1.68,0,0,0,1.3-1.67c0-1.43,0-2.86,0-4.29Z"/><path class="cls-1" d="M22.56,9.31c0-1.12,0-2.24,0-3.36,0-.11,0-.22,0-.32A1.59,1.59,0,0,0,20.93,7c0,.6,0,1.2,0,1.8a10.29,10.29,0,0,1,0,1.11,2.42,2.42,0,0,1-1.32,2l0,.1c.23,0,.45,0,.67-.08C21.77,11.68,22.61,11,22.56,9.31Z"/><path class="cls-1" d="M15.67,5.6a1.71,1.71,0,0,0-1.42,1.73c0,1,0,2,0,3a2.86,2.86,0,0,1-.4,1.61s0,.06,0,.16a5.43,5.43,0,0,0,1-.34,2.11,2.11,0,0,0,1.07-2c0-1.17,0-2.34,0-3.51,0-.2,0-.4,0-.63Z"/><path class="cls-1" d="M12.57,7.26V6.88a1.36,1.36,0,0,0-1.34.74,3.74,3.74,0,0,0-.16,2.77,3.74,3.74,0,0,0,.27.7,2,2,0,0,0,1.79.89,2,2,0,0,1-.51-1.42C12.58,9.46,12.58,8.36,12.57,7.26Z"/><path class="cls-1" d="M14.52,4.73a1.65,1.65,0,0,0,1.37-1.5c0-1,0-2,0-3,0-.21-.09-.25-.28-.21a1.7,1.7,0,0,0-1.37,1.67c0,.44,0,.88,0,1.32h0v1.5C14.24,4.71,14.31,4.77,14.52,4.73Z"/><path class="cls-2" d="M6.1,17.75H3.88V14.94h0a.8.8,0,0,0-.8.8v2H0v6.49H.85v-6h5.2v4.86c0,.56-.1.74-.75.74h0v.36h.59c.68,0,1.06-.34,1.06-.94V18.56A.8.8,0,0,0,6.1,17.75Z"/><path class="cls-2" d="M11.56,15.46H13.4v0a.47.47,0,0,0-.48-.48H11.08V15A.48.48,0,0,0,11.56,15.46Z"/><path class="cls-2" d="M1.25,17.21l0,.06.7-.49,0,0A6.13,6.13,0,0,0,.61,15.48l0,0-.3.21,0,0A5,5,0,0,1,1.25,17.21Z"/><path class="cls-2" d="M23.69,17l0,.05.7-.49,0,0a5.8,5.8,0,0,0-1.33-1.25l0,0-.3.2,0,.05A4.86,4.86,0,0,1,23.69,17Z"/><path class="cls-2" d="M5.25,17.23A6.82,6.82,0,0,0,6.58,16l0,0-.7-.49,0,.05A6.86,6.86,0,0,1,5,17l0,0,.3.2Z"/><path class="cls-2" d="M15.08,15.8H8.61v1.64h.85V16.33H15v1.11h.85V16.6A.8.8,0,0,0,15.08,15.8Z"/><path class="cls-2" d="M19.89,15v-.05H19v0a7,7,0,0,1-1.76,4h0v.48l.08-.07a14.73,14.73,0,0,0,1.12-1.13v6h.85V17.86h-.52A6,6,0,0,0,19.89,15Z"/><path class="cls-2" d="M22.05,14.94h0a.82.82,0,0,0-.83.8v1.59h-1.6v.54h1.6a10.65,10.65,0,0,1-1.59,5.88v.5l.08-.08a9,9,0,0,0,2.39-6.3h2.66v-.54H22.05Z"/><path class="cls-2" d="M23.13,23.14V18.42h-.05a.8.8,0,0,0-.8.8V23.3c0,.6.39.94,1.07.94h1.36v-.36h-.82C23.24,23.88,23.13,23.7,23.13,23.14Z"/><path class="cls-2" d="M4.3,19.4H3.06v.05a.48.48,0,0,0,.47.48h.72v2.31H2.65V19.4H1.8v3.37H5.1V20.2A.8.8,0,0,0,4.3,19.4Z"/><path class="cls-2" d="M14,21.1H10.93v0a.49.49,0,0,0,.49.49H14V23.7H10.52V21.1H9.67v3.14h5.15V21.91A.81.81,0,0,0,14,21.1Z"/><path class="cls-2" d="M32.06,16a.8.8,0,0,0-.8-.8H28.84v0h0a.5.5,0,0,0,.49.48h1.88v2.53H28.43V15.15h-.85v3.59h4.48Z"/><path class="cls-2" d="M28.66,19.52H27.47v.05h0a.47.47,0,0,0,.48.48h.66V23.7H27.06V19.52H26.2v4.72h3.26V20.32A.8.8,0,0,0,28.66,19.52Z"/><path class="cls-2" d="M32.64,19.52H31.45v.05h0a.47.47,0,0,0,.48.48h.66V23.7H31V19.52h-.85v4.72h3.25V20.32A.8.8,0,0,0,32.64,19.52Z"/><path class="cls-2" d="M13.08,19.6a4.75,4.75,0,0,0,1.61-1.81h0v-.5H10.83l-.65-.45,0,.05a7.07,7.07,0,0,1-1.08,1.9l0,0,.3.21,0,0a9,9,0,0,0,1.16-1.2h3.13a5.46,5.46,0,0,1-1.38,1.45,12.23,12.23,0,0,1-1.7-1l0,0-.26.23,0,0a10.89,10.89,0,0,0,1.45,1,12.54,12.54,0,0,1-3.17,1.16v.37A14.36,14.36,0,0,0,12.45,20a14.53,14.53,0,0,0,3.43,1.21v-.88h-.11A12.21,12.21,0,0,1,13.08,19.6Z"/></g></g></svg>