<svg xmlns="http://www.w3.org/2000/svg" viewBox="0 0 109.54 109.54"><defs><style>.cls-1{fill:#e05943;}.cls-2{fill:#fff;}.cls-3{fill:none;stroke:#fff;stroke-miterlimit:10;stroke-width:1.03px;}</style></defs><g id="图层_2" data-name="图层 2"><g id="图层_1-2" data-name="图层 1"><path class="cls-1" d="M54.77,74.66A347.18,347.18,0,0,1,109,79v-57A21.48,21.48,0,0,0,87.62.51H21.93A21.48,21.48,0,0,0,.51,21.92V78.68A365.08,365.08,0,0,1,54.77,74.66Z"/><path class="cls-2" d="M82.93,17.38a18.24,18.24,0,0,0-25.79,0l-2.36,2.36-2.35-2.36a18.25,18.25,0,0,0-25.8,0,18.28,18.28,0,0,0-5.35,12.9,18.22,18.22,0,0,0,2.08,8.47h0a18.38,18.38,0,0,0,3.26,4.41L29,45.53l6.8,6.8a11.8,11.8,0,0,0,2,1.6l.17.11a9.9,9.9,0,0,0,1.53.83l.28.12a12.38,12.38,0,0,0,13.57-2.66l0,0,6-6a16.4,16.4,0,0,1-10.49-.45A13.08,13.08,0,0,1,47,45l0,0v0a16,16,0,0,1-3.72-2.79L37.8,36.72h0l-2.6-2.6a5.85,5.85,0,0,1,4.14-10,5.77,5.77,0,0,1,4.13,1.71l2.61,2.6h0L48.6,31a8.73,8.73,0,0,0,12,.3l2.85-2.85,2.6-2.6.32-.29,2.82-2.83a11.7,11.7,0,0,1,16.52,0A11.94,11.94,0,0,1,87.48,25,18.13,18.13,0,0,0,82.93,17.38Z"/><path class="cls-2" d="M88.24,30.65a10,10,0,0,0-17.09-7.08l-.56.56a5.85,5.85,0,0,1,3.76,10l-2.6,2.6v0l-5.45,5.44L63,45.42h0L55.16,53.3l-.24.23-.16.16a13,13,0,0,1-14.24,2.23,10,10,0,0,1-1.13-.58,13.08,13.08,0,0,1-1.64-1.15l-.1-.08c-.3-.26-.6-.52-.89-.81l.78.78.15.15,1.4,1.41L46,62.5l1.37,1.36a10.53,10.53,0,0,0,8.87,3,9.82,9.82,0,0,0,2.64-.7,10.52,10.52,0,0,0,3.41-2.28l9.62-9.61,8.72-8.72,2.35-2.36a17.94,17.94,0,0,0,5.26-11.52.76.76,0,0,1,0-.15c0-.28,0-.56.06-.85Z"/><path class="cls-2" d="M21.93,109H87.62A21.48,21.48,0,0,0,109,87.62V79a347.18,347.18,0,0,0-54.26-4.29,365.08,365.08,0,0,0-54.26,4v8.94A21.48,21.48,0,0,0,21.93,109Z"/><path class="cls-1" d="M35.88,102h1.9a11.18,11.18,0,0,1-1,1.18,1.29,1.29,0,0,1-.46.33l-.14,0,.06.14c0,.11.12.34.15.46l0,.12.13,0a29.91,29.91,0,0,1,3.77-.38l.42,0a3.71,3.71,0,0,1,.34.5l.06.11.62-.37-.07-.1a8.81,8.81,0,0,0-1.59-1.84l-.06-.06-.61.32.12.11c.2.19.42.42.67.69l-2.68.21A12.51,12.51,0,0,0,38.69,102h3.1v-.68H35.88Z"/><path class="cls-1" d="M39.25,98.46l.09-.14.13-.18-.67-.29,0,.09a7.19,7.19,0,0,1-3.1,2.33l-.17.08.14.12a2.1,2.1,0,0,1,.31.37l0,.09.1-.05a10.26,10.26,0,0,0,1-.52v.32h3.53v-.38a7.35,7.35,0,0,0,1,.51l.09,0,.05-.09a2.2,2.2,0,0,1,.3-.37l.16-.14-.19-.06A8,8,0,0,1,39.25,98.46ZM37.6,100A7.26,7.26,0,0,0,38.84,99,8.92,8.92,0,0,0,40.13,100Z"/><path class="cls-1" d="M51.72,98.19h-4.5v1.88h4.5Zm-3.79,1.23v-.59H51v.59Z"/><polygon class="cls-1" points="47.7 101.13 51.25 101.13 51.25 103.19 51.98 103.19 51.98 100.46 46.99 100.46 46.99 103.23 47.7 103.23 47.7 101.13"/><path class="cls-1" d="M49.91,102.82l-.09,0-.37.54.15,0a20.33,20.33,0,0,1,2.53,1l.1,0,.37-.6-.12,0A24.82,24.82,0,0,0,49.91,102.82Z"/><path class="cls-1" d="M49.78,101.35h-.72v.75c0,.39,0,1.19-2.59,1.69l-.22,0,.16.16a2.19,2.19,0,0,1,.27.35l0,.08.09,0c2.62-.59,3-1.49,3-2.29Z"/><path class="cls-1" d="M62.37,99.48H60.18c0-.1,0-.22.07-.34H63.1v-.66H60.37c0-.14.05-.29.07-.43l0-.12-.75-.07V98c0,.15,0,.32-.05.5H57.07v.66h2.48a2.75,2.75,0,0,1,0,.34H57.85v4h-1v.66h6.46v-.66h-1Zm-.7,3.57v.42H58.53v-.42Zm0-1v.4H58.53v-.4Zm0-1v.35H58.53v-.35Zm-3.14-.6v-.39h3.14v.39Z"/><path class="cls-1" d="M69,99.66l.08.11.5-.5-.06-.08a9.2,9.2,0,0,0-1.06-1.13L68.41,98l-.49.45.09.09A8.73,8.73,0,0,1,69,99.66Z"/><path class="cls-1" d="M70.54,102.77a2.25,2.25,0,0,1-.13-.37l0-.17-1,.65V100H67.52v.68h1.19v2.41a.64.64,0,0,1-.3.48l-.12.07.09.1a1.51,1.51,0,0,1,.22.36l.07.2.13-.17a12.89,12.89,0,0,1,1.52-1.1l.27-.2Z"/><path class="cls-1" d="M69.87,98.46v.7H72v4.45l-.07,0c-.16,0-.65,0-1.16,0h-.22l.12.19a2.14,2.14,0,0,1,.17.46l0,.1H71a4.83,4.83,0,0,0,1.37-.11c.28-.1.4-.3.4-.68V99.16H74v-.7Z"/><path class="cls-1" d="M39.23,84.29a.25.25,0,0,0-.2.07.32.32,0,0,0,0,.26l.29.73c.14.34.27.68.31.79a20.14,20.14,0,0,1,1.17,4c.13.7.5,1,1.09,1h.18a1.19,1.19,0,0,0,.9-.47,1.29,1.29,0,0,0,.11-1.09C42.7,88.32,39.93,84.29,39.23,84.29Z"/><path class="cls-1" d="M38.85,91.42h-.2c-.59,0-.89.32-1,1.12-.26,1.43-.67,1.58-1.54,1.58H34.21c-.53,0-.6-.31-.6-.63V84a1,1,0,0,0-1.95,0v9.25c0,.7.29,1.55,1.68,1.55h3.93a2,2,0,0,0,1.78-.64,3.64,3.64,0,0,0,.64-1.62,1.09,1.09,0,0,0-.18-.82A.93.93,0,0,0,38.85,91.42Z"/><path class="cls-1" d="M32.18,80a19.15,19.15,0,0,1,3.68,2.45c.78.68.81.68,1.08.68A1.09,1.09,0,0,0,38,82c0-.41-.17-.78-2.23-1.59a15.87,15.87,0,0,0-3.5-1c-.26,0-.32.11-.32.2A.36.36,0,0,0,32.18,80Z"/><path class="cls-1" d="M29.68,84.74h0a.39.39,0,0,0-.37.35,15.07,15.07,0,0,1-1.72,4.79,2.13,2.13,0,0,0-.36,1.48.84.84,0,0,0,.4.55,1.21,1.21,0,0,0,.67.19,1.09,1.09,0,0,0,1.09-.71,21.75,21.75,0,0,0,.71-5.76C30.1,84.89,29.94,84.74,29.68,84.74Z"/><path class="cls-1" d="M61.75,93.76h-6.1V90.9h5.51a.37.37,0,0,0,0-.74H55.65V87.63h3.77c1.13,0,1.7-.52,1.7-1.55V81.22c0-1-.57-1.55-1.7-1.55H50.19c-1.12,0-1.68.52-1.68,1.55v4.86c0,.71.29,1.55,1.68,1.55h3.55v2.53H48.56a.37.37,0,0,0,0,.74h5.19v2.86H47.94a.38.38,0,0,0,0,.75H61.75a.38.38,0,1,0,0-.75ZM59.21,81V86.3a.54.54,0,0,1-.61.6h-3V84h2.3a.36.36,0,1,0,0-.72h-2.3V80.42h3C59,80.42,59.21,80.61,59.21,81ZM50.42,86.3V81c0-.41.18-.59.59-.59h2.73v2.86H51.46a.36.36,0,1,0,0,.72h2.29v2.9H51A.53.53,0,0,1,50.42,86.3Z"/><path class="cls-1" d="M76.62,84.89h3.65a.36.36,0,0,0,.37-.37.37.37,0,0,0-.37-.37H76.62a.37.37,0,0,0-.37.37A.36.36,0,0,0,76.62,84.89Z"/><path class="cls-1" d="M67.77,87.49h7.35a.38.38,0,0,0,.37-.35h0v0h0l0-4.78h5.14A.37.37,0,0,0,81,82a.38.38,0,0,0-.37-.37h-4.2a5.69,5.69,0,0,0,2.09-1.71.87.87,0,0,0,.11-.84.92.92,0,0,0-.65-.56l-.17,0h-.08a.91.91,0,0,0-.79.61,10,10,0,0,1-1.2,2.4.19.19,0,0,0,0,.12H68.41A.38.38,0,0,0,68,82a.37.37,0,0,0,.38.37h5.12v1.81H68.66a.38.38,0,0,0-.37.37.37.37,0,0,0,.37.37h4.88v1.86H67.77a.38.38,0,0,0-.38.37A.37.37,0,0,0,67.77,87.49Z"/><path class="cls-1" d="M81,90.07a.38.38,0,0,0,0-.75H75.33a.94.94,0,0,0-.18-.79,1,1,0,0,0-.76-.37,1,1,0,0,0-.94.8c0,.12-.07.24-.1.36H68a.38.38,0,1,0,0,.75H73.1c-.85,2.07-2.91,3.56-6,4.34a.27.27,0,0,0,.05.53h0c1.1-.15,6.39-1.07,7.93-4.87Z"/><path class="cls-1" d="M71.82,81a.75.75,0,0,0,.6.44h.09a.55.55,0,0,0,.18,0,.76.76,0,0,0,.56-.56.71.71,0,0,0-.21-.72,6.63,6.63,0,0,0-2.27-1.25.17.17,0,0,0-.14.09.16.16,0,0,0,0,.18A7,7,0,0,1,71.82,81Z"/><path class="cls-1" d="M74.54,87.12a.37.37,0,0,0,.38.37h6.33a.36.36,0,0,0,.37-.37.37.37,0,0,0-.37-.37H74.92A.38.38,0,0,0,74.54,87.12Z"/><path class="cls-1" d="M82.07,94.43a12.42,12.42,0,0,1-6.71-4.56.87.87,0,0,0-1.21-.14A.85.85,0,0,0,74.09,91a12.47,12.47,0,0,0,7.94,4,.24.24,0,0,0,.31-.2C82.35,94.6,82.28,94.5,82.07,94.43Z"/><path class="cls-3" d="M109,21.92A21.48,21.48,0,0,0,87.62.51H21.93A21.48,21.48,0,0,0,.51,21.92v65.7A21.48,21.48,0,0,0,21.93,109H87.62A21.48,21.48,0,0,0,109,87.62Z"/></g></g></svg>