<svg xmlns="http://www.w3.org/2000/svg" viewBox="0 0 34.85 54.43"><defs><style>.cls-1{fill:#d84714;}.cls-2{fill:#ad976e;}.cls-3{fill:#8c734e;}.cls-4{fill:#231815;}</style></defs><g id="图层_2" data-name="图层 2"><g id="图层_1-2" data-name="图层 1"><rect class="cls-1" x="0.81" y="0.7" width="30.76" height="30.76"/><path class="cls-2" d="M32.32,0H0V32.44H32.43V0Zm0,.56V32.32H.12V.12h32.2Z"/><path class="cls-2" d="M28.85.56H.56V31.87H31.87V.56h-3ZM1.27,12.63V1.27H15A14.92,14.92,0,0,0,10.5,2.35H2.35v8.16A14.86,14.86,0,0,0,1.27,15Zm8.65-10A15.1,15.1,0,0,0,2.6,9.93V2.61ZM13.8,31.16H1.27V17.45a14.85,14.85,0,0,0,1.08,4.48v8.16h8.16A14.61,14.61,0,0,0,15,31.16ZM2.6,29.83V22.51a15.12,15.12,0,0,0,7.33,7.32ZM1.33,16.22A14.89,14.89,0,1,1,16.22,31.11,14.91,14.91,0,0,1,1.33,16.22ZM22.51,2.61h7.32V9.93A15.06,15.06,0,0,0,22.51,2.61ZM29.83,22.5v7.33H22.5A15.06,15.06,0,0,0,29.83,22.5Zm1.33-4.91V31.16H17.43a14.61,14.61,0,0,0,4.49-1.07h8.16V21.93a14.86,14.86,0,0,0,1.08-4.47Zm0-14V15a14.86,14.86,0,0,0-1.08-4.47V2.35H21.93a14.85,14.85,0,0,0-4.48-1.08H31.16Z"/><path class="cls-2" d="M28.85,23.23a14.27,14.27,0,0,0,1.75-5.64c0-.24,0-.47,0-.71s0-.44,0-.66a14.18,14.18,0,0,0-.45-3.59.19.19,0,0,0,0-.08q-.07-.32-.18-.63s0-.05,0-.07a14.41,14.41,0,0,0-1.14-2.64c-.22-.39-.46-.78-.71-1.15a14.41,14.41,0,0,0-2.31-2.62l-.72-.61-.7-.51a11.84,11.84,0,0,0-1.13-.7,14,14,0,0,0-3.42-1.38h0l-.34-.08-.33-.08H19.1a14.43,14.43,0,0,0-2.88-.29A13.7,13.7,0,0,0,13.8,2c-.25,0-.49.08-.73.14a13.77,13.77,0,0,0-2.31.72L10,3.16c-.3.14-.6.29-.89.46A11.84,11.84,0,0,0,8,4.32,14.76,14.76,0,0,0,5.85,6.16l-.1.1A15.06,15.06,0,0,0,4.32,8c-.25.37-.49.75-.71,1.14l0,.06c-.13.22-.24.44-.35.67a14.31,14.31,0,0,0-.81,2c-.07.23-.14.47-.2.71a14.65,14.65,0,0,0-.45,3.59c0,.22,0,.44,0,.66s0,.47,0,.71a14.48,14.48,0,0,0,1.78,5.69c.22.39.46.77.71,1.14l.18.26.41.54A14.48,14.48,0,0,0,8,28.11a11.92,11.92,0,0,0,1.13.71c.29.17.59.32.89.46l.72.32a13.77,13.77,0,0,0,2.31.72c.24.06.48.1.73.14a13.7,13.7,0,0,0,2.42.21,14.51,14.51,0,0,0,7.06-1.85c.39-.22.77-.45,1.14-.71l.69-.5.72-.61a14.41,14.41,0,0,0,2.31-2.62C28.39,24,28.63,23.62,28.85,23.23ZM21.69,3.62a11.56,11.56,0,0,1,1.41.7,14.87,14.87,0,0,1,2,1.42c.24.21.49.43.72.66a13.73,13.73,0,0,1,2.31,3,14.46,14.46,0,0,1,.71,1.42c.15.36.29.72.41,1.09v0c-.34,0-1.13-.05-1.13-.05a8.91,8.91,0,0,1-2.31-.51,7.76,7.76,0,0,1-.72-.3A9.16,9.16,0,0,1,20,4.32c0-.23-.07-.47-.09-.7s0-.44,0-.66A14.36,14.36,0,0,1,21.69,3.62Zm-2.2,1.81a9.83,9.83,0,0,0,5.62,6.41l.18.08H13.68l.12-.05A9.87,9.87,0,0,0,19.49,5.43Zm-8.25-2a13.89,13.89,0,0,1,1.83-.57c.24-.06.48-.1.73-.15a13.7,13.7,0,0,1,2.42-.21,14,14,0,0,1,2.91.31v0a7.32,7.32,0,0,1,0,.81c0,.23-.05.47-.09.7a9.12,9.12,0,0,1-5.2,6.77,6.52,6.52,0,0,1-.73.29,8.58,8.58,0,0,1-1.83.44Zm-.48.19.37-.14v8.38l-.37,0V3.62h0Zm2.31,9.85H10.76v-.32h2.31ZM3.61,10.74l.17-.36a6.77,6.77,0,0,1,.33-.66l.21-.38a13.43,13.43,0,0,1,2-2.63l.12-.13A13.92,13.92,0,0,1,9.34,4.32c.23-.13.46-.26.7-.38v8H3.16C3.29,11.52,3.45,11.12,3.61,10.74ZM3,12.63H10V13H2.85C2.88,12.89,2.91,12.76,3,12.63Zm-.13.5H10v.32H2.76Zm1.5,10a14.13,14.13,0,0,1-.71-1.4,13.76,13.76,0,0,1-1.07-4.11c0-.24,0-.47,0-.71s0-.44,0-.66a14.54,14.54,0,0,1,.25-2.66H10v1.63a11.79,11.79,0,0,1-.15,1.69c0,.24-.09.47-.14.71A11.19,11.19,0,0,1,5.1,24.3,12.35,12.35,0,0,1,4.32,23.1Zm18.58,5a5.68,5.68,0,0,1-1.08.66l-.12.05h0l-.08,0h0a5.73,5.73,0,0,1-2.12.43h0a5.63,5.63,0,0,1-2.25-.47,5.2,5.2,0,0,1-1.2-.71,5.63,5.63,0,0,1-2.2-4.48V18.57H25.11v5.06A5.64,5.64,0,0,1,22.9,28.11Zm2.21-10v.32H13.8v-.32ZM13.8,18v-.44H25.11V18Zm12,8c-.23.23-.48.45-.72.66l-.14.11.14-.25a6.34,6.34,0,0,0,.72-2.95V16.88H13.07v6.73a6.3,6.3,0,0,0,.73,3,6.12,6.12,0,0,0,1.13,1.54,6.31,6.31,0,0,0,.84.71,6.41,6.41,0,0,0,2.29,1,14,14,0,0,1-1.84.12,13.7,13.7,0,0,1-2.42-.21c-.25-.05-.49-.09-.73-.15a14.87,14.87,0,0,1-2.31-.76l0,0L10,28.5c-.24-.12-.48-.25-.71-.39a13.64,13.64,0,0,1-3.8-3.25A11.25,11.25,0,0,0,10,19.36a11.61,11.61,0,0,0,.51-1.77c0-.24.08-.47.11-.71a10.18,10.18,0,0,0,.1-1.47V13.56h2.31v.84h0v.7H25.83V13h-.72V14.4H13.8V13h-3v-.39H29l.53,0v0A13.7,13.7,0,0,1,30,16.22c0,.22,0,.44,0,.66s0,.47-.05.71a13.66,13.66,0,0,1-1,4,14.46,14.46,0,0,1-.71,1.42A13.73,13.73,0,0,1,25.83,26Z"/><path class="cls-3" d="M7.45,52.05a.78.78,0,0,1,.26,0,.48.48,0,0,1,.16.09l.07,0H8s.06,0,.08-.14h.07s0,.08,0,.14v.21a3.23,3.23,0,0,0,0,.34H8A1.08,1.08,0,0,0,8,52.46a.64.64,0,0,0-.18-.25.44.44,0,0,0-.29-.09.36.36,0,0,0-.27.1.3.3,0,0,0-.11.26.38.38,0,0,0,.07.24.9.9,0,0,0,.2.18l.28.18.29.21a.73.73,0,0,1,.21.22.67.67,0,0,1,0,.65.52.52,0,0,1-.26.2.87.87,0,0,1-.37.07.81.81,0,0,1-.29,0A.75.75,0,0,1,7,54.31a.19.19,0,0,0-.11,0s-.06,0-.07.14H6.79v-.17a1.7,1.7,0,0,0,0-.25V53.6h.07A1.61,1.61,0,0,0,7,54a.68.68,0,0,0,.18.28.52.52,0,0,0,.33.1.43.43,0,0,0,.29-.1A.35.35,0,0,0,7.88,54a.45.45,0,0,0-.14-.33,2.42,2.42,0,0,0-.36-.26l-.29-.2a.93.93,0,0,1-.21-.23.56.56,0,0,1-.08-.3.5.5,0,0,1,.1-.33.57.57,0,0,1,.24-.19A.78.78,0,0,1,7.45,52.05Z"/><path class="cls-3" d="M10.92,54.39v-.07l.16,0s.07,0,.08-.08a.74.74,0,0,0,0-.18V52.43a.65.65,0,0,0,0-.17.11.11,0,0,0-.08-.08l-.16,0v-.07h.88v.07l-.16,0a.11.11,0,0,0-.07.08.65.65,0,0,0,0,.17V54a.74.74,0,0,0,0,.18.14.14,0,0,0,.07.08l.16,0v.07h-.88Zm.48-1.12V53.2h1.28v.07Zm.88,1.12v-.07l.17,0a.14.14,0,0,0,.07-.08.74.74,0,0,0,0-.18V52.43a.65.65,0,0,0,0-.17.11.11,0,0,0-.07-.08l-.17,0v-.07h.89v.07l-.16,0a.11.11,0,0,0-.08.08.65.65,0,0,0,0,.17V54a.74.74,0,0,0,0,.18s0,.06.08.08l.16,0v.07h-.89Z"/><path class="cls-3" d="M16.71,52.09v.07l-.17,0a.11.11,0,0,0-.07.08.65.65,0,0,0,0,.17V54a.74.74,0,0,0,0,.18.14.14,0,0,0,.07.08l.17,0v.07h-.89v-.07l.17,0a.14.14,0,0,0,.07-.08.74.74,0,0,0,0-.18V52.43a.65.65,0,0,0,0-.17.11.11,0,0,0-.08-.08l-.16,0v-.07h.89Z"/><path class="cls-3" d="M21,52.09a2.29,2.29,0,0,0,0,.25c0,.09,0,.15,0,.19s0,.1,0,.14v.12h-.07a1.92,1.92,0,0,0-.08-.37.32.32,0,0,0-.15-.19.57.57,0,0,0-.29-.06h-.33a.16.16,0,0,0-.07.07.72.72,0,0,0,0,.17V54a.74.74,0,0,0,0,.18.16.16,0,0,0,.1.08l.21,0v.07h-1v-.07l.16,0s.07,0,.08-.08a.74.74,0,0,0,0-.18V52.43a.65.65,0,0,0,0-.17.11.11,0,0,0-.08-.08l-.16,0v-.07H21Zm-.5,1.14v.06h-.63v-.06Zm.07-.43c0,.12,0,.22,0,.28v.36c0,.06,0,.16,0,.28h-.08a.78.78,0,0,0,0-.21.26.26,0,0,0-.09-.16.28.28,0,0,0-.2-.06v-.06a.26.26,0,0,0,.2-.08.46.46,0,0,0,.09-.17,1.68,1.68,0,0,0,0-.18Z"/><path class="cls-3" d="M25.65,52.09v.07a.37.37,0,0,0-.17,0,.21.21,0,0,0-.07.11,1.06,1.06,0,0,0,0,.21v.93a2.41,2.41,0,0,1,0,.4.83.83,0,0,1-.1.29.64.64,0,0,1-.24.22.76.76,0,0,1-.38.08,1.53,1.53,0,0,1-.3,0,.56.56,0,0,1-.25-.14.7.7,0,0,1-.16-.19.82.82,0,0,1-.07-.25,3.57,3.57,0,0,1,0-.37v-1a.65.65,0,0,0,0-.17.11.11,0,0,0-.07-.08l-.17,0v-.07h.89v.07l-.16,0a.11.11,0,0,0-.08.08.65.65,0,0,0,0,.17v1.13a1.61,1.61,0,0,0,0,.39.5.5,0,0,0,.14.27.42.42,0,0,0,.32.1.58.58,0,0,0,.37-.11.57.57,0,0,0,.18-.3,1.41,1.41,0,0,0,0-.43v-1a.68.68,0,0,0,0-.22.22.22,0,0,0-.09-.1.36.36,0,0,0-.19,0v-.07h.64Z"/><path class="cls-3" d="M8.33,43.73l-.47.3v3c0,.47-.07.74-.66.86a.24.24,0,0,1-.27-.19.59.59,0,0,0-.13-.25,1.08,1.08,0,0,0-.62-.23v0l.87,0c.13,0,.17,0,.17-.16V44.33c-.61.35-1.21.66-1.3.71v-.38a.4.4,0,0,1,.26-.38l1-.42V42.39H6v-.25H7.22V40.61a.4.4,0,0,1,.39-.39h.56c0,.13-.31.1-.31.34v1.58h.07a.68.68,0,0,0,.55-.28l0,0a.23.23,0,0,1,.34,0l.63.6H7.86v1.19l.74-.32h0A.55.55,0,0,1,8.33,43.73Zm3.5-3.51c0,.1-.27.05-.36.35,1.1,2.45,2.5,2.8,2.5,2.8v.57c-1.17,0-2.24-1.86-2.59-3.18a8.45,8.45,0,0,1-3,3.55v-.14a7.13,7.13,0,0,0,2.3-3.48.58.58,0,0,1,.58-.46Zm.7,4.23a.17.17,0,0,1,.24,0l.63.54H13v2.5c0,.51-.66.51-.66.51V47.6a.32.32,0,0,0-.32-.32H10.4c-.48,0-.48.7-1,.7h-.1V45.17a.45.45,0,0,1,.46-.45h2.19a.84.84,0,0,0,.61-.27Zm-.3-.91a.24.24,0,0,1,.28,0,2.55,2.55,0,0,0,.35.32H9.52a.71.71,0,0,1,.53-.24H11.6A1.34,1.34,0,0,0,12.23,43.54Zm.14,3.09V45H10.28a.36.36,0,0,0-.36.36V47h2A.4.4,0,0,0,12.37,46.63Zm1.6-3.2v.51"/><path class="cls-3" d="M20.61,41.75h5.77c-.17-.17-.39-.45-.53-.62a.28.28,0,0,0-.43,0,.84.84,0,0,1-.66.32H20a.58.58,0,0,0-.59.58v1.51a8.33,8.33,0,0,1-.84,4.34l.12.08c1.31-1.24,1.39-3,1.39-4.42V42.28A.52.52,0,0,1,20.61,41.75Z"/><path class="cls-3" d="M23.36,41.13c0-.32-.33-.76-1.34-.92,0,0,.3.44.45.68a.52.52,0,0,0,.44.24Z"/><path class="cls-3" d="M22.58,42.1H22a.64.64,0,0,0-.63.49,5.53,5.53,0,0,1-1.17,2.32v.19a4.56,4.56,0,0,0,.77-.81V48h.12a.49.49,0,0,0,.52-.5v-4c.3-.59.32-.66.51-1S22.49,42.23,22.58,42.1Z"/><path class="cls-3" d="M26.11,43.35a.28.28,0,0,0-.38,0l-.07.07a.35.35,0,0,1-.26.1h-.27V42.46c0-.3.27-.25.3-.36h-.58a.37.37,0,0,0-.38.37v.63a.42.42,0,0,1-.42.42H22.64a.52.52,0,0,0-.5.25h2.33V47c0,.13,0,.18-.2.18H23.18v.06a1.6,1.6,0,0,1,.75.25.46.46,0,0,1,.13.2.38.38,0,0,0,.45.21c.54-.13.62-.41.62-.85V44.16a.38.38,0,0,1,.39-.39h1Z"/><path class="cls-3" d="M22.52,44.23a4.21,4.21,0,0,1,.58,1.41.33.33,0,0,0,.63.09C23.87,45.39,23.64,44.75,22.52,44.23Z"/><path class="cls-4" d="M33.46,1V.18h-.3V.07h.71V.18h-.3V1Z"/><path class="cls-4" d="M34,1V.07h.18l.22.64,0,.13a.82.82,0,0,1,0-.14l.21-.63h.16V1h-.11V.22L34.48,1h-.11L34.11.2V1Z"/></g></g></svg>