<svg xmlns="http://www.w3.org/2000/svg" viewBox="0 0 81.95 27.15"><defs><style>.cls-1{fill:#393332;}</style></defs><g id="图层_2" data-name="图层 2"><g id="图层_1-2" data-name="图层 1"><path class="cls-1" d="M0,21.53H2.64c.29-.52.58-1,.85-1.53l.45.23c-.25.44-.51.88-.78,1.3H4.64v.4H0Zm1,2.71.4.18a9.91,9.91,0,0,1-.92,1.71L0,26Q.33,25.5,1,24.24Zm1.15-2H2.6v1H4.38v.44H2.6V26a.85.85,0,0,1-.93,1H.85a1.81,1.81,0,0,0-.07-.49h.74c.4,0,.6-.17.6-.52V23.64H.22V23.2h1.9Zm-.26-3.86.48-.15q.23.53.45,1.11H4.38v.45H.26v-.45h2C2.12,18.94,2,18.62,1.86,18.37ZM.74,20.23,1.15,20a11.68,11.68,0,0,1,.74,1.19l-.4.23A11.23,11.23,0,0,0,.74,20.23Zm3.2,5.57A14,14,0,0,0,3,24.42l.37-.26a8.09,8.09,0,0,1,.74,1l.23.3Zm0,.93c.85-.85,1.24-2.23,1.19-4.16V19c1-.05,2.16-.16,3.42-.34l.15.49c-.89.12-1.92.22-3.08.29v2.38H9v.45H7.73v4.83H7.21V22.31H5.65v.29a6.38,6.38,0,0,1-1.23,4.46Q4.19,26.91,4,26.73Z"/><path class="cls-1" d="M38.82,18.31l.48-.11a4,4,0,0,0,.15.67c0,.17,0,.31.07.41h3.79v1.37h-.52v-1H35.47v1H35V19.28h4c0-.08-.06-.21-.11-.41A2.49,2.49,0,0,0,38.82,18.31Zm-2.34,7.77,0-.37,1.19,0c.54-.05,1-.08,1.26-.08V24.52h-3v2.63h-.49v-3h3.53v-.78H36.22V20.47h5.87v2.86H39.41v.78H43v2a.86.86,0,0,1-1,1H40.93a1.88,1.88,0,0,0-.11-.49H41.9c.42,0,.62-.16.59-.55V24.52H39.41v1l.78,0a4.25,4.25,0,0,0,.74,0,.68.68,0,0,0-.18-.26,2.77,2.77,0,0,1-.15-.29L41,24.7l.63,1,.26.41-.4.22-.15-.22a.91.91,0,0,0-.15-.23C39.6,26,38,26.05,36.48,26.08Zm.22-5.2v.81h2.19v-.81Zm0,1.18v.86h2.19v-.86Zm4.9-1.18H39.41v.81H41.6Zm-2.19,1.18v.86H41.6v-.86Z"/><line class="cls-1" x1="81.26" y1="22.68" x2="58.48" y2="22.68"/><path class="cls-1" d="M0,11.15V.17L7,8.7V.35L7.93.17v11l-7-8.57v8.36Z"/><path class="cls-1" d="M18.94,11.18,14.52.35l.9-.18L19,9l1.63-4L18.75.35l.78-.18L21.06,4,22.6.17l.78.18L21.49,5l1.64,4L26.71.17l.89.18L23.19,11.18,21.06,6.06Z"/><path class="cls-1" d="M44.07,11.13V.35h1.74a3.7,3.7,0,0,1,2.66,1,3.46,3.46,0,0,1,1,2.57,3.43,3.43,0,0,1-1,2.57,3.66,3.66,0,0,1-2.66,1H45v3.51ZM45,1.25V6.54h.81a2.75,2.75,0,0,0,2-.71,2.53,2.53,0,0,0,.73-1.94A2.56,2.56,0,0,0,47.8,2a2.79,2.79,0,0,0-2-.7Z"/><path class="cls-1" d="M52.94,11.08V1.27H50.06l.23-.92h6.23v.92H53.87v9.67Z"/><path class="cls-1" d="M58.48,11.08V.35l.94-.13V10.94Z"/><path class="cls-1" d="M62.78,8.72a3.33,3.33,0,0,0,1.09,1.14,2.62,2.62,0,0,0,1.41.39,2.39,2.39,0,0,0,1.66-.59,1.91,1.91,0,0,0,.66-1.49q0-1.49-2.49-2.25l-.39-.12a4.1,4.1,0,0,1-1.87-1.07A2.56,2.56,0,0,1,62.26,3a2.68,2.68,0,0,1,.89-2A3.09,3.09,0,0,1,65.37.14a3.52,3.52,0,0,1,1.48.29,4.77,4.77,0,0,1,1.33,1l-.61.72a4.17,4.17,0,0,0-1.12-.83A2.72,2.72,0,0,0,65.31,1a2.09,2.09,0,0,0-1.48.58A1.85,1.85,0,0,0,63.22,3a1.68,1.68,0,0,0,.23.9,1.91,1.91,0,0,0,.72.65,7.26,7.26,0,0,0,1.3.48l.8.24A3.85,3.85,0,0,1,68,6.38a2.58,2.58,0,0,1,.58,1.7,2.91,2.91,0,0,1-.93,2.2,3.31,3.31,0,0,1-2.37.88,3.57,3.57,0,0,1-1.84-.49A4.13,4.13,0,0,1,62,9.28Z"/><path class="cls-1" d="M70.61,11,72.76,0l3.52,8.82L79.81,0,82,11l-.89.2-1.55-8-3.23,8-3.23-8-1.54,8Z"/><polygon class="cls-1" points="34.97 6.91 35.08 6.69 35.08 6.69 35.67 5.54 35.67 5.54 37.41 1.99 39.29 5.81 39.29 5.81 39.82 6.91 39.82 6.91 41.87 11.05 42.76 10.77 37.45 0.03 32.01 10.79 32.88 11.05 34.97 6.91 34.97 6.91 34.97 6.91"/><polygon class="cls-1" points="8.62 1.24 14.36 1.24 14.11 0.35 8.62 0.35 8.62 1.24"/><rect class="cls-1" x="8.62" y="5.1" width="4.86" height="0.87"/><polygon class="cls-1" points="8.62 10.04 8.62 10.94 14.38 10.94 14.61 10.04 8.62 10.04"/></g></g></svg>