<svg xmlns="http://www.w3.org/2000/svg" viewBox="0 0 23.93 23.15"><defs><style>.cls-1{fill:#cc6453;}.cls-2,.cls-3{fill:#493836;}.cls-3{stroke:#493836;stroke-miterlimit:10;stroke-width:0.02px;}</style></defs><g id="图层_2" data-name="图层 2"><g id="图层_1-2" data-name="图层 1"><polygon class="cls-1" points="3.68 9.96 4.08 9.7 10.04 8.59 12.56 7.82 14.48 7.59 14.72 7.48 18.08 6.78 19.65 6.29 20.25 6.29 20.25 6.56 19.67 6.75 19.21 6.89 17.57 7.31 16.82 7.75 15.5 7.88 14.68 8.48 13.93 8.13 12.45 8.41 10.22 9.49 11.61 9.1 12.56 8.83 12.43 9.05 11.57 9.47 8.38 10.4 5.96 11.37 5.25 11.57 4.86 11.57 3.68 9.96"/><path class="cls-2" d="M13.25,3.23h0a.38.38,0,0,0,0-.1A3.32,3.32,0,0,0,10.11,0,3.27,3.27,0,0,0,7.92.69,0,0,0,0,0,8,.75,2.18,2.18,0,0,1,8.58.66a2.48,2.48,0,0,1,2.47,2.47c0,.06,0,.12,0,.18h0V6.07h0V9.61a.1.1,0,0,0,.1.11h2a.11.11,0,0,0,.11-.11V3.23Z"/><path class="cls-2" d="M18.22,3.23h0a.31.31,0,0,1,0-.1A3.32,3.32,0,0,0,15.08,0a3.27,3.27,0,0,0-2.19.69,0,0,0,0,0,0,.06,2.18,2.18,0,0,1,.63-.09A2.48,2.48,0,0,1,16,3.13c0,.06,0,.12,0,.18h0V6.07h0V9.61a.1.1,0,0,0,.1.11h2a.11.11,0,0,0,.11-.11V3.23Z"/><path class="cls-2" d="M7,.44H6.21A.11.11,0,0,0,6.1.55V8.71A1.11,1.11,0,0,1,5,9.82s0,0,0,0,0,0,0,0l.1,0h0l.11,0h0l.1,0h.32A2.64,2.64,0,0,0,8.31,7.35h0V1.76A1.32,1.32,0,0,0,7,.44Z"/><path class="cls-2" d="M6.66,22.21A1.81,1.81,0,0,0,8,22.82a.92.92,0,0,0-.2.31,1.85,1.85,0,0,1-1.48-.87c-.18.43-.57.72-1.48.86a1,1,0,0,0-.16-.3c.77-.11,1.12-.3,1.28-.61H4.84v-.3H6.07a1.5,1.5,0,0,0,0-.24H4.74v-.29H6.15v-.26H5.06v-.28H6.15v-.25H4.89V20.3h.69a1.73,1.73,0,0,0-.24-.38l.29-.12a1.44,1.44,0,0,1,.3.44l-.12.06h.88A3.14,3.14,0,0,0,7,19.8l.36.1a4,4,0,0,1-.27.4h.71v.29H6.5v.25H7.63v.28H6.5v.26H8v.29H6.46q0,.13,0,.24H7.89v.3Z"/><path class="cls-2" d="M9.84,22.16l-1.35.41-.09-.34L9,22.08v-.75H8.53V21H9v-.65h-.5v-.31H9.81v.31H9.29V21h.46v.31H9.29V22l.5-.14Zm1.77.57c0,.18,0,.29-.17.34a1.76,1.76,0,0,1-.6.06,1.1,1.1,0,0,0-.12-.33h.48c.05,0,.08,0,.08-.08V22h-1a1.86,1.86,0,0,1-.67,1.15,1.14,1.14,0,0,0-.25-.24A1.9,1.9,0,0,0,10,21.25V20h1.61Zm-.33-1v-.55h-.95v.11a3.31,3.31,0,0,1,0,.44Zm-.95-1.4v.54h.95v-.54Z"/><path class="cls-2" d="M12.76,21.43c-.13-.09-.4-.25-.59-.35l.18-.25a6.8,6.8,0,0,1,.61.32Zm-.53,1.46c.16-.29.39-.75.57-1.17l.26.2a11.1,11.1,0,0,1-.53,1.15Zm.25-3,.59.34-.2.27c-.13-.09-.39-.26-.58-.37Zm2.22.44v.42h.65v2.38H15V23H13.51v.16h-.3V20.74h.59v-.42h-.7V20h2.36v.31Zm0,1.43c-.25,0-.31-.08-.31-.34V21h-.28v.11a.8.8,0,0,1-.46.75.92.92,0,0,0-.14-.13V22H15v-.29H14.7ZM13.51,21v.64a.58.58,0,0,0,.34-.53V21ZM15,22.67v-.34H13.51v.34Zm-.63-2.35h-.3v.42h.3ZM15,21h-.38v.38c0,.06,0,.07.08.07H15Z"/><path class="cls-2" d="M19.2,20.24v.32H16.58v.6a4.15,4.15,0,0,1-.38,2,1.53,1.53,0,0,0-.3-.19,3.65,3.65,0,0,0,.34-1.78v-.92h1.38a3.59,3.59,0,0,0-.17-.34l.34-.08a2,2,0,0,1,.2.42ZM18,21.06H19.1v.31H18v.41h1v1.3h-.35V23h-1.4v.14h-.33V21.78h.77V20.67H18Zm.62,1h-1.4v.56h1.4Z"/><path class="cls-3" d="M0,18.12a1.15,1.15,0,0,0,.22-.3,1.27,1.27,0,0,0,.11-.36l.39-2.59c0-.06,0-.12,0-.16v-.12a.4.4,0,0,0,0-.15.71.71,0,0,0-.16-.18h1l1.15,2.86,1.13-2.86h.94a.38.38,0,0,0-.12.17.53.53,0,0,0,0,.23v.11a.22.22,0,0,0,0,.08L5,17.5a1.53,1.53,0,0,0,.09.34,1,1,0,0,0,.19.28h-1a.7.7,0,0,0,.16-.19.7.7,0,0,0,.05-.25v-.06a.06.06,0,0,0,0,0l-.31-2.71L2.74,18.16a.88.88,0,0,1-.26-.25,2.39,2.39,0,0,1-.23-.43l-1.08-2.6L.79,17.42c0,.08,0,.14,0,.17s0,.07,0,.09a.41.41,0,0,0,.06.23.56.56,0,0,0,.18.21Z"/><path class="cls-3" d="M6.61,17.59a.53.53,0,0,0,0,.12.69.69,0,0,0,0,.13.38.38,0,0,0,0,.13l.13.15H5.82A.88.88,0,0,0,6,17.9a1.82,1.82,0,0,0,.18-.37L7.3,14.78a1.42,1.42,0,0,0,0-.16.62.62,0,0,0,0-.13.27.27,0,0,0,0-.12.35.35,0,0,0-.1-.11H8.1l1.23,3.23a1.49,1.49,0,0,0,.19.36,1.54,1.54,0,0,0,.25.27H8.67v0c.1-.11.15-.18.15-.23a1,1,0,0,0-.06-.27s0,0,0,0l-.33-.89H7Zm.53-1.31H8.27l-.54-1.49Z"/><path class="cls-3" d="M10,18.12l1.56-2.06-.87-1.36a1.3,1.3,0,0,0-.18-.23,1.21,1.21,0,0,0-.24-.21h.82a.74.74,0,0,1,.12.16c.05.07.08.1.08.12L12,15.6l.62-.8a.6.6,0,0,0,.09-.15.27.27,0,0,0,0-.12.28.28,0,0,0,0-.12.58.58,0,0,0-.13-.15h1.05L12.23,16l1,1.6.19.24.26.25H12.9l-1.08-1.66-.76,1,0,.05a.64.64,0,0,0-.17.31q0,.09.18.27l0,0Z"/><path class="cls-3" d="M14.16,18.12a1.43,1.43,0,0,0,.22-.3,1.7,1.7,0,0,0,.11-.36l.38-2.59a1.15,1.15,0,0,0,0-.16.49.49,0,0,0,0-.12.4.4,0,0,0,0-.15l-.16-.18h1l1.16,2.86L18,14.26h.94a.52.52,0,0,0-.13.17.73.73,0,0,0,0,.23.37.37,0,0,0,0,.11v.08l.34,2.65a1.13,1.13,0,0,0,.09.34,1,1,0,0,0,.18.28h-1a.53.53,0,0,0,.15-.19.54.54,0,0,0,.06-.25s0-.05,0-.06v0l-.31-2.71-1.34,3.29a.77.77,0,0,1-.26-.25,1.89,1.89,0,0,1-.23-.43l-1.08-2.6-.38,2.54c0,.08,0,.14,0,.17a.34.34,0,0,0,0,.09.52.52,0,0,0,0,.23.84.84,0,0,0,.18.21Z"/><path class="cls-3" d="M20.75,17.59a.56.56,0,0,0,0,.12.62.62,0,0,0,0,.13.24.24,0,0,0,0,.13l.13.15H20a1.07,1.07,0,0,0,.2-.22,2.47,2.47,0,0,0,.19-.37l1.08-2.75a.58.58,0,0,0,.05-.16.69.69,0,0,0,0-.13.27.27,0,0,0,0-.12.29.29,0,0,0-.11-.11h.88l1.23,3.23a2,2,0,0,0,.18.36,1.63,1.63,0,0,0,.26.27H22.8l0,0c.1-.11.15-.18.15-.23a.76.76,0,0,0-.07-.27s0,0,0,0l-.33-.89H21.12Zm.52-1.31h1.14l-.55-1.49Z"/></g></g></svg>