<svg xmlns="http://www.w3.org/2000/svg" viewBox="0 0 31.56 13.32"><defs><style>.cls-1,.cls-2{fill:#372d2a;}.cls-1{fill-rule:evenodd;}</style></defs><g id="图层_2" data-name="图层 2"><g id="图层_1-2" data-name="图层 1"><polygon class="cls-1" points="26.93 2.86 27.3 6.08 28.23 6.08 27.86 2.86 26.93 2.86"/><path class="cls-1" d="M30.51,0h-.92V.77H26.31v.74h3.28V3h0V6.05A1.73,1.73,0,0,1,28.5,7.74v.8a2.39,2.39,0,0,0,2-2.45V1.51h1V.77h-1Z"/><path class="cls-1" d="M23.32.4H22.4V8.12h3.38V.4H23.32Zm1.54,7H23.32v-3h1.54Zm0-3.75H23.32V1.14h1.54Z"/><path class="cls-1" d="M16.48,5.77h3.64V5h-4v-.8h4V3.5h-4V2.83h4V2.1h-4V1.45h4V.71h-2.2L18.23,0H17.3L17,.71h-2.6L14.08,0h-.92l.31.67h-2.2v.74h4V2.1H11.29v.73h3.94V3.5h-4v.73h4V5h-4v.74h3.64a5.82,5.82,0,0,1-3.78,2v.8a6.69,6.69,0,0,0,4.56-2.41,6.71,6.71,0,0,0,4.57,2.41v-.8a5.79,5.79,0,0,1-3.78-2"/><polygon class="cls-1" points="0.59 4.19 1.54 3.88 1.54 8.57 2.46 8.57 2.46 2.74 0.59 3.35 0.59 4.19"/><polygon class="cls-1" points="1.52 2.43 2.44 2.43 2.44 1.5 5.91 1.5 5.91 2.43 6.83 2.43 6.83 1.5 8.72 1.5 8.72 0.76 6.83 0.76 6.83 0 5.91 0 5.91 0.76 2.44 0.76 2.44 0 1.52 0 1.52 0.76 0 0.76 0 1.5 1.52 1.5 1.52 2.43"/><path class="cls-1" d="M6.85,6.1,7,6A5.28,5.28,0,0,0,8.17,3.5H7.3a4.26,4.26,0,0,1-.46,1.2V2.87H5.91v3s0,0-.07.06a5.18,5.18,0,0,1-1.7,1v.83a6.07,6.07,0,0,0,1.9-1A2.59,2.59,0,0,0,8.7,8.55l.32,0V7.91H9c-.3,0-2-.17-2.13-1.8"/><path class="cls-2" d="M1,12.61v-1a3.57,3.57,0,0,0,0-.37,1.7,1.7,0,0,0-.06-.31H2.22l-.09.19L2,11.32a1,1,0,0,0-.27-.1,1.35,1.35,0,0,0-.31,0H1.38V12h.76L2,12.15l-.11.19a1.22,1.22,0,0,0-.24-.1,1.32,1.32,0,0,0-.3,0v.39c0,.14,0,.27,0,.37s0,.2.07.31H.94A1.88,1.88,0,0,0,1,13C1,12.88,1,12.75,1,12.61Z"/><path class="cls-2" d="M3,13.29A1.88,1.88,0,0,0,3.05,13c0-.1,0-.23,0-.37v-1a3.57,3.57,0,0,0,0-.37A1.7,1.7,0,0,0,3,10.94H4.28l-.09.19-.09.19a1.06,1.06,0,0,0-.26-.1,1.51,1.51,0,0,0-.32,0H3.43V12H4.2l-.11.19L4,12.34a.94.94,0,0,0-.23-.1,1.42,1.42,0,0,0-.31,0h0V13A3.39,3.39,0,0,0,4,13a1.44,1.44,0,0,0,.48-.17l-.1.24-.09.24H3Z"/><path class="cls-2" d="M5.19,12.61v-1a3.57,3.57,0,0,0,0-.37,1.7,1.7,0,0,0-.06-.31h.44a1.16,1.16,0,0,1,.69.18.6.6,0,0,1,.24.51.58.58,0,0,1-.27.49l-.19.1.17.25c.09.12.17.24.27.36l.4.46H6.44A4.64,4.64,0,0,1,6,12.85a5.57,5.57,0,0,1-.41-.55l-.06-.1v.41c0,.14,0,.27,0,.37s0,.2.07.31H5.11A1.88,1.88,0,0,0,5.17,13C5.18,12.88,5.19,12.75,5.19,12.61Zm.36-.49A.62.62,0,0,0,5.92,12a.42.42,0,0,0,.17-.36.38.38,0,0,0-.16-.33.64.64,0,0,0-.38-.13Z"/><path class="cls-2" d="M7.68,13a1.22,1.22,0,0,1-.33-.88,1.13,1.13,0,0,1,.36-.85,1.18,1.18,0,0,1,.88-.34,1.09,1.09,0,0,1,.82.35,1.25,1.25,0,0,1,.33.88,1.1,1.1,0,0,1-.35.85,1.2,1.2,0,0,1-.88.34A1.11,1.11,0,0,1,7.68,13Zm1.46-.18a.89.89,0,0,0,.22-.6,1.08,1.08,0,0,0-.24-.72.77.77,0,0,0-.61-.28.72.72,0,0,0-.55.24.89.89,0,0,0-.22.61,1.07,1.07,0,0,0,.24.71.76.76,0,0,0,.61.29A.7.7,0,0,0,9.14,12.79Z"/><path class="cls-2" d="M11,12.6c0,.15,0,.28,0,.38s0,.2.07.31h-.48a1.88,1.88,0,0,0,.06-.31,2.06,2.06,0,0,0,0-.37V11.28c-.05-.07-.1-.12-.13-.17s-.14-.16-.17-.17h.56a2.81,2.81,0,0,0,.19.31l.21.3.9,1.16V11.62a3.57,3.57,0,0,0,0-.37,1.7,1.7,0,0,0-.06-.31h.47a1.59,1.59,0,0,0-.06.3,3.79,3.79,0,0,0,0,.38v1.1a1.87,1.87,0,0,0,0,.34.8.8,0,0,0,0,.23h-.48a.51.51,0,0,0-.08-.19l-.19-.26L11,11.68Z"/><path class="cls-2" d="M13.54,12.61v-1a3.57,3.57,0,0,0,0-.37,1.7,1.7,0,0,0-.06-.31H14c0,.1-.05.2-.07.3s0,.23,0,.38v1c0,.14,0,.27,0,.37s0,.2.07.31h-.52a1.88,1.88,0,0,0,.06-.31A3.57,3.57,0,0,0,13.54,12.61Z"/><path class="cls-2" d="M15,12.61l.8-1.72h0l.81,1.72c.09.19.16.34.22.44a1.25,1.25,0,0,0,.18.24h-.59a.42.42,0,0,0,0-.22,3.18,3.18,0,0,0-.11-.33l-.08-.18h-.87v0a4,4,0,0,0-.14.41.61.61,0,0,0,0,.29h-.59A1.8,1.8,0,0,0,14.8,13C14.86,12.94,14.94,12.79,15,12.61Zm.48-.35h.61l-.3-.71h0Z"/><path class="cls-2" d="M19.18,12.61v-1a2,2,0,0,0,0-.37,1.7,1.7,0,0,0-.06-.31h.52a1.59,1.59,0,0,0-.06.3,3.79,3.79,0,0,0,0,.38v.32h1v-.32a3.57,3.57,0,0,0,0-.37,1.7,1.7,0,0,0-.06-.31H21c0,.1,0,.2-.06.3a3.79,3.79,0,0,0,0,.38v1c0,.14,0,.27,0,.37a2,2,0,0,0,.07.31h-.52a1.88,1.88,0,0,0,.06-.31c0-.1,0-.23,0-.37v-.37h-1v.37c0,.14,0,.27,0,.37a1.88,1.88,0,0,0,.06.31H19.1a1.88,1.88,0,0,0,.06-.31A2.06,2.06,0,0,0,19.18,12.61Z"/><path class="cls-2" d="M22.09,13a1.22,1.22,0,0,1-.33-.88,1.15,1.15,0,0,1,.35-.85A1.21,1.21,0,0,1,23,10.9a1.11,1.11,0,0,1,.83.35,1.25,1.25,0,0,1,.33.88,1.14,1.14,0,0,1-.35.85,1.21,1.21,0,0,1-.88.34A1.09,1.09,0,0,1,22.09,13Zm1.45-.18a.84.84,0,0,0,.22-.6,1.08,1.08,0,0,0-.24-.72.75.75,0,0,0-.6-.28.71.71,0,0,0-.55.24.85.85,0,0,0-.22.61,1.07,1.07,0,0,0,.24.71A.76.76,0,0,0,23,13,.68.68,0,0,0,23.54,12.79Z"/><path class="cls-2" d="M25.53,12.61V11.19l-.32,0a1.57,1.57,0,0,0-.43.12l.07-.2.07-.2h1.69l-.05.19-.06.2c-.14-.06-.26-.09-.35-.12l-.26,0v1.43a1.89,1.89,0,0,0,0,.35,1.51,1.51,0,0,0,.07.33h-.54a2.46,2.46,0,0,0,.07-.33A3.49,3.49,0,0,0,25.53,12.61Z"/><path class="cls-2" d="M27.32,13.29a1.88,1.88,0,0,0,.06-.31c0-.1,0-.23,0-.37v-1a3.57,3.57,0,0,0,0-.37,1.16,1.16,0,0,0-.07-.31h1.3l-.09.19-.09.19a1,1,0,0,0-.27-.1,1.35,1.35,0,0,0-.31,0h-.1V12h.78l-.11.19-.11.19a.94.94,0,0,0-.23-.1,1.47,1.47,0,0,0-.31,0h0V13a3.41,3.41,0,0,0,.53,0,1.44,1.44,0,0,0,.48-.17l-.1.24-.1.24H27.32Z"/><path class="cls-2" d="M29.41,13.29a1.88,1.88,0,0,0,.06-.31,2.06,2.06,0,0,0,0-.37v-1a2,2,0,0,0,0-.37,1.7,1.7,0,0,0-.06-.31h.52a1.59,1.59,0,0,0-.06.3,2.12,2.12,0,0,0,0,.38V13a2.65,2.65,0,0,0,.44,0,1.42,1.42,0,0,0,.49-.17l-.1.24-.1.24H29.41Z"/></g></g></svg>