<svg xmlns="http://www.w3.org/2000/svg" viewBox="0 0 61.26 17.3"><defs><style>.cls-1{fill:#ac9b73;}.cls-2{fill:#b4003a;}</style></defs><g id="图层_2" data-name="图层 2"><g id="图层_1-2" data-name="图层 1"><path class="cls-1" d="M25.3,1.49,25,1.73h0a1.73,1.73,0,0,0,.91.32l.27-.29C26.83,1,27.26,1,27.45,1A2.34,2.34,0,0,0,25.3,1.49Z"/><path class="cls-1" d="M24.67,1.91A5.55,5.55,0,0,1,23.06.82,2.76,2.76,0,0,0,20.52.07l.21,0a3.69,3.69,0,0,1,1.76,1.29,4,4,0,0,0,1.06,1h0a1.74,1.74,0,0,0,2.19-.24l0,0h0l.07-.06h0A2.24,2.24,0,0,1,24.67,1.91Z"/><path class="cls-2" d="M10.89,3.38A2.37,2.37,0,0,0,8.4,5.93a2.39,2.39,0,0,0,2.49,2.59,2.39,2.39,0,0,0,2.49-2.59A2.37,2.37,0,0,0,10.89,3.38Zm0,4.36A1.67,1.67,0,0,1,9.26,5.93a1.64,1.64,0,1,1,3.26,0A1.67,1.67,0,0,1,10.89,7.74Z"/><polygon class="cls-2" points="15.69 6.82 14.29 3.43 13.38 3.43 15.66 8.52 15.72 8.52 18 3.43 17.08 3.43 15.69 6.82"/><polygon class="cls-2" points="18.52 8.48 21.88 8.48 21.88 7.71 19.38 7.71 19.38 6.37 21.34 6.37 21.34 5.6 19.38 5.6 19.38 4.19 21.88 4.19 21.88 3.43 18.52 3.43 18.52 8.48"/><polygon class="cls-2" points="25.96 6.51 22.74 3.36 22.71 3.38 22.71 8.48 23.57 8.48 23.57 5.4 26.77 8.56 26.83 8.54 26.83 3.43 25.96 3.43 25.96 6.51"/><path class="cls-2" d="M29.66,3.43h-1.9V8.48h.86V6.65h1.14A1.66,1.66,0,0,0,31.43,5,1.58,1.58,0,0,0,29.66,3.43Zm.07,2.44H28.62V4.18H29.7a.82.82,0,0,1,.88.84A.82.82,0,0,1,29.73,5.87Z"/><rect class="cls-2" x="32.14" y="3.43" width="0.86" height="5.05"/><path class="cls-2" d="M36.3,4.11a2,2,0,0,1,1.35.64l.56-.54A2.51,2.51,0,0,0,33.8,5.93a2.43,2.43,0,0,0,2.5,2.63,2.52,2.52,0,0,0,1.89-.78l-.5-.62a2.1,2.1,0,0,1-1.39.6,1.7,1.7,0,0,1-1.64-1.83A1.69,1.69,0,0,1,36.3,4.11Z"/><polygon class="cls-2" points="40.41 5.87 42.74 3.46 42.73 3.43 41.7 3.43 39.77 5.44 39.77 3.43 38.92 3.43 38.92 8.48 39.77 8.48 39.77 6.28 41.85 8.48 42.9 8.48 42.91 8.46 40.41 5.87"/><path class="cls-2" d="M9.73,2.84a.5.5,0,0,0,.49-.5.5.5,0,1,0-1,0A.5.5,0,0,0,9.73,2.84Z"/><path class="cls-2" d="M11.79,2.84a.5.5,0,0,0,.5-.5.5.5,0,0,0-.5-.5.5.5,0,0,0-.5.5A.51.51,0,0,0,11.79,2.84Z"/><path class="cls-2" d="M6.18,2.38l-2,4.24-2-4.24H2.2L.11,8.47H.4a.91.91,0,0,0,.87-.59L2.33,4.64,4.18,8.55h.07L6.1,4.64,7.17,7.88A.91.91,0,0,0,8,8.47h.29L6.24,2.38Z"/><path class="cls-1" d="M51.61,8.39v.12h-1V8.39h.22c.07,0,.1,0,.1-.13a.53.53,0,0,0,0-.13l-.13-.47h-.89l-.24.45a.49.49,0,0,0-.08.22s0,.06.05.06h.21l0,.12H49.1V8.39h.13a.19.19,0,0,0,.13-.08,2.33,2.33,0,0,0,.15-.23l1.09-2h.12l.53,2a1,1,0,0,0,.08.23.15.15,0,0,0,.12.07h.15Zm-1.69-.83h.8l-.26-1Z"/><path class="cls-1" d="M52,6.75a1.09,1.09,0,0,1,.47-.5,1.37,1.37,0,0,1,.72-.18l.28,0a1,1,0,0,1,.2.08l.15,0,.16,0-.06.26c0,.1,0,.16,0,.21s0,0,0,.06h-.11a.71.71,0,0,0-.1-.31.58.58,0,0,0-.23-.21.55.55,0,0,0-.31-.08.72.72,0,0,0-.48.18,1.18,1.18,0,0,0-.33.49,2,2,0,0,0-.12.7,1.14,1.14,0,0,0,.17.65.51.51,0,0,0,.46.25.81.81,0,0,0,.49-.17.93.93,0,0,0,.32-.44h.12c0,.16-.06.27-.07.33a.86.86,0,0,0,0,.16v0h-.19l-.18.06a1.77,1.77,0,0,1-.25.08,1.09,1.09,0,0,1-.26,0,1,1,0,0,1-.74-.28,1.05,1.05,0,0,1-.26-.75A1.59,1.59,0,0,1,52,6.75Z"/><path class="cls-1" d="M54.42,6.75a1.14,1.14,0,0,1,.47-.5,1.43,1.43,0,0,1,.72-.18l.28,0a1,1,0,0,1,.2.08l.15,0,.16,0a2.38,2.38,0,0,0,0,.26,1.14,1.14,0,0,0,0,.21.35.35,0,0,0,0,.06h-.11a.6.6,0,0,0-.1-.31.58.58,0,0,0-.23-.21.55.55,0,0,0-.31-.08.72.72,0,0,0-.48.18,1.18,1.18,0,0,0-.33.49,2,2,0,0,0-.11.7,1.14,1.14,0,0,0,.16.65.52.52,0,0,0,.46.25.81.81,0,0,0,.49-.17.93.93,0,0,0,.32-.44h.13c0,.16-.07.27-.08.33a.86.86,0,0,0,0,.16v0H56l-.18.06-.26.08a1,1,0,0,1-.26,0,1,1,0,0,1-.74-.28,1.05,1.05,0,0,1-.26-.75A1.71,1.71,0,0,1,54.42,6.75Z"/><path class="cls-1" d="M56.91,6.62a1,1,0,0,1,.52-.44A1.49,1.49,0,0,1,58,6.07a1.19,1.19,0,0,1,.68.21.92.92,0,0,1,.3.8,1.67,1.67,0,0,1-.22.91,1.12,1.12,0,0,1-.52.44,1.59,1.59,0,0,1-.59.12A1.14,1.14,0,0,1,57,8.33a.93.93,0,0,1-.3-.8A1.57,1.57,0,0,1,56.91,6.62Zm.24,1.5a.44.44,0,0,0,.2.24A.77.77,0,0,0,58.41,8a2.55,2.55,0,0,0,.18-1,1.19,1.19,0,0,0-.07-.47.43.43,0,0,0-.2-.25.77.77,0,0,0-1.08.48,2.53,2.53,0,0,0-.16.91A1.28,1.28,0,0,0,57.15,8.12Z"/><path class="cls-1" d="M61,6.23a.45.45,0,0,1,.18.4.63.63,0,0,1-.16.44.75.75,0,0,1-.4.24.4.4,0,0,1,.3.16.55.55,0,0,1,.1.34v.42a.23.23,0,0,0,0,.13.1.1,0,0,0,.09,0l.08,0,0,.07-.17.07-.18,0a.26.26,0,0,1-.19-.07.37.37,0,0,1-.06-.23s0-.08,0-.12a.19.19,0,0,1,0-.08c0-.07,0-.13,0-.19a.47.47,0,0,0-.14-.37.53.53,0,0,0-.36-.13H60l-.13,1a.05.05,0,0,0,.06.06h.2l0,.12h-.86V8.39h.16s.07,0,.08-.09l.28-2v0s0,0,0,0l0,0h-.14V6.11h.88A1,1,0,0,1,61,6.23Zm-.82,0a0,0,0,0,0,0,0l-.14,1h.36a.39.39,0,0,0,.32-.17.68.68,0,0,0,.13-.44.45.45,0,0,0-.09-.32.38.38,0,0,0-.3-.1Z"/><path class="cls-1" d="M46.11,6a.06.06,0,0,1,0,.06s0,.15-.07.42c-.09.56-.15,1-.18,1.17a1.49,1.49,0,0,1,.33-.49A.51.51,0,0,1,46.55,7a.3.3,0,0,1,.25.12.53.53,0,0,1,.09.32,1.07,1.07,0,0,1-.12.48,1.09,1.09,0,0,1-.32.41.81.81,0,0,1-.47.16.5.5,0,0,1-.29-.08.31.31,0,0,1-.1-.23,2.83,2.83,0,0,1,0-.41c0-.2,0-.41.08-.61s0-.38.08-.55,0-.29,0-.36a.07.07,0,0,0,0-.06s0,0-.08,0h-.08l0-.09a1,1,0,0,1,.21-.08L46,6Zm.08,1.36a1.53,1.53,0,0,0-.25.39,1,1,0,0,0-.11.39.21.21,0,0,0,.07.19.26.26,0,0,0,.17.05.34.34,0,0,0,.29-.14,1,1,0,0,0,.18-.37,1.63,1.63,0,0,0,.05-.35.54.54,0,0,0-.05-.24c0-.06-.07-.09-.11-.09S46.28,7.29,46.19,7.4Z"/><path class="cls-1" d="M48.35,7.1a.2.2,0,0,1,0,.15,1.28,1.28,0,0,1-.14.49,3.2,3.2,0,0,1-.34.63,2.83,2.83,0,0,1-.45.57,1.61,1.61,0,0,1-.39.29.54.54,0,0,1-.25.08l-.12,0s0-.06,0-.12a.16.16,0,0,1,0-.12A.12.12,0,0,1,46.82,9a.24.24,0,0,1,.11,0l.07,0,.06,0L47.18,9a1.45,1.45,0,0,0,.21-.18,2.62,2.62,0,0,0,.26-.29l-.37-1.2a.15.15,0,0,0,0-.09.08.08,0,0,0-.07,0h-.08l0-.1.17-.06.15,0a.1.1,0,0,1,.09,0,.3.3,0,0,1,.07.15l.29,1a4,4,0,0,0,.28-.48.93.93,0,0,0,.1-.37s0,0,0-.06l-.1,0a.08.08,0,0,1-.07,0,.16.16,0,0,1,0-.1c0-.11.06-.16.18-.16A.21.21,0,0,1,48.35,7.1Z"/><path class="cls-2" d="M1.41,13.64v-.93h-1v.93H.11v-2H.38v.85h1v-.85h.27v2Z"/><path class="cls-2" d="M3.28,13.67c-.61,0-.9-.41-.9-1a1,1,0,0,1,1-1.05c.54,0,.9.35.9,1A1,1,0,0,1,3.28,13.67Zm0-1.83c-.33,0-.63.27-.63.78s.2.8.63.8.64-.26.64-.78S3.7,11.84,3.3,11.84Z"/><path class="cls-2" d="M5.45,11.86v1.78H5.18V11.86H4.6v-.23H6v.23Z"/><path class="cls-2" d="M6.63,13.64v-2h1v.22H6.9v.64h.72v.22H6.9v.7h.76v.23Z"/><path class="cls-2" d="M8.44,13.64v-2h.27V13.4h.72v.24Z"/><path class="cls-2" d="M10.34,13.66a2,2,0,0,1-.44-.05l0-.27a1,1,0,0,0,.43.09c.23,0,.43-.1.43-.35,0-.45-.91-.27-.91-.91,0-.33.25-.57.71-.57a1.53,1.53,0,0,1,.36,0l0,.24a1.34,1.34,0,0,0-.35-.05c-.27,0-.4.12-.4.31,0,.43.91.28.91.91C11.08,13.41,10.79,13.66,10.34,13.66Z"/><path class="cls-2" d="M14.54,13.69l-.42-.31a1.16,1.16,0,0,1-.78.29.58.58,0,0,1-.65-.59.8.8,0,0,1,.41-.64c-.21-.24-.28-.38-.28-.54a.47.47,0,0,1,.53-.45c.31,0,.48.17.48.4a.75.75,0,0,1-.37.58,7.84,7.84,0,0,0,.65.61h0a1.2,1.2,0,0,0,.21-.74h.26a1.41,1.41,0,0,1-.27.89l.41.3ZM13.25,12.6a.6.6,0,0,0-.29.45.39.39,0,0,0,.42.39.81.81,0,0,0,.55-.21C13.69,13,13.42,12.77,13.25,12.6Zm.08-.95a.23.23,0,0,0-.24.23.64.64,0,0,0,.21.4c.17-.14.26-.25.26-.4A.21.21,0,0,0,13.33,11.65Z"/><path class="cls-2" d="M17.39,13.64l-.65-.91h0v.91h-.27v-2h.5c.4,0,.68.14.68.52a.59.59,0,0,1-.59.57l.17.21.55.72Zm-.51-1.8H16.7v.68h.17c.29,0,.46-.15.46-.36S17.17,11.84,16.88,11.84Z"/><path class="cls-2" d="M18.43,13.64v-2h1v.22H18.7v.64h.72v.22H18.7v.7h.76v.23Z"/><path class="cls-2" d="M20.59,13.66a2,2,0,0,1-.44-.05l0-.27a1,1,0,0,0,.42.09c.23,0,.43-.1.43-.35,0-.45-.9-.27-.9-.91,0-.33.25-.57.7-.57a1.47,1.47,0,0,1,.36,0l0,.24a1.34,1.34,0,0,0-.35-.05c-.27,0-.4.12-.4.31,0,.43.92.28.92.91C21.34,13.41,21,13.66,20.59,13.66Z"/><path class="cls-2" d="M22.82,13.67c-.6,0-.89-.41-.89-1a1,1,0,0,1,.95-1.05c.54,0,.89.35.89,1A1,1,0,0,1,22.82,13.67Zm0-1.83c-.33,0-.63.27-.63.78s.2.8.63.8.63-.26.63-.78S23.25,11.84,22.85,11.84Z"/><path class="cls-2" d="M25.44,13.64l-.66-.91h0v.91h-.28v-2H25c.39,0,.68.14.68.52a.59.59,0,0,1-.59.57l.17.21.55.72Zm-.51-1.8h-.18v.68h.17c.29,0,.45-.15.45-.36S25.22,11.84,24.93,11.84Z"/><path class="cls-2" d="M27,11.86v1.78h-.27V11.86h-.58v-.23h1.43v.23Z"/><path class="cls-2" d="M28.5,13.66a1.84,1.84,0,0,1-.44-.05l0-.27a1,1,0,0,0,.42.09c.24,0,.44-.1.44-.35,0-.45-.91-.27-.91-.91,0-.33.25-.57.7-.57a1.55,1.55,0,0,1,.37,0l0,.24a1.27,1.27,0,0,0-.34-.05c-.28,0-.41.12-.41.31,0,.43.92.28.92.91C29.24,13.41,29,13.66,28.5,13.66Z"/><path class="cls-2" d="M2.13,17.16H1.3v.14H1.15V15.93a.83.83,0,0,1-.13.18v.12H.83v.82c0,.1,0,.15-.09.18a1.33,1.33,0,0,1-.35,0,.43.43,0,0,0,0-.16H.62s.05,0,.05-.05v-.77a2.56,2.56,0,0,1-.55.82A.74.74,0,0,0,0,17a2.23,2.23,0,0,0,.53-.74H.09c0-.18.09-.47.13-.69l.15,0c0,.15-.06.35-.09.5H.67v-.6H.1v-.17H1v.17H.83v.6H1L.9,16a2.13,2.13,0,0,0,.41-.81l.15,0c0,.13-.09.26-.14.38h.35a1.32,1.32,0,0,0-.12-.35l.13-.05a1.52,1.52,0,0,1,.13.35l-.11,0h.41v.16H1.78v.31h.29v.15H1.78v.31h.29v.15H1.78V17h.35Zm-.5-1.4H1.3v.31h.33Zm0,.46H1.3v.31h.33ZM1.3,17h.33v-.32H1.3Z"/><path class="cls-2" d="M5.1,15.42v.15h-2v-.15H4c0-.07-.05-.15-.08-.21l.17,0a2.5,2.5,0,0,1,.09.25ZM5,17.11c0,.09,0,.12-.08.14a.87.87,0,0,1-.31,0,.43.43,0,0,0,0-.12h.23s0,0,0,0v-.68H3.33v.86H3.16v-1H5ZM4.77,15.7v.46H3.43V15.7ZM4.56,17H3.75v.12H3.59v-.59h1Zm0-1.22h-1V16h1Zm-.85.88v.21h.66V16.7Z"/><path class="cls-2" d="M6.46,16.77l.25-.08,0,.16-.65.2,0-.17.26-.07v-.65H6.07V16H6.3v-.51H6.05v-.16h.66v.16H6.46V16h.2v.16h-.2Zm1.07-.62-.07.22H8.1v.75c0,.07,0,.12-.06.15a.42.42,0,0,1-.21,0,.52.52,0,0,0-.06-.16h.14s0,0,0,0v-.6H7.72v.76H7.58v-.76H7.36v.76H7.21v-.76H7v.78H6.84v-.93H7.3l.06-.22h-.6V16H8.15v.16Zm.54-.34H6.87v-.54H7v.39h.34v-.48h.16v.48H7.9v-.39h.17Z"/><path class="cls-2" d="M11.13,16.85h-.94v.27a.14.14,0,0,1-.11.16,2.14,2.14,0,0,1-.42,0,.59.59,0,0,0-.06-.14H10s0,0,0-.05v-.26H9.08V16.7H10v-.14a2.33,2.33,0,0,0,.47-.14H9.29v-.14h1.5l.12.1a2.91,2.91,0,0,1-.72.27v.06h.94Zm0-1.32h-2v-.15H10a1.54,1.54,0,0,0-.08-.19l.17,0a.88.88,0,0,1,.1.22h.88Zm-1.71.61v-.46h1.44v.46ZM9.56,16h1.09V15.8H9.56Z"/><path class="cls-2" d="M12.43,16.19,12,16l.09-.13.4.22Zm-.35,1a6.5,6.5,0,0,0,.38-.75l.14.1c-.11.24-.25.53-.37.75Zm.14-1.94.38.22-.11.14-.37-.24Zm1.42.24v.31h.43v1.52h-.16v-.11h-1v.11h-.16V15.77h.4v-.31h-.48V15.3h1.53v.16Zm0,.93c-.14,0-.18,0-.18-.18v-.28h-.21V16a.54.54,0,0,1-.32.49.3.3,0,0,0-.08-.08v.2h1v-.23h-.25Zm-.79-.46v.46a.42.42,0,0,0,.26-.39v-.07Zm1,1.1v-.27h-1V17Zm-.43-1.57h-.22v.31h.22Zm.43.47h-.29v.28s0,0,.06,0h.23Z"/><path class="cls-2" d="M17.14,15.46v.16H15.43v.44a2.62,2.62,0,0,1-.24,1.24.78.78,0,0,0-.15-.1,2.34,2.34,0,0,0,.22-1.14v-.6h.9a1.08,1.08,0,0,0-.12-.24l.17,0a1.51,1.51,0,0,1,.15.28Zm-.82.51h.75v.16h-.75v.31H17v.82h-.18v-.09h-1v.09h-.17v-.82h.5V15.7h.18Zm.46.63h-1V17h1Z"/><path class="cls-2" d="M20.07,15.9a1.88,1.88,0,0,1-.53.94,2,2,0,0,0,.65.28.57.57,0,0,0-.11.16A2,2,0,0,1,19.4,17a2.1,2.1,0,0,1-.69.33.4.4,0,0,0-.1-.15,2,2,0,0,0,.66-.3,2,2,0,0,1-.52-.8,1.86,1.86,0,0,1-.57,1.22.53.53,0,0,0-.12-.14,1.88,1.88,0,0,0,.53-1.46v-.19h-.41V15.3h1.43l-.13.56H20Zm-1.3-.31a2.16,2.16,0,0,0,.63,1.14,1.53,1.53,0,0,0,.45-.71h-.6a4.86,4.86,0,0,0,.14-.55h-.62Z"/><path class="cls-2" d="M21.44,16a3,3,0,0,1-.22,1.27.44.44,0,0,0-.15-.08,2.77,2.77,0,0,0,.2-1.19v-.62h.9a1.36,1.36,0,0,0-.1-.21l.17,0a1.42,1.42,0,0,1,.12.25h.81v.16H21.44Zm1.54.52a1.18,1.18,0,0,1-.48.46,3.33,3.33,0,0,0,.7.14.4.4,0,0,0-.1.15,3,3,0,0,1-.79-.2,3.51,3.51,0,0,1-.82.18.37.37,0,0,0-.07-.14,3.88,3.88,0,0,0,.71-.14,1.2,1.2,0,0,1-.38-.32l.08,0h-.3V16.5h1.34Zm-1.11-.2V16H21.5v-.14h.37v-.2H22v.2h.56v-.2h.17v.2h.37V16h-.37v.38Zm.05.29a1.08,1.08,0,0,0,.39.29,1,1,0,0,0,.41-.29ZM22,16v.24h.56V16Z"/><path class="cls-2" d="M24.63,15.22a3.37,3.37,0,0,1-.15.48v1.59h-.16V16.06a1.43,1.43,0,0,1-.16.24,1.4,1.4,0,0,0-.09-.17,2.45,2.45,0,0,0,.4-.94Zm.24,1.61v.46h-.16v-2h.63V16h-.47v.25h.42v.14h-.42v.29h.45v.15Zm0-1.41v.43h.32v-.43Zm1.25.78a1.53,1.53,0,0,1-.29.67,1,1,0,0,0,.39.29.69.69,0,0,0-.11.13,1.1,1.1,0,0,1-.38-.3,1.29,1.29,0,0,1-.46.31.6.6,0,0,0-.09-.13,1.15,1.15,0,0,0,.46-.3,1.79,1.79,0,0,1-.22-.53l.1,0h-.15v-.15H26Zm0-.21h-.65v-.15h.49v-.41h-.49v-.15h.65Zm-.54.33a1.66,1.66,0,0,0,.19.43,1.3,1.3,0,0,0,.19-.43Z"/><path class="cls-2" d="M27.66,15.86c.08.1.3.37.34.44l-.1.16c0-.09-.15-.25-.24-.38v1.21H27.5V16.2a2.38,2.38,0,0,1-.32.64c0-.05-.07-.12-.09-.16a2.87,2.87,0,0,0,.39-.9h-.33v-.16h.35v-.44h.16v.44H28v.16h-.29Zm1.54,0h-.32V17c0,.13,0,.18-.11.21a1.65,1.65,0,0,1-.46,0,.64.64,0,0,0-.06-.18h.39c.05,0,.07,0,.07-.07V15.85H28v-.17h.68v-.5h.17v.5h.32Zm-.83.83a2.94,2.94,0,0,0-.26-.54l.14-.07a2.8,2.8,0,0,1,.28.54Z"/></g></g></svg>