<svg xmlns="http://www.w3.org/2000/svg" viewBox="0 0 47.72 40.08"><defs><style>.cls-1,.cls-2{fill:#5f0f14;}.cls-2{fill-rule:evenodd;}</style></defs><g id="图层_2" data-name="图层 2"><g id="图层_1-2" data-name="图层 1"><path class="cls-1" d="M14.59,37.11l.7.36-1.64,2.61L13,39.7Zm-1-4.22,1.74,1.23-.49.58-1.74-1.22Zm0,2,1.74,1.22-.49.58-1.74-1.22Zm5.15-1.71-.5.6H21v-.23h.81v5.72a.77.77,0,0,1-.27.6,1,1,0,0,1-.65.24h-5V33.75h1.36l.86-1ZM21,34.49H16.66V36.4H21Zm-.11,4.86a.1.1,0,0,0,.11-.11v-2.1H16.66v2.21Z"/><path class="cls-1" d="M25.81,39.7l1.63-2.63.7.36L26.5,40.07Zm.56-6.84L28,34.08l-.5.58-1.67-1.22Zm-.5,2.54.5-.58L28,36.05l-.5.57Zm2.38-2.35h6.6v.74H32.79v.9h.92v-.17h.8v4.69a.79.79,0,0,1-.26.6.91.91,0,0,1-.65.25h-5V34.69h1.8v-.9H28.25Zm2.93,2.38a1.81,1.81,0,0,1-.21.77,4.51,4.51,0,0,1-.42.69,5.18,5.18,0,0,1-.43.52l-.26.25-.48-.45V38h4.33v-.42H32V35.43Zm-1.8,1.62.29-.3c.11-.13.21-.27.31-.41s.19-.3.27-.45a1.39,1.39,0,0,0,.13-.46h-1Zm4.33,1.64H29.38v.63h4.26l0,0,0,0s0,0,0,0Zm-2.53-4H32v-.9h-.81Zm1.61,2.11h.92V35.43h-.92Z"/><path class="cls-1" d="M39.22,39.84l-.36-.15a7.41,7.41,0,0,0,.31-.9c.07-.29.14-.64.2-1.06a8.78,8.78,0,0,0,.1-1.42V33.53h3.76l-.32-.44.67-.41.61.84h3.53v.73H40.28v2.05a10,10,0,0,1-.11,1.53A8,8,0,0,1,39.94,39a6.15,6.15,0,0,1-.23.74c-.08.17-.12.26-.13.27ZM44.07,36v.81h2.16V36.6H47v2.61a.77.77,0,0,1-.26.59.94.94,0,0,1-.65.25H40.85V36.84h2.42V34.57h.8v.72h3.2V36Zm2.16,1.54H41.65v1.74h4.47c.07,0,.11,0,.11-.1Z"/><rect class="cls-1" x="1.03" y="33.06" width="6.75" height="0.74"/><rect class="cls-1" x="1.35" y="35.35" width="2.2" height="0.74"/><rect class="cls-1" x="5.18" y="35.35" width="2.2" height="0.74"/><rect class="cls-1" y="34.3" width="0.8" height="2.1"/><rect class="cls-1" x="0.8" y="34.3" width="7.21" height="0.63"/><rect class="cls-1" x="1.35" y="36.66" width="6.03" height="0.63"/><rect class="cls-1" y="37.71" width="8.82" height="0.63"/><rect class="cls-1" x="8.01" y="34.06" width="0.8" height="2.34"/><path class="cls-1" d="M7,38.67v.68H1v.73h6a.73.73,0,0,0,.73-.73v-.68Z"/><rect class="cls-1" x="4.01" y="33.8" width="0.8" height="2.6"/><polygon class="cls-1" points="3.22 38.08 1.03 39.36 1.41 39.99 4.68 38.08 3.22 38.08"/><path class="cls-2" d="M31.15,7.68A9.88,9.88,0,0,0,31.87,16V6.09a10.16,10.16,0,0,0-.65,1.38.52.52,0,0,1-.07.21"/><path class="cls-2" d="M16.57,7.68a.54.54,0,0,1-.08-.21,9.16,9.16,0,0,0-.64-1.38V16a9.91,9.91,0,0,0,.72-8.32"/><path class="cls-2" d="M16.31,4.66a10.17,10.17,0,0,1,1.13,2.15h5.77v-4a34.93,34.93,0,0,0-6.2.84.58.58,0,0,1-.28-1.12,34.39,34.39,0,0,1,7.05-.9h0a21.49,21.49,0,0,1,7.06.9.6.6,0,0,1,.41.67.57.57,0,0,1-.56.46.55.55,0,0,1-.18,0,19.59,19.59,0,0,0-6.16-.85v4h5.92a10.17,10.17,0,0,1,1.13-2.15.56.56,0,0,1,.46-.23V.72A.72.72,0,0,0,31.15,0H16.57a.72.72,0,0,0-.72.72V4.43a.58.58,0,0,1,.46.23"/><path class="cls-2" d="M25.05,21.17a2.36,2.36,0,0,0-2.38,0,13.84,13.84,0,0,0-2.83,2.15.8.8,0,0,0-.23.72.78.78,0,0,0,.43.59,8.34,8.34,0,0,0,3.77.68h.1a8.34,8.34,0,0,0,3.77-.68.78.78,0,0,0,.43-.59.8.8,0,0,0-.23-.72,14.12,14.12,0,0,0-2.83-2.15"/><path class="cls-2" d="M31.39,17.44A11.13,11.13,0,0,1,29.88,8H24.36V9.72c1.13-.05,2.16-.16,3-.27A.58.58,0,0,1,28,10a.6.6,0,0,1-.53.6c-.88.11-1.95.22-3.13.28v1c1.13-.05,2.16-.16,3-.28a.58.58,0,0,1,.65.56.59.59,0,0,1-.53.59c-.88.12-1.95.23-3.13.28v.45a.61.61,0,0,1-.48.6.58.58,0,0,1-.67-.57v-.45H23a26.35,26.35,0,0,1-3.28-.2.6.6,0,0,1-.53-.6.58.58,0,0,1,.66-.55,24.17,24.17,0,0,0,3.37.2v-1H23a24.6,24.6,0,0,1-3.28-.21.59.59,0,0,1-.53-.59.58.58,0,0,1,.66-.55,24.14,24.14,0,0,0,3.37.19V8H17.83a11.16,11.16,0,0,1-1.5,9.48.56.56,0,0,1-.48.26v9.66a.72.72,0,0,0,.72.72H31.15a.73.73,0,0,0,.72-.72V17.7a.56.56,0,0,1-.48-.26M19.92,15.15a30.38,30.38,0,0,1,7.84-.1.57.57,0,0,1,.5.64.59.59,0,0,1-.65.5,29.35,29.35,0,0,0-7.53.1H20a.58.58,0,0,1-.08-1.15m9.33,9.08a1.92,1.92,0,0,1-1.07,1.44,9.39,9.39,0,0,1-4.28.79h-.09a9.41,9.41,0,0,1-4.28-.79,1.93,1.93,0,0,1-1.06-1.44A2,2,0,0,1,19,22.5a15.33,15.33,0,0,1,3.07-2.33,3.53,3.53,0,0,1,3.53,0,15.05,15.05,0,0,1,3.07,2.33,2,2,0,0,1,.56,1.73m2-5.12a.61.61,0,0,1-.55.4.57.57,0,0,1-.18,0c-5.77-1.91-13.43,0-13.51,0a.58.58,0,0,1-.28-1.12c.32-.08,8.06-2,14.15,0a.58.58,0,0,1,.37.73"/></g></g></svg>