<svg xmlns="http://www.w3.org/2000/svg" viewBox="0 0 42.85 23.5"><defs><style>.cls-1{fill:#231815;}</style></defs><g id="图层_2" data-name="图层 2"><g id="图层_1-2" data-name="图层 1"><polygon class="cls-1" points="9.45 23.5 9.45 21.67 9.05 21.67 9.05 22.46 8.01 22.46 8.01 21.67 7.62 21.67 7.62 23.5 8.01 23.5 8.01 22.64 9.05 22.64 9.05 23.5 9.45 23.5"/><polygon class="cls-1" points="15.49 23.5 15.89 23.5 15.89 21.67 15.5 21.67 15.5 23.11 15.46 23.06 14.47 21.67 14.06 21.67 14.06 23.5 14.46 23.5 14.46 22.05 14.5 22.11 15.49 23.5"/><path class="cls-1" d="M32,21.67H30.21V23.5H32v-.58a.11.11,0,0,0,0-.08l-.16-.29h0l.16-.27a.11.11,0,0,0,0-.08Zm-.4,1.65h-1v-.68h.8a.08.08,0,0,1,.07,0l.1.16a.08.08,0,0,1,0,0Zm0-1.1a.09.09,0,0,1,0,.05l-.1.16a.08.08,0,0,1-.07,0h-.8v-.62h1Z"/><polygon class="cls-1" points="6.22 21.67 4.4 21.67 4.4 21.85 5.1 21.85 5.1 23.5 5.49 23.5 5.49 21.85 6.12 21.85 6.22 21.67"/><polygon class="cls-1" points="38.45 21.67 36.63 21.67 36.63 21.85 37.32 21.85 37.32 23.5 37.72 23.5 37.72 21.85 38.34 21.85 38.45 21.67"/><path class="cls-1" d="M20.55,21.83v1.51a.16.16,0,0,0,.16.16H22.2l.1-.18H21a.09.09,0,0,1-.08-.08v-.6h1.11l.1-.17H20.94v-.54a.08.08,0,0,1,.08-.08H22.2l.1-.18H20.71A.16.16,0,0,0,20.55,21.83Z"/><path class="cls-1" d="M18.92,23.42l.18-.3a.24.24,0,0,0,0-.08v-.91a.19.19,0,0,0,0-.08l-.18-.3a.16.16,0,0,0-.13-.08h-1.5V23.5h1.5A.16.16,0,0,0,18.92,23.42Zm-.2-.29s0,0,0,0l-.06.11a.1.1,0,0,1-.07,0h-.9V21.85h.9a.08.08,0,0,1,.07,0l.06.11a0,0,0,0,1,0,0Z"/><path class="cls-1" d="M27,22.05a.11.11,0,0,0,0,.08V23.5h1.43a.16.16,0,0,0,.14-.08l.17-.3a.11.11,0,0,0,0-.08V21.67H27.32a.16.16,0,0,0-.14.08Zm.37,0s0,0,0,0l.07-.1a.06.06,0,0,1,.06,0h.84v1.28s0,0,0,0l-.07.11a.06.06,0,0,1-.06,0h-.84Z"/><path class="cls-1" d="M33.43,22.13V23.5h1.44a.17.17,0,0,0,.14-.08l.17-.3a.19.19,0,0,0,0-.08V21.67H33.76a.17.17,0,0,0-.14.08l-.17.3A.19.19,0,0,0,33.43,22.13Zm.4-.1a.08.08,0,0,1,0,0l.06-.1a.07.07,0,0,1,.07,0h.83v1.28s0,0,0,0l-.06.11a.1.1,0,0,1-.07,0h-.83Z"/><path class="cls-1" d="M25.49,23.5,25,22.72h.36a.16.16,0,0,0,.15-.16v-.89H23.8V23.5h.4V21.85h.87v.61a.09.09,0,0,1-.08.08h-.53l.65,1Z"/><path class="cls-1" d="M12.47,23.42l.18-.3a.19.19,0,0,0,0-.08V21.67h-.4v1.46s0,0,0,0l-.06.11a.1.1,0,0,1-.07,0h-.75a.13.13,0,0,1-.07,0l-.06-.11s0,0,0,0V21.67h-.39V23a.11.11,0,0,0,0,.08l.17.3a.16.16,0,0,0,.14.08h1.16A.16.16,0,0,0,12.47,23.42Z"/><path class="cls-1" d="M23.87,1.19A5.11,5.11,0,0,0,22.43.25a2.41,2.41,0,0,0-1-.25,2.63,2.63,0,0,0-1.07.26A5.56,5.56,0,0,0,19,1.19a5.26,5.26,0,0,0-1.7,3.87,5.46,5.46,0,0,0,.29,1.73l.86,2.86a2.59,2.59,0,0,0,.72,1.16,7.33,7.33,0,0,0,1.91,1.3V7.47a1,1,0,0,0-.9-1,11.57,11.57,0,0,1-2.36-.54.13.13,0,0,1-.08-.12V5.45a18.9,18.9,0,0,0,3.71.37,18.92,18.92,0,0,0,3.72-.37V5.8a.13.13,0,0,1-.08.12,11.66,11.66,0,0,1-2.37.54,1,1,0,0,0-.89,1v4.64a7.33,7.33,0,0,0,1.91-1.3,2.68,2.68,0,0,0,.72-1.16l.85-2.86a5.19,5.19,0,0,0-1.2-5.39Z"/><polygon class="cls-1" points="7.01 16.43 5.44 16.43 5.44 16.73 6 16.73 6 20.02 6.45 20.02 6.45 16.73 7.01 16.73 7.01 16.43"/><path class="cls-1" d="M10.2,18.46V16.35H9v-.56H8.43v.56H7.28v2.56H8.43V20H9v-1.1h.76A.44.44,0,0,0,10.2,18.46Zm-1.77.15H7.86v-.83h.57Zm0-1.13H7.86v-.82h.57Zm1.19,1a.13.13,0,0,1-.13.13H9v-.83h.61Zm0-1H9v-.82h.61Z"/><polygon class="cls-1" points="5.44 17.04 5.44 19.7 5.75 19.52 5.75 17.04 5.44 17.04"/><polygon class="cls-1" points="6.7 17.04 6.7 19.7 7.01 19.52 7.01 17.04 6.7 17.04"/><polygon class="cls-1" points="7.01 15.79 5.44 15.79 5.44 16.09 6.83 16.09 7.01 15.79"/><path class="cls-1" d="M4.2,20a.45.45,0,0,0,.45-.45V18.18H.12V20ZM2.73,18.48H4v.45H2.73Zm0,.75H4v.35a.13.13,0,0,1-.13.14H2.73ZM.81,18.48H2v.45H.81Zm0,.75H2v.49H.81Z"/><polygon class="cls-1" points="1.89 17.76 1.75 17.5 0.84 17.5 0.98 17.76 1.89 17.76"/><polygon class="cls-1" points="1.89 17.26 1.75 17 0.84 17 0.98 17.26 1.89 17.26"/><polygon class="cls-1" points="3.02 17 2.88 17.26 3.78 17.26 3.92 17 3.02 17"/><polygon class="cls-1" points="3.02 17.5 2.88 17.76 3.78 17.76 3.92 17.5 3.02 17.5"/><polygon class="cls-1" points="4.66 15.79 0.12 15.79 0.12 16.09 4.48 16.09 4.66 15.79"/><polygon class="cls-1" points="2.69 16 2.08 16 2.08 16.43 0 16.43 0 17.76 0.69 17.76 0.69 16.73 2.08 16.73 2.08 17.87 2.69 17.87 2.69 16.73 4.07 16.73 4.07 17.76 4.76 17.76 4.76 16.43 2.69 16.43 2.69 16"/><path class="cls-1" d="M37.3,19.57V16.91h-1v-.57h1.12V16H33.76v.3h1.13v.57h-1V20h3A.45.45,0,0,0,37.3,19.57Zm-1.9-3.23h.39v.57H35.4Zm-.86.87h.35v1h0l-.34.11Zm2.1,2.37a.13.13,0,0,1-.13.14h-2v-.55h2.1Zm0-1.47v.76h-2.1v-.29h0l.85-.28V17.21h.39v1.21h.64l.18-.3H36.3v-.91h.34v.89h0Z"/><polygon class="cls-1" points="33.37 16.47 33.21 15.8 32.66 15.8 32.82 16.47 33.37 16.47"/><polygon class="cls-1" points="33.37 17.58 33.21 16.91 32.66 16.91 32.82 17.58 33.37 17.58"/><polygon class="cls-1" points="32.9 18.16 32.65 20.02 33.21 20.02 33.46 18.16 32.9 18.16"/><path class="cls-1" d="M24.27,19.71v-.8h1.59a.45.45,0,0,0,.45-.45V16.25h-2v-.46h-.7v.46H21.79l.18.3h1.6v.81H21.78v1.55h1.79V20h2.79l.17-.3Zm0-2.05h1.07v-.3H24.27v-.81h1.35v1.93a.13.13,0,0,1-.14.13H24.27Zm-.7.95H22.48v-.95h1.09Z"/><polygon class="cls-1" points="39.08 16.34 42.85 16.34 42.85 16.04 41.16 16.04 41.01 15.8 40.32 15.8 40.47 16.04 38.42 16.04 38.42 19.19 38.1 20.02 38.75 20.02 39.08 19.18 39.08 16.34"/><path class="cls-1" d="M41.16,16.68h-.69v1.44H39.41V20h2.67a.46.46,0,0,0,.46-.45V18.12H41.16v-.69h1.38l.18-.3H41.16Zm.68,1.74v1.16a.13.13,0,0,1-.13.14h-1.6v-1.3Z"/><path class="cls-1" d="M30.81,19.71v-.8h.49a.36.36,0,0,0,.36-.36v-.9H27.53v1.26h.83l0,0-1,1.07h.76l1-1.1h1V20H31.8l.18-.3Zm-2.59-1.1V18H31v.53a.13.13,0,0,1-.14.13Z"/><polygon class="cls-1" points="28.49 16.3 28.95 17.06 28.27 17.07 27.81 16.31 28.49 16.3"/><polygon class="cls-1" points="30.72 16.3 30.26 17.06 30.94 17.07 31.41 16.31 30.72 16.3"/><polygon class="cls-1" points="31.86 16.34 31.86 16.04 29.95 16.04 29.8 15.8 29.11 15.79 29.26 16.04 27.36 16.04 27.36 16.34 31.86 16.34"/><polygon class="cls-1" points="27.22 17.01 27.22 17.31 31.8 17.31 31.98 17.01 27.22 17.01"/><path class="cls-1" d="M14.47,19.71v-.8H15a.36.36,0,0,0,.36-.36v-.9H11.2v1.26H12l0,0L11,20h.75l1-1.1h1V20h1.68l.18-.3Zm-2.58-1.1V18h2.74v.53a.13.13,0,0,1-.13.13Z"/><polygon class="cls-1" points="12.16 16.3 12.62 17.06 11.93 17.07 11.47 16.31 12.16 16.3"/><polygon class="cls-1" points="14.38 16.3 13.92 17.06 14.61 17.07 15.07 16.31 14.38 16.3"/><polygon class="cls-1" points="15.52 16.34 15.52 16.04 13.61 16.04 13.46 15.8 12.77 15.79 12.92 16.04 11.02 16.04 11.02 16.34 15.52 16.34"/><polygon class="cls-1" points="10.88 17.01 10.88 17.31 15.46 17.31 15.64 17.01 10.88 17.01"/><rect class="cls-1" x="16.59" y="15.79" width="4.2" height="0.3"/><rect class="cls-1" x="16.59" y="16.66" width="4.2" height="0.3"/><rect class="cls-1" x="16.59" y="17.48" width="4.2" height="0.3"/><rect class="cls-1" x="16.56" y="15.79" width="0.69" height="1.99"/><rect class="cls-1" x="20.1" y="15.79" width="0.69" height="1.99"/><rect class="cls-1" x="18.35" y="15.79" width="0.69" height="1.99"/><rect class="cls-1" x="17.22" y="18.24" width="0.69" height="1.21"/><polygon class="cls-1" points="17.43 20.02 16.63 20.02 17.25 19.24 17.92 19.45 17.43 20.02"/><rect class="cls-1" x="19.39" y="18.28" width="0.69" height="1.73"/><polygon class="cls-1" points="17.25 18.91 16.31 18.91 17.97 17.63 18.9 17.63 17.25 18.91"/><polygon class="cls-1" points="20.14 18.91 21.07 18.91 19.42 17.63 18.49 17.63 20.14 18.91"/></g></g></svg>