<?xml version="1.0" encoding="UTF-8"?>
<svg id="_图层_2" data-name="图层 2" xmlns="http://www.w3.org/2000/svg" viewBox="0 0 578.58 500">
  <defs>
    <style>
      .cls-1 {
        fill: #ffffff;
      }
    </style>
  </defs>
  <g id="_图层_1-2" data-name="图层 1">
    <path class="cls-1" d="M523.8,2.3c-89.23-30.23-234.5,247.78-234.5,247.78,0,0-145.27-278.01-234.5-247.78C-34.44,32.53-1.26,212.47,59.21,395.35s157.07,93.65,230.08-22.12c73.01,115.78,169.61,205.01,230.08,22.12,60.47-182.88,93.65-362.82,4.42-393.05ZM191.95,404.94c-49.41,59.73-49.41,27.29-75.96-28.02-26.55-55.31-75.77-273.96-49.78-311.01,25.99-37.06,188.41,241.69,188.41,241.69,0,0-13.27,37.61-62.68,97.34Zm270.64-28.02c-26.55,55.31-26.55,87.75-75.96,28.02-49.41-59.73-62.68-97.34-62.68-97.34,0,0,162.42-278.75,188.41-241.69,25.99,37.06-23.23,255.71-49.78,311.01Z"/>
  </g>
</svg>