<?xml version="1.0" standalone="no"?><!DOCTYPE svg PUBLIC "-//W3C//DTD SVG 1.1//EN" "http://www.w3.org/Graphics/SVG/1.1/DTD/svg11.dtd"><svg t="1690256094215" class="icon" viewBox="0 0 1024 1024" version="1.1" xmlns="http://www.w3.org/2000/svg" p-id="1063" xmlns:xlink="http://www.w3.org/1999/xlink" width="200" height="200"><path d="M972.8 0H51.2a51.2 51.2 0 0 0-51.2 51.2v921.6a51.2 51.2 0 0 0 51.2 51.2h921.6a51.2 51.2 0 0 0 51.2-51.2V51.2a51.2 51.2 0 0 0-51.2-51.2z m-25.6 947.2H76.8V76.8h870.4z" fill="#ffffff" p-id="1064"></path><path d="M153.6 179.2m38.4 0l435.2 0q38.4 0 38.4 38.4l0 0q0 38.4-38.4 38.4l-435.2 0q-38.4 0-38.4-38.4l0 0q0-38.4 38.4-38.4Z" fill="#ffffff" p-id="1065"></path><path d="M153.6 332.8m38.4 0l358.4 0q38.4 0 38.4 38.4l0 0q0 38.4-38.4 38.4l-358.4 0q-38.4 0-38.4-38.4l0 0q0-38.4 38.4-38.4Z" fill="#ffffff" p-id="1066"></path><path d="M153.6 486.4m38.4 0l281.6 0q38.4 0 38.4 38.4l0 0q0 38.4-38.4 38.4l-281.6 0q-38.4 0-38.4-38.4l0 0q0-38.4 38.4-38.4Z" fill="#ffffff" p-id="1067"></path><path d="M856.32 641.792l-73.472-10.752a11.008 11.008 0 0 1-8.448-6.144L742.4 558.336a37.12 37.12 0 0 0-66.56 0l-32.768 66.56a12.032 12.032 0 0 1-8.704 6.144l-73.472 10.752a37.12 37.12 0 0 0-20.48 63.488l52.992 51.2a11.52 11.52 0 0 1 3.328 10.24l-12.544 72.96a37.12 37.12 0 0 0 54.016 39.168L702.72 844.8a13.056 13.056 0 0 1 10.752 0l65.536 34.56a37.12 37.12 0 0 0 54.016-39.168L820.48 768a11.52 11.52 0 0 1 3.328-10.24l52.992-51.2a37.12 37.12 0 0 0-20.48-64.768z m-153.6 141.568l-51.2 25.6a8.448 8.448 0 0 1-12.288-9.216l9.728-56.32a8.704 8.704 0 0 0-2.56-7.68l-40.96-39.936a8.448 8.448 0 0 1 4.608-14.592l56.832-8.192a8.96 8.96 0 0 0 6.4-4.864l25.6-51.2a8.448 8.448 0 0 1 15.36 0l25.6 51.2a8.96 8.96 0 0 0 6.4 4.864l56.832 8.192a8.448 8.448 0 0 1 4.608 14.592L768 736.768a9.472 9.472 0 0 0-2.56 7.68l9.728 56.32a8.448 8.448 0 0 1-12.288 9.216l-51.2-25.6a7.936 7.936 0 0 0-7.68-1.024z" fill="#ffffff" p-id="1068"></path></svg>