<?xml version="1.0" standalone="no"?><!DOCTYPE svg PUBLIC "-//W3C//DTD SVG 1.1//EN" "http://www.w3.org/Graphics/SVG/1.1/DTD/svg11.dtd"><svg t="1690256135280" class="icon" viewBox="0 0 1024 1024" version="1.1" xmlns="http://www.w3.org/2000/svg" p-id="1578" xmlns:xlink="http://www.w3.org/1999/xlink" width="200" height="200"><path d="M430.81 71.14c-165.68 29.07-327.82 189.05-358.72 354.4C48.27 553 78.48 673.22 143.77 767.23c14.2 20.45 18.53 46.19 12.09 70.24l-7.43 27.73c-1.58 5.89 2.98 11.34 8.65 11.34 0.77 0 1.57-0.1 2.37-0.32l27.95-7.49c24-6.43 49.66-2.14 70.09 11.99 94 65 214.05 94.99 341.33 71.11 165.18-31 324.99-193.11 354.05-358.65 54.52-310.66-211.39-576.56-522.06-522.04z m352.72 712.39c-35.29 35.29-76.36 62.98-122.08 82.32C614.15 885.86 563.87 896 512 896c-51.87 0-102.15-10.14-149.45-30.15a382.125 382.125 0 0 1-70.75-39.18c-20.44-14.34-46.15-18.97-70.27-12.51-6.69 1.79-12.82-4.33-11.02-11.02 6.44-24.03 1.83-49.67-12.52-70-15.77-22.33-29.09-46.29-39.83-71.69C138.14 614.15 128 563.87 128 512s10.14-102.15 30.15-149.45c19.34-45.72 47.03-86.79 82.32-122.08 35.29-35.29 76.36-62.98 122.08-82.32C409.85 138.14 460.13 128 512 128c51.87 0 102.15 10.14 149.45 30.15 45.72 19.34 86.79 47.03 122.08 82.32 35.29 35.29 62.98 76.36 82.32 122.08C885.86 409.85 896 460.13 896 512s-10.14 102.15-30.15 149.45c-19.34 45.72-47.03 86.79-82.32 122.08z" fill="#ffffff" p-id="1579"></path><path d="M735.33 416.21c-17.67 0-32 14.33-32 32s14.33 32 32 32 32-14.33 32-32-14.32-32-32-32zM608.09 416.21h-320c-17.67 0-32 14.33-32 32s14.33 32 32 32h320c17.67 0 32-14.33 32-32s-14.33-32-32-32zM672.13 544.05c-17.67 0-32 14.33-32 32s14.33 32 32 32 32-14.33 32-32-14.33-32-32-32zM543.22 544.05h-192c-17.67 0-32 14.33-32 32s14.33 32 32 32h192c17.67 0 32-14.33 32-32 0-17.68-14.33-32-32-32z" fill="#ffffff" p-id="1580"></path></svg>