<?xml version="1.0" standalone="no"?><!DOCTYPE svg PUBLIC "-//W3C//DTD SVG 1.1//EN" "http://www.w3.org/Graphics/SVG/1.1/DTD/svg11.dtd"><svg t="1690256191729" class="icon" viewBox="0 0 1024 1024" version="1.1" xmlns="http://www.w3.org/2000/svg" p-id="941" xmlns:xlink="http://www.w3.org/1999/xlink" width="200" height="200"><path d="M443.785846 590.808615c13.627077 27.451077 39.069538 45.922462 68.214154 45.922462s54.587077-18.510769 68.214154-45.922462L787.692308 590.769231a78.769231 78.769231 0 0 1 78.76923 78.769231v118.153846a78.769231 78.769231 0 0 1-78.76923 78.76923H236.307692a78.769231 78.769231 0 0 1-78.76923-78.76923v-118.153846a78.769231 78.769231 0 0 1 78.76923-78.769231l207.478154 0.039384zM787.692308 669.538462h-168.054154l-3.426462 3.465846a150.646154 150.646154 0 0 1-95.704615 42.259692l-8.507077 0.236308a150.212923 150.212923 0 0 1-104.211692-42.535385L404.361846 669.538462H236.307692v118.153846h551.384616v-118.153846z" fill="#ffffff" p-id="942"></path><path d="M354.619077 236.032a39.384615 39.384615 0 0 1 4.568615 78.493538l-4.568615 0.275693H315.076923c-20.992 0-36.942769 12.996923-39.148308 28.041846L275.692308 346.348308v283.529846a39.384615 39.384615 0 0 1-78.493539 4.568615L196.923077 629.878154V346.348308c0-59.707077 50.018462-106.850462 111.300923-110.15877L315.076923 236.032h39.542154z" fill="#ffffff" p-id="943"></path><path d="M708.923077 157.538462c62.227692 0 114.294154 45.686154 117.956923 104.88123l0.196923 6.616616V630.153846h-78.769231V269.036308c0-16.029538-14.572308-30.523077-34.658461-32.492308L708.923077 236.307692h-275.692308c-20.873846 0-36.942769 13.351385-39.148307 29.065846L393.846154 269.036308v325.04123H315.076923V269.036308c0-60.140308 49.860923-107.953231 111.300923-111.300923L433.230769 157.538462h275.692308z" fill="#ffffff" p-id="944"></path><path d="M630.153846 315.076923a39.384615 39.384615 0 0 1 0 78.769231h-118.153846a39.384615 39.384615 0 0 1 0-78.769231h118.153846zM630.153846 433.230769a39.384615 39.384615 0 0 1 0 78.769231h-118.153846a39.384615 39.384615 0 0 1 0-78.769231h118.153846z" fill="#ffffff" p-id="945"></path></svg>