<?xml version="1.0" standalone="no"?><!DOCTYPE svg PUBLIC "-//W3C//DTD SVG 1.1//EN" "http://www.w3.org/Graphics/SVG/1.1/DTD/svg11.dtd"><svg t="1690256154818" class="icon" viewBox="0 0 1024 1024" version="1.1" xmlns="http://www.w3.org/2000/svg" p-id="1076" xmlns:xlink="http://www.w3.org/1999/xlink" width="200" height="200"><path d="M883.2 71.68a30.72 30.72 0 0 1 30.72 30.72v819.2a30.72 30.72 0 0 1-49.7664 24.064l-104.704-82.5856-104.704 82.6368a30.72 30.72 0 0 1-33.6896 2.8672l-4.352-2.8672L512 863.0272l-104.704 82.688a30.72 30.72 0 0 1-33.6896 2.8672l-4.352-2.8672-104.7552-82.6368-104.6528 82.6368a30.72 30.72 0 0 1-49.408-19.456L110.08 921.6V102.4a30.72 30.72 0 0 1 30.72-30.72h742.4z m-30.72 61.44H171.52v725.0944l73.984-58.368a30.72 30.72 0 0 1 33.6896-2.9184l4.352 2.8672 104.704 82.6368 104.704-82.6368a30.72 30.72 0 0 1 33.6896-2.8672l4.4032 2.8672 104.6528 82.6368 104.7552-82.6368a30.72 30.72 0 0 1 33.6896-2.8672l4.352 2.8672 73.984 58.4192V133.12z m-262.144 232.7552l36.1984 36.2496-68.3008 68.2496H665.6v51.2h-128v64H665.6v51.2h-128v89.6h-51.2v-89.6H358.4v-51.2h128v-64H358.4v-51.2h107.3664L397.4656 402.1248l36.1984-36.2496L512 444.2112l78.336-78.336zM760.32 225.28v61.44h-496.64V225.28h496.64z" fill="#ffffff" p-id="1077"></path></svg>