<?xml version="1.0" standalone="no"?><!DOCTYPE svg PUBLIC "-//W3C//DTD SVG 1.1//EN" "http://www.w3.org/Graphics/SVG/1.1/DTD/svg11.dtd"><svg t="1690256163778" class="icon" viewBox="0 0 1024 1024" version="1.1" xmlns="http://www.w3.org/2000/svg" p-id="1366" xmlns:xlink="http://www.w3.org/1999/xlink" width="200" height="200"><path d="M476.153344 35.84c234.24 0 429.0048 169.216 468.6336 392.0896l29.9008-35.6352 49.408 41.472-83.9168 99.9936a32.256 32.256 0 0 1-45.4144 3.9424l-99.9936-83.8656 41.472-49.408 45.6704 38.2976a411.5456 411.5456 0 1 0-57.7024 288.8704l54.4768 34.5088A476.0576 476.0576 0 1 1 476.153344 35.84zM349.279744 386.1504l-38.2464 139.1616h29.696l-22.272 106.1376 36.6592 55.9104h358.4v57.1904H317.945344l-17.5616-24.1664-4.2496 24.1664H233.465344l37.6832-162.048h-37.6832l39.8336-138.5472h-39.8336v-57.856H349.279744z m251.3408 143.616l21.76 31.744 24.4736-24.7808h70.144l-63.232 68.608h0.512l53.6576 67.3792H630.367744l-107.8784-142.9504h78.1312z m113.664-243.4048V451.584c0 7.3216-0.768 13.824-2.3552 19.456l-1.8432 5.3248c-1.4336 4.2496-3.072 7.936-5.0688 11.1104a83.6608 83.6608 0 0 1-7.168 9.8816 50.8928 50.8928 0 0 1-16.4864 13.312 39.68 39.68 0 0 1-20.6848 5.12h-211.456v78.7968c0 5.0688 1.1776 9.3184 3.6864 12.6976a13.824 13.824 0 0 0 11.1616 5.12h65.8944l-20.736 57.1392H434.271744a40.0896 40.0896 0 0 1-15.6672-3.2256l-5.12-2.4576a35.7888 35.7888 0 0 1-16.9472-14.0288 37.5296 37.5296 0 0 1-6.4-8.8576 72.4992 72.4992 0 0 1-9.0112-36.1984V286.976h50.4832v-0.6656h282.624z m-67.9936 144.896h-197.12v26.6752h182.272a14.2336 14.2336 0 0 0 11.1616-5.6832 19.3024 19.3024 0 0 0 3.6864-12.7488v-8.192z m0-87.04h-197.12v28.5696h197.12v-28.5696z m-342.7328-52.736l36.1472 75.6224h-69.632l-36.096-75.6224h69.632z" fill="#ffffff" p-id="1367"></path></svg>