<?xml version="1.0" standalone="no"?><!DOCTYPE svg PUBLIC "-//W3C//DTD SVG 1.1//EN" "http://www.w3.org/Graphics/SVG/1.1/DTD/svg11.dtd"><svg t="1690256168345" class="icon" viewBox="0 0 1024 1024" version="1.1" xmlns="http://www.w3.org/2000/svg" p-id="1517" xmlns:xlink="http://www.w3.org/1999/xlink" width="200" height="200"><path d="M488.2432 44.4928a30.72 30.72 0 0 1 47.5136 0l177.4592 216.0128 260.4032 102.144a30.72 30.72 0 0 1 16.896 40.96l-2.2016 4.1984-150.6304 235.6224-16.64 279.1424a30.72 30.72 0 0 1-33.7408 28.7744l-4.6592-0.8704L512 880.0256l-270.6432 70.4512a30.72 30.72 0 0 1-37.7344-23.1936l-0.6656-4.7104-16.6912-279.1424-150.528-235.6224A30.72 30.72 0 0 1 46.08 364.6976l4.3008-2.048 260.352-102.144L488.2432 44.4928zM512 112.3328L353.1264 305.7152a30.72 30.72 0 0 1-12.544 9.1136L107.5712 406.1696l134.8096 210.944a30.72 30.72 0 0 1 4.0448 9.5232l0.7168 5.12 14.8992 249.8048 242.176-62.976a30.72 30.72 0 0 1 10.3936-0.8704l5.12 0.8704 242.176 62.976 14.9504-249.7536a30.72 30.72 0 0 1 2.3552-10.1376l2.4064-4.608 134.7584-210.8928-232.96-91.3408a30.72 30.72 0 0 1-8.8576-5.376l-3.6864-3.7376L512 112.3328z m-126.3104 495.616C410.112 655.36 463.872 673.28 512 673.28c49.152 0 102.3488-17.6128 126.7712-65.2288l54.6304 28.0576c-22.0672 43.0592-59.2896 70.7584-105.1136 85.9136a245.6064 245.6064 0 0 1-76.288 12.6976c-20.7872 0-47.8208-3.4304-76.1344-12.9024-45.6192-15.3088-82.688-42.9056-104.7552-85.6576l54.5792-28.16zM414.72 407.04v128H353.28v-128h61.44z m256 0v128h-61.44v-128h61.44z" fill="#ffffff" p-id="1518"></path></svg>