<?xml version="1.0" standalone="no"?><!DOCTYPE svg PUBLIC "-//W3C//DTD SVG 1.1//EN" "http://www.w3.org/Graphics/SVG/1.1/DTD/svg11.dtd"><svg t="1690256101072" class="icon" viewBox="0 0 1024 1024" version="1.1" xmlns="http://www.w3.org/2000/svg" p-id="1210" xmlns:xlink="http://www.w3.org/1999/xlink" width="200" height="200"><path d="M972.8 0H51.2a51.2 51.2 0 0 0-51.2 51.2v307.2a51.2 51.2 0 0 0 51.2 51.2h921.6a51.2 51.2 0 0 0 51.2-51.2V51.2a51.2 51.2 0 0 0-51.2-51.2z m-25.6 332.8H76.8V114.176A37.632 37.632 0 0 1 114.176 76.8h795.648A37.632 37.632 0 0 1 947.2 114.176z" fill="#ffffff" p-id="1211"></path><path d="M76.8 332.8v640a48.128 48.128 0 0 0 43.52 51.2h783.36a48.128 48.128 0 0 0 43.52-51.2V332.8z m793.6 572.16A39.424 39.424 0 0 1 834.56 947.2H189.44A39.424 39.424 0 0 1 153.6 904.96V377.856h716.8z" fill="#ffffff" p-id="1212"></path><path d="M473.6 512m38.4 0l0 0q38.4 0 38.4 38.4l0 153.6q0 38.4-38.4 38.4l0 0q-38.4 0-38.4-38.4l0-153.6q0-38.4 38.4-38.4Z" fill="#ffffff" p-id="1213"></path><path d="M473.6 742.4m0-38.4l0 0q0-38.4 38.4-38.4l153.6 0q38.4 0 38.4 38.4l0 0q0 38.4-38.4 38.4l-153.6 0q-38.4 0-38.4-38.4Z" fill="#ffffff" p-id="1214"></path></svg>