<?xml version="1.0" standalone="no"?><!DOCTYPE svg PUBLIC "-//W3C//DTD SVG 1.1//EN" "http://www.w3.org/Graphics/SVG/1.1/DTD/svg11.dtd"><svg t="1690256114881" class="icon" viewBox="0 0 1024 1024" version="1.1" xmlns="http://www.w3.org/2000/svg" p-id="1121" xmlns:xlink="http://www.w3.org/1999/xlink" width="200" height="200"><path d="M946.48 239.96l-82.17-107.6c-10.84-21.68-33-35.37-57.24-35.37H216.93a64.003 64.003 0 0 0-57.24 35.37l-82.17 107.6A128.068 128.068 0 0 0 64 297.23V863c0 35.35 28.65 64 64 64h768c35.35 0 64-28.65 64-64V297.23c0-19.88-4.63-39.49-13.52-57.27zM896 831c0 17.67-14.33 32-32 32H160c-17.67 0-32-14.33-32-32V320.08c0-10.06 2.37-19.97 6.92-28.94l85.43-112.61A31.998 31.998 0 0 1 248.89 161h526.22c12.06 0 23.09 6.78 28.54 17.53l85.43 112.61a63.958 63.958 0 0 1 6.92 28.94V831z"  fill="#ffffff" p-id="1122"></path><path d="M896 267H128c-35.35 0-64 28.65-64 64v532c0 35.35 28.65 64 64 64h768c35.35 0 64-28.65 64-64V331c0-35.35-28.65-64-64-64z m0 564c0 17.67-14.33 32-32 32H160c-17.67 0-32-14.33-32-32V363c0-17.67 14.33-32 32-32h704c17.67 0 32 14.33 32 32v468z" fill="#ffffff" p-id="1123"></path><path d="M663.48 613.94v-112c0-17.67-14.33-32-32-32s-32 14.33-32 32v176c0 17.67 14.33 32 32 32h176c17.67 0 32-14.33 32-32s-14.33-32-32-32h-112c-17.67 0-32-14.33-32-32zM184.69 501.94c0-17.67 14.33-32 32-32h116c17.67 0 32 14.33 32 32s-14.33 32-32 32h-116c-17.67 0-32-14.33-32-32zM184.69 677.94c0-17.67 14.33-32 32-32h256c17.67 0 32 14.33 32 32s-14.33 32-32 32h-256c-17.67 0-32-14.33-32-32z" fill="#ffffff" p-id="1124"></path></svg>