<?xml version="1.0" standalone="no"?><!DOCTYPE svg PUBLIC "-//W3C//DTD SVG 1.1//EN" "http://www.w3.org/Graphics/SVG/1.1/DTD/svg11.dtd"><svg t="1690256120797" class="icon" viewBox="0 0 1024 1024" version="1.1" xmlns="http://www.w3.org/2000/svg" p-id="1274" xmlns:xlink="http://www.w3.org/1999/xlink" width="200" height="200"><path d="M714.04 161c49.12 0 94.75 19.44 128.48 54.73 34.49 36.08 53.48 85.31 53.48 138.6 0 30.69-5.78 59.94-17.66 89.41-11.73 29.09-29.72 59.25-54.99 92.19C771.47 603.55 695.5 675 599.31 765.45c-21.26 20-43.25 40.68-66.12 62.39l-4.7 4.44c-9.25 8.75-23.73 8.75-32.98 0l-4.7-4.44c-23.94-22.73-46.89-44.29-69.09-65.14-95.28-89.5-170.54-160.2-221.86-227.26-24.99-32.65-42.77-62.6-54.37-91.57-11.77-29.41-17.5-58.7-17.5-89.54 0-53.3 18.99-102.52 53.48-138.6C215.21 180.44 260.84 161 309.96 161c28.09 0 56.99 6.92 83.57 20 26.52 13.06 50.3 31.99 68.74 54.76l31.08 38.35c9.61 11.85 27.69 11.85 37.29 0l31.08-38.35c18.45-22.76 42.22-41.7 68.74-54.76 26.59-13.08 55.49-20 83.58-20m0-64c-69.28 0-136.56 30.19-185.03 79.44-9.33 9.48-24.69 9.48-34.02 0C446.53 127.19 379.24 97 309.96 97 171.92 97 64 209.91 64 354.33c0 178.56 151.84 300.66 382.74 519.92l48.86 46.2c4.61 4.36 10.5 6.54 16.4 6.54 5.89 0 11.78-2.18 16.4-6.54l48.86-46.2C808.16 654.99 960 531.58 960 354.33 960 209.91 852.08 97 714.04 97z" fill="#ffffff" p-id="1275"></path></svg>