<?xml version="1.0" standalone="no"?><!DOCTYPE svg PUBLIC "-//W3C//DTD SVG 1.1//EN" "http://www.w3.org/Graphics/SVG/1.1/DTD/svg11.dtd"><svg t="1690256126037" class="icon" viewBox="0 0 1024 1024" version="1.1" xmlns="http://www.w3.org/2000/svg" p-id="1425" xmlns:xlink="http://www.w3.org/1999/xlink" width="200" height="200"><path d="M271.66 784.15c0 69.89 105.91 130.73 240.34 130.73 131.8 0 236.19-58.48 240.22-126.63l0.12-4.09h53.07C805.41 883.6 672.38 960 512 960c-157.58 0-288.81-73.8-293.29-170.72l-0.12-5.14h53.07z" fill="#ffffff" p-id="1426"></path><path d="M512 63.67c-176.74 0-320 131.56-320 293.97 0 75.4 49.58 169.71 148.14 284.24l14.79 16.91c7.56 8.53 15.37 17.14 23.45 25.88l16.51 17.62 17.23 17.95c8.79 9.04 17.85 18.16 27.13 27.44l18.96 18.67c28.05 27.29 74.79 28.54 104.46 2.84l3.03-2.81a2424.12 2424.12 0 0 0 37.92-37.7l17.85-18.4 17.17-18.1C767.28 554.64 832 443.78 832 357.61c0-162.35-143.26-293.94-320-293.94z m177.38 470.96c-5.08 6.9-10.41 13.9-15.98 21.03l-11.49 14.41c-3.91 4.84-7.98 9.74-12.13 14.69L637 599.74l-13.46 15.31c-4.59 5.15-9.3 10.33-14.13 15.59l-14.78 15.87c-5.02 5.35-10.16 10.75-15.4 16.18l-16.11 16.47-16.75 16.78L528.94 713c-0.31 0.3-0.63 0.6-0.96 0.88-9.35 8.06-24.09 7.67-32.91-0.88l-8.96-8.75c-5.79-5.66-11.52-11.29-17.06-16.89l-16.44-16.61-15.74-16.32-7.64-8.05-14.78-15.87-7.11-7.82-13.8-15.42c-20.14-22.94-38.09-44.86-53.8-65.78l-10.16-13.79C280.45 459.48 256 402.63 256 357.65c0-129.22 114.61-233.98 256-233.98s256 104.76 256 233.98c0 43.51-22.88 98.12-68.77 163.33l-9.85 13.65z" fill="#ffffff" p-id="1427"></path><path d="M635.99 360.24c-1.06-68.48-57.44-123.13-125.92-122.07-66.98 1.04-121.03 55.09-122.07 122.07-1.06 68.48 53.59 124.85 122.07 125.92 1.28 0.02 2.57 0.02 3.85 0 68.48-1.07 123.13-57.44 122.07-125.92zM510.07 441c-43.55 0-78.85-35.3-78.85-78.85s35.3-78.85 78.85-78.85 78.85 35.3 78.85 78.85S553.62 441 510.07 441z" fill="#ffffff" p-id="1428"></path></svg>